G04 EAGLE Gerber RS-274X export*
G75*
%MOMM*%
%FSLAX34Y34*%
%LPD*%
%INSilkscreen Bottom*%
%IPPOS*%
%AMOC8*
5,1,8,0,0,1.08239X$1,22.5*%
G01*
%ADD10C,0.152400*%
%ADD11C,0.127000*%


D10*
X594400Y205550D02*
X594400Y218250D01*
X588050Y224600D01*
X594400Y230950D01*
X594400Y243650D01*
X588050Y250000D01*
X594400Y205550D02*
X588050Y199200D01*
X588050Y250000D02*
X594400Y256350D01*
X594400Y269050D01*
X588050Y275400D01*
X594400Y281750D02*
X594400Y294450D01*
X594400Y281750D02*
X588050Y275400D01*
X594400Y294450D02*
X588050Y300800D01*
X549950Y300800D01*
X549950Y224600D02*
X543600Y218250D01*
X543600Y243650D02*
X549950Y250000D01*
X543600Y243650D02*
X543600Y230950D01*
X549950Y224600D01*
X549950Y199200D02*
X588050Y199200D01*
X549950Y199200D02*
X543600Y205550D01*
X543600Y218250D01*
X543600Y269050D02*
X549950Y275400D01*
X543600Y269050D02*
X543600Y256350D01*
X549950Y250000D01*
X549950Y275400D02*
X543600Y281750D01*
X543600Y294450D01*
X549950Y300800D01*
D11*
X539165Y211268D02*
X535352Y207455D01*
X539165Y211268D02*
X527725Y211268D01*
X527725Y207455D02*
X527725Y215082D01*
X608378Y288735D02*
X610285Y290642D01*
X610285Y294455D01*
X608378Y296362D01*
X606472Y296362D01*
X604565Y294455D01*
X602658Y296362D01*
X600752Y296362D01*
X598845Y294455D01*
X598845Y290642D01*
X600752Y288735D01*
X602658Y288735D01*
X604565Y290642D01*
X606472Y288735D01*
X608378Y288735D01*
X604565Y290642D02*
X604565Y294455D01*
X600752Y199835D02*
X610285Y199835D01*
X600752Y199835D02*
X598845Y201742D01*
X598845Y205555D01*
X600752Y207462D01*
X610285Y207462D01*
X600752Y211529D02*
X598845Y213436D01*
X598845Y217249D01*
X600752Y219155D01*
X602658Y219155D01*
X604565Y217249D01*
X604565Y213436D01*
X606472Y211529D01*
X608378Y211529D01*
X610285Y213436D01*
X610285Y217249D01*
X608378Y219155D01*
X612191Y215342D02*
X596938Y215342D01*
X598845Y223223D02*
X598845Y230849D01*
X598845Y223223D02*
X606472Y230849D01*
X608378Y230849D01*
X610285Y228943D01*
X610285Y225130D01*
X608378Y223223D01*
M02*
