M48
;GenerationSoftware,Autodesk,EAGLE,9.5.1*%
;CreationDate,2019-11-18T11:32:47Z*%
FMAT,2
ICI,OFF
METRIC,TZ,000.000
T6C0.350
T5C0.800
T4C0.813
T3C1.016
T2C1.100
T1C3.300
%
G90
M71
T1
X4800Y44400
X122400Y44400
X4800Y4800
X122400Y4800
T2
X18260Y44350
X18260Y3910
X14760Y3910
X14760Y44350
X72870Y3910
X69370Y3910
X30960Y3910
X27460Y3910
X44930Y3910
X41430Y3910
X58900Y3910
X55400Y3910
T3
X124730Y28940
X54610Y11430
X57150Y11430
X17780Y11430
X15240Y11430
X12700Y11430
X73660Y11430
X71120Y11430
X68580Y11430
X31750Y11430
X29210Y11430
X26670Y11430
X45720Y11430
X43180Y11430
X1940Y23730
X1940Y26270
X1940Y28810
X1940Y21190
X4480Y28810
X4480Y26270
X4480Y23730
X4480Y21190
X40640Y11430
X44450Y43180
X44450Y38100
X39370Y38100
X39370Y43180
X59690Y11430
X122190Y21320
X122190Y23860
X122190Y26400
X122190Y28940
X124730Y21320
X124730Y23860
X124730Y26400
T4
X25400Y22860
X33020Y22860
X39370Y27940
X39370Y25400
X46990Y25400
X46990Y27940
X39370Y22860
X46990Y22860
X54610Y27940
X54610Y25400
X62230Y25400
X62230Y27940
X62230Y22860
X25400Y27940
X19050Y25400
X11430Y27940
X11430Y25400
X19050Y27940
X11430Y22860
X19050Y22860
X54610Y22860
X68580Y44450
X68580Y41910
X76200Y41910
X76200Y44450
X68580Y39370
X76200Y39370
X69580Y27940
X69580Y25400
X77200Y25400
X77200Y27940
X69580Y22860
X77200Y22860
X25400Y25400
X33020Y25400
X33020Y27940
T5
X97790Y10160
X113030Y7620
X113030Y10160
X113030Y33020
X107950Y39370
X105410Y39370
X102870Y39370
X113030Y22860
X113030Y25400
X113030Y12700
X113030Y30480
X107950Y41910
X105410Y41910
X102870Y41910
X113030Y5080
X97790Y5080
X97790Y35560
X97790Y7620
X113030Y27940
X97790Y40640
X97790Y38100
X97790Y22860
X97790Y33020
X97790Y30480
X97790Y27940
X97790Y25400
X97790Y20320
X97790Y17780
X97790Y15240
X97790Y12700
X113030Y40640
X113030Y38100
X113030Y35560
X113030Y20320
X113030Y17780
X113030Y15240
T6
X117000Y37000
X85090Y22860
X85090Y17780
X85090Y7620
X74000Y34000
X85090Y12700
M30