M48
;GenerationSoftware,Autodesk,EAGLE,9.2.0*%
;CreationDate,2019-11-18T09:38:47Z*%
FMAT,2
ICI,OFF
METRIC,TZ,000.000
T4C0.350
T3C1.000
T2C1.016
T1C3.300
%
G90
M71
T1
X4800Y4800
X55200Y4800
X4800Y45847
X55200Y45200
T2
X55630Y26270
X55630Y23730
X55630Y21190
X1830Y28810
X1830Y26270
X1830Y23730
X15240Y43180
X4370Y28810
X1830Y21190
X4370Y26270
X4370Y23730
X4370Y21190
X55630Y28810
X58170Y21190
X58170Y23730
X58170Y26270
X58170Y28810
X12700Y43180
X17780Y43180
X20320Y43180
X12700Y45720
X15240Y45720
X17780Y45720
X20320Y45720
T3
X37700Y6350
X40200Y11350
X35200Y11350
X11430Y40640
X24130Y40640
X24130Y33020
X12700Y6350
X15200Y11350
X17700Y6350
X22700Y6350
X25200Y11350
X27700Y6350
X30200Y11350
X32700Y6350
X20200Y11350
T4
X24130Y26670
X36830Y19050
X16510Y33020
X13970Y30480
X41910Y30480
X11430Y22860
X21590Y22860
X30480Y22860
X41910Y22860
X25400Y25400
X35560Y19050
M30