solid
 facet normal  0.000000e+00  1.000000e+00 -0.000000e+00
   outer loop
     vertex  1.100000e+00  1.000000e+00  2.200000e+00
     vertex -1.100000e+00  1.000000e+00  1.000000e-01
     vertex -1.100000e+00  1.000000e+00  2.200000e+00
   endloop
 endfacet
 facet normal  0.000000e+00  1.000000e+00 -0.000000e+00
   outer loop
     vertex  1.100000e+00  1.000000e+00  1.000000e-01
     vertex -1.100000e+00  1.000000e+00  1.000000e-01
     vertex  1.100000e+00  1.000000e+00  2.200000e+00
   endloop
 endfacet
 facet normal  1.000000e+00  0.000000e+00  0.000000e+00
   outer loop
     vertex  1.100000e+00 -1.000000e+00  1.000000e-01
     vertex  1.100000e+00  1.000000e+00  1.000000e-01
     vertex  1.100000e+00  1.000000e+00  2.200000e+00
   endloop
 endfacet
 facet normal  1.000000e+00  0.000000e+00 -0.000000e+00
   outer loop
     vertex  1.100000e+00 -1.000000e+00  1.000000e-01
     vertex  1.100000e+00  1.000000e+00  2.200000e+00
     vertex  1.100000e+00 -1.000000e+00  2.200000e+00
   endloop
 endfacet
 facet normal  0.000000e+00 -1.000000e+00  0.000000e+00
   outer loop
     vertex -1.100000e+00 -1.000000e+00  2.200000e+00
     vertex  1.100000e+00 -1.000000e+00  1.000000e-01
     vertex  1.100000e+00 -1.000000e+00  2.200000e+00
   endloop
 endfacet
 facet normal  0.000000e+00 -1.000000e+00  0.000000e+00
   outer loop
     vertex -1.100000e+00 -1.000000e+00  1.000000e-01
     vertex  1.100000e+00 -1.000000e+00  1.000000e-01
     vertex -1.100000e+00 -1.000000e+00  2.200000e+00
   endloop
 endfacet
 facet normal -1.000000e+00  0.000000e+00  0.000000e+00
   outer loop
     vertex -1.100000e+00  1.000000e+00  1.000000e-01
     vertex -1.100000e+00 -1.000000e+00  1.000000e-01
     vertex -1.100000e+00 -1.000000e+00  2.200000e+00
   endloop
 endfacet
 facet normal -1.000000e+00  0.000000e+00  0.000000e+00
   outer loop
     vertex -1.100000e+00  1.000000e+00  1.000000e-01
     vertex -1.100000e+00 -1.000000e+00  2.200000e+00
     vertex -1.100000e+00  1.000000e+00  2.200000e+00
   endloop
 endfacet
 facet normal  0.000000e+00  0.000000e+00 -1.000000e+00
   outer loop
     vertex  1.100000e+00 -1.000000e+00  1.000000e-01
     vertex -1.100000e+00 -1.000000e+00  1.000000e-01
     vertex  1.100000e+00  1.000000e+00  1.000000e-01
   endloop
 endfacet
 facet normal  0.000000e+00  0.000000e+00 -1.000000e+00
   outer loop
     vertex -1.100000e+00 -1.000000e+00  1.000000e-01
     vertex -1.100000e+00  1.000000e+00  1.000000e-01
     vertex  1.100000e+00  1.000000e+00  1.000000e-01
   endloop
 endfacet
 facet normal -0.000000e+00  0.000000e+00  1.000000e+00
   outer loop
     vertex  1.100000e+00  1.000000e+00  2.200000e+00
     vertex -1.100000e+00 -1.000000e+00  2.200000e+00
     vertex  1.100000e+00 -1.000000e+00  2.200000e+00
   endloop
 endfacet
 facet normal  0.000000e+00  0.000000e+00  1.000000e+00
   outer loop
     vertex  1.100000e+00  1.000000e+00  2.200000e+00
     vertex -1.100000e+00  1.000000e+00  2.200000e+00
     vertex -1.100000e+00 -1.000000e+00  2.200000e+00
   endloop
 endfacet
 facet normal -1.000000e+00 -0.000000e+00 -0.000000e+00
   outer loop
     vertex  5.300000e-01 -2.800000e-01  1.000000e-01
     vertex  5.300000e-01 -2.800000e-01  0.000000e+00
     vertex  5.300000e-01 -9.200000e-01  0.000000e+00
   endloop
 endfacet
 facet normal -1.000000e+00 -0.000000e+00  0.000000e+00
   outer loop
     vertex  5.300000e-01 -2.800000e-01  1.000000e-01
     vertex  5.300000e-01 -9.200000e-01  0.000000e+00
     vertex  5.300000e-01 -9.200000e-01  1.000000e-01
   endloop
 endfacet
 facet normal  1.000000e+00  0.000000e+00  0.000000e+00
   outer loop
     vertex  1.020000e+00 -9.200000e-01  0.000000e+00
     vertex  1.020000e+00 -2.800000e-01  0.000000e+00
     vertex  1.020000e+00 -2.800000e-01  1.000000e-01
   endloop
 endfacet
 facet normal  1.000000e+00 -0.000000e+00  0.000000e+00
   outer loop
     vertex  1.020000e+00 -9.200000e-01  1.000000e-01
     vertex  1.020000e+00 -9.200000e-01  0.000000e+00
     vertex  1.020000e+00 -2.800000e-01  1.000000e-01
   endloop
 endfacet
 facet normal  0.000000e+00 -1.000000e+00  0.000000e+00
   outer loop
     vertex  5.300000e-01 -9.200000e-01  0.000000e+00
     vertex  1.020000e+00 -9.200000e-01  0.000000e+00
     vertex  1.020000e+00 -9.200000e-01  1.000000e-01
   endloop
 endfacet
 facet normal  0.000000e+00 -1.000000e+00  0.000000e+00
   outer loop
     vertex  5.300000e-01 -9.200000e-01  1.000000e-01
     vertex  5.300000e-01 -9.200000e-01  0.000000e+00
     vertex  1.020000e+00 -9.200000e-01  1.000000e-01
   endloop
 endfacet
 facet normal  0.000000e+00  1.000000e+00  0.000000e+00
   outer loop
     vertex  1.020000e+00 -2.800000e-01  1.000000e-01
     vertex  1.020000e+00 -2.800000e-01  0.000000e+00
     vertex  5.300000e-01 -2.800000e-01  0.000000e+00
   endloop
 endfacet
 facet normal  0.000000e+00  1.000000e+00 -0.000000e+00
   outer loop
     vertex  1.020000e+00 -2.800000e-01  1.000000e-01
     vertex  5.300000e-01 -2.800000e-01  0.000000e+00
     vertex  5.300000e-01 -2.800000e-01  1.000000e-01
   endloop
 endfacet
 facet normal  0.000000e+00  0.000000e+00 -1.000000e+00
   outer loop
     vertex  5.300000e-01 -9.200000e-01  0.000000e+00
     vertex  5.300000e-01 -2.800000e-01  0.000000e+00
     vertex  1.020000e+00 -2.800000e-01  0.000000e+00
   endloop
 endfacet
 facet normal  0.000000e+00  0.000000e+00 -1.000000e+00
   outer loop
     vertex  1.020000e+00 -9.200000e-01  0.000000e+00
     vertex  5.300000e-01 -9.200000e-01  0.000000e+00
     vertex  1.020000e+00 -2.800000e-01  0.000000e+00
   endloop
 endfacet
 facet normal  0.000000e+00  0.000000e+00  1.000000e+00
   outer loop
     vertex  1.020000e+00 -2.800000e-01  1.000000e-01
     vertex  5.300000e-01 -2.800000e-01  1.000000e-01
     vertex  5.300000e-01 -9.200000e-01  1.000000e-01
   endloop
 endfacet
 facet normal -0.000000e+00  0.000000e+00  1.000000e+00
   outer loop
     vertex  1.020000e+00 -2.800000e-01  1.000000e-01
     vertex  5.300000e-01 -9.200000e-01  1.000000e-01
     vertex  1.020000e+00 -9.200000e-01  1.000000e-01
   endloop
 endfacet
 facet normal -1.000000e+00 -0.000000e+00 -0.000000e+00
   outer loop
     vertex  5.300000e-01  9.200000e-01  1.000000e-01
     vertex  5.300000e-01  9.200000e-01  0.000000e+00
     vertex  5.300000e-01  2.800000e-01  0.000000e+00
   endloop
 endfacet
 facet normal -1.000000e+00 -0.000000e+00  0.000000e+00
   outer loop
     vertex  5.300000e-01  9.200000e-01  1.000000e-01
     vertex  5.300000e-01  2.800000e-01  0.000000e+00
     vertex  5.300000e-01  2.800000e-01  1.000000e-01
   endloop
 endfacet
 facet normal  1.000000e+00  0.000000e+00  0.000000e+00
   outer loop
     vertex  1.020000e+00  2.800000e-01  0.000000e+00
     vertex  1.020000e+00  9.200000e-01  0.000000e+00
     vertex  1.020000e+00  9.200000e-01  1.000000e-01
   endloop
 endfacet
 facet normal  1.000000e+00 -0.000000e+00  0.000000e+00
   outer loop
     vertex  1.020000e+00  2.800000e-01  1.000000e-01
     vertex  1.020000e+00  2.800000e-01  0.000000e+00
     vertex  1.020000e+00  9.200000e-01  1.000000e-01
   endloop
 endfacet
 facet normal  0.000000e+00 -1.000000e+00  0.000000e+00
   outer loop
     vertex  5.300000e-01  2.800000e-01  0.000000e+00
     vertex  1.020000e+00  2.800000e-01  0.000000e+00
     vertex  1.020000e+00  2.800000e-01  1.000000e-01
   endloop
 endfacet
 facet normal  0.000000e+00 -1.000000e+00  0.000000e+00
   outer loop
     vertex  5.300000e-01  2.800000e-01  1.000000e-01
     vertex  5.300000e-01  2.800000e-01  0.000000e+00
     vertex  1.020000e+00  2.800000e-01  1.000000e-01
   endloop
 endfacet
 facet normal  0.000000e+00  1.000000e+00  0.000000e+00
   outer loop
     vertex  1.020000e+00  9.200000e-01  1.000000e-01
     vertex  1.020000e+00  9.200000e-01  0.000000e+00
     vertex  5.300000e-01  9.200000e-01  0.000000e+00
   endloop
 endfacet
 facet normal  0.000000e+00  1.000000e+00 -0.000000e+00
   outer loop
     vertex  1.020000e+00  9.200000e-01  1.000000e-01
     vertex  5.300000e-01  9.200000e-01  0.000000e+00
     vertex  5.300000e-01  9.200000e-01  1.000000e-01
   endloop
 endfacet
 facet normal  0.000000e+00  0.000000e+00 -1.000000e+00
   outer loop
     vertex  5.300000e-01  2.800000e-01  0.000000e+00
     vertex  5.300000e-01  9.200000e-01  0.000000e+00
     vertex  1.020000e+00  9.200000e-01  0.000000e+00
   endloop
 endfacet
 facet normal  0.000000e+00  0.000000e+00 -1.000000e+00
   outer loop
     vertex  1.020000e+00  2.800000e-01  0.000000e+00
     vertex  5.300000e-01  2.800000e-01  0.000000e+00
     vertex  1.020000e+00  9.200000e-01  0.000000e+00
   endloop
 endfacet
 facet normal  0.000000e+00  0.000000e+00  1.000000e+00
   outer loop
     vertex  1.020000e+00  9.200000e-01  1.000000e-01
     vertex  5.300000e-01  9.200000e-01  1.000000e-01
     vertex  5.300000e-01  2.800000e-01  1.000000e-01
   endloop
 endfacet
 facet normal -0.000000e+00  0.000000e+00  1.000000e+00
   outer loop
     vertex  1.020000e+00  9.200000e-01  1.000000e-01
     vertex  5.300000e-01  2.800000e-01  1.000000e-01
     vertex  1.020000e+00  2.800000e-01  1.000000e-01
   endloop
 endfacet
 facet normal -1.000000e+00 -0.000000e+00 -0.000000e+00
   outer loop
     vertex -1.020000e+00  9.200000e-01  1.000000e-01
     vertex -1.020000e+00  9.200000e-01  0.000000e+00
     vertex -1.020000e+00  2.800000e-01  0.000000e+00
   endloop
 endfacet
 facet normal -1.000000e+00 -0.000000e+00  0.000000e+00
   outer loop
     vertex -1.020000e+00  9.200000e-01  1.000000e-01
     vertex -1.020000e+00  2.800000e-01  0.000000e+00
     vertex -1.020000e+00  2.800000e-01  1.000000e-01
   endloop
 endfacet
 facet normal  1.000000e+00  0.000000e+00  0.000000e+00
   outer loop
     vertex -5.300000e-01  2.800000e-01  0.000000e+00
     vertex -5.300000e-01  9.200000e-01  0.000000e+00
     vertex -5.300000e-01  9.200000e-01  1.000000e-01
   endloop
 endfacet
 facet normal  1.000000e+00 -0.000000e+00  0.000000e+00
   outer loop
     vertex -5.300000e-01  2.800000e-01  1.000000e-01
     vertex -5.300000e-01  2.800000e-01  0.000000e+00
     vertex -5.300000e-01  9.200000e-01  1.000000e-01
   endloop
 endfacet
 facet normal  0.000000e+00 -1.000000e+00  0.000000e+00
   outer loop
     vertex -1.020000e+00  2.800000e-01  1.000000e-01
     vertex -1.020000e+00  2.800000e-01  0.000000e+00
     vertex -5.300000e-01  2.800000e-01  0.000000e+00
   endloop
 endfacet
 facet normal  0.000000e+00 -1.000000e+00  0.000000e+00
   outer loop
     vertex -1.020000e+00  2.800000e-01  1.000000e-01
     vertex -5.300000e-01  2.800000e-01  0.000000e+00
     vertex -5.300000e-01  2.800000e-01  1.000000e-01
   endloop
 endfacet
 facet normal  0.000000e+00  1.000000e+00 -0.000000e+00
   outer loop
     vertex -5.300000e-01  9.200000e-01  0.000000e+00
     vertex -1.020000e+00  9.200000e-01  0.000000e+00
     vertex -1.020000e+00  9.200000e-01  1.000000e-01
   endloop
 endfacet
 facet normal  0.000000e+00  1.000000e+00  0.000000e+00
   outer loop
     vertex -5.300000e-01  9.200000e-01  1.000000e-01
     vertex -5.300000e-01  9.200000e-01  0.000000e+00
     vertex -1.020000e+00  9.200000e-01  1.000000e-01
   endloop
 endfacet
 facet normal  0.000000e+00  0.000000e+00 -1.000000e+00
   outer loop
     vertex -1.020000e+00  2.800000e-01  0.000000e+00
     vertex -1.020000e+00  9.200000e-01  0.000000e+00
     vertex -5.300000e-01  9.200000e-01  0.000000e+00
   endloop
 endfacet
 facet normal  0.000000e+00  0.000000e+00 -1.000000e+00
   outer loop
     vertex -5.300000e-01  2.800000e-01  0.000000e+00
     vertex -1.020000e+00  2.800000e-01  0.000000e+00
     vertex -5.300000e-01  9.200000e-01  0.000000e+00
   endloop
 endfacet
 facet normal  0.000000e+00  0.000000e+00  1.000000e+00
   outer loop
     vertex -5.300000e-01  9.200000e-01  1.000000e-01
     vertex -1.020000e+00  9.200000e-01  1.000000e-01
     vertex -1.020000e+00  2.800000e-01  1.000000e-01
   endloop
 endfacet
 facet normal -0.000000e+00  0.000000e+00  1.000000e+00
   outer loop
     vertex -5.300000e-01  9.200000e-01  1.000000e-01
     vertex -1.020000e+00  2.800000e-01  1.000000e-01
     vertex -5.300000e-01  2.800000e-01  1.000000e-01
   endloop
 endfacet
 facet normal -1.000000e+00 -0.000000e+00 -0.000000e+00
   outer loop
     vertex -1.020000e+00 -2.800000e-01  1.000000e-01
     vertex -1.020000e+00 -2.800000e-01  0.000000e+00
     vertex -1.020000e+00 -9.200000e-01  0.000000e+00
   endloop
 endfacet
 facet normal -1.000000e+00 -0.000000e+00  0.000000e+00
   outer loop
     vertex -1.020000e+00 -2.800000e-01  1.000000e-01
     vertex -1.020000e+00 -9.200000e-01  0.000000e+00
     vertex -1.020000e+00 -9.200000e-01  1.000000e-01
   endloop
 endfacet
 facet normal  1.000000e+00  0.000000e+00  0.000000e+00
   outer loop
     vertex -5.300000e-01 -9.200000e-01  0.000000e+00
     vertex -5.300000e-01 -2.800000e-01  0.000000e+00
     vertex -5.300000e-01 -2.800000e-01  1.000000e-01
   endloop
 endfacet
 facet normal  1.000000e+00 -0.000000e+00  0.000000e+00
   outer loop
     vertex -5.300000e-01 -9.200000e-01  1.000000e-01
     vertex -5.300000e-01 -9.200000e-01  0.000000e+00
     vertex -5.300000e-01 -2.800000e-01  1.000000e-01
   endloop
 endfacet
 facet normal  0.000000e+00 -1.000000e+00  0.000000e+00
   outer loop
     vertex -1.020000e+00 -9.200000e-01  1.000000e-01
     vertex -1.020000e+00 -9.200000e-01  0.000000e+00
     vertex -5.300000e-01 -9.200000e-01  0.000000e+00
   endloop
 endfacet
 facet normal  0.000000e+00 -1.000000e+00  0.000000e+00
   outer loop
     vertex -1.020000e+00 -9.200000e-01  1.000000e-01
     vertex -5.300000e-01 -9.200000e-01  0.000000e+00
     vertex -5.300000e-01 -9.200000e-01  1.000000e-01
   endloop
 endfacet
 facet normal  0.000000e+00  1.000000e+00 -0.000000e+00
   outer loop
     vertex -5.300000e-01 -2.800000e-01  0.000000e+00
     vertex -1.020000e+00 -2.800000e-01  0.000000e+00
     vertex -1.020000e+00 -2.800000e-01  1.000000e-01
   endloop
 endfacet
 facet normal  0.000000e+00  1.000000e+00  0.000000e+00
   outer loop
     vertex -5.300000e-01 -2.800000e-01  1.000000e-01
     vertex -5.300000e-01 -2.800000e-01  0.000000e+00
     vertex -1.020000e+00 -2.800000e-01  1.000000e-01
   endloop
 endfacet
 facet normal  0.000000e+00  0.000000e+00 -1.000000e+00
   outer loop
     vertex -1.020000e+00 -9.200000e-01  0.000000e+00
     vertex -1.020000e+00 -2.800000e-01  0.000000e+00
     vertex -5.300000e-01 -2.800000e-01  0.000000e+00
   endloop
 endfacet
 facet normal  0.000000e+00  0.000000e+00 -1.000000e+00
   outer loop
     vertex -5.300000e-01 -9.200000e-01  0.000000e+00
     vertex -1.020000e+00 -9.200000e-01  0.000000e+00
     vertex -5.300000e-01 -2.800000e-01  0.000000e+00
   endloop
 endfacet
 facet normal  0.000000e+00  0.000000e+00  1.000000e+00
   outer loop
     vertex -5.300000e-01 -2.800000e-01  1.000000e-01
     vertex -1.020000e+00 -2.800000e-01  1.000000e-01
     vertex -1.020000e+00 -9.200000e-01  1.000000e-01
   endloop
 endfacet
 facet normal -0.000000e+00  0.000000e+00  1.000000e+00
   outer loop
     vertex -5.300000e-01 -2.800000e-01  1.000000e-01
     vertex -1.020000e+00 -9.200000e-01  1.000000e-01
     vertex -5.300000e-01 -9.200000e-01  1.000000e-01
   endloop
 endfacet
endsolid
