solid
 facet normal  0.000000e+00  1.000000e+00 -0.000000e+00
   outer loop
     vertex  3.000000e+00  3.000000e+00  1.000000e-01
     vertex -3.000000e+00  3.000000e+00  1.000000e-01
     vertex -3.000000e+00  3.000000e+00  7.400000e+00
   endloop
 endfacet
 facet normal  0.000000e+00  1.000000e+00 -0.000000e+00
   outer loop
     vertex  3.000000e+00  3.000000e+00  1.000000e-01
     vertex -3.000000e+00  3.000000e+00  7.400000e+00
     vertex  3.000000e+00  3.000000e+00  7.400000e+00
   endloop
 endfacet
 facet normal  1.000000e+00  0.000000e+00  0.000000e+00
   outer loop
     vertex  3.000000e+00 -3.000000e+00  1.000000e-01
     vertex  3.000000e+00  3.000000e+00  1.000000e-01
     vertex  3.000000e+00  3.000000e+00  7.400000e+00
   endloop
 endfacet
 facet normal  1.000000e+00  0.000000e+00 -0.000000e+00
   outer loop
     vertex  3.000000e+00 -3.000000e+00  1.000000e-01
     vertex  3.000000e+00  3.000000e+00  7.400000e+00
     vertex  3.000000e+00 -3.000000e+00  7.400000e+00
   endloop
 endfacet
 facet normal  0.000000e+00 -1.000000e+00  0.000000e+00
   outer loop
     vertex -3.000000e+00 -3.000000e+00  1.000000e-01
     vertex  3.000000e+00 -3.000000e+00  1.000000e-01
     vertex  3.000000e+00 -3.000000e+00  7.400000e+00
   endloop
 endfacet
 facet normal  0.000000e+00 -1.000000e+00  0.000000e+00
   outer loop
     vertex -3.000000e+00 -3.000000e+00  1.000000e-01
     vertex  3.000000e+00 -3.000000e+00  7.400000e+00
     vertex -3.000000e+00 -3.000000e+00  7.400000e+00
   endloop
 endfacet
 facet normal -1.000000e+00  0.000000e+00  0.000000e+00
   outer loop
     vertex -3.000000e+00  3.000000e+00  1.000000e-01
     vertex -3.000000e+00 -3.000000e+00  1.000000e-01
     vertex -3.000000e+00 -3.000000e+00  7.400000e+00
   endloop
 endfacet
 facet normal -1.000000e+00  0.000000e+00  0.000000e+00
   outer loop
     vertex -3.000000e+00  3.000000e+00  1.000000e-01
     vertex -3.000000e+00 -3.000000e+00  7.400000e+00
     vertex -3.000000e+00  3.000000e+00  7.400000e+00
   endloop
 endfacet
 facet normal  0.000000e+00  0.000000e+00 -1.000000e+00
   outer loop
     vertex  3.000000e+00 -3.000000e+00  1.000000e-01
     vertex -3.000000e+00 -3.000000e+00  1.000000e-01
     vertex  3.000000e+00  3.000000e+00  1.000000e-01
   endloop
 endfacet
 facet normal  0.000000e+00  0.000000e+00 -1.000000e+00
   outer loop
     vertex -3.000000e+00 -3.000000e+00  1.000000e-01
     vertex -3.000000e+00  3.000000e+00  1.000000e-01
     vertex  3.000000e+00  3.000000e+00  1.000000e-01
   endloop
 endfacet
 facet normal -0.000000e+00  0.000000e+00  1.000000e+00
   outer loop
     vertex  3.000000e+00  3.000000e+00  7.400000e+00
     vertex -3.000000e+00 -3.000000e+00  7.400000e+00
     vertex  3.000000e+00 -3.000000e+00  7.400000e+00
   endloop
 endfacet
 facet normal  0.000000e+00  0.000000e+00  1.000000e+00
   outer loop
     vertex  3.000000e+00  3.000000e+00  7.400000e+00
     vertex -3.000000e+00  3.000000e+00  7.400000e+00
     vertex -3.000000e+00 -3.000000e+00  7.400000e+00
   endloop
 endfacet
 facet normal -1.000000e+00 -0.000000e+00 -0.000000e+00
   outer loop
     vertex -3.910000e+00  2.810000e+00  1.000000e-01
     vertex -3.910000e+00  2.810000e+00  0.000000e+00
     vertex -3.910000e+00  1.690000e+00  0.000000e+00
   endloop
 endfacet
 facet normal -1.000000e+00 -0.000000e+00  0.000000e+00
   outer loop
     vertex -3.910000e+00  2.810000e+00  1.000000e-01
     vertex -3.910000e+00  1.690000e+00  0.000000e+00
     vertex -3.910000e+00  1.690000e+00  1.000000e-01
   endloop
 endfacet
 facet normal  1.000000e+00  0.000000e+00  0.000000e+00
   outer loop
     vertex -2.090000e+00  1.690000e+00  0.000000e+00
     vertex -2.090000e+00  2.810000e+00  0.000000e+00
     vertex -2.090000e+00  2.810000e+00  1.000000e-01
   endloop
 endfacet
 facet normal  1.000000e+00 -0.000000e+00  0.000000e+00
   outer loop
     vertex -2.090000e+00  1.690000e+00  1.000000e-01
     vertex -2.090000e+00  1.690000e+00  0.000000e+00
     vertex -2.090000e+00  2.810000e+00  1.000000e-01
   endloop
 endfacet
 facet normal  0.000000e+00 -1.000000e+00  0.000000e+00
   outer loop
     vertex -3.910000e+00  1.690000e+00  0.000000e+00
     vertex -2.090000e+00  1.690000e+00  0.000000e+00
     vertex -2.090000e+00  1.690000e+00  1.000000e-01
   endloop
 endfacet
 facet normal  0.000000e+00 -1.000000e+00  0.000000e+00
   outer loop
     vertex -3.910000e+00  1.690000e+00  1.000000e-01
     vertex -3.910000e+00  1.690000e+00  0.000000e+00
     vertex -2.090000e+00  1.690000e+00  1.000000e-01
   endloop
 endfacet
 facet normal  0.000000e+00  1.000000e+00  0.000000e+00
   outer loop
     vertex -2.090000e+00  2.810000e+00  1.000000e-01
     vertex -2.090000e+00  2.810000e+00  0.000000e+00
     vertex -3.910000e+00  2.810000e+00  0.000000e+00
   endloop
 endfacet
 facet normal  0.000000e+00  1.000000e+00 -0.000000e+00
   outer loop
     vertex -2.090000e+00  2.810000e+00  1.000000e-01
     vertex -3.910000e+00  2.810000e+00  0.000000e+00
     vertex -3.910000e+00  2.810000e+00  1.000000e-01
   endloop
 endfacet
 facet normal  0.000000e+00  0.000000e+00 -1.000000e+00
   outer loop
     vertex -3.910000e+00  1.690000e+00  0.000000e+00
     vertex -3.910000e+00  2.810000e+00  0.000000e+00
     vertex -2.090000e+00  1.690000e+00  0.000000e+00
   endloop
 endfacet
 facet normal  0.000000e+00  0.000000e+00 -1.000000e+00
   outer loop
     vertex -2.090000e+00  1.690000e+00  0.000000e+00
     vertex -3.910000e+00  2.810000e+00  0.000000e+00
     vertex -2.090000e+00  2.810000e+00  0.000000e+00
   endloop
 endfacet
 facet normal  0.000000e+00  0.000000e+00  1.000000e+00
   outer loop
     vertex -2.090000e+00  1.690000e+00  1.000000e-01
     vertex -3.910000e+00  2.810000e+00  1.000000e-01
     vertex -3.910000e+00  1.690000e+00  1.000000e-01
   endloop
 endfacet
 facet normal  0.000000e+00  0.000000e+00  1.000000e+00
   outer loop
     vertex -2.090000e+00  2.810000e+00  1.000000e-01
     vertex -3.910000e+00  2.810000e+00  1.000000e-01
     vertex -2.090000e+00  1.690000e+00  1.000000e-01
   endloop
 endfacet
 facet normal -1.000000e+00 -0.000000e+00 -0.000000e+00
   outer loop
     vertex  2.090000e+00  2.810000e+00  1.000000e-01
     vertex  2.090000e+00  2.810000e+00  0.000000e+00
     vertex  2.090000e+00  1.690000e+00  0.000000e+00
   endloop
 endfacet
 facet normal -1.000000e+00 -0.000000e+00  0.000000e+00
   outer loop
     vertex  2.090000e+00  2.810000e+00  1.000000e-01
     vertex  2.090000e+00  1.690000e+00  0.000000e+00
     vertex  2.090000e+00  1.690000e+00  1.000000e-01
   endloop
 endfacet
 facet normal  1.000000e+00  0.000000e+00  0.000000e+00
   outer loop
     vertex  3.910000e+00  1.690000e+00  0.000000e+00
     vertex  3.910000e+00  2.810000e+00  0.000000e+00
     vertex  3.910000e+00  2.810000e+00  1.000000e-01
   endloop
 endfacet
 facet normal  1.000000e+00 -0.000000e+00  0.000000e+00
   outer loop
     vertex  3.910000e+00  1.690000e+00  1.000000e-01
     vertex  3.910000e+00  1.690000e+00  0.000000e+00
     vertex  3.910000e+00  2.810000e+00  1.000000e-01
   endloop
 endfacet
 facet normal  0.000000e+00 -1.000000e+00  0.000000e+00
   outer loop
     vertex  2.090000e+00  1.690000e+00  0.000000e+00
     vertex  3.910000e+00  1.690000e+00  0.000000e+00
     vertex  3.910000e+00  1.690000e+00  1.000000e-01
   endloop
 endfacet
 facet normal  0.000000e+00 -1.000000e+00  0.000000e+00
   outer loop
     vertex  2.090000e+00  1.690000e+00  1.000000e-01
     vertex  2.090000e+00  1.690000e+00  0.000000e+00
     vertex  3.910000e+00  1.690000e+00  1.000000e-01
   endloop
 endfacet
 facet normal  0.000000e+00  1.000000e+00  0.000000e+00
   outer loop
     vertex  3.910000e+00  2.810000e+00  1.000000e-01
     vertex  3.910000e+00  2.810000e+00  0.000000e+00
     vertex  2.090000e+00  2.810000e+00  0.000000e+00
   endloop
 endfacet
 facet normal  0.000000e+00  1.000000e+00 -0.000000e+00
   outer loop
     vertex  3.910000e+00  2.810000e+00  1.000000e-01
     vertex  2.090000e+00  2.810000e+00  0.000000e+00
     vertex  2.090000e+00  2.810000e+00  1.000000e-01
   endloop
 endfacet
 facet normal  0.000000e+00  0.000000e+00 -1.000000e+00
   outer loop
     vertex  2.090000e+00  1.690000e+00  0.000000e+00
     vertex  2.090000e+00  2.810000e+00  0.000000e+00
     vertex  3.910000e+00  1.690000e+00  0.000000e+00
   endloop
 endfacet
 facet normal  0.000000e+00  0.000000e+00 -1.000000e+00
   outer loop
     vertex  3.910000e+00  1.690000e+00  0.000000e+00
     vertex  2.090000e+00  2.810000e+00  0.000000e+00
     vertex  3.910000e+00  2.810000e+00  0.000000e+00
   endloop
 endfacet
 facet normal  0.000000e+00  0.000000e+00  1.000000e+00
   outer loop
     vertex  3.910000e+00  1.690000e+00  1.000000e-01
     vertex  2.090000e+00  2.810000e+00  1.000000e-01
     vertex  2.090000e+00  1.690000e+00  1.000000e-01
   endloop
 endfacet
 facet normal  0.000000e+00  0.000000e+00  1.000000e+00
   outer loop
     vertex  3.910000e+00  2.810000e+00  1.000000e-01
     vertex  2.090000e+00  2.810000e+00  1.000000e-01
     vertex  3.910000e+00  1.690000e+00  1.000000e-01
   endloop
 endfacet
 facet normal -1.000000e+00 -0.000000e+00 -0.000000e+00
   outer loop
     vertex -3.910000e+00 -1.690000e+00  1.000000e-01
     vertex -3.910000e+00 -1.690000e+00  0.000000e+00
     vertex -3.910000e+00 -2.810000e+00  1.000000e-01
   endloop
 endfacet
 facet normal -1.000000e+00  0.000000e+00  0.000000e+00
   outer loop
     vertex -3.910000e+00 -1.690000e+00  0.000000e+00
     vertex -3.910000e+00 -2.810000e+00  0.000000e+00
     vertex -3.910000e+00 -2.810000e+00  1.000000e-01
   endloop
 endfacet
 facet normal  1.000000e+00 -0.000000e+00  0.000000e+00
   outer loop
     vertex -2.090000e+00 -2.810000e+00  1.000000e-01
     vertex -2.090000e+00 -1.690000e+00  0.000000e+00
     vertex -2.090000e+00 -1.690000e+00  1.000000e-01
   endloop
 endfacet
 facet normal  1.000000e+00 -0.000000e+00  0.000000e+00
   outer loop
     vertex -2.090000e+00 -2.810000e+00  1.000000e-01
     vertex -2.090000e+00 -2.810000e+00  0.000000e+00
     vertex -2.090000e+00 -1.690000e+00  0.000000e+00
   endloop
 endfacet
 facet normal  0.000000e+00 -1.000000e+00  0.000000e+00
   outer loop
     vertex -3.910000e+00 -2.810000e+00  0.000000e+00
     vertex -2.090000e+00 -2.810000e+00  0.000000e+00
     vertex -2.090000e+00 -2.810000e+00  1.000000e-01
   endloop
 endfacet
 facet normal  0.000000e+00 -1.000000e+00  0.000000e+00
   outer loop
     vertex -3.910000e+00 -2.810000e+00  1.000000e-01
     vertex -3.910000e+00 -2.810000e+00  0.000000e+00
     vertex -2.090000e+00 -2.810000e+00  1.000000e-01
   endloop
 endfacet
 facet normal  0.000000e+00  1.000000e+00  0.000000e+00
   outer loop
     vertex -2.090000e+00 -1.690000e+00  1.000000e-01
     vertex -2.090000e+00 -1.690000e+00  0.000000e+00
     vertex -3.910000e+00 -1.690000e+00  0.000000e+00
   endloop
 endfacet
 facet normal  0.000000e+00  1.000000e+00 -0.000000e+00
   outer loop
     vertex -2.090000e+00 -1.690000e+00  1.000000e-01
     vertex -3.910000e+00 -1.690000e+00  0.000000e+00
     vertex -3.910000e+00 -1.690000e+00  1.000000e-01
   endloop
 endfacet
 facet normal  0.000000e+00  0.000000e+00 -1.000000e+00
   outer loop
     vertex -3.910000e+00 -2.810000e+00  0.000000e+00
     vertex -3.910000e+00 -1.690000e+00  0.000000e+00
     vertex -2.090000e+00 -2.810000e+00  0.000000e+00
   endloop
 endfacet
 facet normal  0.000000e+00  0.000000e+00 -1.000000e+00
   outer loop
     vertex -2.090000e+00 -2.810000e+00  0.000000e+00
     vertex -3.910000e+00 -1.690000e+00  0.000000e+00
     vertex -2.090000e+00 -1.690000e+00  0.000000e+00
   endloop
 endfacet
 facet normal  0.000000e+00  0.000000e+00  1.000000e+00
   outer loop
     vertex -2.090000e+00 -2.810000e+00  1.000000e-01
     vertex -3.910000e+00 -1.690000e+00  1.000000e-01
     vertex -3.910000e+00 -2.810000e+00  1.000000e-01
   endloop
 endfacet
 facet normal  0.000000e+00  0.000000e+00  1.000000e+00
   outer loop
     vertex -2.090000e+00 -1.690000e+00  1.000000e-01
     vertex -3.910000e+00 -1.690000e+00  1.000000e-01
     vertex -2.090000e+00 -2.810000e+00  1.000000e-01
   endloop
 endfacet
 facet normal -1.000000e+00 -0.000000e+00 -0.000000e+00
   outer loop
     vertex  2.090000e+00 -1.690000e+00  1.000000e-01
     vertex  2.090000e+00 -1.690000e+00  0.000000e+00
     vertex  2.090000e+00 -2.810000e+00  1.000000e-01
   endloop
 endfacet
 facet normal -1.000000e+00  0.000000e+00  0.000000e+00
   outer loop
     vertex  2.090000e+00 -1.690000e+00  0.000000e+00
     vertex  2.090000e+00 -2.810000e+00  0.000000e+00
     vertex  2.090000e+00 -2.810000e+00  1.000000e-01
   endloop
 endfacet
 facet normal  1.000000e+00 -0.000000e+00  0.000000e+00
   outer loop
     vertex  3.910000e+00 -2.810000e+00  1.000000e-01
     vertex  3.910000e+00 -1.690000e+00  0.000000e+00
     vertex  3.910000e+00 -1.690000e+00  1.000000e-01
   endloop
 endfacet
 facet normal  1.000000e+00 -0.000000e+00  0.000000e+00
   outer loop
     vertex  3.910000e+00 -2.810000e+00  1.000000e-01
     vertex  3.910000e+00 -2.810000e+00  0.000000e+00
     vertex  3.910000e+00 -1.690000e+00  0.000000e+00
   endloop
 endfacet
 facet normal  0.000000e+00 -1.000000e+00  0.000000e+00
   outer loop
     vertex  2.090000e+00 -2.810000e+00  0.000000e+00
     vertex  3.910000e+00 -2.810000e+00  0.000000e+00
     vertex  3.910000e+00 -2.810000e+00  1.000000e-01
   endloop
 endfacet
 facet normal  0.000000e+00 -1.000000e+00  0.000000e+00
   outer loop
     vertex  2.090000e+00 -2.810000e+00  1.000000e-01
     vertex  2.090000e+00 -2.810000e+00  0.000000e+00
     vertex  3.910000e+00 -2.810000e+00  1.000000e-01
   endloop
 endfacet
 facet normal  0.000000e+00  1.000000e+00  0.000000e+00
   outer loop
     vertex  3.910000e+00 -1.690000e+00  1.000000e-01
     vertex  3.910000e+00 -1.690000e+00  0.000000e+00
     vertex  2.090000e+00 -1.690000e+00  0.000000e+00
   endloop
 endfacet
 facet normal  0.000000e+00  1.000000e+00 -0.000000e+00
   outer loop
     vertex  3.910000e+00 -1.690000e+00  1.000000e-01
     vertex  2.090000e+00 -1.690000e+00  0.000000e+00
     vertex  2.090000e+00 -1.690000e+00  1.000000e-01
   endloop
 endfacet
 facet normal  0.000000e+00  0.000000e+00 -1.000000e+00
   outer loop
     vertex  2.090000e+00 -2.810000e+00  0.000000e+00
     vertex  2.090000e+00 -1.690000e+00  0.000000e+00
     vertex  3.910000e+00 -2.810000e+00  0.000000e+00
   endloop
 endfacet
 facet normal  0.000000e+00  0.000000e+00 -1.000000e+00
   outer loop
     vertex  3.910000e+00 -2.810000e+00  0.000000e+00
     vertex  2.090000e+00 -1.690000e+00  0.000000e+00
     vertex  3.910000e+00 -1.690000e+00  0.000000e+00
   endloop
 endfacet
 facet normal  0.000000e+00  0.000000e+00  1.000000e+00
   outer loop
     vertex  3.910000e+00 -2.810000e+00  1.000000e-01
     vertex  2.090000e+00 -1.690000e+00  1.000000e-01
     vertex  2.090000e+00 -2.810000e+00  1.000000e-01
   endloop
 endfacet
 facet normal  0.000000e+00  0.000000e+00  1.000000e+00
   outer loop
     vertex  3.910000e+00 -1.690000e+00  1.000000e-01
     vertex  2.090000e+00 -1.690000e+00  1.000000e-01
     vertex  3.910000e+00 -2.810000e+00  1.000000e-01
   endloop
 endfacet
endsolid
