M48
;GenerationSoftware,Autodesk,EAGLE,9.5.1*%
;CreationDate,2019-11-18T09:40:21Z*%
FMAT,2
ICI,OFF
METRIC,TZ,000.000
T6C0.350
T5C0.813
T4C0.914
T3C1.000
T2C1.016
T1C3.300
%
G90
M71
T1
X4800Y45200
X99200Y45200
X99200Y4800
X4800Y4800
T2
X102170Y28810
X102170Y26270
X102170Y23730
X102170Y21190
X99630Y28810
X99630Y26270
X99630Y23730
X99630Y21190
X1830Y28810
X1830Y26270
X1830Y23730
X1830Y21190
X4370Y28810
X4370Y26270
X4370Y23730
X4370Y21190
T3
X44710Y5700
X39710Y3230
T4
X83040Y38800
X80500Y36260
X80500Y38800
X77960Y36260
X75420Y36260
X75420Y38800
X72880Y36260
X72880Y38800
X83040Y36260
X77960Y38800
X85580Y38800
X85580Y36260
X88120Y38800
X88120Y36260
X39860Y38800
X39860Y36260
X42400Y38800
X42400Y36260
X44940Y38800
X44940Y36260
X47480Y38800
X47480Y36260
X50020Y38800
X50020Y36260
X52560Y38800
X52560Y36260
X55100Y38800
X55100Y36260
X57640Y38800
X57640Y36260
X60180Y38800
X60180Y36260
X62720Y38800
X62720Y36260
X65260Y38800
X65260Y36260
X67800Y38800
X67800Y36260
X70340Y38800
X70340Y36260
T5
X88120Y43930
X75220Y47550
X85580Y43930
X83040Y43930
X80500Y43930
X77960Y43930
X75420Y43930
X72880Y43930
X70340Y43930
X67800Y43930
X65260Y43930
X62720Y43930
X60180Y43930
X57640Y43930
X55100Y43930
X52560Y43930
X50020Y43930
X47480Y43930
X44940Y43930
X42400Y43930
X39860Y43930
X39660Y47550
X42200Y47550
X44740Y47550
X47280Y47550
X49820Y47550
X52360Y47550
X54900Y47550
X57440Y47550
X59980Y47550
X87920Y47550
X85380Y47550
X82840Y47550
X80300Y47550
X77760Y47550
X62520Y47550
X72680Y47550
X70140Y47550
X67600Y47550
X65060Y47550
T6
X23300Y40100
X22000Y45000
X18000Y39000
X19000Y39000
X20900Y43600
X20000Y39000
X20100Y19800
X19100Y19800
X18100Y19800
X17700Y11700
X18700Y11700
X19700Y11700
X10400Y7000
X11800Y7000
X11800Y6000
X10400Y6000
X22300Y8700
X21400Y8700
X23200Y12100
X24100Y12100
X10300Y30600
X11500Y30600
X11500Y29600
X10300Y29600
X24200Y39200
X24200Y40100
X23300Y39200
X22400Y36250
X21500Y36250
X22000Y46000
M30