G04 EAGLE Gerber RS-274X export*
G75*
%MOMM*%
%FSLAX34Y34*%
%LPD*%
%IN*%
%IPPOS*%
%AMOC8*
5,1,8,0,0,1.08239X$1,22.5*%
G01*
%ADD10C,0.254000*%


D10*
X0Y0D02*
X1269800Y0D01*
X1269500Y497700D01*
X0Y498700D01*
X0Y0D01*
X64500Y443460D02*
X64429Y442382D01*
X64288Y441311D01*
X64078Y440251D01*
X63798Y439208D01*
X63451Y438185D01*
X63037Y437187D01*
X62560Y436218D01*
X62019Y435282D01*
X61419Y434384D01*
X60762Y433527D01*
X60049Y432715D01*
X59285Y431951D01*
X58473Y431239D01*
X57616Y430581D01*
X56718Y429981D01*
X55782Y429441D01*
X54813Y428963D01*
X53815Y428549D01*
X52792Y428202D01*
X51749Y427922D01*
X50689Y427712D01*
X49618Y427571D01*
X48540Y427500D01*
X47460Y427500D01*
X46382Y427571D01*
X45311Y427712D01*
X44251Y427922D01*
X43208Y428202D01*
X42185Y428549D01*
X41187Y428963D01*
X40218Y429441D01*
X39282Y429981D01*
X38384Y430581D01*
X37527Y431239D01*
X36715Y431951D01*
X35951Y432715D01*
X35239Y433527D01*
X34581Y434384D01*
X33981Y435282D01*
X33441Y436218D01*
X32963Y437187D01*
X32549Y438185D01*
X32202Y439208D01*
X31922Y440251D01*
X31712Y441311D01*
X31571Y442382D01*
X31500Y443460D01*
X31500Y444540D01*
X31571Y445618D01*
X31712Y446689D01*
X31922Y447749D01*
X32202Y448792D01*
X32549Y449815D01*
X32963Y450813D01*
X33441Y451782D01*
X33981Y452718D01*
X34581Y453616D01*
X35239Y454473D01*
X35951Y455285D01*
X36715Y456049D01*
X37527Y456762D01*
X38384Y457419D01*
X39282Y458019D01*
X40218Y458560D01*
X41187Y459037D01*
X42185Y459451D01*
X43208Y459798D01*
X44251Y460078D01*
X45311Y460288D01*
X46382Y460429D01*
X47460Y460500D01*
X48540Y460500D01*
X49618Y460429D01*
X50689Y460288D01*
X51749Y460078D01*
X52792Y459798D01*
X53815Y459451D01*
X54813Y459037D01*
X55782Y458560D01*
X56718Y458019D01*
X57616Y457419D01*
X58473Y456762D01*
X59285Y456049D01*
X60049Y455285D01*
X60762Y454473D01*
X61419Y453616D01*
X62019Y452718D01*
X62560Y451782D01*
X63037Y450813D01*
X63451Y449815D01*
X63798Y448792D01*
X64078Y447749D01*
X64288Y446689D01*
X64429Y445618D01*
X64500Y444540D01*
X64500Y443460D01*
X64500Y47460D02*
X64429Y46382D01*
X64288Y45311D01*
X64078Y44251D01*
X63798Y43208D01*
X63451Y42185D01*
X63037Y41187D01*
X62560Y40218D01*
X62019Y39282D01*
X61419Y38384D01*
X60762Y37527D01*
X60049Y36715D01*
X59285Y35951D01*
X58473Y35239D01*
X57616Y34581D01*
X56718Y33981D01*
X55782Y33441D01*
X54813Y32963D01*
X53815Y32549D01*
X52792Y32202D01*
X51749Y31922D01*
X50689Y31712D01*
X49618Y31571D01*
X48540Y31500D01*
X47460Y31500D01*
X46382Y31571D01*
X45311Y31712D01*
X44251Y31922D01*
X43208Y32202D01*
X42185Y32549D01*
X41187Y32963D01*
X40218Y33441D01*
X39282Y33981D01*
X38384Y34581D01*
X37527Y35239D01*
X36715Y35951D01*
X35951Y36715D01*
X35239Y37527D01*
X34581Y38384D01*
X33981Y39282D01*
X33441Y40218D01*
X32963Y41187D01*
X32549Y42185D01*
X32202Y43208D01*
X31922Y44251D01*
X31712Y45311D01*
X31571Y46382D01*
X31500Y47460D01*
X31500Y48540D01*
X31571Y49618D01*
X31712Y50689D01*
X31922Y51749D01*
X32202Y52792D01*
X32549Y53815D01*
X32963Y54813D01*
X33441Y55782D01*
X33981Y56718D01*
X34581Y57616D01*
X35239Y58473D01*
X35951Y59285D01*
X36715Y60049D01*
X37527Y60762D01*
X38384Y61419D01*
X39282Y62019D01*
X40218Y62560D01*
X41187Y63037D01*
X42185Y63451D01*
X43208Y63798D01*
X44251Y64078D01*
X45311Y64288D01*
X46382Y64429D01*
X47460Y64500D01*
X48540Y64500D01*
X49618Y64429D01*
X50689Y64288D01*
X51749Y64078D01*
X52792Y63798D01*
X53815Y63451D01*
X54813Y63037D01*
X55782Y62560D01*
X56718Y62019D01*
X57616Y61419D01*
X58473Y60762D01*
X59285Y60049D01*
X60049Y59285D01*
X60762Y58473D01*
X61419Y57616D01*
X62019Y56718D01*
X62560Y55782D01*
X63037Y54813D01*
X63451Y53815D01*
X63798Y52792D01*
X64078Y51749D01*
X64288Y50689D01*
X64429Y49618D01*
X64500Y48540D01*
X64500Y47460D01*
X1240500Y47460D02*
X1240429Y46382D01*
X1240288Y45311D01*
X1240078Y44251D01*
X1239798Y43208D01*
X1239451Y42185D01*
X1239037Y41187D01*
X1238560Y40218D01*
X1238019Y39282D01*
X1237419Y38384D01*
X1236762Y37527D01*
X1236049Y36715D01*
X1235285Y35951D01*
X1234473Y35239D01*
X1233616Y34581D01*
X1232718Y33981D01*
X1231782Y33441D01*
X1230813Y32963D01*
X1229815Y32549D01*
X1228792Y32202D01*
X1227749Y31922D01*
X1226689Y31712D01*
X1225618Y31571D01*
X1224540Y31500D01*
X1223460Y31500D01*
X1222382Y31571D01*
X1221311Y31712D01*
X1220251Y31922D01*
X1219208Y32202D01*
X1218185Y32549D01*
X1217187Y32963D01*
X1216218Y33441D01*
X1215282Y33981D01*
X1214384Y34581D01*
X1213527Y35239D01*
X1212715Y35951D01*
X1211951Y36715D01*
X1211239Y37527D01*
X1210581Y38384D01*
X1209981Y39282D01*
X1209441Y40218D01*
X1208963Y41187D01*
X1208549Y42185D01*
X1208202Y43208D01*
X1207922Y44251D01*
X1207712Y45311D01*
X1207571Y46382D01*
X1207500Y47460D01*
X1207500Y48540D01*
X1207571Y49618D01*
X1207712Y50689D01*
X1207922Y51749D01*
X1208202Y52792D01*
X1208549Y53815D01*
X1208963Y54813D01*
X1209441Y55782D01*
X1209981Y56718D01*
X1210581Y57616D01*
X1211239Y58473D01*
X1211951Y59285D01*
X1212715Y60049D01*
X1213527Y60762D01*
X1214384Y61419D01*
X1215282Y62019D01*
X1216218Y62560D01*
X1217187Y63037D01*
X1218185Y63451D01*
X1219208Y63798D01*
X1220251Y64078D01*
X1221311Y64288D01*
X1222382Y64429D01*
X1223460Y64500D01*
X1224540Y64500D01*
X1225618Y64429D01*
X1226689Y64288D01*
X1227749Y64078D01*
X1228792Y63798D01*
X1229815Y63451D01*
X1230813Y63037D01*
X1231782Y62560D01*
X1232718Y62019D01*
X1233616Y61419D01*
X1234473Y60762D01*
X1235285Y60049D01*
X1236049Y59285D01*
X1236762Y58473D01*
X1237419Y57616D01*
X1238019Y56718D01*
X1238560Y55782D01*
X1239037Y54813D01*
X1239451Y53815D01*
X1239798Y52792D01*
X1240078Y51749D01*
X1240288Y50689D01*
X1240429Y49618D01*
X1240500Y48540D01*
X1240500Y47460D01*
X1240500Y443460D02*
X1240429Y442382D01*
X1240288Y441311D01*
X1240078Y440251D01*
X1239798Y439208D01*
X1239451Y438185D01*
X1239037Y437187D01*
X1238560Y436218D01*
X1238019Y435282D01*
X1237419Y434384D01*
X1236762Y433527D01*
X1236049Y432715D01*
X1235285Y431951D01*
X1234473Y431239D01*
X1233616Y430581D01*
X1232718Y429981D01*
X1231782Y429441D01*
X1230813Y428963D01*
X1229815Y428549D01*
X1228792Y428202D01*
X1227749Y427922D01*
X1226689Y427712D01*
X1225618Y427571D01*
X1224540Y427500D01*
X1223460Y427500D01*
X1222382Y427571D01*
X1221311Y427712D01*
X1220251Y427922D01*
X1219208Y428202D01*
X1218185Y428549D01*
X1217187Y428963D01*
X1216218Y429441D01*
X1215282Y429981D01*
X1214384Y430581D01*
X1213527Y431239D01*
X1212715Y431951D01*
X1211951Y432715D01*
X1211239Y433527D01*
X1210581Y434384D01*
X1209981Y435282D01*
X1209441Y436218D01*
X1208963Y437187D01*
X1208549Y438185D01*
X1208202Y439208D01*
X1207922Y440251D01*
X1207712Y441311D01*
X1207571Y442382D01*
X1207500Y443460D01*
X1207500Y444540D01*
X1207571Y445618D01*
X1207712Y446689D01*
X1207922Y447749D01*
X1208202Y448792D01*
X1208549Y449815D01*
X1208963Y450813D01*
X1209441Y451782D01*
X1209981Y452718D01*
X1210581Y453616D01*
X1211239Y454473D01*
X1211951Y455285D01*
X1212715Y456049D01*
X1213527Y456762D01*
X1214384Y457419D01*
X1215282Y458019D01*
X1216218Y458560D01*
X1217187Y459037D01*
X1218185Y459451D01*
X1219208Y459798D01*
X1220251Y460078D01*
X1221311Y460288D01*
X1222382Y460429D01*
X1223460Y460500D01*
X1224540Y460500D01*
X1225618Y460429D01*
X1226689Y460288D01*
X1227749Y460078D01*
X1228792Y459798D01*
X1229815Y459451D01*
X1230813Y459037D01*
X1231782Y458560D01*
X1232718Y458019D01*
X1233616Y457419D01*
X1234473Y456762D01*
X1235285Y456049D01*
X1236049Y455285D01*
X1236762Y454473D01*
X1237419Y453616D01*
X1238019Y452718D01*
X1238560Y451782D01*
X1239037Y450813D01*
X1239451Y449815D01*
X1239798Y448792D01*
X1240078Y447749D01*
X1240288Y446689D01*
X1240429Y445618D01*
X1240500Y444540D01*
X1240500Y443460D01*
M02*
