G04 EAGLE Gerber RS-274X export*
G75*
%MOMM*%
%FSLAX34Y34*%
%LPD*%
%INBottom Copper*%
%IPPOS*%
%AMOC8*
5,1,8,0,0,1.08239X$1,22.5*%
G01*
%ADD10C,1.500000*%
%ADD11C,1.371600*%
%ADD12P,1.484606X8X22.500000*%
%ADD13P,1.649562X8X112.500000*%
%ADD14C,1.219200*%
%ADD15C,0.508000*%
%ADD16C,1.270000*%
%ADD17C,0.600000*%

G36*
X1035848Y3016D02*
X1035848Y3016D01*
X1035967Y3023D01*
X1036005Y3036D01*
X1036046Y3041D01*
X1036156Y3084D01*
X1036269Y3121D01*
X1036304Y3143D01*
X1036341Y3158D01*
X1036437Y3227D01*
X1036538Y3291D01*
X1036566Y3321D01*
X1036599Y3344D01*
X1036675Y3436D01*
X1036756Y3523D01*
X1036776Y3558D01*
X1036801Y3589D01*
X1036852Y3697D01*
X1036910Y3801D01*
X1036920Y3841D01*
X1036937Y3877D01*
X1036959Y3994D01*
X1036989Y4109D01*
X1036993Y4169D01*
X1036997Y4189D01*
X1036995Y4210D01*
X1036999Y4270D01*
X1036999Y495730D01*
X1036984Y495848D01*
X1036977Y495967D01*
X1036964Y496005D01*
X1036959Y496046D01*
X1036916Y496156D01*
X1036879Y496269D01*
X1036857Y496304D01*
X1036842Y496341D01*
X1036773Y496437D01*
X1036709Y496538D01*
X1036679Y496566D01*
X1036656Y496599D01*
X1036564Y496675D01*
X1036477Y496756D01*
X1036442Y496776D01*
X1036411Y496801D01*
X1036303Y496852D01*
X1036199Y496910D01*
X1036159Y496920D01*
X1036123Y496937D01*
X1036006Y496959D01*
X1035891Y496989D01*
X1035831Y496993D01*
X1035811Y496997D01*
X1035790Y496995D01*
X1035730Y496999D01*
X4270Y496999D01*
X4152Y496984D01*
X4033Y496977D01*
X3995Y496964D01*
X3954Y496959D01*
X3844Y496916D01*
X3731Y496879D01*
X3696Y496857D01*
X3659Y496842D01*
X3563Y496773D01*
X3462Y496709D01*
X3434Y496679D01*
X3401Y496656D01*
X3325Y496564D01*
X3244Y496477D01*
X3224Y496442D01*
X3199Y496411D01*
X3148Y496303D01*
X3090Y496199D01*
X3080Y496159D01*
X3063Y496123D01*
X3041Y496006D01*
X3011Y495891D01*
X3007Y495831D01*
X3003Y495811D01*
X3005Y495790D01*
X3001Y495730D01*
X3001Y4270D01*
X3016Y4152D01*
X3023Y4033D01*
X3036Y3995D01*
X3041Y3954D01*
X3084Y3844D01*
X3121Y3731D01*
X3143Y3696D01*
X3158Y3659D01*
X3227Y3563D01*
X3291Y3462D01*
X3321Y3434D01*
X3344Y3401D01*
X3436Y3325D01*
X3523Y3244D01*
X3558Y3224D01*
X3589Y3199D01*
X3697Y3148D01*
X3801Y3090D01*
X3841Y3080D01*
X3877Y3063D01*
X3994Y3041D01*
X4109Y3011D01*
X4169Y3007D01*
X4189Y3003D01*
X4210Y3005D01*
X4270Y3001D01*
X1035730Y3001D01*
X1035848Y3016D01*
G37*
%LPC*%
G36*
X13901Y252079D02*
X13901Y252079D01*
X7679Y258301D01*
X7679Y267099D01*
X13901Y273321D01*
X20559Y273321D01*
X20657Y273333D01*
X20756Y273336D01*
X20815Y273353D01*
X20875Y273361D01*
X20967Y273397D01*
X21062Y273425D01*
X21114Y273455D01*
X21170Y273478D01*
X21250Y273536D01*
X21336Y273586D01*
X21411Y273652D01*
X21428Y273664D01*
X21436Y273674D01*
X21457Y273692D01*
X27140Y279376D01*
X28877Y281113D01*
X30914Y281957D01*
X33173Y281957D01*
X33311Y281974D01*
X33450Y281987D01*
X33469Y281994D01*
X33489Y281997D01*
X33618Y282048D01*
X33749Y282095D01*
X33766Y282106D01*
X33785Y282114D01*
X33897Y282195D01*
X34012Y282273D01*
X34025Y282289D01*
X34042Y282300D01*
X34131Y282408D01*
X34223Y282512D01*
X34232Y282530D01*
X34245Y282545D01*
X34304Y282671D01*
X34367Y282795D01*
X34372Y282815D01*
X34380Y282833D01*
X34406Y282969D01*
X34437Y283105D01*
X34436Y283126D01*
X34440Y283145D01*
X34431Y283284D01*
X34427Y283423D01*
X34421Y283443D01*
X34420Y283463D01*
X34378Y283595D01*
X34339Y283729D01*
X34328Y283746D01*
X34322Y283765D01*
X34248Y283883D01*
X34177Y284003D01*
X34159Y284024D01*
X34152Y284034D01*
X34137Y284048D01*
X34079Y284114D01*
X34079Y285561D01*
X42430Y285561D01*
X42548Y285576D01*
X42667Y285583D01*
X42705Y285596D01*
X42745Y285601D01*
X42856Y285644D01*
X42969Y285681D01*
X43003Y285703D01*
X43041Y285718D01*
X43137Y285788D01*
X43238Y285851D01*
X43266Y285881D01*
X43298Y285904D01*
X43374Y285996D01*
X43456Y286083D01*
X43475Y286118D01*
X43501Y286149D01*
X43552Y286257D01*
X43609Y286361D01*
X43620Y286401D01*
X43637Y286437D01*
X43659Y286554D01*
X43689Y286669D01*
X43693Y286729D01*
X43697Y286750D01*
X43695Y286770D01*
X43699Y286830D01*
X43699Y288101D01*
X43701Y288101D01*
X43701Y286830D01*
X43716Y286712D01*
X43723Y286593D01*
X43736Y286555D01*
X43741Y286514D01*
X43785Y286404D01*
X43821Y286291D01*
X43843Y286256D01*
X43858Y286219D01*
X43928Y286123D01*
X43991Y286022D01*
X44021Y285994D01*
X44045Y285961D01*
X44136Y285886D01*
X44223Y285804D01*
X44258Y285784D01*
X44290Y285759D01*
X44397Y285708D01*
X44502Y285650D01*
X44541Y285640D01*
X44577Y285623D01*
X44694Y285601D01*
X44809Y285571D01*
X44870Y285567D01*
X44890Y285563D01*
X44910Y285565D01*
X44970Y285561D01*
X54391Y285561D01*
X54429Y285551D01*
X54489Y285547D01*
X54509Y285543D01*
X54530Y285545D01*
X54590Y285541D01*
X61791Y285541D01*
X61889Y285553D01*
X61988Y285556D01*
X62046Y285573D01*
X62107Y285581D01*
X62199Y285617D01*
X62294Y285645D01*
X62346Y285675D01*
X62402Y285698D01*
X62482Y285756D01*
X62568Y285806D01*
X62643Y285872D01*
X62660Y285884D01*
X62667Y285894D01*
X62689Y285912D01*
X64703Y287927D01*
X68140Y289351D01*
X88460Y289351D01*
X88578Y289366D01*
X88697Y289373D01*
X88735Y289386D01*
X88776Y289391D01*
X88886Y289434D01*
X88999Y289471D01*
X89034Y289493D01*
X89071Y289508D01*
X89167Y289577D01*
X89268Y289641D01*
X89296Y289671D01*
X89329Y289694D01*
X89405Y289786D01*
X89486Y289873D01*
X89506Y289908D01*
X89531Y289939D01*
X89582Y290047D01*
X89640Y290151D01*
X89650Y290191D01*
X89667Y290227D01*
X89689Y290344D01*
X89719Y290459D01*
X89723Y290519D01*
X89727Y290539D01*
X89725Y290560D01*
X89729Y290620D01*
X89729Y341769D01*
X92231Y344271D01*
X204460Y344271D01*
X204578Y344286D01*
X204697Y344293D01*
X204735Y344306D01*
X204776Y344311D01*
X204886Y344354D01*
X204999Y344391D01*
X205034Y344413D01*
X205071Y344428D01*
X205167Y344497D01*
X205268Y344561D01*
X205296Y344591D01*
X205329Y344614D01*
X205405Y344706D01*
X205486Y344793D01*
X205506Y344828D01*
X205531Y344859D01*
X205582Y344967D01*
X205640Y345071D01*
X205650Y345111D01*
X205667Y345147D01*
X205689Y345264D01*
X205719Y345379D01*
X205723Y345439D01*
X205727Y345459D01*
X205725Y345480D01*
X205729Y345540D01*
X205729Y385593D01*
X205712Y385731D01*
X205699Y385869D01*
X205692Y385888D01*
X205689Y385908D01*
X205638Y386038D01*
X205591Y386169D01*
X205580Y386185D01*
X205572Y386204D01*
X205491Y386316D01*
X205413Y386432D01*
X205397Y386445D01*
X205386Y386462D01*
X205279Y386550D01*
X205174Y386642D01*
X205156Y386651D01*
X205141Y386664D01*
X205015Y386723D01*
X204891Y386787D01*
X204871Y386791D01*
X204853Y386800D01*
X204717Y386826D01*
X204581Y386856D01*
X204560Y386856D01*
X204541Y386860D01*
X204402Y386851D01*
X204263Y386847D01*
X204243Y386841D01*
X204223Y386840D01*
X204091Y386797D01*
X203957Y386758D01*
X203940Y386748D01*
X203921Y386742D01*
X203803Y386668D01*
X203683Y386597D01*
X203662Y386578D01*
X203652Y386572D01*
X203638Y386557D01*
X203562Y386490D01*
X203188Y386116D01*
X202369Y385568D01*
X201459Y385191D01*
X201269Y385154D01*
X201269Y390000D01*
X201269Y394846D01*
X201459Y394809D01*
X202369Y394432D01*
X203188Y393884D01*
X203562Y393510D01*
X203672Y393424D01*
X203779Y393336D01*
X203798Y393327D01*
X203814Y393315D01*
X203942Y393259D01*
X204067Y393200D01*
X204087Y393196D01*
X204106Y393188D01*
X204244Y393166D01*
X204380Y393140D01*
X204400Y393142D01*
X204420Y393138D01*
X204559Y393152D01*
X204697Y393160D01*
X204716Y393166D01*
X204736Y393168D01*
X204867Y393215D01*
X204999Y393258D01*
X205017Y393269D01*
X205036Y393276D01*
X205150Y393354D01*
X205268Y393428D01*
X205282Y393443D01*
X205299Y393454D01*
X205391Y393558D01*
X205486Y393660D01*
X205496Y393678D01*
X205509Y393693D01*
X205572Y393817D01*
X205640Y393938D01*
X205645Y393958D01*
X205654Y393976D01*
X205684Y394112D01*
X205719Y394246D01*
X205721Y394274D01*
X205724Y394286D01*
X205723Y394307D01*
X205729Y394407D01*
X205729Y409769D01*
X208231Y412271D01*
X251769Y412271D01*
X254271Y409769D01*
X254271Y290620D01*
X254286Y290502D01*
X254293Y290383D01*
X254306Y290345D01*
X254311Y290304D01*
X254354Y290194D01*
X254391Y290081D01*
X254413Y290046D01*
X254428Y290009D01*
X254497Y289913D01*
X254561Y289812D01*
X254591Y289784D01*
X254614Y289751D01*
X254706Y289675D01*
X254793Y289594D01*
X254828Y289574D01*
X254859Y289549D01*
X254967Y289498D01*
X255071Y289440D01*
X255111Y289430D01*
X255147Y289413D01*
X255264Y289391D01*
X255379Y289361D01*
X255439Y289357D01*
X255459Y289353D01*
X255480Y289355D01*
X255540Y289351D01*
X425001Y289351D01*
X425099Y289363D01*
X425198Y289366D01*
X425257Y289383D01*
X425317Y289391D01*
X425409Y289427D01*
X425504Y289455D01*
X425556Y289485D01*
X425612Y289508D01*
X425692Y289566D01*
X425778Y289616D01*
X425853Y289682D01*
X425870Y289694D01*
X425877Y289704D01*
X425899Y289722D01*
X439678Y303501D01*
X439738Y303580D01*
X439806Y303652D01*
X439835Y303705D01*
X439872Y303753D01*
X439912Y303844D01*
X439960Y303930D01*
X439975Y303989D01*
X439999Y304045D01*
X440014Y304143D01*
X440039Y304238D01*
X440045Y304338D01*
X440049Y304359D01*
X440047Y304371D01*
X440049Y304399D01*
X440049Y357483D01*
X440037Y357581D01*
X440034Y357680D01*
X440017Y357738D01*
X440009Y357798D01*
X439973Y357890D01*
X439945Y357985D01*
X439915Y358038D01*
X439892Y358094D01*
X439834Y358174D01*
X439784Y358259D01*
X439718Y358335D01*
X439706Y358351D01*
X439696Y358359D01*
X439678Y358380D01*
X439541Y358516D01*
X439541Y364097D01*
X439529Y364195D01*
X439526Y364294D01*
X439509Y364353D01*
X439501Y364413D01*
X439465Y364505D01*
X439437Y364600D01*
X439407Y364652D01*
X439384Y364708D01*
X439326Y364789D01*
X439276Y364874D01*
X439210Y364949D01*
X439198Y364966D01*
X439188Y364974D01*
X439170Y364995D01*
X433527Y370637D01*
X432683Y372674D01*
X432683Y379677D01*
X432666Y379814D01*
X432653Y379953D01*
X432646Y379972D01*
X432643Y379992D01*
X432592Y380121D01*
X432545Y380252D01*
X432534Y380269D01*
X432526Y380288D01*
X432445Y380400D01*
X432367Y380515D01*
X432351Y380529D01*
X432340Y380545D01*
X432232Y380634D01*
X432128Y380726D01*
X432110Y380735D01*
X432095Y380748D01*
X431969Y380807D01*
X431845Y380871D01*
X431825Y380875D01*
X431807Y380884D01*
X431671Y380910D01*
X431535Y380940D01*
X431514Y380940D01*
X431495Y380943D01*
X431356Y380935D01*
X431217Y380931D01*
X431197Y380925D01*
X431177Y380924D01*
X431045Y380881D01*
X430911Y380842D01*
X430894Y380832D01*
X430875Y380826D01*
X430757Y380751D01*
X430637Y380681D01*
X430616Y380662D01*
X430606Y380655D01*
X430592Y380640D01*
X430517Y380574D01*
X428084Y378141D01*
X419634Y378141D01*
X419516Y378126D01*
X419397Y378119D01*
X419359Y378106D01*
X419318Y378101D01*
X419208Y378058D01*
X419095Y378021D01*
X419060Y377999D01*
X419023Y377984D01*
X418927Y377915D01*
X418826Y377851D01*
X418798Y377821D01*
X418765Y377798D01*
X418689Y377706D01*
X418608Y377619D01*
X418588Y377584D01*
X418563Y377553D01*
X418512Y377445D01*
X418454Y377341D01*
X418444Y377301D01*
X418427Y377265D01*
X418405Y377148D01*
X418375Y377033D01*
X418371Y376973D01*
X418367Y376953D01*
X418369Y376932D01*
X418365Y376872D01*
X418365Y376597D01*
X418377Y376499D01*
X418380Y376400D01*
X418397Y376341D01*
X418405Y376281D01*
X418441Y376189D01*
X418469Y376094D01*
X418499Y376042D01*
X418522Y375986D01*
X418580Y375906D01*
X418630Y375820D01*
X418696Y375745D01*
X418708Y375728D01*
X418718Y375720D01*
X418736Y375699D01*
X421605Y372830D01*
X421684Y372770D01*
X421756Y372702D01*
X421809Y372673D01*
X421857Y372636D01*
X421948Y372596D01*
X422034Y372548D01*
X422093Y372533D01*
X422148Y372509D01*
X422246Y372494D01*
X422342Y372469D01*
X422442Y372463D01*
X422463Y372459D01*
X422475Y372461D01*
X422503Y372459D01*
X428084Y372459D01*
X433859Y366684D01*
X433859Y358516D01*
X428084Y352741D01*
X419916Y352741D01*
X414141Y358516D01*
X414141Y364097D01*
X414129Y364195D01*
X414126Y364294D01*
X414109Y364353D01*
X414101Y364413D01*
X414065Y364505D01*
X414037Y364600D01*
X414007Y364652D01*
X413984Y364708D01*
X413926Y364788D01*
X413876Y364874D01*
X413810Y364949D01*
X413798Y364966D01*
X413788Y364974D01*
X413770Y364995D01*
X408127Y370637D01*
X407283Y372674D01*
X407283Y379677D01*
X407266Y379815D01*
X407253Y379953D01*
X407246Y379972D01*
X407243Y379992D01*
X407192Y380121D01*
X407145Y380252D01*
X407134Y380269D01*
X407126Y380288D01*
X407045Y380400D01*
X406967Y380515D01*
X406951Y380529D01*
X406940Y380545D01*
X406832Y380634D01*
X406728Y380726D01*
X406710Y380735D01*
X406695Y380748D01*
X406569Y380807D01*
X406445Y380871D01*
X406425Y380875D01*
X406407Y380884D01*
X406270Y380910D01*
X406135Y380940D01*
X406114Y380940D01*
X406095Y380943D01*
X405956Y380935D01*
X405817Y380931D01*
X405797Y380925D01*
X405777Y380924D01*
X405645Y380881D01*
X405511Y380842D01*
X405494Y380832D01*
X405475Y380826D01*
X405357Y380751D01*
X405237Y380681D01*
X405216Y380662D01*
X405206Y380655D01*
X405192Y380640D01*
X405117Y380574D01*
X404185Y379642D01*
X400561Y378141D01*
X399347Y378141D01*
X399209Y378124D01*
X399071Y378111D01*
X399051Y378104D01*
X399031Y378101D01*
X398902Y378050D01*
X398771Y378003D01*
X398754Y377992D01*
X398736Y377984D01*
X398623Y377903D01*
X398508Y377825D01*
X398495Y377809D01*
X398478Y377798D01*
X398390Y377690D01*
X398298Y377586D01*
X398288Y377568D01*
X398276Y377553D01*
X398216Y377427D01*
X398153Y377303D01*
X398149Y377283D01*
X398140Y377265D01*
X398114Y377129D01*
X398083Y376993D01*
X398084Y376972D01*
X398080Y376953D01*
X398089Y376814D01*
X398093Y376675D01*
X398099Y376655D01*
X398100Y376635D01*
X398143Y376503D01*
X398181Y376369D01*
X398192Y376352D01*
X398198Y376333D01*
X398273Y376215D01*
X398343Y376095D01*
X398362Y376074D01*
X398368Y376064D01*
X398383Y376050D01*
X398449Y375975D01*
X401593Y372830D01*
X401672Y372770D01*
X401744Y372702D01*
X401797Y372673D01*
X401845Y372636D01*
X401936Y372596D01*
X402022Y372548D01*
X402081Y372533D01*
X402137Y372509D01*
X402235Y372494D01*
X402330Y372469D01*
X402430Y372463D01*
X402451Y372459D01*
X402463Y372461D01*
X402491Y372459D01*
X402684Y372459D01*
X408459Y366684D01*
X408459Y358516D01*
X402684Y352741D01*
X394516Y352741D01*
X388741Y358516D01*
X388741Y358709D01*
X388729Y358807D01*
X388726Y358906D01*
X388709Y358964D01*
X388701Y359025D01*
X388665Y359117D01*
X388637Y359212D01*
X388607Y359264D01*
X388584Y359320D01*
X388526Y359400D01*
X388476Y359486D01*
X388410Y359561D01*
X388398Y359578D01*
X388388Y359585D01*
X388370Y359607D01*
X375687Y372289D01*
X374263Y375726D01*
X374263Y453253D01*
X375687Y456690D01*
X386878Y467880D01*
X386938Y467959D01*
X387006Y468031D01*
X387035Y468084D01*
X387072Y468132D01*
X387112Y468223D01*
X387160Y468309D01*
X387175Y468368D01*
X387199Y468424D01*
X387214Y468522D01*
X387239Y468617D01*
X387245Y468717D01*
X387249Y468738D01*
X387247Y468750D01*
X387249Y468778D01*
X387249Y477360D01*
X387407Y477740D01*
X387409Y477749D01*
X387414Y477757D01*
X387451Y477902D01*
X387491Y478047D01*
X387491Y478056D01*
X387493Y478065D01*
X387503Y478226D01*
X387503Y483405D01*
X388888Y486749D01*
X391447Y489308D01*
X394791Y490693D01*
X398409Y490693D01*
X401753Y489308D01*
X404312Y486749D01*
X405697Y483405D01*
X405697Y478226D01*
X405698Y478216D01*
X405697Y478207D01*
X405718Y478059D01*
X405737Y477910D01*
X405740Y477901D01*
X405741Y477892D01*
X405793Y477740D01*
X405951Y477360D01*
X405951Y462519D01*
X404527Y459082D01*
X401419Y455974D01*
X401389Y455935D01*
X401352Y455901D01*
X401292Y455810D01*
X401224Y455723D01*
X401204Y455677D01*
X401177Y455636D01*
X401141Y455532D01*
X401098Y455431D01*
X401090Y455382D01*
X401074Y455335D01*
X401065Y455226D01*
X401048Y455117D01*
X401053Y455067D01*
X401049Y455018D01*
X401067Y454910D01*
X401078Y454800D01*
X401095Y454753D01*
X401103Y454705D01*
X401148Y454604D01*
X401185Y454501D01*
X401213Y454460D01*
X401234Y454415D01*
X401302Y454329D01*
X401364Y454238D01*
X401401Y454205D01*
X401432Y454166D01*
X401520Y454100D01*
X401602Y454027D01*
X401647Y454005D01*
X401686Y453975D01*
X401831Y453904D01*
X403753Y453108D01*
X405548Y451313D01*
X405587Y451283D01*
X405620Y451246D01*
X405712Y451185D01*
X405799Y451118D01*
X405845Y451098D01*
X405886Y451071D01*
X405990Y451035D01*
X406091Y450992D01*
X406140Y450984D01*
X406187Y450968D01*
X406296Y450959D01*
X406405Y450942D01*
X406454Y450947D01*
X406504Y450943D01*
X406612Y450961D01*
X406722Y450972D01*
X406768Y450988D01*
X406817Y450997D01*
X406917Y451042D01*
X407021Y451079D01*
X407062Y451107D01*
X407107Y451128D01*
X407193Y451196D01*
X407284Y451258D01*
X407317Y451295D01*
X407356Y451326D01*
X407422Y451414D01*
X407494Y451496D01*
X407517Y451541D01*
X407547Y451580D01*
X407618Y451725D01*
X408127Y452953D01*
X415959Y460785D01*
X416032Y460880D01*
X416111Y460969D01*
X416129Y461005D01*
X416154Y461037D01*
X416201Y461146D01*
X416255Y461252D01*
X416264Y461291D01*
X416280Y461329D01*
X416299Y461446D01*
X416325Y461562D01*
X416324Y461603D01*
X416330Y461643D01*
X416319Y461761D01*
X416315Y461880D01*
X416304Y461919D01*
X416300Y461959D01*
X416260Y462071D01*
X416227Y462186D01*
X416206Y462220D01*
X416193Y462259D01*
X416126Y462357D01*
X416065Y462460D01*
X416025Y462505D01*
X416014Y462522D01*
X415999Y462535D01*
X415959Y462580D01*
X414288Y464251D01*
X412903Y467595D01*
X412903Y483405D01*
X414288Y486749D01*
X416847Y489308D01*
X420191Y490693D01*
X423809Y490693D01*
X427153Y489308D01*
X429712Y486749D01*
X431097Y483405D01*
X431097Y467595D01*
X429712Y464251D01*
X427912Y462452D01*
X427852Y462374D01*
X427784Y462301D01*
X427755Y462248D01*
X427718Y462201D01*
X427678Y462110D01*
X427630Y462023D01*
X427615Y461964D01*
X427591Y461909D01*
X427576Y461811D01*
X427551Y461715D01*
X427545Y461615D01*
X427541Y461595D01*
X427543Y461582D01*
X427541Y461554D01*
X427541Y457889D01*
X426666Y455777D01*
X426624Y455723D01*
X426604Y455677D01*
X426577Y455636D01*
X426541Y455532D01*
X426498Y455431D01*
X426490Y455382D01*
X426474Y455335D01*
X426465Y455226D01*
X426448Y455117D01*
X426453Y455067D01*
X426449Y455018D01*
X426467Y454910D01*
X426478Y454800D01*
X426495Y454753D01*
X426503Y454705D01*
X426548Y454604D01*
X426585Y454501D01*
X426613Y454460D01*
X426634Y454415D01*
X426702Y454329D01*
X426764Y454238D01*
X426801Y454205D01*
X426832Y454166D01*
X426920Y454100D01*
X427002Y454027D01*
X427047Y454005D01*
X427086Y453975D01*
X427231Y453904D01*
X429153Y453108D01*
X430948Y451313D01*
X430987Y451282D01*
X431020Y451246D01*
X431112Y451185D01*
X431199Y451118D01*
X431245Y451098D01*
X431286Y451071D01*
X431390Y451035D01*
X431491Y450992D01*
X431540Y450984D01*
X431587Y450968D01*
X431696Y450959D01*
X431805Y450942D01*
X431855Y450947D01*
X431904Y450943D01*
X432012Y450961D01*
X432122Y450972D01*
X432168Y450988D01*
X432217Y450997D01*
X432318Y451042D01*
X432421Y451079D01*
X432462Y451107D01*
X432507Y451128D01*
X432593Y451196D01*
X432684Y451258D01*
X432717Y451295D01*
X432756Y451326D01*
X432822Y451414D01*
X432894Y451496D01*
X432917Y451541D01*
X432947Y451580D01*
X433018Y451725D01*
X433527Y452953D01*
X441359Y460785D01*
X441432Y460880D01*
X441511Y460969D01*
X441529Y461005D01*
X441554Y461037D01*
X441601Y461146D01*
X441655Y461252D01*
X441664Y461291D01*
X441680Y461329D01*
X441699Y461446D01*
X441725Y461562D01*
X441724Y461603D01*
X441730Y461643D01*
X441719Y461761D01*
X441715Y461880D01*
X441704Y461919D01*
X441700Y461959D01*
X441660Y462071D01*
X441627Y462186D01*
X441606Y462220D01*
X441593Y462259D01*
X441526Y462357D01*
X441465Y462460D01*
X441425Y462505D01*
X441414Y462522D01*
X441399Y462535D01*
X441359Y462580D01*
X439688Y464251D01*
X438303Y467595D01*
X438303Y483405D01*
X439688Y486749D01*
X442247Y489308D01*
X445591Y490693D01*
X449209Y490693D01*
X452553Y489308D01*
X455112Y486749D01*
X456497Y483405D01*
X456497Y467595D01*
X455112Y464251D01*
X453312Y462452D01*
X453252Y462374D01*
X453184Y462301D01*
X453155Y462248D01*
X453118Y462201D01*
X453078Y462110D01*
X453030Y462023D01*
X453015Y461964D01*
X452991Y461909D01*
X452976Y461811D01*
X452951Y461715D01*
X452945Y461615D01*
X452941Y461595D01*
X452943Y461582D01*
X452941Y461554D01*
X452941Y457889D01*
X452097Y455852D01*
X451454Y455209D01*
X451423Y455170D01*
X451386Y455136D01*
X451326Y455044D01*
X451259Y454957D01*
X451239Y454912D01*
X451212Y454870D01*
X451176Y454767D01*
X451132Y454666D01*
X451125Y454616D01*
X451108Y454570D01*
X451100Y454460D01*
X451082Y454352D01*
X451087Y454302D01*
X451083Y454252D01*
X451102Y454144D01*
X451112Y454035D01*
X451129Y453988D01*
X451138Y453939D01*
X451183Y453839D01*
X451220Y453736D01*
X451248Y453695D01*
X451268Y453649D01*
X451337Y453563D01*
X451398Y453472D01*
X451436Y453440D01*
X451467Y453401D01*
X451555Y453335D01*
X451637Y453262D01*
X451681Y453239D01*
X451721Y453210D01*
X451865Y453139D01*
X453235Y452571D01*
X454561Y451685D01*
X455689Y450557D01*
X455759Y450453D01*
X455827Y450375D01*
X455888Y450290D01*
X455931Y450255D01*
X455967Y450213D01*
X456053Y450154D01*
X456133Y450087D01*
X456183Y450064D01*
X456229Y450032D01*
X456327Y449996D01*
X456421Y449952D01*
X456475Y449941D01*
X456527Y449922D01*
X456631Y449911D01*
X456734Y449892D01*
X456788Y449895D01*
X456843Y449890D01*
X456947Y449905D01*
X457051Y449912D01*
X457103Y449928D01*
X457158Y449937D01*
X457254Y449977D01*
X457353Y450010D01*
X457400Y450039D01*
X457451Y450060D01*
X457534Y450124D01*
X457622Y450180D01*
X457660Y450220D01*
X457704Y450253D01*
X457768Y450335D01*
X457840Y450411D01*
X457867Y450460D01*
X457901Y450503D01*
X457928Y450565D01*
X457958Y450624D01*
X457994Y450690D01*
X458001Y450718D01*
X458927Y452953D01*
X466759Y460785D01*
X466832Y460880D01*
X466911Y460969D01*
X466929Y461005D01*
X466954Y461037D01*
X467001Y461146D01*
X467055Y461252D01*
X467064Y461291D01*
X467080Y461329D01*
X467099Y461446D01*
X467125Y461562D01*
X467124Y461603D01*
X467130Y461643D01*
X467119Y461761D01*
X467115Y461880D01*
X467104Y461919D01*
X467100Y461959D01*
X467060Y462071D01*
X467027Y462186D01*
X467006Y462220D01*
X466993Y462259D01*
X466926Y462357D01*
X466865Y462460D01*
X466825Y462505D01*
X466814Y462522D01*
X466799Y462535D01*
X466759Y462580D01*
X465088Y464251D01*
X463703Y467595D01*
X463703Y483405D01*
X465088Y486749D01*
X467647Y489308D01*
X470991Y490693D01*
X474609Y490693D01*
X477953Y489308D01*
X480512Y486749D01*
X481897Y483405D01*
X481897Y467595D01*
X480512Y464251D01*
X478712Y462452D01*
X478652Y462374D01*
X478584Y462301D01*
X478555Y462248D01*
X478518Y462201D01*
X478478Y462110D01*
X478430Y462023D01*
X478415Y461964D01*
X478391Y461909D01*
X478376Y461811D01*
X478351Y461715D01*
X478345Y461615D01*
X478341Y461595D01*
X478343Y461582D01*
X478341Y461554D01*
X478341Y457889D01*
X477466Y455777D01*
X477424Y455723D01*
X477404Y455677D01*
X477377Y455636D01*
X477341Y455532D01*
X477298Y455431D01*
X477290Y455382D01*
X477274Y455335D01*
X477265Y455226D01*
X477248Y455117D01*
X477253Y455067D01*
X477249Y455018D01*
X477267Y454910D01*
X477278Y454800D01*
X477295Y454753D01*
X477303Y454705D01*
X477348Y454604D01*
X477385Y454501D01*
X477413Y454460D01*
X477434Y454415D01*
X477502Y454329D01*
X477564Y454238D01*
X477601Y454205D01*
X477632Y454166D01*
X477720Y454100D01*
X477802Y454027D01*
X477847Y454005D01*
X477886Y453975D01*
X478031Y453904D01*
X479953Y453108D01*
X482512Y450549D01*
X483897Y447205D01*
X483897Y442026D01*
X483898Y442016D01*
X483897Y442007D01*
X483918Y441859D01*
X483937Y441710D01*
X483940Y441701D01*
X483941Y441692D01*
X483993Y441540D01*
X484151Y441160D01*
X484151Y393117D01*
X484163Y393019D01*
X484166Y392920D01*
X484183Y392862D01*
X484191Y392802D01*
X484227Y392710D01*
X484255Y392615D01*
X484285Y392562D01*
X484308Y392506D01*
X484366Y392426D01*
X484416Y392341D01*
X484482Y392265D01*
X484494Y392249D01*
X484504Y392241D01*
X484522Y392220D01*
X484659Y392084D01*
X484659Y383916D01*
X478884Y378141D01*
X470434Y378141D01*
X470316Y378126D01*
X470197Y378119D01*
X470159Y378106D01*
X470118Y378101D01*
X470008Y378058D01*
X469895Y378021D01*
X469860Y377999D01*
X469823Y377984D01*
X469727Y377915D01*
X469626Y377851D01*
X469598Y377821D01*
X469565Y377798D01*
X469489Y377706D01*
X469408Y377619D01*
X469388Y377584D01*
X469363Y377553D01*
X469312Y377445D01*
X469254Y377341D01*
X469244Y377301D01*
X469227Y377265D01*
X469205Y377148D01*
X469175Y377033D01*
X469171Y376973D01*
X469167Y376953D01*
X469169Y376932D01*
X469165Y376872D01*
X469165Y376597D01*
X469177Y376499D01*
X469180Y376400D01*
X469197Y376341D01*
X469205Y376281D01*
X469241Y376189D01*
X469269Y376094D01*
X469299Y376042D01*
X469322Y375986D01*
X469380Y375906D01*
X469430Y375820D01*
X469496Y375745D01*
X469508Y375728D01*
X469518Y375720D01*
X469536Y375699D01*
X472405Y372830D01*
X472484Y372770D01*
X472556Y372702D01*
X472609Y372673D01*
X472657Y372636D01*
X472748Y372596D01*
X472834Y372548D01*
X472893Y372533D01*
X472948Y372509D01*
X473046Y372494D01*
X473142Y372469D01*
X473242Y372463D01*
X473263Y372459D01*
X473275Y372461D01*
X473303Y372459D01*
X478884Y372459D01*
X484659Y366684D01*
X484659Y358516D01*
X478884Y352741D01*
X470716Y352741D01*
X464941Y358516D01*
X464941Y364097D01*
X464929Y364195D01*
X464926Y364294D01*
X464909Y364353D01*
X464901Y364413D01*
X464865Y364505D01*
X464837Y364600D01*
X464807Y364652D01*
X464784Y364708D01*
X464726Y364788D01*
X464676Y364874D01*
X464610Y364949D01*
X464598Y364966D01*
X464588Y364974D01*
X464570Y364995D01*
X458927Y370637D01*
X458083Y372674D01*
X458083Y381091D01*
X458066Y381228D01*
X458053Y381367D01*
X458046Y381386D01*
X458043Y381406D01*
X457992Y381535D01*
X457945Y381667D01*
X457934Y381683D01*
X457926Y381702D01*
X457845Y381815D01*
X457767Y381930D01*
X457751Y381943D01*
X457740Y381959D01*
X457632Y382048D01*
X457528Y382140D01*
X457510Y382149D01*
X457495Y382162D01*
X457369Y382222D01*
X457245Y382285D01*
X457225Y382289D01*
X457207Y382298D01*
X457071Y382324D01*
X456935Y382354D01*
X456914Y382354D01*
X456895Y382358D01*
X456756Y382349D01*
X456617Y382345D01*
X456597Y382339D01*
X456577Y382338D01*
X456445Y382295D01*
X456311Y382256D01*
X456294Y382246D01*
X456275Y382240D01*
X456157Y382165D01*
X456037Y382095D01*
X456016Y382076D01*
X456006Y382070D01*
X455992Y382055D01*
X455917Y381988D01*
X453069Y379141D01*
X451685Y379141D01*
X451685Y386984D01*
X451670Y387102D01*
X451663Y387221D01*
X451650Y387259D01*
X451645Y387299D01*
X451602Y387410D01*
X451565Y387523D01*
X451543Y387557D01*
X451528Y387595D01*
X451459Y387691D01*
X451395Y387792D01*
X451365Y387820D01*
X451342Y387852D01*
X451250Y387928D01*
X451170Y388003D01*
X451224Y388037D01*
X451252Y388067D01*
X451285Y388091D01*
X451361Y388182D01*
X451442Y388269D01*
X451462Y388304D01*
X451487Y388336D01*
X451538Y388443D01*
X451596Y388548D01*
X451606Y388587D01*
X451623Y388623D01*
X451645Y388740D01*
X451675Y388856D01*
X451679Y388916D01*
X451683Y388936D01*
X451681Y388956D01*
X451685Y389016D01*
X451685Y396859D01*
X453069Y396859D01*
X455917Y394012D01*
X456026Y393926D01*
X456133Y393838D01*
X456152Y393829D01*
X456168Y393817D01*
X456296Y393761D01*
X456421Y393702D01*
X456441Y393698D01*
X456460Y393690D01*
X456598Y393668D01*
X456734Y393642D01*
X456754Y393644D01*
X456774Y393640D01*
X456913Y393654D01*
X457051Y393662D01*
X457070Y393668D01*
X457090Y393670D01*
X457222Y393717D01*
X457353Y393760D01*
X457371Y393771D01*
X457390Y393778D01*
X457505Y393856D01*
X457622Y393930D01*
X457636Y393945D01*
X457653Y393956D01*
X457745Y394061D01*
X457840Y394162D01*
X457850Y394180D01*
X457863Y394195D01*
X457927Y394319D01*
X457994Y394440D01*
X457999Y394460D01*
X458008Y394478D01*
X458038Y394614D01*
X458073Y394748D01*
X458075Y394776D01*
X458078Y394788D01*
X458077Y394809D01*
X458083Y394909D01*
X458083Y427442D01*
X458070Y427545D01*
X458066Y427650D01*
X458050Y427702D01*
X458043Y427757D01*
X458005Y427854D01*
X457975Y427954D01*
X457947Y428002D01*
X457926Y428053D01*
X457865Y428137D01*
X457811Y428227D01*
X457772Y428266D01*
X457740Y428310D01*
X457659Y428377D01*
X457585Y428450D01*
X457537Y428478D01*
X457495Y428513D01*
X457400Y428557D01*
X457310Y428610D01*
X457257Y428625D01*
X457207Y428648D01*
X457104Y428668D01*
X457004Y428697D01*
X456949Y428698D01*
X456895Y428708D01*
X456790Y428702D01*
X456686Y428704D01*
X456632Y428692D01*
X456577Y428688D01*
X456478Y428656D01*
X456376Y428633D01*
X456327Y428607D01*
X456275Y428590D01*
X456186Y428535D01*
X456093Y428486D01*
X456052Y428450D01*
X456006Y428420D01*
X455934Y428344D01*
X455856Y428275D01*
X455803Y428205D01*
X455788Y428189D01*
X455781Y428175D01*
X455759Y428147D01*
X455689Y428043D01*
X454561Y426915D01*
X453235Y426029D01*
X451762Y425418D01*
X451431Y425353D01*
X451431Y438538D01*
X451416Y438656D01*
X451409Y438775D01*
X451396Y438813D01*
X451391Y438853D01*
X451348Y438964D01*
X451311Y439077D01*
X451289Y439111D01*
X451274Y439149D01*
X451205Y439245D01*
X451141Y439346D01*
X451111Y439374D01*
X451088Y439406D01*
X450996Y439482D01*
X450909Y439564D01*
X450874Y439583D01*
X450843Y439609D01*
X450735Y439660D01*
X450631Y439717D01*
X450591Y439727D01*
X450555Y439745D01*
X450438Y439767D01*
X450323Y439797D01*
X450263Y439801D01*
X450243Y439804D01*
X450222Y439803D01*
X450162Y439807D01*
X448638Y439807D01*
X448520Y439792D01*
X448401Y439785D01*
X448363Y439772D01*
X448322Y439767D01*
X448212Y439723D01*
X448099Y439687D01*
X448064Y439665D01*
X448027Y439650D01*
X447930Y439580D01*
X447830Y439517D01*
X447802Y439487D01*
X447769Y439463D01*
X447693Y439372D01*
X447612Y439285D01*
X447592Y439250D01*
X447567Y439218D01*
X447516Y439111D01*
X447458Y439006D01*
X447448Y438967D01*
X447431Y438931D01*
X447409Y438814D01*
X447379Y438698D01*
X447375Y438638D01*
X447371Y438618D01*
X447373Y438598D01*
X447369Y438538D01*
X447369Y425353D01*
X447038Y425418D01*
X445520Y426047D01*
X445472Y426061D01*
X445427Y426082D01*
X445319Y426102D01*
X445213Y426131D01*
X445163Y426132D01*
X445114Y426142D01*
X445005Y426135D01*
X444895Y426136D01*
X444847Y426125D01*
X444797Y426122D01*
X444693Y426088D01*
X444586Y426062D01*
X444542Y426039D01*
X444495Y426024D01*
X444402Y425965D01*
X444305Y425914D01*
X444268Y425880D01*
X444226Y425854D01*
X444151Y425774D01*
X444069Y425700D01*
X444042Y425658D01*
X444008Y425622D01*
X443955Y425526D01*
X443895Y425434D01*
X443878Y425387D01*
X443854Y425343D01*
X443827Y425237D01*
X443791Y425133D01*
X443787Y425084D01*
X443775Y425036D01*
X443765Y424875D01*
X443765Y397957D01*
X443782Y397819D01*
X443795Y397681D01*
X443802Y397662D01*
X443805Y397642D01*
X443856Y397512D01*
X443903Y397381D01*
X443914Y397365D01*
X443922Y397346D01*
X444003Y397233D01*
X444081Y397118D01*
X444097Y397105D01*
X444108Y397089D01*
X444216Y397000D01*
X444320Y396908D01*
X444338Y396899D01*
X444353Y396886D01*
X444479Y396826D01*
X444603Y396763D01*
X444623Y396759D01*
X444641Y396750D01*
X444778Y396724D01*
X444913Y396694D01*
X444934Y396694D01*
X444953Y396690D01*
X445092Y396699D01*
X445231Y396703D01*
X445251Y396709D01*
X445271Y396710D01*
X445403Y396753D01*
X445537Y396792D01*
X445554Y396802D01*
X445573Y396808D01*
X445653Y396859D01*
X447115Y396859D01*
X447115Y389016D01*
X447130Y388898D01*
X447137Y388779D01*
X447149Y388741D01*
X447155Y388701D01*
X447198Y388590D01*
X447235Y388477D01*
X447257Y388443D01*
X447272Y388405D01*
X447341Y388309D01*
X447405Y388208D01*
X447435Y388180D01*
X447458Y388148D01*
X447550Y388072D01*
X447630Y387997D01*
X447576Y387963D01*
X447548Y387933D01*
X447515Y387909D01*
X447439Y387818D01*
X447358Y387731D01*
X447338Y387696D01*
X447313Y387664D01*
X447262Y387557D01*
X447204Y387452D01*
X447194Y387413D01*
X447177Y387377D01*
X447155Y387260D01*
X447125Y387144D01*
X447121Y387084D01*
X447117Y387064D01*
X447119Y387044D01*
X447115Y386984D01*
X447115Y379141D01*
X445667Y379141D01*
X445552Y379191D01*
X445427Y379250D01*
X445407Y379254D01*
X445388Y379262D01*
X445251Y379284D01*
X445114Y379310D01*
X445094Y379308D01*
X445074Y379312D01*
X444936Y379299D01*
X444797Y379290D01*
X444778Y379284D01*
X444758Y379282D01*
X444627Y379235D01*
X444495Y379192D01*
X444478Y379181D01*
X444458Y379174D01*
X444343Y379096D01*
X444226Y379022D01*
X444212Y379007D01*
X444195Y378996D01*
X444103Y378891D01*
X444008Y378790D01*
X443998Y378772D01*
X443985Y378757D01*
X443921Y378633D01*
X443854Y378512D01*
X443849Y378492D01*
X443840Y378474D01*
X443810Y378338D01*
X443775Y378204D01*
X443773Y378176D01*
X443770Y378164D01*
X443771Y378143D01*
X443765Y378043D01*
X443765Y376597D01*
X443777Y376499D01*
X443780Y376400D01*
X443797Y376341D01*
X443805Y376281D01*
X443841Y376189D01*
X443869Y376094D01*
X443899Y376042D01*
X443922Y375986D01*
X443980Y375906D01*
X444030Y375820D01*
X444096Y375745D01*
X444108Y375728D01*
X444118Y375720D01*
X444136Y375699D01*
X447005Y372830D01*
X447084Y372770D01*
X447156Y372702D01*
X447209Y372673D01*
X447257Y372636D01*
X447348Y372596D01*
X447434Y372548D01*
X447493Y372533D01*
X447548Y372509D01*
X447646Y372494D01*
X447742Y372469D01*
X447842Y372463D01*
X447862Y372459D01*
X447875Y372461D01*
X447903Y372459D01*
X453484Y372459D01*
X459259Y366684D01*
X459259Y358516D01*
X459122Y358380D01*
X459062Y358302D01*
X458994Y358230D01*
X458965Y358177D01*
X458928Y358129D01*
X458888Y358038D01*
X458840Y357951D01*
X458825Y357893D01*
X458801Y357837D01*
X458786Y357739D01*
X458761Y357643D01*
X458755Y357543D01*
X458751Y357523D01*
X458753Y357511D01*
X458751Y357483D01*
X458751Y304399D01*
X458763Y304301D01*
X458766Y304202D01*
X458783Y304144D01*
X458791Y304083D01*
X458827Y303991D01*
X458855Y303896D01*
X458885Y303844D01*
X458908Y303788D01*
X458966Y303708D01*
X459016Y303622D01*
X459082Y303547D01*
X459094Y303530D01*
X459104Y303523D01*
X459122Y303501D01*
X472901Y289722D01*
X472980Y289662D01*
X473052Y289594D01*
X473105Y289565D01*
X473153Y289528D01*
X473244Y289488D01*
X473330Y289440D01*
X473389Y289425D01*
X473445Y289401D01*
X473543Y289386D01*
X473638Y289361D01*
X473738Y289355D01*
X473759Y289351D01*
X473771Y289353D01*
X473799Y289351D01*
X971860Y289351D01*
X975297Y287927D01*
X977311Y285912D01*
X977390Y285852D01*
X977462Y285784D01*
X977515Y285755D01*
X977563Y285718D01*
X977654Y285678D01*
X977740Y285630D01*
X977799Y285615D01*
X977855Y285591D01*
X977953Y285576D01*
X978048Y285551D01*
X978148Y285545D01*
X978169Y285541D01*
X978181Y285543D01*
X978209Y285541D01*
X985410Y285541D01*
X985528Y285556D01*
X985610Y285561D01*
X995030Y285561D01*
X995148Y285576D01*
X995267Y285583D01*
X995305Y285596D01*
X995345Y285601D01*
X995456Y285644D01*
X995569Y285681D01*
X995603Y285703D01*
X995641Y285718D01*
X995737Y285788D01*
X995838Y285851D01*
X995866Y285881D01*
X995898Y285904D01*
X995974Y285996D01*
X996056Y286083D01*
X996075Y286118D01*
X996101Y286149D01*
X996152Y286257D01*
X996209Y286361D01*
X996220Y286401D01*
X996237Y286437D01*
X996259Y286554D01*
X996289Y286669D01*
X996293Y286729D01*
X996297Y286750D01*
X996295Y286770D01*
X996299Y286830D01*
X996299Y288101D01*
X996301Y288101D01*
X996301Y286830D01*
X996316Y286712D01*
X996323Y286593D01*
X996336Y286555D01*
X996341Y286514D01*
X996385Y286404D01*
X996421Y286291D01*
X996443Y286256D01*
X996458Y286219D01*
X996528Y286123D01*
X996591Y286022D01*
X996621Y285994D01*
X996645Y285961D01*
X996736Y285886D01*
X996823Y285804D01*
X996858Y285784D01*
X996890Y285759D01*
X996997Y285708D01*
X997102Y285650D01*
X997141Y285640D01*
X997177Y285623D01*
X997294Y285601D01*
X997409Y285571D01*
X997470Y285567D01*
X997490Y285563D01*
X997510Y285565D01*
X997570Y285561D01*
X1005921Y285561D01*
X1005921Y284113D01*
X1005844Y284014D01*
X1005755Y283907D01*
X1005747Y283888D01*
X1005734Y283872D01*
X1005679Y283745D01*
X1005620Y283619D01*
X1005616Y283599D01*
X1005608Y283580D01*
X1005586Y283443D01*
X1005560Y283306D01*
X1005561Y283286D01*
X1005558Y283266D01*
X1005571Y283128D01*
X1005580Y282989D01*
X1005586Y282970D01*
X1005588Y282950D01*
X1005635Y282818D01*
X1005678Y282687D01*
X1005689Y282670D01*
X1005695Y282650D01*
X1005774Y282535D01*
X1005848Y282418D01*
X1005863Y282404D01*
X1005874Y282387D01*
X1005978Y282295D01*
X1006080Y282200D01*
X1006097Y282190D01*
X1006112Y282177D01*
X1006237Y282113D01*
X1006358Y282046D01*
X1006378Y282041D01*
X1006396Y282032D01*
X1006532Y282002D01*
X1006666Y281967D01*
X1006694Y281965D01*
X1006706Y281962D01*
X1006726Y281963D01*
X1006827Y281957D01*
X1009086Y281957D01*
X1011123Y281113D01*
X1018543Y273692D01*
X1018622Y273632D01*
X1018694Y273564D01*
X1018747Y273535D01*
X1018795Y273498D01*
X1018886Y273458D01*
X1018972Y273410D01*
X1019031Y273395D01*
X1019086Y273371D01*
X1019184Y273356D01*
X1019280Y273331D01*
X1019380Y273325D01*
X1019401Y273321D01*
X1019413Y273323D01*
X1019441Y273321D01*
X1026099Y273321D01*
X1032321Y267099D01*
X1032321Y258301D01*
X1026099Y252079D01*
X1017301Y252079D01*
X1011079Y258301D01*
X1011079Y264959D01*
X1011067Y265057D01*
X1011064Y265156D01*
X1011047Y265215D01*
X1011039Y265275D01*
X1011003Y265367D01*
X1010975Y265462D01*
X1010945Y265514D01*
X1010922Y265570D01*
X1010864Y265650D01*
X1010814Y265736D01*
X1010748Y265811D01*
X1010736Y265828D01*
X1010726Y265836D01*
X1010708Y265857D01*
X1009087Y267477D01*
X1008978Y267562D01*
X1008871Y267651D01*
X1008852Y267659D01*
X1008836Y267672D01*
X1008708Y267727D01*
X1008583Y267786D01*
X1008563Y267790D01*
X1008544Y267798D01*
X1008406Y267820D01*
X1008270Y267846D01*
X1008250Y267845D01*
X1008230Y267848D01*
X1008091Y267835D01*
X1007953Y267826D01*
X1007934Y267820D01*
X1007914Y267818D01*
X1007782Y267771D01*
X1007651Y267728D01*
X1007633Y267717D01*
X1007614Y267710D01*
X1007499Y267632D01*
X1007382Y267558D01*
X1007368Y267543D01*
X1007351Y267532D01*
X1007259Y267428D01*
X1007164Y267326D01*
X1007154Y267309D01*
X1007141Y267293D01*
X1007077Y267169D01*
X1007010Y267048D01*
X1007005Y267028D01*
X1006996Y267010D01*
X1006966Y266874D01*
X1006931Y266740D01*
X1006929Y266712D01*
X1006926Y266700D01*
X1006927Y266679D01*
X1006921Y266579D01*
X1006921Y258301D01*
X1000699Y252079D01*
X991901Y252079D01*
X991003Y252978D01*
X990924Y253038D01*
X990852Y253106D01*
X990799Y253135D01*
X990751Y253172D01*
X990660Y253212D01*
X990574Y253260D01*
X990515Y253275D01*
X990459Y253299D01*
X990361Y253314D01*
X990266Y253339D01*
X990166Y253345D01*
X990145Y253349D01*
X990133Y253347D01*
X990105Y253349D01*
X49895Y253349D01*
X49797Y253337D01*
X49698Y253334D01*
X49639Y253317D01*
X49579Y253309D01*
X49487Y253273D01*
X49392Y253245D01*
X49340Y253215D01*
X49284Y253192D01*
X49204Y253134D01*
X49118Y253084D01*
X49043Y253018D01*
X49026Y253006D01*
X49019Y252996D01*
X48997Y252977D01*
X48099Y252079D01*
X39301Y252079D01*
X33079Y258301D01*
X33079Y266579D01*
X33062Y266717D01*
X33049Y266856D01*
X33042Y266875D01*
X33039Y266895D01*
X32988Y267024D01*
X32941Y267155D01*
X32930Y267172D01*
X32922Y267190D01*
X32841Y267303D01*
X32763Y267418D01*
X32747Y267431D01*
X32736Y267448D01*
X32628Y267537D01*
X32524Y267629D01*
X32506Y267638D01*
X32491Y267651D01*
X32365Y267710D01*
X32241Y267773D01*
X32221Y267778D01*
X32203Y267786D01*
X32067Y267812D01*
X31931Y267843D01*
X31910Y267842D01*
X31891Y267846D01*
X31752Y267837D01*
X31613Y267833D01*
X31593Y267827D01*
X31573Y267826D01*
X31441Y267783D01*
X31307Y267745D01*
X31290Y267734D01*
X31271Y267728D01*
X31153Y267654D01*
X31033Y267583D01*
X31012Y267565D01*
X31002Y267558D01*
X30988Y267543D01*
X30913Y267477D01*
X29292Y265857D01*
X29232Y265778D01*
X29164Y265706D01*
X29135Y265653D01*
X29098Y265605D01*
X29058Y265514D01*
X29010Y265428D01*
X28995Y265369D01*
X28971Y265314D01*
X28956Y265216D01*
X28931Y265120D01*
X28925Y265020D01*
X28921Y265000D01*
X28923Y264987D01*
X28921Y264959D01*
X28921Y258301D01*
X22699Y252079D01*
X13901Y252079D01*
G37*
%LPD*%
%LPC*%
G36*
X201000Y199269D02*
X201000Y199269D01*
X191000Y199269D01*
X181000Y199269D01*
X176154Y199269D01*
X176191Y199459D01*
X176568Y200369D01*
X176706Y200575D01*
X176713Y200588D01*
X176722Y200599D01*
X176784Y200730D01*
X176848Y200859D01*
X176851Y200874D01*
X176858Y200887D01*
X176885Y201029D01*
X176915Y201170D01*
X176915Y201185D01*
X176918Y201200D01*
X176909Y201343D01*
X176903Y201488D01*
X176899Y201502D01*
X176898Y201517D01*
X176853Y201654D01*
X176812Y201793D01*
X176804Y201805D01*
X176800Y201819D01*
X176722Y201942D01*
X176648Y202065D01*
X176638Y202076D01*
X176630Y202088D01*
X176524Y202187D01*
X176422Y202288D01*
X176409Y202296D01*
X176398Y202306D01*
X176272Y202376D01*
X176147Y202448D01*
X176132Y202452D01*
X176119Y202460D01*
X175980Y202496D01*
X175841Y202535D01*
X175826Y202535D01*
X175812Y202539D01*
X175651Y202549D01*
X49895Y202549D01*
X49797Y202537D01*
X49698Y202534D01*
X49639Y202517D01*
X49579Y202509D01*
X49487Y202473D01*
X49392Y202445D01*
X49340Y202415D01*
X49284Y202392D01*
X49204Y202334D01*
X49118Y202284D01*
X49043Y202218D01*
X49026Y202206D01*
X49019Y202196D01*
X48997Y202177D01*
X48099Y201279D01*
X39301Y201279D01*
X33079Y207501D01*
X33079Y216299D01*
X39301Y222521D01*
X48099Y222521D01*
X48997Y221623D01*
X49076Y221562D01*
X49148Y221494D01*
X49201Y221465D01*
X49249Y221428D01*
X49340Y221388D01*
X49426Y221340D01*
X49485Y221325D01*
X49541Y221301D01*
X49639Y221286D01*
X49734Y221261D01*
X49834Y221255D01*
X49855Y221251D01*
X49867Y221253D01*
X49895Y221251D01*
X990105Y221251D01*
X990203Y221263D01*
X990302Y221266D01*
X990360Y221283D01*
X990421Y221291D01*
X990513Y221327D01*
X990608Y221355D01*
X990660Y221385D01*
X990716Y221408D01*
X990796Y221466D01*
X990882Y221516D01*
X990957Y221582D01*
X990974Y221594D01*
X990981Y221604D01*
X991003Y221622D01*
X991901Y222521D01*
X1000699Y222521D01*
X1001597Y221622D01*
X1001676Y221562D01*
X1001748Y221494D01*
X1001801Y221465D01*
X1001849Y221428D01*
X1001940Y221388D01*
X1002026Y221340D01*
X1002085Y221325D01*
X1002141Y221301D01*
X1002239Y221286D01*
X1002334Y221261D01*
X1002434Y221255D01*
X1002455Y221251D01*
X1002467Y221253D01*
X1002495Y221251D01*
X1015505Y221251D01*
X1015603Y221263D01*
X1015702Y221266D01*
X1015761Y221283D01*
X1015821Y221291D01*
X1015913Y221327D01*
X1016008Y221355D01*
X1016060Y221385D01*
X1016116Y221408D01*
X1016196Y221466D01*
X1016282Y221516D01*
X1016357Y221582D01*
X1016374Y221594D01*
X1016381Y221604D01*
X1016403Y221623D01*
X1017301Y222521D01*
X1026099Y222521D01*
X1032321Y216299D01*
X1032321Y207501D01*
X1026099Y201279D01*
X1017301Y201279D01*
X1016403Y202177D01*
X1016324Y202238D01*
X1016252Y202306D01*
X1016199Y202335D01*
X1016151Y202372D01*
X1016060Y202412D01*
X1015974Y202460D01*
X1015915Y202475D01*
X1015859Y202499D01*
X1015761Y202514D01*
X1015666Y202539D01*
X1015566Y202545D01*
X1015545Y202549D01*
X1015533Y202547D01*
X1015505Y202549D01*
X1002495Y202549D01*
X1002397Y202537D01*
X1002298Y202534D01*
X1002240Y202517D01*
X1002179Y202509D01*
X1002087Y202473D01*
X1001992Y202445D01*
X1001940Y202415D01*
X1001884Y202392D01*
X1001804Y202334D01*
X1001718Y202284D01*
X1001643Y202218D01*
X1001626Y202206D01*
X1001619Y202196D01*
X1001597Y202178D01*
X1000699Y201279D01*
X991901Y201279D01*
X991003Y202178D01*
X990924Y202238D01*
X990852Y202306D01*
X990799Y202335D01*
X990751Y202372D01*
X990660Y202412D01*
X990574Y202460D01*
X990515Y202475D01*
X990459Y202499D01*
X990361Y202514D01*
X990266Y202539D01*
X990166Y202545D01*
X990145Y202549D01*
X990133Y202547D01*
X990105Y202549D01*
X206349Y202549D01*
X206335Y202547D01*
X206320Y202549D01*
X206177Y202527D01*
X206034Y202509D01*
X206020Y202504D01*
X206005Y202502D01*
X205872Y202445D01*
X205738Y202392D01*
X205726Y202384D01*
X205712Y202378D01*
X205597Y202290D01*
X205481Y202206D01*
X205471Y202194D01*
X205459Y202185D01*
X205370Y202072D01*
X205278Y201961D01*
X205272Y201947D01*
X205262Y201936D01*
X205204Y201803D01*
X205142Y201673D01*
X205140Y201658D01*
X205134Y201645D01*
X205110Y201502D01*
X205083Y201361D01*
X205083Y201346D01*
X205081Y201331D01*
X205093Y201187D01*
X205102Y201043D01*
X205107Y201029D01*
X205108Y201014D01*
X205156Y200878D01*
X205200Y200741D01*
X205208Y200728D01*
X205213Y200714D01*
X205294Y200575D01*
X205432Y200369D01*
X205809Y199459D01*
X205846Y199269D01*
X201000Y199269D01*
X201000Y199269D01*
G37*
%LPD*%
%LPC*%
G36*
X39301Y226679D02*
X39301Y226679D01*
X33079Y232901D01*
X33079Y241699D01*
X39301Y247921D01*
X48099Y247921D01*
X48997Y247023D01*
X49076Y246962D01*
X49148Y246894D01*
X49201Y246865D01*
X49249Y246828D01*
X49340Y246788D01*
X49426Y246740D01*
X49485Y246725D01*
X49541Y246701D01*
X49639Y246686D01*
X49734Y246661D01*
X49834Y246655D01*
X49855Y246651D01*
X49867Y246653D01*
X49895Y246651D01*
X990105Y246651D01*
X990203Y246663D01*
X990302Y246666D01*
X990360Y246683D01*
X990421Y246691D01*
X990513Y246727D01*
X990608Y246755D01*
X990660Y246785D01*
X990716Y246808D01*
X990796Y246866D01*
X990882Y246916D01*
X990957Y246982D01*
X990974Y246994D01*
X990981Y247004D01*
X991003Y247022D01*
X991901Y247921D01*
X1000699Y247921D01*
X1001597Y247022D01*
X1001676Y246962D01*
X1001748Y246894D01*
X1001801Y246865D01*
X1001849Y246828D01*
X1001940Y246788D01*
X1002026Y246740D01*
X1002085Y246725D01*
X1002141Y246701D01*
X1002239Y246686D01*
X1002334Y246661D01*
X1002434Y246655D01*
X1002455Y246651D01*
X1002467Y246653D01*
X1002495Y246651D01*
X1015505Y246651D01*
X1015603Y246663D01*
X1015702Y246666D01*
X1015761Y246683D01*
X1015821Y246691D01*
X1015913Y246727D01*
X1016008Y246755D01*
X1016060Y246785D01*
X1016116Y246808D01*
X1016196Y246866D01*
X1016282Y246916D01*
X1016357Y246982D01*
X1016374Y246994D01*
X1016381Y247004D01*
X1016403Y247023D01*
X1017301Y247921D01*
X1026099Y247921D01*
X1032321Y241699D01*
X1032321Y232901D01*
X1026099Y226679D01*
X1017301Y226679D01*
X1016403Y227577D01*
X1016324Y227638D01*
X1016252Y227706D01*
X1016199Y227735D01*
X1016151Y227772D01*
X1016060Y227812D01*
X1015974Y227860D01*
X1015915Y227875D01*
X1015859Y227899D01*
X1015761Y227914D01*
X1015666Y227939D01*
X1015566Y227945D01*
X1015545Y227949D01*
X1015533Y227947D01*
X1015505Y227949D01*
X1002495Y227949D01*
X1002397Y227937D01*
X1002298Y227934D01*
X1002240Y227917D01*
X1002179Y227909D01*
X1002087Y227873D01*
X1001992Y227845D01*
X1001940Y227815D01*
X1001884Y227792D01*
X1001804Y227734D01*
X1001718Y227684D01*
X1001643Y227618D01*
X1001626Y227606D01*
X1001619Y227596D01*
X1001597Y227578D01*
X1000699Y226679D01*
X991901Y226679D01*
X991003Y227578D01*
X990924Y227638D01*
X990852Y227706D01*
X990799Y227735D01*
X990751Y227772D01*
X990660Y227812D01*
X990574Y227860D01*
X990515Y227875D01*
X990459Y227899D01*
X990361Y227914D01*
X990266Y227939D01*
X990166Y227945D01*
X990145Y227949D01*
X990133Y227947D01*
X990105Y227949D01*
X49895Y227949D01*
X49797Y227937D01*
X49698Y227934D01*
X49639Y227917D01*
X49579Y227909D01*
X49487Y227873D01*
X49392Y227845D01*
X49340Y227815D01*
X49284Y227792D01*
X49204Y227734D01*
X49118Y227684D01*
X49043Y227618D01*
X49026Y227606D01*
X49019Y227596D01*
X48997Y227577D01*
X48099Y226679D01*
X39301Y226679D01*
G37*
%LPD*%
%LPC*%
G36*
X724716Y352741D02*
X724716Y352741D01*
X718941Y358516D01*
X718941Y364097D01*
X718929Y364195D01*
X718926Y364294D01*
X718909Y364353D01*
X718901Y364413D01*
X718865Y364505D01*
X718837Y364600D01*
X718807Y364652D01*
X718784Y364708D01*
X718726Y364788D01*
X718676Y364874D01*
X718610Y364949D01*
X718598Y364966D01*
X718588Y364974D01*
X718570Y364995D01*
X712927Y370637D01*
X712083Y372674D01*
X712083Y379677D01*
X712066Y379814D01*
X712053Y379953D01*
X712046Y379972D01*
X712043Y379992D01*
X711992Y380121D01*
X711945Y380252D01*
X711934Y380269D01*
X711926Y380288D01*
X711845Y380400D01*
X711767Y380515D01*
X711751Y380529D01*
X711740Y380545D01*
X711632Y380634D01*
X711528Y380726D01*
X711510Y380735D01*
X711495Y380748D01*
X711369Y380807D01*
X711245Y380871D01*
X711225Y380875D01*
X711207Y380884D01*
X711071Y380910D01*
X710935Y380940D01*
X710914Y380940D01*
X710895Y380943D01*
X710756Y380935D01*
X710617Y380931D01*
X710597Y380925D01*
X710577Y380924D01*
X710445Y380881D01*
X710311Y380842D01*
X710294Y380832D01*
X710275Y380826D01*
X710157Y380751D01*
X710037Y380681D01*
X710016Y380662D01*
X710006Y380655D01*
X709992Y380640D01*
X709917Y380574D01*
X707484Y378141D01*
X699316Y378141D01*
X693541Y383916D01*
X693541Y392084D01*
X693677Y392220D01*
X693738Y392298D01*
X693806Y392370D01*
X693835Y392423D01*
X693872Y392471D01*
X693912Y392562D01*
X693960Y392649D01*
X693975Y392707D01*
X693999Y392763D01*
X694014Y392861D01*
X694039Y392957D01*
X694045Y393057D01*
X694049Y393077D01*
X694047Y393089D01*
X694049Y393117D01*
X694049Y441160D01*
X694207Y441540D01*
X694209Y441549D01*
X694214Y441557D01*
X694251Y441702D01*
X694291Y441847D01*
X694291Y441856D01*
X694293Y441865D01*
X694303Y442026D01*
X694303Y447205D01*
X695688Y450549D01*
X698247Y453108D01*
X701591Y454493D01*
X705209Y454493D01*
X708553Y453108D01*
X710348Y451313D01*
X710387Y451283D01*
X710420Y451246D01*
X710512Y451185D01*
X710599Y451118D01*
X710645Y451098D01*
X710686Y451071D01*
X710790Y451035D01*
X710891Y450992D01*
X710940Y450984D01*
X710987Y450968D01*
X711096Y450959D01*
X711205Y450942D01*
X711255Y450947D01*
X711304Y450943D01*
X711412Y450961D01*
X711522Y450972D01*
X711568Y450988D01*
X711617Y450997D01*
X711717Y451042D01*
X711821Y451079D01*
X711862Y451107D01*
X711907Y451128D01*
X711993Y451196D01*
X712084Y451258D01*
X712117Y451295D01*
X712156Y451326D01*
X712222Y451414D01*
X712294Y451496D01*
X712317Y451541D01*
X712347Y451580D01*
X712418Y451725D01*
X712927Y452953D01*
X720759Y460785D01*
X720832Y460880D01*
X720911Y460969D01*
X720929Y461005D01*
X720954Y461037D01*
X721001Y461146D01*
X721055Y461252D01*
X721064Y461291D01*
X721080Y461329D01*
X721099Y461446D01*
X721125Y461562D01*
X721124Y461603D01*
X721130Y461643D01*
X721119Y461761D01*
X721115Y461880D01*
X721104Y461919D01*
X721100Y461959D01*
X721060Y462071D01*
X721027Y462186D01*
X721006Y462220D01*
X720993Y462259D01*
X720926Y462357D01*
X720865Y462460D01*
X720825Y462505D01*
X720814Y462522D01*
X720799Y462535D01*
X720759Y462580D01*
X719088Y464251D01*
X717703Y467595D01*
X717703Y483405D01*
X719088Y486749D01*
X721647Y489308D01*
X724991Y490693D01*
X728609Y490693D01*
X731953Y489308D01*
X734512Y486749D01*
X735897Y483405D01*
X735897Y467595D01*
X734512Y464251D01*
X732712Y462452D01*
X732652Y462374D01*
X732584Y462301D01*
X732555Y462248D01*
X732518Y462201D01*
X732478Y462110D01*
X732430Y462023D01*
X732415Y461964D01*
X732391Y461909D01*
X732376Y461811D01*
X732351Y461715D01*
X732345Y461615D01*
X732341Y461595D01*
X732343Y461582D01*
X732341Y461554D01*
X732341Y457889D01*
X731466Y455777D01*
X731424Y455723D01*
X731404Y455677D01*
X731377Y455636D01*
X731341Y455532D01*
X731298Y455431D01*
X731290Y455382D01*
X731274Y455335D01*
X731265Y455226D01*
X731248Y455117D01*
X731253Y455067D01*
X731249Y455018D01*
X731267Y454910D01*
X731278Y454800D01*
X731295Y454753D01*
X731303Y454705D01*
X731348Y454604D01*
X731385Y454501D01*
X731413Y454460D01*
X731434Y454415D01*
X731502Y454329D01*
X731564Y454238D01*
X731601Y454205D01*
X731632Y454166D01*
X731720Y454100D01*
X731802Y454027D01*
X731847Y454005D01*
X731886Y453975D01*
X732031Y453904D01*
X733953Y453108D01*
X735748Y451313D01*
X735787Y451283D01*
X735820Y451246D01*
X735912Y451185D01*
X735999Y451118D01*
X736045Y451098D01*
X736086Y451071D01*
X736190Y451035D01*
X736291Y450992D01*
X736340Y450984D01*
X736387Y450968D01*
X736496Y450959D01*
X736605Y450942D01*
X736655Y450947D01*
X736704Y450943D01*
X736812Y450961D01*
X736922Y450972D01*
X736968Y450988D01*
X737017Y450997D01*
X737117Y451042D01*
X737221Y451079D01*
X737262Y451107D01*
X737307Y451128D01*
X737393Y451196D01*
X737484Y451258D01*
X737517Y451295D01*
X737556Y451326D01*
X737622Y451414D01*
X737694Y451496D01*
X737717Y451541D01*
X737747Y451580D01*
X737818Y451725D01*
X738327Y452953D01*
X746159Y460785D01*
X746232Y460880D01*
X746311Y460969D01*
X746329Y461005D01*
X746354Y461037D01*
X746401Y461146D01*
X746455Y461252D01*
X746464Y461291D01*
X746480Y461329D01*
X746499Y461446D01*
X746525Y461562D01*
X746524Y461603D01*
X746530Y461643D01*
X746519Y461761D01*
X746515Y461880D01*
X746504Y461919D01*
X746500Y461959D01*
X746460Y462071D01*
X746427Y462186D01*
X746406Y462220D01*
X746393Y462259D01*
X746326Y462357D01*
X746265Y462460D01*
X746225Y462505D01*
X746214Y462522D01*
X746199Y462535D01*
X746159Y462580D01*
X744488Y464251D01*
X743103Y467595D01*
X743103Y483405D01*
X744488Y486749D01*
X747047Y489308D01*
X750391Y490693D01*
X754009Y490693D01*
X757353Y489308D01*
X759912Y486749D01*
X761297Y483405D01*
X761297Y467595D01*
X759912Y464251D01*
X758112Y462452D01*
X758052Y462373D01*
X757984Y462301D01*
X757955Y462248D01*
X757918Y462200D01*
X757878Y462110D01*
X757830Y462023D01*
X757815Y461964D01*
X757791Y461909D01*
X757776Y461811D01*
X757751Y461715D01*
X757745Y461615D01*
X757741Y461595D01*
X757743Y461582D01*
X757741Y461554D01*
X757741Y457889D01*
X756897Y455852D01*
X756254Y455209D01*
X756223Y455169D01*
X756186Y455136D01*
X756126Y455044D01*
X756059Y454957D01*
X756039Y454912D01*
X756012Y454870D01*
X755976Y454767D01*
X755932Y454666D01*
X755925Y454616D01*
X755908Y454570D01*
X755900Y454460D01*
X755883Y454352D01*
X755887Y454302D01*
X755883Y454253D01*
X755902Y454145D01*
X755912Y454035D01*
X755929Y453988D01*
X755938Y453939D01*
X755983Y453839D01*
X756020Y453736D01*
X756048Y453694D01*
X756068Y453649D01*
X756137Y453563D01*
X756199Y453472D01*
X756236Y453440D01*
X756267Y453401D01*
X756355Y453335D01*
X756437Y453262D01*
X756481Y453239D01*
X756521Y453210D01*
X756665Y453139D01*
X758035Y452571D01*
X759361Y451685D01*
X760489Y450557D01*
X760559Y450453D01*
X760627Y450375D01*
X760688Y450290D01*
X760731Y450255D01*
X760767Y450213D01*
X760853Y450154D01*
X760933Y450087D01*
X760983Y450064D01*
X761029Y450032D01*
X761127Y449996D01*
X761221Y449952D01*
X761275Y449941D01*
X761327Y449922D01*
X761431Y449911D01*
X761534Y449892D01*
X761588Y449895D01*
X761643Y449890D01*
X761747Y449905D01*
X761851Y449912D01*
X761903Y449928D01*
X761958Y449937D01*
X762054Y449977D01*
X762153Y450010D01*
X762200Y450039D01*
X762251Y450060D01*
X762334Y450124D01*
X762422Y450180D01*
X762460Y450220D01*
X762504Y450253D01*
X762568Y450335D01*
X762640Y450411D01*
X762667Y450460D01*
X762701Y450503D01*
X762728Y450565D01*
X762758Y450624D01*
X762794Y450690D01*
X762801Y450718D01*
X763727Y452953D01*
X771559Y460785D01*
X771632Y460880D01*
X771711Y460969D01*
X771729Y461005D01*
X771754Y461037D01*
X771801Y461146D01*
X771855Y461252D01*
X771864Y461291D01*
X771880Y461329D01*
X771899Y461446D01*
X771925Y461562D01*
X771924Y461603D01*
X771930Y461643D01*
X771919Y461761D01*
X771915Y461880D01*
X771904Y461919D01*
X771900Y461959D01*
X771860Y462071D01*
X771827Y462186D01*
X771806Y462220D01*
X771793Y462259D01*
X771726Y462357D01*
X771665Y462460D01*
X771625Y462505D01*
X771614Y462522D01*
X771599Y462535D01*
X771559Y462580D01*
X769888Y464251D01*
X768503Y467595D01*
X768503Y483405D01*
X769888Y486749D01*
X772447Y489308D01*
X775791Y490693D01*
X779409Y490693D01*
X782753Y489308D01*
X785312Y486749D01*
X786697Y483405D01*
X786697Y467595D01*
X785312Y464251D01*
X783512Y462452D01*
X783452Y462373D01*
X783384Y462301D01*
X783355Y462248D01*
X783318Y462200D01*
X783278Y462110D01*
X783230Y462023D01*
X783215Y461964D01*
X783191Y461909D01*
X783176Y461811D01*
X783151Y461715D01*
X783145Y461615D01*
X783141Y461595D01*
X783143Y461582D01*
X783141Y461554D01*
X783141Y457889D01*
X782266Y455777D01*
X782224Y455723D01*
X782204Y455677D01*
X782177Y455636D01*
X782141Y455532D01*
X782098Y455431D01*
X782090Y455382D01*
X782074Y455335D01*
X782065Y455226D01*
X782048Y455117D01*
X782053Y455067D01*
X782049Y455018D01*
X782067Y454910D01*
X782078Y454800D01*
X782095Y454753D01*
X782103Y454705D01*
X782148Y454604D01*
X782185Y454501D01*
X782213Y454460D01*
X782234Y454415D01*
X782302Y454329D01*
X782364Y454238D01*
X782401Y454205D01*
X782432Y454166D01*
X782520Y454100D01*
X782602Y454027D01*
X782647Y454005D01*
X782686Y453975D01*
X782831Y453904D01*
X784753Y453108D01*
X786548Y451313D01*
X786587Y451282D01*
X786620Y451246D01*
X786712Y451185D01*
X786799Y451118D01*
X786845Y451098D01*
X786886Y451071D01*
X786990Y451035D01*
X787091Y450992D01*
X787140Y450984D01*
X787187Y450968D01*
X787296Y450959D01*
X787405Y450942D01*
X787455Y450947D01*
X787504Y450943D01*
X787612Y450961D01*
X787722Y450972D01*
X787768Y450988D01*
X787817Y450997D01*
X787918Y451042D01*
X788021Y451079D01*
X788062Y451107D01*
X788107Y451128D01*
X788193Y451196D01*
X788284Y451258D01*
X788317Y451295D01*
X788356Y451326D01*
X788422Y451414D01*
X788494Y451496D01*
X788517Y451541D01*
X788547Y451580D01*
X788618Y451725D01*
X789127Y452953D01*
X796959Y460785D01*
X797032Y460880D01*
X797111Y460969D01*
X797129Y461005D01*
X797154Y461037D01*
X797201Y461146D01*
X797255Y461252D01*
X797264Y461291D01*
X797280Y461329D01*
X797299Y461446D01*
X797325Y461562D01*
X797324Y461603D01*
X797330Y461643D01*
X797319Y461761D01*
X797315Y461880D01*
X797304Y461919D01*
X797300Y461959D01*
X797260Y462071D01*
X797227Y462186D01*
X797206Y462220D01*
X797193Y462259D01*
X797126Y462357D01*
X797065Y462460D01*
X797025Y462505D01*
X797014Y462522D01*
X796999Y462535D01*
X796959Y462580D01*
X795288Y464251D01*
X793903Y467595D01*
X793903Y483405D01*
X795288Y486749D01*
X797847Y489308D01*
X801191Y490693D01*
X804809Y490693D01*
X808153Y489308D01*
X810712Y486749D01*
X812097Y483405D01*
X812097Y467595D01*
X810712Y464251D01*
X808912Y462452D01*
X808852Y462373D01*
X808784Y462301D01*
X808755Y462248D01*
X808718Y462200D01*
X808678Y462110D01*
X808630Y462023D01*
X808615Y461964D01*
X808591Y461909D01*
X808576Y461811D01*
X808551Y461715D01*
X808545Y461615D01*
X808541Y461595D01*
X808543Y461582D01*
X808541Y461554D01*
X808541Y457889D01*
X807697Y455852D01*
X807054Y455209D01*
X807023Y455169D01*
X806986Y455136D01*
X806926Y455044D01*
X806859Y454957D01*
X806839Y454912D01*
X806812Y454870D01*
X806776Y454767D01*
X806732Y454666D01*
X806725Y454616D01*
X806708Y454570D01*
X806700Y454460D01*
X806683Y454352D01*
X806687Y454302D01*
X806683Y454253D01*
X806702Y454145D01*
X806712Y454035D01*
X806729Y453988D01*
X806738Y453939D01*
X806783Y453839D01*
X806820Y453736D01*
X806848Y453694D01*
X806868Y453649D01*
X806937Y453563D01*
X806999Y453472D01*
X807036Y453440D01*
X807067Y453401D01*
X807155Y453335D01*
X807237Y453262D01*
X807281Y453239D01*
X807321Y453210D01*
X807465Y453139D01*
X808835Y452571D01*
X810161Y451685D01*
X811289Y450557D01*
X811359Y450453D01*
X811427Y450375D01*
X811488Y450290D01*
X811531Y450255D01*
X811567Y450213D01*
X811653Y450154D01*
X811733Y450087D01*
X811783Y450064D01*
X811829Y450032D01*
X811927Y449996D01*
X812021Y449952D01*
X812075Y449941D01*
X812127Y449922D01*
X812231Y449911D01*
X812334Y449892D01*
X812388Y449895D01*
X812443Y449890D01*
X812547Y449905D01*
X812651Y449912D01*
X812703Y449928D01*
X812758Y449937D01*
X812854Y449977D01*
X812953Y450010D01*
X813000Y450039D01*
X813051Y450060D01*
X813134Y450124D01*
X813222Y450180D01*
X813260Y450220D01*
X813304Y450253D01*
X813368Y450335D01*
X813440Y450411D01*
X813467Y450460D01*
X813501Y450503D01*
X813528Y450565D01*
X813558Y450624D01*
X813594Y450690D01*
X813601Y450718D01*
X814527Y452953D01*
X816264Y454691D01*
X822359Y460785D01*
X822432Y460880D01*
X822511Y460969D01*
X822529Y461005D01*
X822554Y461037D01*
X822601Y461146D01*
X822655Y461252D01*
X822664Y461291D01*
X822680Y461329D01*
X822699Y461446D01*
X822725Y461562D01*
X822724Y461603D01*
X822730Y461643D01*
X822719Y461761D01*
X822715Y461880D01*
X822704Y461919D01*
X822700Y461959D01*
X822660Y462071D01*
X822627Y462186D01*
X822606Y462220D01*
X822593Y462259D01*
X822526Y462357D01*
X822465Y462460D01*
X822425Y462505D01*
X822414Y462522D01*
X822399Y462535D01*
X822359Y462580D01*
X820688Y464251D01*
X819303Y467595D01*
X819303Y483405D01*
X820688Y486749D01*
X823247Y489308D01*
X826591Y490693D01*
X830209Y490693D01*
X833553Y489308D01*
X836112Y486749D01*
X837497Y483405D01*
X837497Y467595D01*
X836112Y464251D01*
X834312Y462452D01*
X834252Y462373D01*
X834184Y462301D01*
X834155Y462248D01*
X834118Y462200D01*
X834078Y462110D01*
X834030Y462023D01*
X834015Y461964D01*
X833991Y461909D01*
X833976Y461811D01*
X833951Y461715D01*
X833945Y461615D01*
X833941Y461595D01*
X833943Y461582D01*
X833941Y461554D01*
X833941Y457889D01*
X833066Y455777D01*
X833024Y455723D01*
X833004Y455677D01*
X832977Y455636D01*
X832941Y455532D01*
X832898Y455431D01*
X832890Y455382D01*
X832874Y455335D01*
X832865Y455226D01*
X832848Y455117D01*
X832853Y455068D01*
X832849Y455018D01*
X832867Y454910D01*
X832878Y454801D01*
X832894Y454754D01*
X832903Y454705D01*
X832948Y454604D01*
X832985Y454501D01*
X833013Y454460D01*
X833034Y454415D01*
X833102Y454329D01*
X833164Y454238D01*
X833201Y454205D01*
X833232Y454166D01*
X833320Y454100D01*
X833402Y454028D01*
X833446Y454005D01*
X833486Y453975D01*
X833631Y453904D01*
X835553Y453108D01*
X837348Y451313D01*
X837387Y451282D01*
X837420Y451246D01*
X837512Y451185D01*
X837599Y451118D01*
X837645Y451098D01*
X837686Y451071D01*
X837790Y451035D01*
X837891Y450992D01*
X837940Y450984D01*
X837987Y450968D01*
X838096Y450959D01*
X838205Y450942D01*
X838255Y450947D01*
X838304Y450943D01*
X838412Y450961D01*
X838522Y450972D01*
X838568Y450988D01*
X838617Y450997D01*
X838718Y451042D01*
X838821Y451079D01*
X838862Y451107D01*
X838907Y451128D01*
X838993Y451196D01*
X839084Y451258D01*
X839117Y451295D01*
X839156Y451326D01*
X839222Y451414D01*
X839294Y451496D01*
X839317Y451541D01*
X839347Y451580D01*
X839418Y451725D01*
X839927Y452953D01*
X841664Y454691D01*
X847759Y460785D01*
X847832Y460880D01*
X847911Y460969D01*
X847929Y461005D01*
X847954Y461037D01*
X848001Y461146D01*
X848055Y461252D01*
X848064Y461291D01*
X848080Y461329D01*
X848099Y461446D01*
X848125Y461562D01*
X848124Y461603D01*
X848130Y461643D01*
X848119Y461761D01*
X848115Y461880D01*
X848104Y461919D01*
X848100Y461959D01*
X848060Y462071D01*
X848027Y462186D01*
X848006Y462220D01*
X847993Y462259D01*
X847926Y462357D01*
X847865Y462460D01*
X847825Y462505D01*
X847814Y462522D01*
X847799Y462535D01*
X847759Y462580D01*
X846088Y464251D01*
X844703Y467595D01*
X844703Y483405D01*
X846088Y486749D01*
X848647Y489308D01*
X851991Y490693D01*
X855609Y490693D01*
X858953Y489308D01*
X861512Y486749D01*
X862897Y483405D01*
X862897Y467595D01*
X861512Y464251D01*
X859712Y462452D01*
X859652Y462373D01*
X859584Y462301D01*
X859555Y462248D01*
X859518Y462200D01*
X859478Y462110D01*
X859430Y462023D01*
X859415Y461964D01*
X859391Y461909D01*
X859376Y461811D01*
X859351Y461715D01*
X859345Y461615D01*
X859341Y461595D01*
X859343Y461582D01*
X859341Y461554D01*
X859341Y457889D01*
X858466Y455777D01*
X858424Y455723D01*
X858404Y455677D01*
X858377Y455636D01*
X858341Y455532D01*
X858298Y455431D01*
X858290Y455382D01*
X858274Y455335D01*
X858265Y455226D01*
X858248Y455117D01*
X858253Y455068D01*
X858249Y455018D01*
X858267Y454910D01*
X858278Y454801D01*
X858294Y454754D01*
X858303Y454705D01*
X858348Y454604D01*
X858385Y454501D01*
X858413Y454460D01*
X858434Y454415D01*
X858502Y454329D01*
X858564Y454238D01*
X858601Y454205D01*
X858632Y454166D01*
X858720Y454100D01*
X858802Y454028D01*
X858846Y454005D01*
X858886Y453975D01*
X859031Y453904D01*
X860953Y453108D01*
X863512Y450549D01*
X864897Y447205D01*
X864897Y442026D01*
X864898Y442016D01*
X864897Y442007D01*
X864918Y441858D01*
X864937Y441710D01*
X864940Y441701D01*
X864941Y441692D01*
X864993Y441540D01*
X865151Y441160D01*
X865151Y393117D01*
X865163Y393019D01*
X865166Y392920D01*
X865183Y392862D01*
X865191Y392802D01*
X865227Y392710D01*
X865255Y392615D01*
X865285Y392562D01*
X865308Y392506D01*
X865366Y392426D01*
X865416Y392341D01*
X865482Y392265D01*
X865494Y392249D01*
X865504Y392241D01*
X865522Y392220D01*
X865659Y392084D01*
X865659Y383916D01*
X859884Y378141D01*
X851434Y378141D01*
X851316Y378126D01*
X851197Y378119D01*
X851159Y378106D01*
X851118Y378101D01*
X851008Y378058D01*
X850895Y378021D01*
X850860Y377999D01*
X850823Y377984D01*
X850727Y377915D01*
X850626Y377851D01*
X850598Y377821D01*
X850565Y377798D01*
X850489Y377706D01*
X850408Y377619D01*
X850388Y377584D01*
X850363Y377553D01*
X850312Y377445D01*
X850254Y377341D01*
X850244Y377301D01*
X850227Y377265D01*
X850205Y377148D01*
X850175Y377033D01*
X850171Y376973D01*
X850167Y376953D01*
X850169Y376932D01*
X850165Y376872D01*
X850165Y376597D01*
X850177Y376499D01*
X850180Y376400D01*
X850197Y376341D01*
X850205Y376281D01*
X850241Y376189D01*
X850269Y376094D01*
X850299Y376042D01*
X850322Y375986D01*
X850380Y375906D01*
X850430Y375820D01*
X850496Y375745D01*
X850508Y375728D01*
X850518Y375720D01*
X850536Y375699D01*
X853405Y372830D01*
X853484Y372770D01*
X853556Y372702D01*
X853609Y372673D01*
X853657Y372636D01*
X853748Y372596D01*
X853834Y372548D01*
X853893Y372533D01*
X853948Y372509D01*
X854046Y372494D01*
X854142Y372469D01*
X854242Y372463D01*
X854263Y372459D01*
X854275Y372461D01*
X854303Y372459D01*
X859884Y372459D01*
X865659Y366684D01*
X865659Y358516D01*
X859884Y352741D01*
X851716Y352741D01*
X845941Y358516D01*
X845941Y364097D01*
X845929Y364195D01*
X845926Y364294D01*
X845909Y364353D01*
X845901Y364413D01*
X845865Y364505D01*
X845837Y364600D01*
X845807Y364652D01*
X845784Y364708D01*
X845726Y364788D01*
X845676Y364874D01*
X845610Y364949D01*
X845598Y364966D01*
X845588Y364974D01*
X845570Y364995D01*
X839927Y370637D01*
X839083Y372674D01*
X839083Y379677D01*
X839066Y379814D01*
X839053Y379953D01*
X839046Y379972D01*
X839043Y379992D01*
X838992Y380121D01*
X838945Y380252D01*
X838934Y380269D01*
X838926Y380288D01*
X838845Y380400D01*
X838767Y380515D01*
X838751Y380529D01*
X838740Y380545D01*
X838632Y380634D01*
X838528Y380726D01*
X838510Y380735D01*
X838495Y380748D01*
X838369Y380807D01*
X838245Y380871D01*
X838225Y380875D01*
X838207Y380884D01*
X838071Y380910D01*
X837935Y380940D01*
X837914Y380940D01*
X837895Y380943D01*
X837756Y380935D01*
X837617Y380931D01*
X837597Y380925D01*
X837577Y380924D01*
X837445Y380881D01*
X837311Y380842D01*
X837294Y380832D01*
X837275Y380826D01*
X837157Y380751D01*
X837037Y380681D01*
X837016Y380662D01*
X837006Y380655D01*
X836992Y380640D01*
X836917Y380574D01*
X834484Y378141D01*
X826034Y378141D01*
X825916Y378126D01*
X825797Y378119D01*
X825759Y378106D01*
X825718Y378101D01*
X825608Y378058D01*
X825495Y378021D01*
X825460Y377999D01*
X825423Y377984D01*
X825327Y377915D01*
X825226Y377851D01*
X825198Y377821D01*
X825165Y377798D01*
X825089Y377706D01*
X825008Y377619D01*
X824988Y377584D01*
X824963Y377553D01*
X824912Y377445D01*
X824854Y377341D01*
X824844Y377301D01*
X824827Y377265D01*
X824805Y377148D01*
X824775Y377033D01*
X824771Y376973D01*
X824767Y376953D01*
X824769Y376932D01*
X824765Y376872D01*
X824765Y376597D01*
X824777Y376499D01*
X824780Y376400D01*
X824797Y376341D01*
X824805Y376281D01*
X824841Y376189D01*
X824869Y376094D01*
X824899Y376042D01*
X824922Y375986D01*
X824980Y375906D01*
X825030Y375820D01*
X825096Y375745D01*
X825108Y375728D01*
X825118Y375720D01*
X825136Y375699D01*
X828005Y372830D01*
X828084Y372770D01*
X828156Y372702D01*
X828209Y372673D01*
X828257Y372636D01*
X828348Y372596D01*
X828434Y372548D01*
X828493Y372533D01*
X828548Y372509D01*
X828646Y372494D01*
X828742Y372469D01*
X828842Y372463D01*
X828863Y372459D01*
X828875Y372461D01*
X828903Y372459D01*
X834484Y372459D01*
X840259Y366684D01*
X840259Y358516D01*
X834484Y352741D01*
X826316Y352741D01*
X820541Y358516D01*
X820541Y364097D01*
X820529Y364195D01*
X820526Y364294D01*
X820509Y364353D01*
X820501Y364413D01*
X820465Y364505D01*
X820437Y364600D01*
X820407Y364652D01*
X820384Y364708D01*
X820326Y364788D01*
X820276Y364874D01*
X820210Y364949D01*
X820198Y364966D01*
X820188Y364974D01*
X820170Y364995D01*
X814527Y370637D01*
X813683Y372674D01*
X813683Y381091D01*
X813666Y381228D01*
X813653Y381367D01*
X813646Y381386D01*
X813643Y381406D01*
X813592Y381535D01*
X813545Y381667D01*
X813534Y381683D01*
X813526Y381702D01*
X813445Y381815D01*
X813367Y381930D01*
X813351Y381943D01*
X813340Y381959D01*
X813232Y382048D01*
X813128Y382140D01*
X813110Y382149D01*
X813095Y382162D01*
X812969Y382222D01*
X812845Y382285D01*
X812825Y382289D01*
X812807Y382298D01*
X812671Y382324D01*
X812535Y382354D01*
X812514Y382354D01*
X812495Y382358D01*
X812356Y382349D01*
X812217Y382345D01*
X812197Y382339D01*
X812177Y382338D01*
X812045Y382295D01*
X811911Y382256D01*
X811894Y382246D01*
X811875Y382240D01*
X811757Y382165D01*
X811637Y382095D01*
X811616Y382076D01*
X811606Y382070D01*
X811592Y382055D01*
X811517Y381988D01*
X808669Y379141D01*
X807285Y379141D01*
X807285Y386984D01*
X807270Y387102D01*
X807263Y387221D01*
X807250Y387259D01*
X807245Y387299D01*
X807202Y387410D01*
X807165Y387523D01*
X807143Y387557D01*
X807128Y387595D01*
X807059Y387691D01*
X806995Y387792D01*
X806965Y387820D01*
X806942Y387852D01*
X806850Y387928D01*
X806770Y388003D01*
X806824Y388037D01*
X806852Y388067D01*
X806885Y388091D01*
X806961Y388182D01*
X807042Y388269D01*
X807062Y388304D01*
X807087Y388336D01*
X807138Y388443D01*
X807196Y388548D01*
X807206Y388587D01*
X807223Y388623D01*
X807245Y388740D01*
X807275Y388856D01*
X807279Y388916D01*
X807283Y388936D01*
X807281Y388956D01*
X807285Y389016D01*
X807285Y396859D01*
X808669Y396859D01*
X811517Y394012D01*
X811626Y393926D01*
X811733Y393838D01*
X811752Y393829D01*
X811768Y393817D01*
X811896Y393761D01*
X812021Y393702D01*
X812041Y393698D01*
X812060Y393690D01*
X812198Y393668D01*
X812334Y393642D01*
X812354Y393644D01*
X812374Y393640D01*
X812513Y393654D01*
X812651Y393662D01*
X812670Y393668D01*
X812690Y393670D01*
X812822Y393717D01*
X812953Y393760D01*
X812971Y393771D01*
X812990Y393778D01*
X813105Y393856D01*
X813222Y393930D01*
X813236Y393945D01*
X813253Y393956D01*
X813345Y394061D01*
X813440Y394162D01*
X813450Y394180D01*
X813463Y394195D01*
X813527Y394319D01*
X813594Y394440D01*
X813599Y394460D01*
X813608Y394478D01*
X813638Y394614D01*
X813673Y394748D01*
X813675Y394776D01*
X813678Y394788D01*
X813677Y394809D01*
X813683Y394909D01*
X813683Y427442D01*
X813670Y427545D01*
X813666Y427650D01*
X813650Y427702D01*
X813643Y427757D01*
X813605Y427854D01*
X813575Y427954D01*
X813547Y428002D01*
X813526Y428053D01*
X813465Y428137D01*
X813411Y428227D01*
X813372Y428266D01*
X813340Y428310D01*
X813259Y428377D01*
X813185Y428450D01*
X813137Y428478D01*
X813095Y428513D01*
X813000Y428557D01*
X812910Y428610D01*
X812857Y428625D01*
X812807Y428648D01*
X812704Y428668D01*
X812604Y428697D01*
X812549Y428698D01*
X812495Y428708D01*
X812390Y428702D01*
X812286Y428704D01*
X812232Y428692D01*
X812177Y428688D01*
X812078Y428656D01*
X811976Y428633D01*
X811927Y428607D01*
X811875Y428590D01*
X811786Y428535D01*
X811693Y428486D01*
X811652Y428450D01*
X811606Y428420D01*
X811534Y428344D01*
X811456Y428275D01*
X811403Y428205D01*
X811388Y428189D01*
X811381Y428175D01*
X811359Y428147D01*
X811289Y428043D01*
X810161Y426915D01*
X808835Y426029D01*
X807362Y425418D01*
X807031Y425353D01*
X807031Y438538D01*
X807016Y438656D01*
X807009Y438775D01*
X806996Y438813D01*
X806991Y438853D01*
X806948Y438964D01*
X806911Y439077D01*
X806889Y439111D01*
X806874Y439149D01*
X806805Y439245D01*
X806741Y439346D01*
X806711Y439374D01*
X806688Y439406D01*
X806596Y439482D01*
X806509Y439564D01*
X806474Y439583D01*
X806443Y439609D01*
X806335Y439660D01*
X806231Y439717D01*
X806191Y439727D01*
X806155Y439745D01*
X806038Y439767D01*
X805923Y439797D01*
X805863Y439801D01*
X805843Y439804D01*
X805822Y439803D01*
X805762Y439807D01*
X804238Y439807D01*
X804120Y439792D01*
X804001Y439785D01*
X803963Y439772D01*
X803922Y439767D01*
X803812Y439723D01*
X803699Y439687D01*
X803664Y439665D01*
X803627Y439650D01*
X803530Y439580D01*
X803430Y439517D01*
X803402Y439487D01*
X803369Y439463D01*
X803293Y439372D01*
X803212Y439285D01*
X803192Y439250D01*
X803167Y439218D01*
X803116Y439111D01*
X803058Y439006D01*
X803048Y438967D01*
X803031Y438931D01*
X803009Y438814D01*
X802979Y438698D01*
X802975Y438638D01*
X802971Y438618D01*
X802973Y438598D01*
X802969Y438538D01*
X802969Y425353D01*
X802638Y425418D01*
X801120Y426047D01*
X801072Y426061D01*
X801027Y426082D01*
X800919Y426102D01*
X800813Y426131D01*
X800763Y426132D01*
X800714Y426142D01*
X800605Y426135D01*
X800495Y426136D01*
X800447Y426125D01*
X800397Y426122D01*
X800293Y426088D01*
X800186Y426062D01*
X800142Y426039D01*
X800095Y426024D01*
X800002Y425965D01*
X799905Y425914D01*
X799868Y425880D01*
X799826Y425854D01*
X799751Y425774D01*
X799669Y425700D01*
X799642Y425658D01*
X799608Y425622D01*
X799555Y425526D01*
X799495Y425434D01*
X799478Y425387D01*
X799454Y425343D01*
X799427Y425237D01*
X799391Y425133D01*
X799387Y425084D01*
X799375Y425036D01*
X799365Y424875D01*
X799365Y397957D01*
X799382Y397819D01*
X799395Y397681D01*
X799402Y397662D01*
X799405Y397642D01*
X799456Y397512D01*
X799503Y397381D01*
X799514Y397365D01*
X799522Y397346D01*
X799603Y397233D01*
X799681Y397118D01*
X799697Y397105D01*
X799708Y397089D01*
X799816Y397000D01*
X799920Y396908D01*
X799938Y396899D01*
X799953Y396886D01*
X800079Y396826D01*
X800203Y396763D01*
X800223Y396759D01*
X800241Y396750D01*
X800378Y396724D01*
X800513Y396694D01*
X800534Y396694D01*
X800553Y396690D01*
X800692Y396699D01*
X800831Y396703D01*
X800851Y396709D01*
X800871Y396710D01*
X801003Y396753D01*
X801137Y396792D01*
X801154Y396802D01*
X801173Y396808D01*
X801253Y396859D01*
X802715Y396859D01*
X802715Y389016D01*
X802730Y388898D01*
X802737Y388779D01*
X802749Y388741D01*
X802755Y388701D01*
X802798Y388590D01*
X802835Y388477D01*
X802857Y388443D01*
X802872Y388405D01*
X802941Y388309D01*
X803005Y388208D01*
X803035Y388180D01*
X803058Y388148D01*
X803150Y388072D01*
X803230Y387997D01*
X803176Y387963D01*
X803148Y387933D01*
X803115Y387909D01*
X803039Y387818D01*
X802958Y387731D01*
X802938Y387696D01*
X802913Y387664D01*
X802862Y387557D01*
X802804Y387452D01*
X802794Y387413D01*
X802777Y387377D01*
X802755Y387260D01*
X802725Y387144D01*
X802721Y387084D01*
X802717Y387064D01*
X802719Y387044D01*
X802715Y386984D01*
X802715Y379141D01*
X801267Y379141D01*
X801152Y379191D01*
X801027Y379250D01*
X801007Y379254D01*
X800988Y379262D01*
X800851Y379284D01*
X800714Y379310D01*
X800694Y379308D01*
X800674Y379312D01*
X800536Y379299D01*
X800397Y379290D01*
X800378Y379284D01*
X800358Y379282D01*
X800227Y379235D01*
X800095Y379192D01*
X800078Y379181D01*
X800058Y379174D01*
X799943Y379096D01*
X799826Y379022D01*
X799812Y379007D01*
X799795Y378996D01*
X799703Y378891D01*
X799608Y378790D01*
X799598Y378772D01*
X799585Y378757D01*
X799521Y378633D01*
X799454Y378512D01*
X799449Y378492D01*
X799440Y378474D01*
X799410Y378338D01*
X799375Y378204D01*
X799373Y378176D01*
X799370Y378164D01*
X799371Y378143D01*
X799365Y378043D01*
X799365Y376597D01*
X799377Y376499D01*
X799380Y376400D01*
X799397Y376341D01*
X799405Y376281D01*
X799441Y376189D01*
X799469Y376094D01*
X799499Y376042D01*
X799522Y375986D01*
X799580Y375906D01*
X799630Y375820D01*
X799696Y375745D01*
X799708Y375728D01*
X799718Y375720D01*
X799736Y375699D01*
X802605Y372830D01*
X802684Y372770D01*
X802756Y372702D01*
X802809Y372673D01*
X802857Y372636D01*
X802948Y372596D01*
X803034Y372548D01*
X803093Y372533D01*
X803148Y372509D01*
X803246Y372494D01*
X803342Y372469D01*
X803442Y372463D01*
X803463Y372459D01*
X803475Y372461D01*
X803503Y372459D01*
X809084Y372459D01*
X814859Y366684D01*
X814859Y358516D01*
X809084Y352741D01*
X800916Y352741D01*
X795141Y358516D01*
X795141Y364097D01*
X795129Y364195D01*
X795126Y364294D01*
X795109Y364353D01*
X795101Y364413D01*
X795065Y364505D01*
X795037Y364600D01*
X795007Y364652D01*
X794984Y364708D01*
X794926Y364788D01*
X794876Y364874D01*
X794810Y364949D01*
X794798Y364966D01*
X794788Y364974D01*
X794770Y364995D01*
X789127Y370637D01*
X788283Y372674D01*
X788283Y379677D01*
X788266Y379814D01*
X788253Y379953D01*
X788246Y379972D01*
X788243Y379992D01*
X788192Y380121D01*
X788145Y380252D01*
X788134Y380269D01*
X788126Y380288D01*
X788045Y380400D01*
X787967Y380515D01*
X787951Y380529D01*
X787940Y380545D01*
X787832Y380634D01*
X787728Y380726D01*
X787710Y380735D01*
X787695Y380748D01*
X787569Y380807D01*
X787445Y380871D01*
X787425Y380875D01*
X787407Y380884D01*
X787271Y380910D01*
X787135Y380940D01*
X787114Y380940D01*
X787095Y380943D01*
X786956Y380935D01*
X786817Y380931D01*
X786797Y380925D01*
X786777Y380924D01*
X786645Y380881D01*
X786511Y380842D01*
X786494Y380832D01*
X786475Y380826D01*
X786357Y380751D01*
X786237Y380681D01*
X786216Y380662D01*
X786206Y380655D01*
X786192Y380640D01*
X786117Y380574D01*
X783684Y378141D01*
X775234Y378141D01*
X775116Y378126D01*
X774997Y378119D01*
X774959Y378106D01*
X774918Y378101D01*
X774808Y378058D01*
X774695Y378021D01*
X774660Y377999D01*
X774623Y377984D01*
X774527Y377915D01*
X774426Y377851D01*
X774398Y377821D01*
X774365Y377798D01*
X774289Y377706D01*
X774208Y377619D01*
X774188Y377584D01*
X774163Y377553D01*
X774112Y377445D01*
X774054Y377341D01*
X774044Y377301D01*
X774027Y377265D01*
X774005Y377148D01*
X773975Y377033D01*
X773971Y376973D01*
X773967Y376953D01*
X773969Y376932D01*
X773965Y376872D01*
X773965Y376597D01*
X773977Y376499D01*
X773980Y376400D01*
X773997Y376341D01*
X774005Y376281D01*
X774041Y376189D01*
X774069Y376094D01*
X774099Y376042D01*
X774122Y375986D01*
X774180Y375906D01*
X774230Y375820D01*
X774296Y375745D01*
X774308Y375728D01*
X774318Y375720D01*
X774336Y375699D01*
X777205Y372830D01*
X777284Y372770D01*
X777356Y372702D01*
X777409Y372673D01*
X777457Y372636D01*
X777548Y372596D01*
X777634Y372548D01*
X777693Y372533D01*
X777748Y372509D01*
X777846Y372494D01*
X777942Y372469D01*
X778042Y372463D01*
X778063Y372459D01*
X778075Y372461D01*
X778103Y372459D01*
X783684Y372459D01*
X789459Y366684D01*
X789459Y358516D01*
X783684Y352741D01*
X775516Y352741D01*
X769741Y358516D01*
X769741Y364097D01*
X769729Y364195D01*
X769726Y364294D01*
X769709Y364353D01*
X769701Y364413D01*
X769665Y364505D01*
X769637Y364600D01*
X769607Y364652D01*
X769584Y364708D01*
X769526Y364788D01*
X769476Y364874D01*
X769410Y364949D01*
X769398Y364966D01*
X769388Y364974D01*
X769370Y364995D01*
X763727Y370637D01*
X762883Y372674D01*
X762883Y381091D01*
X762866Y381228D01*
X762853Y381367D01*
X762846Y381386D01*
X762843Y381406D01*
X762792Y381535D01*
X762745Y381667D01*
X762734Y381683D01*
X762726Y381702D01*
X762645Y381815D01*
X762567Y381930D01*
X762551Y381943D01*
X762540Y381959D01*
X762432Y382048D01*
X762328Y382140D01*
X762310Y382149D01*
X762295Y382162D01*
X762169Y382222D01*
X762045Y382285D01*
X762025Y382289D01*
X762007Y382298D01*
X761871Y382324D01*
X761735Y382354D01*
X761714Y382354D01*
X761695Y382358D01*
X761556Y382349D01*
X761417Y382345D01*
X761397Y382339D01*
X761377Y382338D01*
X761245Y382295D01*
X761111Y382256D01*
X761094Y382246D01*
X761075Y382240D01*
X760957Y382165D01*
X760837Y382095D01*
X760816Y382076D01*
X760806Y382070D01*
X760792Y382055D01*
X760717Y381988D01*
X757869Y379141D01*
X756485Y379141D01*
X756485Y386984D01*
X756470Y387102D01*
X756463Y387221D01*
X756450Y387259D01*
X756445Y387299D01*
X756402Y387410D01*
X756365Y387523D01*
X756343Y387557D01*
X756328Y387595D01*
X756259Y387691D01*
X756195Y387792D01*
X756165Y387820D01*
X756142Y387852D01*
X756050Y387928D01*
X755970Y388003D01*
X756024Y388037D01*
X756052Y388067D01*
X756085Y388091D01*
X756161Y388182D01*
X756242Y388269D01*
X756262Y388304D01*
X756287Y388336D01*
X756338Y388443D01*
X756396Y388548D01*
X756406Y388587D01*
X756423Y388623D01*
X756445Y388740D01*
X756475Y388856D01*
X756479Y388916D01*
X756483Y388936D01*
X756481Y388956D01*
X756485Y389016D01*
X756485Y396859D01*
X757869Y396859D01*
X760717Y394012D01*
X760826Y393926D01*
X760933Y393838D01*
X760952Y393829D01*
X760968Y393817D01*
X761096Y393761D01*
X761221Y393702D01*
X761241Y393698D01*
X761260Y393690D01*
X761398Y393668D01*
X761534Y393642D01*
X761554Y393644D01*
X761574Y393640D01*
X761713Y393654D01*
X761851Y393662D01*
X761870Y393668D01*
X761890Y393670D01*
X762022Y393717D01*
X762153Y393760D01*
X762171Y393771D01*
X762190Y393778D01*
X762305Y393856D01*
X762422Y393930D01*
X762436Y393945D01*
X762453Y393956D01*
X762545Y394061D01*
X762640Y394162D01*
X762650Y394180D01*
X762663Y394195D01*
X762727Y394319D01*
X762794Y394440D01*
X762799Y394460D01*
X762808Y394478D01*
X762838Y394614D01*
X762873Y394748D01*
X762875Y394776D01*
X762878Y394788D01*
X762877Y394809D01*
X762883Y394909D01*
X762883Y427442D01*
X762870Y427545D01*
X762866Y427650D01*
X762850Y427702D01*
X762843Y427757D01*
X762805Y427854D01*
X762775Y427954D01*
X762747Y428002D01*
X762726Y428053D01*
X762665Y428137D01*
X762611Y428227D01*
X762572Y428266D01*
X762540Y428310D01*
X762459Y428377D01*
X762385Y428450D01*
X762337Y428478D01*
X762295Y428513D01*
X762200Y428557D01*
X762110Y428610D01*
X762057Y428625D01*
X762007Y428648D01*
X761904Y428668D01*
X761804Y428697D01*
X761749Y428698D01*
X761695Y428708D01*
X761590Y428702D01*
X761486Y428704D01*
X761432Y428692D01*
X761377Y428688D01*
X761278Y428656D01*
X761176Y428633D01*
X761127Y428607D01*
X761075Y428590D01*
X760986Y428535D01*
X760893Y428486D01*
X760852Y428450D01*
X760806Y428420D01*
X760734Y428344D01*
X760656Y428275D01*
X760603Y428205D01*
X760588Y428189D01*
X760581Y428175D01*
X760559Y428147D01*
X760489Y428043D01*
X759361Y426915D01*
X758035Y426029D01*
X756562Y425418D01*
X756231Y425353D01*
X756231Y438538D01*
X756216Y438656D01*
X756209Y438775D01*
X756196Y438813D01*
X756191Y438853D01*
X756148Y438964D01*
X756111Y439077D01*
X756089Y439111D01*
X756074Y439149D01*
X756005Y439245D01*
X755941Y439346D01*
X755911Y439374D01*
X755888Y439406D01*
X755796Y439482D01*
X755709Y439564D01*
X755674Y439583D01*
X755643Y439609D01*
X755535Y439660D01*
X755431Y439717D01*
X755391Y439727D01*
X755355Y439745D01*
X755238Y439767D01*
X755123Y439797D01*
X755063Y439801D01*
X755043Y439804D01*
X755022Y439803D01*
X754962Y439807D01*
X753438Y439807D01*
X753320Y439792D01*
X753201Y439785D01*
X753163Y439772D01*
X753122Y439767D01*
X753012Y439723D01*
X752899Y439687D01*
X752864Y439665D01*
X752827Y439650D01*
X752730Y439580D01*
X752630Y439517D01*
X752602Y439487D01*
X752569Y439463D01*
X752493Y439372D01*
X752412Y439285D01*
X752392Y439250D01*
X752367Y439218D01*
X752316Y439111D01*
X752258Y439006D01*
X752248Y438967D01*
X752231Y438931D01*
X752209Y438814D01*
X752179Y438698D01*
X752175Y438638D01*
X752171Y438618D01*
X752173Y438598D01*
X752169Y438538D01*
X752169Y425353D01*
X751838Y425418D01*
X750320Y426047D01*
X750272Y426061D01*
X750227Y426082D01*
X750119Y426102D01*
X750013Y426131D01*
X749963Y426132D01*
X749914Y426142D01*
X749805Y426135D01*
X749695Y426136D01*
X749647Y426125D01*
X749597Y426122D01*
X749493Y426088D01*
X749386Y426062D01*
X749342Y426039D01*
X749295Y426024D01*
X749202Y425965D01*
X749105Y425914D01*
X749068Y425880D01*
X749026Y425854D01*
X748951Y425774D01*
X748869Y425700D01*
X748842Y425658D01*
X748808Y425622D01*
X748755Y425526D01*
X748695Y425434D01*
X748678Y425387D01*
X748654Y425343D01*
X748627Y425237D01*
X748591Y425133D01*
X748587Y425084D01*
X748575Y425036D01*
X748565Y424875D01*
X748565Y397957D01*
X748582Y397819D01*
X748595Y397681D01*
X748602Y397662D01*
X748605Y397642D01*
X748656Y397512D01*
X748703Y397381D01*
X748714Y397365D01*
X748722Y397346D01*
X748803Y397233D01*
X748881Y397118D01*
X748897Y397105D01*
X748908Y397089D01*
X749016Y397000D01*
X749120Y396908D01*
X749138Y396899D01*
X749153Y396886D01*
X749279Y396826D01*
X749403Y396763D01*
X749423Y396759D01*
X749441Y396750D01*
X749578Y396724D01*
X749713Y396694D01*
X749734Y396694D01*
X749753Y396690D01*
X749892Y396699D01*
X750031Y396703D01*
X750051Y396709D01*
X750071Y396710D01*
X750203Y396753D01*
X750337Y396792D01*
X750354Y396802D01*
X750373Y396808D01*
X750453Y396859D01*
X751915Y396859D01*
X751915Y389016D01*
X751930Y388898D01*
X751937Y388779D01*
X751949Y388741D01*
X751955Y388701D01*
X751998Y388590D01*
X752035Y388477D01*
X752057Y388443D01*
X752072Y388405D01*
X752141Y388309D01*
X752205Y388208D01*
X752235Y388180D01*
X752258Y388148D01*
X752350Y388072D01*
X752430Y387997D01*
X752376Y387963D01*
X752348Y387933D01*
X752315Y387909D01*
X752239Y387818D01*
X752158Y387731D01*
X752138Y387696D01*
X752113Y387664D01*
X752062Y387557D01*
X752004Y387452D01*
X751994Y387413D01*
X751977Y387377D01*
X751955Y387260D01*
X751925Y387144D01*
X751921Y387084D01*
X751917Y387064D01*
X751919Y387044D01*
X751915Y386984D01*
X751915Y379141D01*
X750467Y379141D01*
X750352Y379191D01*
X750227Y379250D01*
X750207Y379254D01*
X750188Y379262D01*
X750051Y379284D01*
X749914Y379310D01*
X749894Y379308D01*
X749874Y379312D01*
X749736Y379299D01*
X749597Y379290D01*
X749578Y379284D01*
X749558Y379282D01*
X749427Y379235D01*
X749295Y379192D01*
X749278Y379181D01*
X749258Y379174D01*
X749143Y379096D01*
X749026Y379022D01*
X749012Y379007D01*
X748995Y378996D01*
X748903Y378891D01*
X748808Y378790D01*
X748798Y378772D01*
X748785Y378757D01*
X748721Y378633D01*
X748654Y378512D01*
X748649Y378492D01*
X748640Y378474D01*
X748610Y378338D01*
X748575Y378204D01*
X748573Y378176D01*
X748570Y378164D01*
X748571Y378143D01*
X748565Y378043D01*
X748565Y376597D01*
X748577Y376499D01*
X748580Y376400D01*
X748597Y376341D01*
X748605Y376281D01*
X748641Y376189D01*
X748669Y376094D01*
X748699Y376042D01*
X748722Y375986D01*
X748780Y375906D01*
X748830Y375820D01*
X748896Y375745D01*
X748908Y375728D01*
X748918Y375720D01*
X748936Y375699D01*
X751805Y372830D01*
X751884Y372770D01*
X751956Y372702D01*
X752009Y372673D01*
X752057Y372636D01*
X752148Y372596D01*
X752234Y372548D01*
X752293Y372533D01*
X752348Y372509D01*
X752446Y372494D01*
X752542Y372469D01*
X752642Y372463D01*
X752663Y372459D01*
X752675Y372461D01*
X752703Y372459D01*
X758284Y372459D01*
X764059Y366684D01*
X764059Y358516D01*
X758284Y352741D01*
X750116Y352741D01*
X744341Y358516D01*
X744341Y364097D01*
X744329Y364195D01*
X744326Y364294D01*
X744309Y364353D01*
X744301Y364413D01*
X744265Y364505D01*
X744237Y364600D01*
X744207Y364652D01*
X744184Y364708D01*
X744126Y364788D01*
X744076Y364874D01*
X744010Y364949D01*
X743998Y364966D01*
X743988Y364974D01*
X743970Y364995D01*
X738327Y370637D01*
X737483Y372674D01*
X737483Y379677D01*
X737466Y379814D01*
X737453Y379953D01*
X737446Y379972D01*
X737443Y379992D01*
X737392Y380121D01*
X737345Y380252D01*
X737334Y380269D01*
X737326Y380288D01*
X737245Y380400D01*
X737167Y380515D01*
X737151Y380529D01*
X737140Y380545D01*
X737032Y380634D01*
X736928Y380726D01*
X736910Y380735D01*
X736895Y380748D01*
X736769Y380807D01*
X736645Y380871D01*
X736625Y380875D01*
X736607Y380884D01*
X736471Y380910D01*
X736335Y380940D01*
X736314Y380940D01*
X736295Y380943D01*
X736156Y380935D01*
X736017Y380931D01*
X735997Y380925D01*
X735977Y380924D01*
X735845Y380881D01*
X735711Y380842D01*
X735694Y380832D01*
X735675Y380826D01*
X735557Y380751D01*
X735437Y380681D01*
X735416Y380662D01*
X735406Y380655D01*
X735392Y380640D01*
X735317Y380574D01*
X732884Y378141D01*
X724434Y378141D01*
X724316Y378126D01*
X724197Y378119D01*
X724159Y378106D01*
X724118Y378101D01*
X724008Y378058D01*
X723895Y378021D01*
X723860Y377999D01*
X723823Y377984D01*
X723727Y377915D01*
X723626Y377851D01*
X723598Y377821D01*
X723565Y377798D01*
X723489Y377706D01*
X723408Y377619D01*
X723388Y377584D01*
X723363Y377553D01*
X723312Y377445D01*
X723254Y377341D01*
X723244Y377301D01*
X723227Y377265D01*
X723205Y377148D01*
X723175Y377033D01*
X723171Y376973D01*
X723167Y376953D01*
X723169Y376932D01*
X723165Y376872D01*
X723165Y376597D01*
X723177Y376499D01*
X723180Y376400D01*
X723197Y376341D01*
X723205Y376281D01*
X723241Y376189D01*
X723269Y376094D01*
X723299Y376042D01*
X723322Y375986D01*
X723380Y375906D01*
X723430Y375820D01*
X723496Y375745D01*
X723508Y375728D01*
X723518Y375720D01*
X723536Y375699D01*
X726405Y372830D01*
X726484Y372770D01*
X726556Y372702D01*
X726609Y372673D01*
X726657Y372636D01*
X726748Y372596D01*
X726834Y372548D01*
X726893Y372533D01*
X726948Y372509D01*
X727046Y372494D01*
X727142Y372469D01*
X727242Y372463D01*
X727263Y372459D01*
X727275Y372461D01*
X727303Y372459D01*
X732884Y372459D01*
X738659Y366684D01*
X738659Y358516D01*
X732884Y352741D01*
X724716Y352741D01*
G37*
%LPD*%
G36*
X250118Y288906D02*
X250118Y288906D01*
X250237Y288913D01*
X250275Y288926D01*
X250316Y288931D01*
X250426Y288974D01*
X250539Y289011D01*
X250574Y289033D01*
X250611Y289048D01*
X250707Y289117D01*
X250808Y289181D01*
X250836Y289211D01*
X250869Y289234D01*
X250945Y289326D01*
X251026Y289413D01*
X251046Y289448D01*
X251071Y289479D01*
X251122Y289587D01*
X251180Y289691D01*
X251190Y289731D01*
X251207Y289767D01*
X251229Y289884D01*
X251259Y289999D01*
X251263Y290059D01*
X251267Y290079D01*
X251265Y290100D01*
X251269Y290160D01*
X251269Y408000D01*
X251254Y408118D01*
X251247Y408237D01*
X251234Y408275D01*
X251229Y408316D01*
X251186Y408426D01*
X251149Y408539D01*
X251127Y408574D01*
X251112Y408611D01*
X251043Y408707D01*
X250979Y408808D01*
X250949Y408836D01*
X250926Y408869D01*
X250834Y408945D01*
X250747Y409026D01*
X250712Y409046D01*
X250681Y409071D01*
X250573Y409122D01*
X250469Y409180D01*
X250429Y409190D01*
X250393Y409207D01*
X250276Y409229D01*
X250161Y409259D01*
X250101Y409263D01*
X250081Y409267D01*
X250060Y409265D01*
X250000Y409269D01*
X210000Y409269D01*
X209882Y409254D01*
X209763Y409247D01*
X209725Y409234D01*
X209684Y409229D01*
X209574Y409186D01*
X209461Y409149D01*
X209426Y409127D01*
X209389Y409112D01*
X209293Y409043D01*
X209192Y408979D01*
X209164Y408949D01*
X209131Y408926D01*
X209056Y408834D01*
X208974Y408747D01*
X208954Y408712D01*
X208929Y408681D01*
X208878Y408573D01*
X208820Y408469D01*
X208810Y408429D01*
X208793Y408393D01*
X208771Y408276D01*
X208741Y408161D01*
X208737Y408101D01*
X208733Y408081D01*
X208735Y408060D01*
X208731Y408000D01*
X208731Y341269D01*
X94000Y341269D01*
X93882Y341254D01*
X93763Y341247D01*
X93725Y341234D01*
X93684Y341229D01*
X93574Y341186D01*
X93461Y341149D01*
X93426Y341127D01*
X93389Y341112D01*
X93293Y341043D01*
X93192Y340979D01*
X93164Y340949D01*
X93131Y340926D01*
X93056Y340834D01*
X92974Y340747D01*
X92954Y340712D01*
X92929Y340681D01*
X92878Y340573D01*
X92820Y340469D01*
X92810Y340429D01*
X92793Y340393D01*
X92771Y340276D01*
X92741Y340161D01*
X92737Y340101D01*
X92733Y340081D01*
X92735Y340060D01*
X92731Y340000D01*
X92731Y290160D01*
X92746Y290042D01*
X92753Y289923D01*
X92766Y289885D01*
X92771Y289844D01*
X92814Y289734D01*
X92851Y289621D01*
X92873Y289586D01*
X92888Y289549D01*
X92958Y289453D01*
X93021Y289352D01*
X93051Y289324D01*
X93074Y289291D01*
X93166Y289215D01*
X93253Y289134D01*
X93288Y289114D01*
X93319Y289089D01*
X93427Y289038D01*
X93531Y288980D01*
X93571Y288970D01*
X93607Y288953D01*
X93724Y288931D01*
X93839Y288901D01*
X93900Y288897D01*
X93920Y288893D01*
X93940Y288895D01*
X94000Y288891D01*
X250000Y288891D01*
X250118Y288906D01*
G37*
%LPC*%
G36*
X92231Y45729D02*
X92231Y45729D01*
X89729Y48231D01*
X89729Y91769D01*
X92231Y94271D01*
X204460Y94271D01*
X204578Y94286D01*
X204697Y94293D01*
X204735Y94306D01*
X204776Y94311D01*
X204886Y94354D01*
X204999Y94391D01*
X205034Y94413D01*
X205071Y94428D01*
X205167Y94497D01*
X205268Y94561D01*
X205296Y94591D01*
X205329Y94614D01*
X205405Y94706D01*
X205486Y94793D01*
X205506Y94828D01*
X205531Y94859D01*
X205582Y94967D01*
X205640Y95071D01*
X205650Y95111D01*
X205667Y95147D01*
X205689Y95264D01*
X205719Y95379D01*
X205723Y95439D01*
X205727Y95459D01*
X205725Y95480D01*
X205729Y95540D01*
X205729Y127769D01*
X208231Y130271D01*
X251769Y130271D01*
X254271Y127769D01*
X254271Y48231D01*
X251769Y45729D01*
X92231Y45729D01*
G37*
%LPD*%
%LPC*%
G36*
X521516Y352741D02*
X521516Y352741D01*
X515741Y358516D01*
X515741Y364097D01*
X515729Y364195D01*
X515726Y364294D01*
X515709Y364353D01*
X515701Y364413D01*
X515665Y364505D01*
X515637Y364600D01*
X515607Y364652D01*
X515584Y364708D01*
X515526Y364789D01*
X515476Y364874D01*
X515410Y364949D01*
X515398Y364966D01*
X515388Y364974D01*
X515370Y364995D01*
X509727Y370637D01*
X508883Y372674D01*
X508883Y379677D01*
X508866Y379814D01*
X508853Y379953D01*
X508846Y379972D01*
X508843Y379992D01*
X508792Y380121D01*
X508745Y380252D01*
X508734Y380269D01*
X508726Y380288D01*
X508645Y380400D01*
X508567Y380515D01*
X508551Y380529D01*
X508540Y380545D01*
X508432Y380634D01*
X508328Y380726D01*
X508310Y380735D01*
X508295Y380748D01*
X508169Y380807D01*
X508045Y380871D01*
X508025Y380875D01*
X508007Y380884D01*
X507871Y380910D01*
X507735Y380940D01*
X507714Y380940D01*
X507695Y380943D01*
X507556Y380935D01*
X507417Y380931D01*
X507397Y380925D01*
X507377Y380924D01*
X507245Y380881D01*
X507111Y380842D01*
X507094Y380832D01*
X507075Y380826D01*
X506957Y380751D01*
X506837Y380681D01*
X506816Y380662D01*
X506806Y380655D01*
X506792Y380640D01*
X506717Y380574D01*
X504284Y378141D01*
X496116Y378141D01*
X490341Y383916D01*
X490341Y392084D01*
X490478Y392220D01*
X490538Y392298D01*
X490606Y392370D01*
X490635Y392423D01*
X490672Y392471D01*
X490712Y392562D01*
X490760Y392649D01*
X490775Y392707D01*
X490799Y392763D01*
X490814Y392861D01*
X490839Y392957D01*
X490845Y393057D01*
X490849Y393077D01*
X490847Y393089D01*
X490849Y393117D01*
X490849Y441160D01*
X491007Y441540D01*
X491009Y441549D01*
X491014Y441557D01*
X491051Y441702D01*
X491091Y441847D01*
X491091Y441856D01*
X491093Y441865D01*
X491103Y442026D01*
X491103Y447205D01*
X492488Y450549D01*
X495047Y453108D01*
X498391Y454493D01*
X502009Y454493D01*
X505353Y453108D01*
X507148Y451313D01*
X507187Y451283D01*
X507220Y451246D01*
X507312Y451185D01*
X507399Y451118D01*
X507445Y451098D01*
X507486Y451071D01*
X507590Y451035D01*
X507691Y450992D01*
X507740Y450984D01*
X507787Y450968D01*
X507896Y450959D01*
X508005Y450942D01*
X508055Y450947D01*
X508104Y450943D01*
X508212Y450961D01*
X508322Y450972D01*
X508368Y450988D01*
X508417Y450997D01*
X508517Y451042D01*
X508621Y451079D01*
X508662Y451107D01*
X508707Y451128D01*
X508793Y451196D01*
X508884Y451258D01*
X508917Y451295D01*
X508956Y451326D01*
X509022Y451414D01*
X509094Y451496D01*
X509117Y451541D01*
X509147Y451580D01*
X509218Y451725D01*
X509727Y452953D01*
X511464Y454691D01*
X517559Y460785D01*
X517632Y460880D01*
X517711Y460969D01*
X517729Y461005D01*
X517754Y461037D01*
X517801Y461146D01*
X517855Y461252D01*
X517864Y461291D01*
X517880Y461329D01*
X517899Y461446D01*
X517925Y461562D01*
X517924Y461603D01*
X517930Y461643D01*
X517919Y461761D01*
X517915Y461880D01*
X517904Y461919D01*
X517900Y461959D01*
X517860Y462071D01*
X517827Y462186D01*
X517806Y462220D01*
X517793Y462259D01*
X517726Y462357D01*
X517665Y462460D01*
X517625Y462505D01*
X517614Y462522D01*
X517599Y462535D01*
X517559Y462580D01*
X515888Y464251D01*
X514503Y467595D01*
X514503Y483405D01*
X515888Y486749D01*
X518447Y489308D01*
X521791Y490693D01*
X525409Y490693D01*
X528753Y489308D01*
X531312Y486749D01*
X532697Y483405D01*
X532697Y467595D01*
X531312Y464251D01*
X529512Y462452D01*
X529452Y462373D01*
X529384Y462301D01*
X529355Y462248D01*
X529318Y462200D01*
X529278Y462110D01*
X529230Y462023D01*
X529215Y461964D01*
X529191Y461909D01*
X529176Y461811D01*
X529151Y461715D01*
X529145Y461615D01*
X529141Y461595D01*
X529143Y461582D01*
X529141Y461554D01*
X529141Y457889D01*
X528266Y455777D01*
X528224Y455723D01*
X528204Y455677D01*
X528177Y455636D01*
X528141Y455532D01*
X528098Y455431D01*
X528090Y455382D01*
X528074Y455335D01*
X528065Y455226D01*
X528048Y455117D01*
X528053Y455067D01*
X528049Y455018D01*
X528067Y454910D01*
X528078Y454800D01*
X528095Y454753D01*
X528103Y454705D01*
X528148Y454604D01*
X528185Y454501D01*
X528213Y454460D01*
X528234Y454415D01*
X528302Y454329D01*
X528364Y454238D01*
X528401Y454205D01*
X528432Y454166D01*
X528520Y454100D01*
X528602Y454027D01*
X528647Y454005D01*
X528686Y453975D01*
X528831Y453904D01*
X530753Y453108D01*
X532548Y451313D01*
X532587Y451283D01*
X532620Y451246D01*
X532712Y451185D01*
X532799Y451118D01*
X532845Y451098D01*
X532886Y451071D01*
X532990Y451035D01*
X533091Y450992D01*
X533140Y450984D01*
X533187Y450968D01*
X533296Y450959D01*
X533405Y450942D01*
X533455Y450947D01*
X533504Y450943D01*
X533612Y450961D01*
X533722Y450972D01*
X533768Y450988D01*
X533817Y450997D01*
X533917Y451042D01*
X534021Y451079D01*
X534062Y451107D01*
X534107Y451128D01*
X534193Y451196D01*
X534284Y451258D01*
X534317Y451295D01*
X534356Y451326D01*
X534422Y451414D01*
X534494Y451496D01*
X534517Y451541D01*
X534547Y451580D01*
X534618Y451725D01*
X535127Y452953D01*
X536864Y454691D01*
X542959Y460785D01*
X543032Y460880D01*
X543111Y460969D01*
X543129Y461005D01*
X543154Y461037D01*
X543201Y461146D01*
X543255Y461252D01*
X543264Y461291D01*
X543280Y461329D01*
X543299Y461446D01*
X543325Y461562D01*
X543324Y461603D01*
X543330Y461643D01*
X543319Y461761D01*
X543315Y461880D01*
X543304Y461919D01*
X543300Y461959D01*
X543260Y462071D01*
X543227Y462186D01*
X543206Y462220D01*
X543193Y462259D01*
X543126Y462357D01*
X543065Y462460D01*
X543025Y462505D01*
X543014Y462522D01*
X542999Y462535D01*
X542959Y462580D01*
X541288Y464251D01*
X539903Y467595D01*
X539903Y483405D01*
X541288Y486749D01*
X543847Y489308D01*
X547191Y490693D01*
X550809Y490693D01*
X554153Y489308D01*
X556712Y486749D01*
X558097Y483405D01*
X558097Y467595D01*
X556712Y464251D01*
X554912Y462452D01*
X554852Y462373D01*
X554784Y462301D01*
X554755Y462248D01*
X554718Y462200D01*
X554678Y462110D01*
X554630Y462023D01*
X554615Y461964D01*
X554591Y461909D01*
X554576Y461811D01*
X554551Y461715D01*
X554545Y461615D01*
X554541Y461595D01*
X554543Y461582D01*
X554541Y461554D01*
X554541Y457889D01*
X553697Y455852D01*
X553054Y455209D01*
X553023Y455169D01*
X552986Y455136D01*
X552926Y455044D01*
X552859Y454957D01*
X552839Y454912D01*
X552812Y454870D01*
X552776Y454767D01*
X552732Y454666D01*
X552725Y454616D01*
X552708Y454570D01*
X552700Y454460D01*
X552683Y454352D01*
X552687Y454302D01*
X552683Y454253D01*
X552702Y454145D01*
X552712Y454035D01*
X552729Y453988D01*
X552738Y453939D01*
X552783Y453839D01*
X552820Y453736D01*
X552848Y453694D01*
X552868Y453649D01*
X552937Y453563D01*
X552999Y453472D01*
X553036Y453440D01*
X553067Y453401D01*
X553155Y453335D01*
X553237Y453262D01*
X553281Y453239D01*
X553321Y453210D01*
X553465Y453139D01*
X554835Y452571D01*
X556161Y451685D01*
X557289Y450557D01*
X557359Y450453D01*
X557427Y450375D01*
X557488Y450290D01*
X557531Y450255D01*
X557567Y450213D01*
X557653Y450154D01*
X557733Y450087D01*
X557783Y450064D01*
X557829Y450032D01*
X557927Y449996D01*
X558021Y449952D01*
X558075Y449941D01*
X558127Y449922D01*
X558231Y449911D01*
X558334Y449892D01*
X558388Y449895D01*
X558443Y449890D01*
X558547Y449905D01*
X558651Y449912D01*
X558703Y449928D01*
X558758Y449937D01*
X558854Y449977D01*
X558953Y450010D01*
X559000Y450039D01*
X559051Y450060D01*
X559134Y450124D01*
X559222Y450180D01*
X559260Y450220D01*
X559304Y450253D01*
X559368Y450335D01*
X559440Y450411D01*
X559467Y450460D01*
X559501Y450503D01*
X559528Y450565D01*
X559558Y450624D01*
X559594Y450690D01*
X559601Y450718D01*
X560527Y452953D01*
X562264Y454691D01*
X568359Y460785D01*
X568432Y460880D01*
X568511Y460969D01*
X568529Y461005D01*
X568554Y461037D01*
X568601Y461146D01*
X568655Y461252D01*
X568664Y461291D01*
X568680Y461329D01*
X568699Y461446D01*
X568725Y461562D01*
X568724Y461603D01*
X568730Y461643D01*
X568719Y461761D01*
X568715Y461880D01*
X568704Y461919D01*
X568700Y461959D01*
X568660Y462071D01*
X568627Y462186D01*
X568606Y462220D01*
X568593Y462259D01*
X568526Y462357D01*
X568465Y462460D01*
X568425Y462505D01*
X568414Y462522D01*
X568399Y462535D01*
X568359Y462580D01*
X566688Y464251D01*
X565303Y467595D01*
X565303Y483405D01*
X566688Y486749D01*
X569247Y489308D01*
X572591Y490693D01*
X576209Y490693D01*
X579553Y489308D01*
X582112Y486749D01*
X583497Y483405D01*
X583497Y467595D01*
X582112Y464251D01*
X580312Y462452D01*
X580252Y462373D01*
X580184Y462301D01*
X580155Y462248D01*
X580118Y462200D01*
X580078Y462110D01*
X580030Y462023D01*
X580015Y461964D01*
X579991Y461909D01*
X579976Y461811D01*
X579951Y461715D01*
X579945Y461615D01*
X579941Y461595D01*
X579943Y461582D01*
X579941Y461554D01*
X579941Y457889D01*
X579066Y455777D01*
X579024Y455723D01*
X579004Y455677D01*
X578977Y455636D01*
X578941Y455532D01*
X578898Y455431D01*
X578890Y455382D01*
X578874Y455335D01*
X578865Y455226D01*
X578848Y455117D01*
X578853Y455067D01*
X578849Y455018D01*
X578867Y454910D01*
X578878Y454800D01*
X578895Y454753D01*
X578903Y454705D01*
X578948Y454604D01*
X578985Y454501D01*
X579013Y454460D01*
X579034Y454415D01*
X579102Y454329D01*
X579164Y454238D01*
X579201Y454205D01*
X579232Y454166D01*
X579320Y454100D01*
X579402Y454027D01*
X579447Y454005D01*
X579486Y453975D01*
X579631Y453904D01*
X581553Y453108D01*
X584112Y450549D01*
X585497Y447205D01*
X585497Y442026D01*
X585498Y442016D01*
X585497Y442007D01*
X585518Y441859D01*
X585537Y441710D01*
X585540Y441701D01*
X585541Y441692D01*
X585593Y441540D01*
X585751Y441160D01*
X585751Y393117D01*
X585763Y393019D01*
X585766Y392920D01*
X585783Y392862D01*
X585791Y392802D01*
X585827Y392710D01*
X585855Y392615D01*
X585885Y392562D01*
X585908Y392506D01*
X585966Y392426D01*
X586016Y392341D01*
X586082Y392265D01*
X586094Y392249D01*
X586104Y392241D01*
X586123Y392220D01*
X586259Y392084D01*
X586259Y383916D01*
X580484Y378141D01*
X572034Y378141D01*
X571916Y378126D01*
X571797Y378119D01*
X571759Y378106D01*
X571718Y378101D01*
X571608Y378058D01*
X571495Y378021D01*
X571460Y377999D01*
X571423Y377984D01*
X571327Y377915D01*
X571226Y377851D01*
X571198Y377821D01*
X571165Y377798D01*
X571089Y377706D01*
X571008Y377619D01*
X570988Y377584D01*
X570963Y377553D01*
X570912Y377445D01*
X570854Y377341D01*
X570844Y377301D01*
X570827Y377265D01*
X570805Y377148D01*
X570775Y377033D01*
X570771Y376973D01*
X570767Y376953D01*
X570769Y376932D01*
X570765Y376872D01*
X570765Y376597D01*
X570777Y376499D01*
X570780Y376400D01*
X570797Y376341D01*
X570805Y376281D01*
X570841Y376189D01*
X570869Y376094D01*
X570899Y376042D01*
X570922Y375986D01*
X570980Y375906D01*
X571030Y375820D01*
X571096Y375745D01*
X571108Y375728D01*
X571118Y375720D01*
X571136Y375699D01*
X574005Y372830D01*
X574084Y372770D01*
X574156Y372702D01*
X574209Y372673D01*
X574257Y372636D01*
X574348Y372596D01*
X574434Y372548D01*
X574493Y372533D01*
X574548Y372509D01*
X574646Y372494D01*
X574742Y372469D01*
X574842Y372463D01*
X574863Y372459D01*
X574875Y372461D01*
X574903Y372459D01*
X580484Y372459D01*
X586259Y366684D01*
X586259Y358516D01*
X580484Y352741D01*
X572316Y352741D01*
X566541Y358516D01*
X566541Y364097D01*
X566529Y364195D01*
X566526Y364294D01*
X566509Y364353D01*
X566501Y364413D01*
X566465Y364505D01*
X566437Y364600D01*
X566407Y364652D01*
X566384Y364708D01*
X566326Y364788D01*
X566276Y364874D01*
X566210Y364949D01*
X566198Y364966D01*
X566188Y364974D01*
X566170Y364995D01*
X560527Y370637D01*
X559683Y372674D01*
X559683Y381091D01*
X559666Y381228D01*
X559653Y381367D01*
X559646Y381386D01*
X559643Y381406D01*
X559592Y381535D01*
X559545Y381667D01*
X559534Y381683D01*
X559526Y381702D01*
X559445Y381815D01*
X559367Y381930D01*
X559351Y381943D01*
X559340Y381959D01*
X559232Y382048D01*
X559128Y382140D01*
X559110Y382149D01*
X559095Y382162D01*
X558969Y382222D01*
X558845Y382285D01*
X558825Y382289D01*
X558807Y382298D01*
X558671Y382324D01*
X558535Y382354D01*
X558514Y382354D01*
X558495Y382358D01*
X558356Y382349D01*
X558217Y382345D01*
X558197Y382339D01*
X558177Y382338D01*
X558045Y382295D01*
X557911Y382256D01*
X557894Y382246D01*
X557875Y382240D01*
X557757Y382165D01*
X557637Y382095D01*
X557616Y382076D01*
X557606Y382070D01*
X557592Y382055D01*
X557517Y381988D01*
X554669Y379141D01*
X553285Y379141D01*
X553285Y386984D01*
X553270Y387102D01*
X553263Y387221D01*
X553250Y387259D01*
X553245Y387299D01*
X553202Y387410D01*
X553165Y387523D01*
X553143Y387557D01*
X553128Y387595D01*
X553059Y387691D01*
X552995Y387792D01*
X552965Y387820D01*
X552942Y387852D01*
X552850Y387928D01*
X552770Y388003D01*
X552824Y388037D01*
X552852Y388067D01*
X552885Y388091D01*
X552961Y388182D01*
X553042Y388269D01*
X553062Y388304D01*
X553087Y388336D01*
X553138Y388443D01*
X553196Y388548D01*
X553206Y388587D01*
X553223Y388623D01*
X553245Y388740D01*
X553275Y388856D01*
X553279Y388916D01*
X553283Y388936D01*
X553281Y388956D01*
X553285Y389016D01*
X553285Y396859D01*
X554669Y396859D01*
X557517Y394012D01*
X557626Y393926D01*
X557733Y393838D01*
X557752Y393829D01*
X557768Y393817D01*
X557896Y393761D01*
X558021Y393702D01*
X558041Y393698D01*
X558060Y393690D01*
X558198Y393668D01*
X558334Y393642D01*
X558354Y393644D01*
X558374Y393640D01*
X558513Y393654D01*
X558651Y393662D01*
X558670Y393668D01*
X558690Y393670D01*
X558822Y393717D01*
X558953Y393760D01*
X558971Y393771D01*
X558990Y393778D01*
X559105Y393856D01*
X559222Y393930D01*
X559236Y393945D01*
X559253Y393956D01*
X559345Y394061D01*
X559440Y394162D01*
X559450Y394180D01*
X559463Y394195D01*
X559527Y394319D01*
X559594Y394440D01*
X559599Y394460D01*
X559608Y394478D01*
X559638Y394614D01*
X559673Y394748D01*
X559675Y394776D01*
X559678Y394788D01*
X559677Y394809D01*
X559683Y394909D01*
X559683Y427442D01*
X559670Y427545D01*
X559666Y427650D01*
X559650Y427702D01*
X559643Y427757D01*
X559605Y427854D01*
X559575Y427954D01*
X559547Y428002D01*
X559526Y428053D01*
X559465Y428137D01*
X559411Y428227D01*
X559372Y428266D01*
X559340Y428310D01*
X559259Y428377D01*
X559185Y428450D01*
X559137Y428478D01*
X559095Y428513D01*
X559000Y428557D01*
X558910Y428610D01*
X558857Y428625D01*
X558807Y428648D01*
X558704Y428668D01*
X558604Y428697D01*
X558549Y428698D01*
X558495Y428708D01*
X558390Y428702D01*
X558286Y428704D01*
X558232Y428692D01*
X558177Y428688D01*
X558078Y428656D01*
X557976Y428633D01*
X557927Y428607D01*
X557875Y428590D01*
X557786Y428535D01*
X557693Y428486D01*
X557652Y428450D01*
X557606Y428420D01*
X557534Y428344D01*
X557456Y428275D01*
X557403Y428205D01*
X557388Y428189D01*
X557381Y428175D01*
X557359Y428147D01*
X557289Y428043D01*
X556161Y426915D01*
X554835Y426029D01*
X553362Y425418D01*
X553031Y425353D01*
X553031Y438538D01*
X553016Y438656D01*
X553009Y438775D01*
X552996Y438813D01*
X552991Y438853D01*
X552948Y438964D01*
X552911Y439077D01*
X552889Y439111D01*
X552874Y439149D01*
X552805Y439245D01*
X552741Y439346D01*
X552711Y439374D01*
X552688Y439406D01*
X552596Y439482D01*
X552509Y439564D01*
X552474Y439583D01*
X552443Y439609D01*
X552335Y439660D01*
X552231Y439717D01*
X552191Y439727D01*
X552155Y439745D01*
X552038Y439767D01*
X551923Y439797D01*
X551863Y439801D01*
X551843Y439804D01*
X551822Y439803D01*
X551762Y439807D01*
X550238Y439807D01*
X550120Y439792D01*
X550001Y439785D01*
X549963Y439772D01*
X549922Y439767D01*
X549812Y439723D01*
X549699Y439687D01*
X549664Y439665D01*
X549627Y439650D01*
X549530Y439580D01*
X549430Y439517D01*
X549402Y439487D01*
X549369Y439463D01*
X549293Y439372D01*
X549212Y439285D01*
X549192Y439250D01*
X549167Y439218D01*
X549116Y439111D01*
X549058Y439006D01*
X549048Y438967D01*
X549031Y438931D01*
X549009Y438814D01*
X548979Y438698D01*
X548975Y438638D01*
X548971Y438618D01*
X548973Y438598D01*
X548969Y438538D01*
X548969Y425353D01*
X548638Y425418D01*
X547120Y426047D01*
X547072Y426061D01*
X547027Y426082D01*
X546919Y426102D01*
X546813Y426131D01*
X546763Y426132D01*
X546714Y426142D01*
X546605Y426135D01*
X546495Y426136D01*
X546447Y426125D01*
X546397Y426122D01*
X546293Y426088D01*
X546186Y426062D01*
X546142Y426039D01*
X546095Y426024D01*
X546002Y425965D01*
X545905Y425914D01*
X545868Y425880D01*
X545826Y425854D01*
X545751Y425774D01*
X545669Y425700D01*
X545642Y425658D01*
X545608Y425622D01*
X545555Y425526D01*
X545495Y425434D01*
X545478Y425387D01*
X545454Y425343D01*
X545427Y425237D01*
X545391Y425133D01*
X545387Y425084D01*
X545375Y425036D01*
X545365Y424875D01*
X545365Y397957D01*
X545382Y397819D01*
X545395Y397681D01*
X545402Y397662D01*
X545405Y397642D01*
X545456Y397512D01*
X545503Y397381D01*
X545514Y397365D01*
X545522Y397346D01*
X545603Y397233D01*
X545681Y397118D01*
X545697Y397105D01*
X545708Y397089D01*
X545816Y397000D01*
X545920Y396908D01*
X545938Y396899D01*
X545953Y396886D01*
X546079Y396826D01*
X546203Y396763D01*
X546223Y396759D01*
X546241Y396750D01*
X546378Y396724D01*
X546513Y396694D01*
X546534Y396694D01*
X546553Y396690D01*
X546692Y396699D01*
X546831Y396703D01*
X546851Y396709D01*
X546871Y396710D01*
X547003Y396753D01*
X547137Y396792D01*
X547154Y396802D01*
X547173Y396808D01*
X547253Y396859D01*
X548715Y396859D01*
X548715Y389016D01*
X548730Y388898D01*
X548737Y388779D01*
X548749Y388741D01*
X548755Y388701D01*
X548798Y388590D01*
X548835Y388477D01*
X548857Y388443D01*
X548872Y388405D01*
X548941Y388309D01*
X549005Y388208D01*
X549035Y388180D01*
X549058Y388148D01*
X549150Y388072D01*
X549230Y387997D01*
X549176Y387963D01*
X549148Y387933D01*
X549115Y387909D01*
X549039Y387818D01*
X548958Y387731D01*
X548938Y387696D01*
X548913Y387664D01*
X548862Y387557D01*
X548804Y387452D01*
X548794Y387413D01*
X548777Y387377D01*
X548755Y387260D01*
X548725Y387144D01*
X548721Y387084D01*
X548717Y387064D01*
X548719Y387044D01*
X548715Y386984D01*
X548715Y379141D01*
X547267Y379141D01*
X547152Y379191D01*
X547027Y379250D01*
X547007Y379254D01*
X546988Y379262D01*
X546851Y379284D01*
X546714Y379310D01*
X546694Y379308D01*
X546674Y379312D01*
X546536Y379299D01*
X546397Y379290D01*
X546378Y379284D01*
X546358Y379282D01*
X546227Y379235D01*
X546095Y379192D01*
X546078Y379181D01*
X546058Y379174D01*
X545943Y379096D01*
X545826Y379022D01*
X545812Y379007D01*
X545795Y378996D01*
X545703Y378891D01*
X545608Y378790D01*
X545598Y378772D01*
X545585Y378757D01*
X545521Y378633D01*
X545454Y378512D01*
X545449Y378492D01*
X545440Y378474D01*
X545410Y378338D01*
X545375Y378204D01*
X545373Y378176D01*
X545370Y378164D01*
X545371Y378143D01*
X545365Y378043D01*
X545365Y376597D01*
X545377Y376499D01*
X545380Y376400D01*
X545397Y376341D01*
X545405Y376281D01*
X545441Y376189D01*
X545469Y376094D01*
X545499Y376042D01*
X545522Y375986D01*
X545580Y375906D01*
X545630Y375820D01*
X545696Y375745D01*
X545708Y375728D01*
X545718Y375720D01*
X545736Y375699D01*
X548605Y372830D01*
X548684Y372770D01*
X548756Y372702D01*
X548809Y372673D01*
X548857Y372636D01*
X548948Y372596D01*
X549034Y372548D01*
X549093Y372533D01*
X549148Y372509D01*
X549246Y372494D01*
X549342Y372469D01*
X549442Y372463D01*
X549463Y372459D01*
X549475Y372461D01*
X549503Y372459D01*
X555084Y372459D01*
X560859Y366684D01*
X560859Y358516D01*
X555084Y352741D01*
X546916Y352741D01*
X541141Y358516D01*
X541141Y364097D01*
X541129Y364195D01*
X541126Y364294D01*
X541109Y364353D01*
X541101Y364413D01*
X541065Y364505D01*
X541037Y364600D01*
X541007Y364652D01*
X540984Y364708D01*
X540926Y364788D01*
X540876Y364874D01*
X540810Y364949D01*
X540798Y364966D01*
X540788Y364974D01*
X540770Y364995D01*
X535127Y370637D01*
X534283Y372674D01*
X534283Y379677D01*
X534266Y379814D01*
X534253Y379953D01*
X534246Y379972D01*
X534243Y379992D01*
X534192Y380121D01*
X534145Y380252D01*
X534134Y380269D01*
X534126Y380288D01*
X534045Y380400D01*
X533967Y380515D01*
X533951Y380529D01*
X533940Y380545D01*
X533832Y380634D01*
X533728Y380726D01*
X533710Y380735D01*
X533695Y380748D01*
X533569Y380807D01*
X533445Y380871D01*
X533425Y380875D01*
X533407Y380884D01*
X533271Y380910D01*
X533135Y380940D01*
X533114Y380940D01*
X533095Y380943D01*
X532956Y380935D01*
X532817Y380931D01*
X532797Y380925D01*
X532777Y380924D01*
X532645Y380881D01*
X532511Y380842D01*
X532494Y380832D01*
X532475Y380826D01*
X532357Y380751D01*
X532237Y380681D01*
X532216Y380662D01*
X532206Y380655D01*
X532192Y380640D01*
X532117Y380574D01*
X529684Y378141D01*
X521234Y378141D01*
X521116Y378126D01*
X520997Y378119D01*
X520959Y378106D01*
X520918Y378101D01*
X520808Y378058D01*
X520695Y378021D01*
X520660Y377999D01*
X520623Y377984D01*
X520527Y377915D01*
X520426Y377851D01*
X520398Y377821D01*
X520365Y377798D01*
X520289Y377706D01*
X520208Y377619D01*
X520188Y377584D01*
X520163Y377553D01*
X520112Y377445D01*
X520054Y377341D01*
X520044Y377301D01*
X520027Y377265D01*
X520005Y377148D01*
X519975Y377033D01*
X519971Y376973D01*
X519967Y376953D01*
X519969Y376932D01*
X519965Y376872D01*
X519965Y376597D01*
X519977Y376499D01*
X519980Y376400D01*
X519997Y376341D01*
X520005Y376281D01*
X520041Y376189D01*
X520069Y376094D01*
X520099Y376042D01*
X520122Y375986D01*
X520180Y375906D01*
X520230Y375820D01*
X520296Y375745D01*
X520308Y375728D01*
X520318Y375720D01*
X520336Y375699D01*
X523205Y372830D01*
X523284Y372770D01*
X523356Y372702D01*
X523409Y372673D01*
X523457Y372636D01*
X523548Y372596D01*
X523634Y372548D01*
X523693Y372533D01*
X523748Y372509D01*
X523846Y372494D01*
X523942Y372469D01*
X524042Y372463D01*
X524062Y372459D01*
X524075Y372461D01*
X524103Y372459D01*
X529684Y372459D01*
X535459Y366684D01*
X535459Y358516D01*
X529684Y352741D01*
X521516Y352741D01*
G37*
%LPD*%
%LPC*%
G36*
X623116Y352741D02*
X623116Y352741D01*
X617341Y358516D01*
X617341Y364097D01*
X617329Y364195D01*
X617326Y364294D01*
X617309Y364353D01*
X617301Y364413D01*
X617265Y364505D01*
X617237Y364600D01*
X617207Y364652D01*
X617184Y364708D01*
X617126Y364788D01*
X617076Y364874D01*
X617010Y364949D01*
X616998Y364966D01*
X616988Y364974D01*
X616970Y364995D01*
X611327Y370637D01*
X610483Y372674D01*
X610483Y379677D01*
X610466Y379814D01*
X610453Y379953D01*
X610446Y379972D01*
X610443Y379992D01*
X610392Y380121D01*
X610345Y380252D01*
X610334Y380269D01*
X610326Y380288D01*
X610245Y380400D01*
X610167Y380515D01*
X610151Y380529D01*
X610140Y380545D01*
X610032Y380634D01*
X609928Y380726D01*
X609910Y380735D01*
X609895Y380748D01*
X609769Y380807D01*
X609645Y380871D01*
X609625Y380875D01*
X609607Y380884D01*
X609471Y380910D01*
X609335Y380940D01*
X609314Y380940D01*
X609295Y380943D01*
X609156Y380935D01*
X609017Y380931D01*
X608997Y380925D01*
X608977Y380924D01*
X608845Y380881D01*
X608711Y380842D01*
X608694Y380832D01*
X608675Y380826D01*
X608557Y380751D01*
X608437Y380681D01*
X608416Y380662D01*
X608406Y380655D01*
X608392Y380640D01*
X608317Y380574D01*
X605884Y378141D01*
X597716Y378141D01*
X591941Y383916D01*
X591941Y392084D01*
X592077Y392220D01*
X592138Y392298D01*
X592206Y392370D01*
X592235Y392423D01*
X592272Y392471D01*
X592312Y392562D01*
X592360Y392649D01*
X592375Y392707D01*
X592399Y392763D01*
X592414Y392861D01*
X592439Y392957D01*
X592445Y393057D01*
X592449Y393077D01*
X592447Y393089D01*
X592449Y393117D01*
X592449Y441160D01*
X592607Y441540D01*
X592609Y441549D01*
X592614Y441557D01*
X592651Y441702D01*
X592691Y441847D01*
X592691Y441856D01*
X592693Y441865D01*
X592703Y442026D01*
X592703Y447205D01*
X594088Y450549D01*
X596647Y453108D01*
X599991Y454493D01*
X603609Y454493D01*
X606953Y453108D01*
X608748Y451313D01*
X608787Y451283D01*
X608820Y451246D01*
X608912Y451185D01*
X608999Y451118D01*
X609045Y451098D01*
X609086Y451071D01*
X609190Y451035D01*
X609291Y450992D01*
X609340Y450984D01*
X609387Y450968D01*
X609496Y450959D01*
X609605Y450942D01*
X609655Y450947D01*
X609704Y450943D01*
X609812Y450961D01*
X609922Y450972D01*
X609968Y450988D01*
X610017Y450997D01*
X610117Y451042D01*
X610221Y451079D01*
X610262Y451107D01*
X610307Y451128D01*
X610393Y451196D01*
X610484Y451258D01*
X610517Y451295D01*
X610556Y451326D01*
X610622Y451414D01*
X610694Y451496D01*
X610717Y451541D01*
X610747Y451580D01*
X610818Y451725D01*
X611327Y452953D01*
X613064Y454691D01*
X619159Y460785D01*
X619232Y460880D01*
X619311Y460969D01*
X619329Y461005D01*
X619354Y461037D01*
X619401Y461146D01*
X619455Y461252D01*
X619464Y461291D01*
X619480Y461329D01*
X619499Y461446D01*
X619525Y461562D01*
X619524Y461603D01*
X619530Y461643D01*
X619519Y461761D01*
X619515Y461880D01*
X619504Y461919D01*
X619500Y461959D01*
X619460Y462071D01*
X619427Y462186D01*
X619406Y462220D01*
X619393Y462259D01*
X619326Y462357D01*
X619265Y462460D01*
X619225Y462505D01*
X619214Y462522D01*
X619199Y462535D01*
X619159Y462580D01*
X617488Y464251D01*
X616103Y467595D01*
X616103Y483405D01*
X617488Y486749D01*
X620047Y489308D01*
X623391Y490693D01*
X627009Y490693D01*
X630353Y489308D01*
X632912Y486749D01*
X634297Y483405D01*
X634297Y467595D01*
X632912Y464251D01*
X631112Y462452D01*
X631052Y462373D01*
X630984Y462301D01*
X630955Y462248D01*
X630918Y462200D01*
X630878Y462110D01*
X630830Y462023D01*
X630815Y461964D01*
X630791Y461909D01*
X630776Y461811D01*
X630751Y461715D01*
X630745Y461615D01*
X630741Y461595D01*
X630743Y461582D01*
X630741Y461554D01*
X630741Y457889D01*
X629897Y455852D01*
X629254Y455209D01*
X629223Y455169D01*
X629186Y455136D01*
X629126Y455044D01*
X629059Y454957D01*
X629039Y454912D01*
X629012Y454870D01*
X628976Y454767D01*
X628932Y454666D01*
X628925Y454616D01*
X628908Y454570D01*
X628900Y454460D01*
X628883Y454352D01*
X628887Y454302D01*
X628883Y454253D01*
X628902Y454145D01*
X628912Y454035D01*
X628929Y453988D01*
X628938Y453939D01*
X628983Y453839D01*
X629020Y453736D01*
X629048Y453694D01*
X629068Y453649D01*
X629137Y453563D01*
X629199Y453472D01*
X629236Y453440D01*
X629267Y453401D01*
X629355Y453335D01*
X629437Y453262D01*
X629481Y453239D01*
X629521Y453210D01*
X629665Y453139D01*
X631035Y452571D01*
X632361Y451685D01*
X633489Y450557D01*
X633559Y450453D01*
X633627Y450375D01*
X633688Y450290D01*
X633731Y450255D01*
X633767Y450213D01*
X633853Y450154D01*
X633933Y450087D01*
X633983Y450064D01*
X634029Y450032D01*
X634127Y449996D01*
X634221Y449952D01*
X634275Y449941D01*
X634327Y449922D01*
X634431Y449911D01*
X634534Y449892D01*
X634588Y449895D01*
X634643Y449890D01*
X634747Y449905D01*
X634851Y449912D01*
X634903Y449928D01*
X634958Y449937D01*
X635054Y449977D01*
X635153Y450010D01*
X635200Y450039D01*
X635251Y450060D01*
X635334Y450124D01*
X635422Y450180D01*
X635460Y450220D01*
X635504Y450253D01*
X635568Y450335D01*
X635640Y450411D01*
X635667Y450460D01*
X635701Y450503D01*
X635728Y450565D01*
X635758Y450624D01*
X635794Y450690D01*
X635801Y450718D01*
X636727Y452953D01*
X638464Y454690D01*
X638464Y454691D01*
X644559Y460785D01*
X644632Y460880D01*
X644711Y460969D01*
X644729Y461005D01*
X644754Y461037D01*
X644801Y461146D01*
X644855Y461252D01*
X644864Y461291D01*
X644880Y461329D01*
X644899Y461446D01*
X644925Y461562D01*
X644924Y461603D01*
X644930Y461643D01*
X644919Y461761D01*
X644915Y461880D01*
X644904Y461919D01*
X644900Y461959D01*
X644860Y462071D01*
X644827Y462186D01*
X644806Y462220D01*
X644793Y462259D01*
X644726Y462357D01*
X644665Y462460D01*
X644625Y462505D01*
X644614Y462522D01*
X644599Y462535D01*
X644559Y462580D01*
X642888Y464251D01*
X641503Y467595D01*
X641503Y483405D01*
X642888Y486749D01*
X645447Y489308D01*
X648791Y490693D01*
X652409Y490693D01*
X655753Y489308D01*
X658312Y486749D01*
X659697Y483405D01*
X659697Y467595D01*
X658312Y464251D01*
X656512Y462452D01*
X656452Y462373D01*
X656384Y462301D01*
X656355Y462248D01*
X656318Y462200D01*
X656278Y462110D01*
X656230Y462023D01*
X656215Y461964D01*
X656191Y461909D01*
X656176Y461811D01*
X656151Y461715D01*
X656145Y461615D01*
X656141Y461595D01*
X656143Y461582D01*
X656141Y461554D01*
X656141Y457889D01*
X655266Y455777D01*
X655224Y455723D01*
X655204Y455677D01*
X655177Y455636D01*
X655141Y455532D01*
X655098Y455431D01*
X655090Y455382D01*
X655074Y455335D01*
X655065Y455226D01*
X655048Y455117D01*
X655053Y455067D01*
X655049Y455018D01*
X655067Y454910D01*
X655078Y454800D01*
X655095Y454753D01*
X655103Y454705D01*
X655148Y454604D01*
X655185Y454501D01*
X655213Y454460D01*
X655234Y454415D01*
X655302Y454329D01*
X655364Y454238D01*
X655401Y454205D01*
X655432Y454166D01*
X655520Y454100D01*
X655602Y454027D01*
X655647Y454005D01*
X655686Y453975D01*
X655831Y453904D01*
X657753Y453108D01*
X659548Y451313D01*
X659587Y451283D01*
X659620Y451246D01*
X659712Y451185D01*
X659799Y451118D01*
X659845Y451098D01*
X659886Y451071D01*
X659990Y451035D01*
X660091Y450992D01*
X660140Y450984D01*
X660187Y450968D01*
X660296Y450959D01*
X660405Y450942D01*
X660455Y450947D01*
X660504Y450943D01*
X660612Y450961D01*
X660722Y450972D01*
X660768Y450988D01*
X660817Y450997D01*
X660917Y451042D01*
X661021Y451079D01*
X661062Y451107D01*
X661107Y451128D01*
X661193Y451196D01*
X661284Y451258D01*
X661317Y451295D01*
X661356Y451326D01*
X661422Y451414D01*
X661494Y451496D01*
X661517Y451541D01*
X661547Y451580D01*
X661618Y451725D01*
X662127Y452953D01*
X669959Y460785D01*
X670032Y460880D01*
X670111Y460969D01*
X670129Y461005D01*
X670154Y461037D01*
X670201Y461146D01*
X670255Y461252D01*
X670264Y461291D01*
X670280Y461329D01*
X670299Y461446D01*
X670325Y461562D01*
X670324Y461603D01*
X670330Y461643D01*
X670319Y461761D01*
X670315Y461880D01*
X670304Y461919D01*
X670300Y461959D01*
X670260Y462071D01*
X670227Y462186D01*
X670206Y462220D01*
X670193Y462259D01*
X670126Y462357D01*
X670065Y462460D01*
X670025Y462505D01*
X670014Y462522D01*
X669999Y462535D01*
X669959Y462580D01*
X668288Y464251D01*
X666903Y467595D01*
X666903Y483405D01*
X668288Y486749D01*
X670847Y489308D01*
X674191Y490693D01*
X677809Y490693D01*
X681153Y489308D01*
X683712Y486749D01*
X685097Y483405D01*
X685097Y467595D01*
X683712Y464251D01*
X681912Y462452D01*
X681852Y462373D01*
X681784Y462301D01*
X681755Y462248D01*
X681718Y462200D01*
X681678Y462110D01*
X681630Y462023D01*
X681615Y461964D01*
X681591Y461909D01*
X681576Y461811D01*
X681551Y461715D01*
X681545Y461615D01*
X681541Y461595D01*
X681543Y461582D01*
X681541Y461554D01*
X681541Y457889D01*
X680666Y455777D01*
X680624Y455723D01*
X680604Y455677D01*
X680577Y455636D01*
X680541Y455532D01*
X680498Y455431D01*
X680490Y455382D01*
X680474Y455335D01*
X680465Y455226D01*
X680448Y455117D01*
X680453Y455067D01*
X680449Y455018D01*
X680467Y454910D01*
X680478Y454800D01*
X680495Y454753D01*
X680503Y454705D01*
X680548Y454604D01*
X680585Y454501D01*
X680613Y454460D01*
X680634Y454415D01*
X680702Y454329D01*
X680764Y454238D01*
X680801Y454205D01*
X680832Y454166D01*
X680920Y454100D01*
X681002Y454027D01*
X681047Y454005D01*
X681086Y453975D01*
X681231Y453904D01*
X683153Y453108D01*
X685712Y450549D01*
X687097Y447205D01*
X687097Y442026D01*
X687098Y442016D01*
X687097Y442007D01*
X687118Y441859D01*
X687137Y441710D01*
X687140Y441701D01*
X687141Y441692D01*
X687193Y441540D01*
X687351Y441160D01*
X687351Y393117D01*
X687363Y393019D01*
X687366Y392920D01*
X687383Y392862D01*
X687391Y392802D01*
X687427Y392710D01*
X687455Y392615D01*
X687485Y392562D01*
X687508Y392506D01*
X687566Y392426D01*
X687616Y392341D01*
X687682Y392265D01*
X687694Y392249D01*
X687704Y392241D01*
X687723Y392220D01*
X687859Y392084D01*
X687859Y383916D01*
X682084Y378141D01*
X673634Y378141D01*
X673516Y378126D01*
X673397Y378119D01*
X673359Y378106D01*
X673318Y378101D01*
X673208Y378058D01*
X673095Y378021D01*
X673060Y377999D01*
X673023Y377984D01*
X672927Y377915D01*
X672826Y377851D01*
X672798Y377821D01*
X672765Y377798D01*
X672689Y377706D01*
X672608Y377619D01*
X672588Y377584D01*
X672563Y377553D01*
X672512Y377445D01*
X672454Y377341D01*
X672444Y377301D01*
X672427Y377265D01*
X672405Y377148D01*
X672375Y377033D01*
X672371Y376973D01*
X672367Y376953D01*
X672369Y376932D01*
X672365Y376872D01*
X672365Y376597D01*
X672377Y376499D01*
X672380Y376400D01*
X672397Y376341D01*
X672405Y376281D01*
X672441Y376189D01*
X672469Y376094D01*
X672499Y376042D01*
X672522Y375986D01*
X672580Y375906D01*
X672630Y375820D01*
X672696Y375745D01*
X672708Y375728D01*
X672718Y375720D01*
X672736Y375699D01*
X675605Y372830D01*
X675684Y372770D01*
X675756Y372702D01*
X675809Y372673D01*
X675857Y372636D01*
X675948Y372596D01*
X676034Y372548D01*
X676093Y372533D01*
X676148Y372509D01*
X676246Y372494D01*
X676342Y372469D01*
X676442Y372463D01*
X676462Y372459D01*
X676475Y372461D01*
X676503Y372459D01*
X682084Y372459D01*
X687859Y366684D01*
X687859Y358516D01*
X682084Y352741D01*
X673916Y352741D01*
X668141Y358516D01*
X668141Y364097D01*
X668129Y364195D01*
X668126Y364294D01*
X668109Y364353D01*
X668101Y364413D01*
X668065Y364505D01*
X668037Y364600D01*
X668007Y364652D01*
X667984Y364708D01*
X667926Y364788D01*
X667876Y364874D01*
X667810Y364949D01*
X667798Y364966D01*
X667788Y364974D01*
X667770Y364995D01*
X663864Y368900D01*
X662127Y370637D01*
X661283Y372674D01*
X661283Y379677D01*
X661266Y379814D01*
X661253Y379953D01*
X661246Y379972D01*
X661243Y379992D01*
X661192Y380121D01*
X661145Y380252D01*
X661134Y380269D01*
X661126Y380288D01*
X661045Y380400D01*
X660967Y380515D01*
X660951Y380529D01*
X660940Y380545D01*
X660832Y380634D01*
X660728Y380726D01*
X660710Y380735D01*
X660695Y380748D01*
X660569Y380807D01*
X660445Y380871D01*
X660425Y380875D01*
X660407Y380884D01*
X660271Y380910D01*
X660135Y380940D01*
X660114Y380940D01*
X660095Y380943D01*
X659956Y380935D01*
X659817Y380931D01*
X659797Y380925D01*
X659777Y380924D01*
X659645Y380881D01*
X659511Y380842D01*
X659494Y380832D01*
X659475Y380826D01*
X659357Y380751D01*
X659237Y380681D01*
X659216Y380662D01*
X659206Y380655D01*
X659192Y380640D01*
X659117Y380574D01*
X656684Y378141D01*
X648234Y378141D01*
X648116Y378126D01*
X647997Y378119D01*
X647959Y378106D01*
X647918Y378101D01*
X647808Y378058D01*
X647695Y378021D01*
X647660Y377999D01*
X647623Y377984D01*
X647527Y377915D01*
X647426Y377851D01*
X647398Y377821D01*
X647365Y377798D01*
X647289Y377706D01*
X647208Y377619D01*
X647188Y377584D01*
X647163Y377553D01*
X647112Y377445D01*
X647054Y377341D01*
X647044Y377301D01*
X647027Y377265D01*
X647005Y377148D01*
X646975Y377033D01*
X646971Y376973D01*
X646967Y376953D01*
X646969Y376932D01*
X646965Y376872D01*
X646965Y376597D01*
X646977Y376499D01*
X646980Y376400D01*
X646997Y376341D01*
X647005Y376281D01*
X647041Y376189D01*
X647069Y376094D01*
X647099Y376042D01*
X647122Y375986D01*
X647180Y375906D01*
X647230Y375820D01*
X647296Y375745D01*
X647308Y375728D01*
X647318Y375720D01*
X647336Y375699D01*
X650205Y372830D01*
X650284Y372770D01*
X650356Y372702D01*
X650409Y372673D01*
X650457Y372636D01*
X650548Y372596D01*
X650634Y372548D01*
X650693Y372533D01*
X650748Y372509D01*
X650846Y372494D01*
X650942Y372469D01*
X651042Y372463D01*
X651062Y372459D01*
X651075Y372461D01*
X651103Y372459D01*
X656684Y372459D01*
X662459Y366684D01*
X662459Y358516D01*
X656684Y352741D01*
X648516Y352741D01*
X642741Y358516D01*
X642741Y364097D01*
X642729Y364195D01*
X642726Y364294D01*
X642709Y364353D01*
X642701Y364413D01*
X642665Y364505D01*
X642637Y364600D01*
X642607Y364652D01*
X642584Y364708D01*
X642526Y364789D01*
X642476Y364874D01*
X642410Y364949D01*
X642398Y364966D01*
X642388Y364974D01*
X642370Y364995D01*
X636727Y370637D01*
X635883Y372674D01*
X635883Y381091D01*
X635866Y381228D01*
X635853Y381367D01*
X635846Y381386D01*
X635843Y381406D01*
X635792Y381535D01*
X635745Y381667D01*
X635734Y381683D01*
X635726Y381702D01*
X635645Y381815D01*
X635567Y381930D01*
X635551Y381943D01*
X635540Y381959D01*
X635432Y382048D01*
X635328Y382140D01*
X635310Y382149D01*
X635295Y382162D01*
X635169Y382222D01*
X635045Y382285D01*
X635025Y382289D01*
X635007Y382298D01*
X634871Y382324D01*
X634735Y382354D01*
X634714Y382354D01*
X634695Y382358D01*
X634556Y382349D01*
X634417Y382345D01*
X634397Y382339D01*
X634377Y382338D01*
X634245Y382295D01*
X634111Y382256D01*
X634094Y382246D01*
X634075Y382240D01*
X633957Y382165D01*
X633837Y382095D01*
X633816Y382076D01*
X633806Y382070D01*
X633792Y382055D01*
X633717Y381988D01*
X630869Y379141D01*
X629485Y379141D01*
X629485Y386984D01*
X629470Y387102D01*
X629463Y387221D01*
X629450Y387259D01*
X629445Y387299D01*
X629402Y387410D01*
X629365Y387523D01*
X629343Y387557D01*
X629328Y387595D01*
X629259Y387691D01*
X629195Y387792D01*
X629165Y387820D01*
X629142Y387852D01*
X629050Y387928D01*
X628970Y388003D01*
X629024Y388037D01*
X629052Y388067D01*
X629085Y388091D01*
X629161Y388182D01*
X629242Y388269D01*
X629262Y388304D01*
X629287Y388336D01*
X629338Y388443D01*
X629396Y388548D01*
X629406Y388587D01*
X629423Y388623D01*
X629445Y388740D01*
X629475Y388856D01*
X629479Y388916D01*
X629483Y388936D01*
X629481Y388956D01*
X629485Y389016D01*
X629485Y396859D01*
X630869Y396859D01*
X633717Y394012D01*
X633826Y393926D01*
X633933Y393838D01*
X633952Y393829D01*
X633968Y393817D01*
X634096Y393761D01*
X634221Y393702D01*
X634241Y393698D01*
X634260Y393690D01*
X634398Y393668D01*
X634534Y393642D01*
X634554Y393644D01*
X634574Y393640D01*
X634713Y393654D01*
X634851Y393662D01*
X634870Y393668D01*
X634890Y393670D01*
X635022Y393717D01*
X635153Y393760D01*
X635171Y393771D01*
X635190Y393778D01*
X635305Y393856D01*
X635422Y393930D01*
X635436Y393945D01*
X635453Y393956D01*
X635545Y394061D01*
X635640Y394162D01*
X635650Y394180D01*
X635663Y394195D01*
X635727Y394319D01*
X635794Y394440D01*
X635799Y394460D01*
X635808Y394478D01*
X635838Y394614D01*
X635873Y394748D01*
X635875Y394776D01*
X635878Y394788D01*
X635877Y394809D01*
X635883Y394909D01*
X635883Y427442D01*
X635870Y427545D01*
X635866Y427650D01*
X635850Y427702D01*
X635843Y427757D01*
X635805Y427854D01*
X635775Y427954D01*
X635747Y428002D01*
X635726Y428053D01*
X635665Y428137D01*
X635611Y428227D01*
X635572Y428266D01*
X635540Y428310D01*
X635459Y428377D01*
X635385Y428450D01*
X635337Y428478D01*
X635295Y428513D01*
X635200Y428557D01*
X635110Y428610D01*
X635057Y428625D01*
X635007Y428648D01*
X634904Y428668D01*
X634804Y428697D01*
X634749Y428698D01*
X634695Y428708D01*
X634590Y428702D01*
X634486Y428704D01*
X634432Y428692D01*
X634377Y428688D01*
X634278Y428656D01*
X634176Y428633D01*
X634127Y428607D01*
X634075Y428590D01*
X633986Y428535D01*
X633893Y428486D01*
X633852Y428450D01*
X633806Y428420D01*
X633734Y428344D01*
X633656Y428275D01*
X633603Y428205D01*
X633588Y428189D01*
X633581Y428175D01*
X633559Y428147D01*
X633489Y428043D01*
X632361Y426915D01*
X631035Y426029D01*
X629562Y425418D01*
X629231Y425353D01*
X629231Y438538D01*
X629216Y438656D01*
X629209Y438775D01*
X629196Y438813D01*
X629191Y438853D01*
X629148Y438964D01*
X629111Y439077D01*
X629089Y439111D01*
X629074Y439149D01*
X629005Y439245D01*
X628941Y439346D01*
X628911Y439374D01*
X628888Y439406D01*
X628796Y439482D01*
X628709Y439564D01*
X628674Y439583D01*
X628643Y439609D01*
X628535Y439660D01*
X628431Y439717D01*
X628391Y439727D01*
X628355Y439745D01*
X628238Y439767D01*
X628123Y439797D01*
X628063Y439801D01*
X628043Y439804D01*
X628022Y439803D01*
X627962Y439807D01*
X626438Y439807D01*
X626320Y439792D01*
X626201Y439785D01*
X626163Y439772D01*
X626122Y439767D01*
X626012Y439723D01*
X625899Y439687D01*
X625864Y439665D01*
X625827Y439650D01*
X625730Y439580D01*
X625630Y439517D01*
X625602Y439487D01*
X625569Y439463D01*
X625493Y439372D01*
X625412Y439285D01*
X625392Y439250D01*
X625367Y439218D01*
X625316Y439111D01*
X625258Y439006D01*
X625248Y438967D01*
X625231Y438931D01*
X625209Y438814D01*
X625179Y438698D01*
X625175Y438638D01*
X625171Y438618D01*
X625173Y438598D01*
X625169Y438538D01*
X625169Y425353D01*
X624838Y425418D01*
X623320Y426047D01*
X623272Y426061D01*
X623227Y426082D01*
X623119Y426102D01*
X623013Y426131D01*
X622963Y426132D01*
X622914Y426142D01*
X622805Y426135D01*
X622695Y426136D01*
X622647Y426125D01*
X622597Y426122D01*
X622493Y426088D01*
X622386Y426062D01*
X622342Y426039D01*
X622295Y426024D01*
X622202Y425965D01*
X622105Y425914D01*
X622068Y425880D01*
X622026Y425854D01*
X621951Y425774D01*
X621869Y425700D01*
X621842Y425658D01*
X621808Y425622D01*
X621755Y425526D01*
X621695Y425434D01*
X621678Y425387D01*
X621654Y425343D01*
X621627Y425237D01*
X621591Y425133D01*
X621587Y425084D01*
X621575Y425036D01*
X621565Y424875D01*
X621565Y397957D01*
X621582Y397819D01*
X621595Y397681D01*
X621602Y397662D01*
X621605Y397642D01*
X621656Y397512D01*
X621703Y397381D01*
X621714Y397365D01*
X621722Y397346D01*
X621803Y397233D01*
X621881Y397118D01*
X621897Y397105D01*
X621908Y397089D01*
X622016Y397000D01*
X622120Y396908D01*
X622138Y396899D01*
X622153Y396886D01*
X622279Y396826D01*
X622403Y396763D01*
X622423Y396759D01*
X622441Y396750D01*
X622578Y396724D01*
X622713Y396694D01*
X622734Y396694D01*
X622753Y396690D01*
X622892Y396699D01*
X623031Y396703D01*
X623051Y396709D01*
X623071Y396710D01*
X623203Y396753D01*
X623337Y396792D01*
X623354Y396802D01*
X623373Y396808D01*
X623453Y396859D01*
X624915Y396859D01*
X624915Y389016D01*
X624930Y388898D01*
X624937Y388779D01*
X624949Y388741D01*
X624955Y388701D01*
X624998Y388590D01*
X625035Y388477D01*
X625057Y388443D01*
X625072Y388405D01*
X625141Y388309D01*
X625205Y388208D01*
X625235Y388180D01*
X625258Y388148D01*
X625350Y388072D01*
X625430Y387997D01*
X625376Y387963D01*
X625348Y387933D01*
X625315Y387909D01*
X625239Y387818D01*
X625158Y387731D01*
X625138Y387696D01*
X625113Y387664D01*
X625062Y387557D01*
X625004Y387452D01*
X624994Y387413D01*
X624977Y387377D01*
X624955Y387260D01*
X624925Y387144D01*
X624921Y387084D01*
X624917Y387064D01*
X624919Y387044D01*
X624915Y386984D01*
X624915Y379141D01*
X623467Y379141D01*
X623352Y379191D01*
X623227Y379250D01*
X623207Y379254D01*
X623188Y379262D01*
X623051Y379284D01*
X622914Y379310D01*
X622894Y379308D01*
X622874Y379312D01*
X622736Y379299D01*
X622597Y379290D01*
X622578Y379284D01*
X622558Y379282D01*
X622427Y379235D01*
X622295Y379192D01*
X622278Y379181D01*
X622258Y379174D01*
X622143Y379096D01*
X622026Y379022D01*
X622012Y379007D01*
X621995Y378996D01*
X621903Y378891D01*
X621808Y378790D01*
X621798Y378772D01*
X621785Y378757D01*
X621721Y378633D01*
X621654Y378512D01*
X621649Y378492D01*
X621640Y378474D01*
X621610Y378338D01*
X621575Y378204D01*
X621573Y378176D01*
X621570Y378164D01*
X621571Y378143D01*
X621565Y378043D01*
X621565Y376597D01*
X621577Y376499D01*
X621580Y376400D01*
X621597Y376341D01*
X621605Y376281D01*
X621641Y376189D01*
X621669Y376094D01*
X621699Y376042D01*
X621722Y375986D01*
X621780Y375906D01*
X621830Y375820D01*
X621896Y375745D01*
X621908Y375728D01*
X621918Y375720D01*
X621936Y375699D01*
X624805Y372830D01*
X624884Y372770D01*
X624956Y372702D01*
X625009Y372673D01*
X625057Y372636D01*
X625148Y372596D01*
X625234Y372548D01*
X625293Y372533D01*
X625348Y372509D01*
X625446Y372494D01*
X625542Y372469D01*
X625642Y372463D01*
X625663Y372459D01*
X625675Y372461D01*
X625703Y372459D01*
X631284Y372459D01*
X637059Y366684D01*
X637059Y358516D01*
X631284Y352741D01*
X623116Y352741D01*
G37*
%LPD*%
G36*
X250118Y48746D02*
X250118Y48746D01*
X250237Y48753D01*
X250275Y48766D01*
X250316Y48771D01*
X250426Y48814D01*
X250539Y48851D01*
X250574Y48873D01*
X250611Y48888D01*
X250707Y48958D01*
X250808Y49021D01*
X250836Y49051D01*
X250869Y49074D01*
X250945Y49166D01*
X251026Y49253D01*
X251046Y49288D01*
X251071Y49319D01*
X251122Y49427D01*
X251180Y49531D01*
X251190Y49571D01*
X251207Y49607D01*
X251229Y49724D01*
X251259Y49839D01*
X251263Y49900D01*
X251267Y49920D01*
X251265Y49940D01*
X251269Y50000D01*
X251269Y126000D01*
X251254Y126118D01*
X251247Y126237D01*
X251234Y126275D01*
X251229Y126316D01*
X251186Y126426D01*
X251149Y126539D01*
X251127Y126574D01*
X251112Y126611D01*
X251043Y126707D01*
X250979Y126808D01*
X250949Y126836D01*
X250926Y126869D01*
X250834Y126945D01*
X250747Y127026D01*
X250712Y127046D01*
X250681Y127071D01*
X250573Y127122D01*
X250469Y127180D01*
X250429Y127190D01*
X250393Y127207D01*
X250276Y127229D01*
X250161Y127259D01*
X250101Y127263D01*
X250081Y127267D01*
X250060Y127265D01*
X250000Y127269D01*
X210000Y127269D01*
X209882Y127254D01*
X209763Y127247D01*
X209725Y127234D01*
X209684Y127229D01*
X209574Y127186D01*
X209461Y127149D01*
X209426Y127127D01*
X209389Y127112D01*
X209293Y127043D01*
X209192Y126979D01*
X209164Y126949D01*
X209131Y126926D01*
X209056Y126834D01*
X208974Y126747D01*
X208954Y126712D01*
X208929Y126681D01*
X208878Y126573D01*
X208820Y126469D01*
X208810Y126429D01*
X208793Y126393D01*
X208771Y126276D01*
X208741Y126161D01*
X208737Y126101D01*
X208733Y126081D01*
X208735Y126060D01*
X208731Y126000D01*
X208731Y91269D01*
X94000Y91269D01*
X93882Y91254D01*
X93763Y91247D01*
X93725Y91234D01*
X93684Y91229D01*
X93574Y91186D01*
X93461Y91149D01*
X93426Y91127D01*
X93389Y91112D01*
X93293Y91043D01*
X93192Y90979D01*
X93164Y90949D01*
X93131Y90926D01*
X93056Y90834D01*
X92974Y90747D01*
X92954Y90712D01*
X92929Y90681D01*
X92878Y90573D01*
X92820Y90469D01*
X92810Y90429D01*
X92793Y90393D01*
X92771Y90276D01*
X92741Y90161D01*
X92737Y90101D01*
X92733Y90081D01*
X92735Y90060D01*
X92731Y90000D01*
X92731Y50000D01*
X92746Y49882D01*
X92753Y49763D01*
X92766Y49725D01*
X92771Y49684D01*
X92814Y49574D01*
X92851Y49461D01*
X92873Y49426D01*
X92888Y49389D01*
X92958Y49293D01*
X93021Y49192D01*
X93051Y49164D01*
X93074Y49131D01*
X93166Y49056D01*
X93253Y48974D01*
X93288Y48954D01*
X93319Y48929D01*
X93427Y48878D01*
X93531Y48820D01*
X93571Y48810D01*
X93607Y48793D01*
X93724Y48771D01*
X93839Y48741D01*
X93900Y48737D01*
X93920Y48733D01*
X93940Y48735D01*
X94000Y48731D01*
X250000Y48731D01*
X250118Y48746D01*
G37*
%LPC*%
G36*
X877116Y378141D02*
X877116Y378141D01*
X871341Y383916D01*
X871341Y392084D01*
X871478Y392220D01*
X871538Y392298D01*
X871606Y392370D01*
X871635Y392423D01*
X871672Y392471D01*
X871712Y392562D01*
X871760Y392649D01*
X871775Y392707D01*
X871799Y392763D01*
X871814Y392861D01*
X871839Y392957D01*
X871845Y393057D01*
X871849Y393077D01*
X871847Y393089D01*
X871849Y393117D01*
X871849Y441160D01*
X872007Y441540D01*
X872009Y441549D01*
X872014Y441557D01*
X872050Y441700D01*
X872091Y441847D01*
X872091Y441856D01*
X872093Y441865D01*
X872103Y442026D01*
X872103Y447205D01*
X873488Y450549D01*
X876047Y453108D01*
X879391Y454493D01*
X883009Y454493D01*
X886353Y453108D01*
X888912Y450549D01*
X890297Y447205D01*
X890297Y442026D01*
X890298Y442016D01*
X890297Y442007D01*
X890318Y441858D01*
X890337Y441710D01*
X890340Y441701D01*
X890341Y441692D01*
X890393Y441540D01*
X890551Y441160D01*
X890551Y393117D01*
X890563Y393019D01*
X890566Y392920D01*
X890583Y392862D01*
X890591Y392802D01*
X890627Y392710D01*
X890655Y392615D01*
X890685Y392562D01*
X890708Y392506D01*
X890766Y392426D01*
X890816Y392341D01*
X890882Y392265D01*
X890894Y392249D01*
X890904Y392241D01*
X890922Y392220D01*
X891059Y392084D01*
X891059Y383916D01*
X885284Y378141D01*
X877116Y378141D01*
G37*
%LPD*%
%LPC*%
G36*
X44121Y432499D02*
X44121Y432499D01*
X36954Y435468D01*
X31468Y440954D01*
X28499Y448121D01*
X28499Y455879D01*
X31468Y463046D01*
X36954Y468532D01*
X44121Y471501D01*
X51879Y471501D01*
X59046Y468532D01*
X64532Y463046D01*
X67501Y455879D01*
X67501Y448121D01*
X64532Y440954D01*
X59046Y435468D01*
X51879Y432499D01*
X44121Y432499D01*
G37*
%LPD*%
%LPC*%
G36*
X44121Y28499D02*
X44121Y28499D01*
X36954Y31468D01*
X31468Y36954D01*
X28499Y44121D01*
X28499Y51879D01*
X31468Y59046D01*
X36954Y64532D01*
X44121Y67501D01*
X51879Y67501D01*
X59046Y64532D01*
X64532Y59046D01*
X67501Y51879D01*
X67501Y44121D01*
X64532Y36954D01*
X59046Y31468D01*
X51879Y28499D01*
X44121Y28499D01*
G37*
%LPD*%
%LPC*%
G36*
X988121Y28499D02*
X988121Y28499D01*
X980954Y31468D01*
X975468Y36954D01*
X972499Y44121D01*
X972499Y51879D01*
X975468Y59046D01*
X980954Y64532D01*
X988121Y67501D01*
X995879Y67501D01*
X1003046Y64532D01*
X1008532Y59046D01*
X1011501Y51879D01*
X1011501Y44121D01*
X1008532Y36954D01*
X1003046Y31468D01*
X995879Y28499D01*
X988121Y28499D01*
G37*
%LPD*%
%LPC*%
G36*
X988121Y432499D02*
X988121Y432499D01*
X980954Y435468D01*
X975468Y440954D01*
X972499Y448121D01*
X972499Y455879D01*
X975468Y463046D01*
X980954Y468532D01*
X988121Y471501D01*
X995879Y471501D01*
X1003046Y468532D01*
X1008532Y463046D01*
X1011501Y455879D01*
X1011501Y448121D01*
X1008532Y440954D01*
X1003046Y435468D01*
X995879Y432499D01*
X988121Y432499D01*
G37*
%LPD*%
%LPC*%
G36*
X597991Y460307D02*
X597991Y460307D01*
X594647Y461692D01*
X592088Y464251D01*
X590703Y467595D01*
X590703Y483405D01*
X592088Y486749D01*
X594647Y489308D01*
X597991Y490693D01*
X601609Y490693D01*
X604953Y489308D01*
X607512Y486749D01*
X608897Y483405D01*
X608897Y467595D01*
X607512Y464251D01*
X604953Y461692D01*
X601609Y460307D01*
X597991Y460307D01*
G37*
%LPD*%
%LPC*%
G36*
X13901Y201279D02*
X13901Y201279D01*
X7679Y207501D01*
X7679Y216299D01*
X13901Y222521D01*
X22699Y222521D01*
X28921Y216299D01*
X28921Y207501D01*
X22699Y201279D01*
X13901Y201279D01*
G37*
%LPD*%
%LPC*%
G36*
X13901Y226679D02*
X13901Y226679D01*
X7679Y232901D01*
X7679Y241699D01*
X13901Y247921D01*
X22699Y247921D01*
X28921Y241699D01*
X28921Y232901D01*
X22699Y226679D01*
X13901Y226679D01*
G37*
%LPD*%
%LPC*%
G36*
X395011Y21799D02*
X395011Y21799D01*
X391152Y23398D01*
X388198Y26352D01*
X386599Y30211D01*
X386599Y34389D01*
X388198Y38248D01*
X391152Y41202D01*
X395011Y42801D01*
X399189Y42801D01*
X403048Y41202D01*
X406002Y38248D01*
X407601Y34389D01*
X407601Y30211D01*
X406002Y26352D01*
X403048Y23398D01*
X399189Y21799D01*
X395011Y21799D01*
G37*
%LPD*%
%LPC*%
G36*
X597716Y352741D02*
X597716Y352741D01*
X591941Y358516D01*
X591941Y366684D01*
X597716Y372459D01*
X605884Y372459D01*
X611659Y366684D01*
X611659Y358516D01*
X605884Y352741D01*
X597716Y352741D01*
G37*
%LPD*%
%LPC*%
G36*
X500231Y477531D02*
X500231Y477531D01*
X500231Y489447D01*
X500562Y489382D01*
X502035Y488771D01*
X503361Y487885D01*
X504489Y486757D01*
X505375Y485431D01*
X505986Y483958D01*
X506297Y482393D01*
X506297Y477531D01*
X500231Y477531D01*
G37*
%LPD*%
%LPC*%
G36*
X881231Y477531D02*
X881231Y477531D01*
X881231Y489447D01*
X881562Y489382D01*
X883035Y488771D01*
X884361Y487885D01*
X885489Y486757D01*
X886375Y485431D01*
X886986Y483958D01*
X887297Y482393D01*
X887297Y477531D01*
X881231Y477531D01*
G37*
%LPD*%
%LPC*%
G36*
X703431Y477531D02*
X703431Y477531D01*
X703431Y489447D01*
X703762Y489382D01*
X705235Y488771D01*
X706561Y487885D01*
X707689Y486757D01*
X708575Y485431D01*
X709186Y483958D01*
X709497Y482393D01*
X709497Y477531D01*
X703431Y477531D01*
G37*
%LPD*%
%LPC*%
G36*
X500231Y473469D02*
X500231Y473469D01*
X506297Y473469D01*
X506297Y468607D01*
X505986Y467042D01*
X505375Y465569D01*
X504489Y464243D01*
X503361Y463115D01*
X502035Y462229D01*
X500562Y461618D01*
X500231Y461553D01*
X500231Y473469D01*
G37*
%LPD*%
%LPC*%
G36*
X703431Y473469D02*
X703431Y473469D01*
X709497Y473469D01*
X709497Y468607D01*
X709186Y467042D01*
X708575Y465569D01*
X707689Y464243D01*
X706561Y463115D01*
X705235Y462229D01*
X703762Y461618D01*
X703431Y461553D01*
X703431Y473469D01*
G37*
%LPD*%
%LPC*%
G36*
X881231Y473469D02*
X881231Y473469D01*
X887297Y473469D01*
X887297Y468607D01*
X886986Y467042D01*
X886375Y465569D01*
X885489Y464243D01*
X884361Y463115D01*
X883035Y462229D01*
X881562Y461618D01*
X881231Y461553D01*
X881231Y473469D01*
G37*
%LPD*%
%LPC*%
G36*
X871103Y477531D02*
X871103Y477531D01*
X871103Y482393D01*
X871414Y483958D01*
X872025Y485431D01*
X872911Y486757D01*
X874039Y487885D01*
X875365Y488771D01*
X876838Y489382D01*
X877169Y489447D01*
X877169Y477531D01*
X871103Y477531D01*
G37*
%LPD*%
%LPC*%
G36*
X490103Y477531D02*
X490103Y477531D01*
X490103Y482393D01*
X490414Y483958D01*
X491025Y485431D01*
X491911Y486757D01*
X493039Y487885D01*
X494365Y488771D01*
X495838Y489382D01*
X496169Y489447D01*
X496169Y477531D01*
X490103Y477531D01*
G37*
%LPD*%
%LPC*%
G36*
X693303Y477531D02*
X693303Y477531D01*
X693303Y482393D01*
X693614Y483958D01*
X694225Y485431D01*
X695111Y486757D01*
X696239Y487885D01*
X697565Y488771D01*
X699038Y489382D01*
X699369Y489447D01*
X699369Y477531D01*
X693303Y477531D01*
G37*
%LPD*%
%LPC*%
G36*
X495838Y461618D02*
X495838Y461618D01*
X494365Y462229D01*
X493039Y463115D01*
X491911Y464243D01*
X491025Y465569D01*
X490414Y467042D01*
X490103Y468607D01*
X490103Y473469D01*
X496169Y473469D01*
X496169Y461553D01*
X495838Y461618D01*
G37*
%LPD*%
%LPC*%
G36*
X699038Y461618D02*
X699038Y461618D01*
X697565Y462229D01*
X696239Y463115D01*
X695111Y464243D01*
X694225Y465569D01*
X693614Y467042D01*
X693303Y468607D01*
X693303Y473469D01*
X699369Y473469D01*
X699369Y461553D01*
X699038Y461618D01*
G37*
%LPD*%
%LPC*%
G36*
X876838Y461618D02*
X876838Y461618D01*
X875365Y462229D01*
X874039Y463115D01*
X872911Y464243D01*
X872025Y465569D01*
X871414Y467042D01*
X871103Y468607D01*
X871103Y473469D01*
X877169Y473469D01*
X877169Y461553D01*
X876838Y461618D01*
G37*
%LPD*%
%LPC*%
G36*
X998839Y290639D02*
X998839Y290639D01*
X998839Y297721D01*
X1000285Y297721D01*
X1005921Y292085D01*
X1005921Y290639D01*
X998839Y290639D01*
G37*
%LPD*%
%LPC*%
G36*
X1024239Y290639D02*
X1024239Y290639D01*
X1024239Y297721D01*
X1025685Y297721D01*
X1031321Y292085D01*
X1031321Y290639D01*
X1024239Y290639D01*
G37*
%LPD*%
%LPC*%
G36*
X46239Y290639D02*
X46239Y290639D01*
X46239Y297721D01*
X47685Y297721D01*
X53321Y292085D01*
X53321Y290639D01*
X46239Y290639D01*
G37*
%LPD*%
%LPC*%
G36*
X20839Y290639D02*
X20839Y290639D01*
X20839Y297721D01*
X22285Y297721D01*
X27921Y292085D01*
X27921Y290639D01*
X20839Y290639D01*
G37*
%LPD*%
%LPC*%
G36*
X34079Y290639D02*
X34079Y290639D01*
X34079Y292085D01*
X39715Y297721D01*
X41161Y297721D01*
X41161Y290639D01*
X34079Y290639D01*
G37*
%LPD*%
%LPC*%
G36*
X1012079Y290639D02*
X1012079Y290639D01*
X1012079Y292085D01*
X1017715Y297721D01*
X1019161Y297721D01*
X1019161Y290639D01*
X1012079Y290639D01*
G37*
%LPD*%
%LPC*%
G36*
X986679Y290639D02*
X986679Y290639D01*
X986679Y292085D01*
X992315Y297721D01*
X993761Y297721D01*
X993761Y290639D01*
X986679Y290639D01*
G37*
%LPD*%
%LPC*%
G36*
X8679Y290639D02*
X8679Y290639D01*
X8679Y292085D01*
X14315Y297721D01*
X15761Y297721D01*
X15761Y290639D01*
X8679Y290639D01*
G37*
%LPD*%
%LPC*%
G36*
X1024239Y278479D02*
X1024239Y278479D01*
X1024239Y285561D01*
X1031321Y285561D01*
X1031321Y284115D01*
X1025685Y278479D01*
X1024239Y278479D01*
G37*
%LPD*%
%LPC*%
G36*
X20839Y278479D02*
X20839Y278479D01*
X20839Y285561D01*
X27921Y285561D01*
X27921Y284115D01*
X22285Y278479D01*
X20839Y278479D01*
G37*
%LPD*%
%LPC*%
G36*
X14315Y278479D02*
X14315Y278479D01*
X8679Y284115D01*
X8679Y285561D01*
X15761Y285561D01*
X15761Y278479D01*
X14315Y278479D01*
G37*
%LPD*%
%LPC*%
G36*
X1017715Y278479D02*
X1017715Y278479D01*
X1012079Y284115D01*
X1012079Y285561D01*
X1019161Y285561D01*
X1019161Y278479D01*
X1017715Y278479D01*
G37*
%LPD*%
%LPC*%
G36*
X449599Y59499D02*
X449599Y59499D01*
X449599Y66178D01*
X450747Y65805D01*
X452079Y65126D01*
X453289Y64247D01*
X454347Y63189D01*
X455226Y61979D01*
X455905Y60647D01*
X456278Y59499D01*
X449599Y59499D01*
G37*
%LPD*%
%LPC*%
G36*
X449599Y54501D02*
X449599Y54501D01*
X456278Y54501D01*
X455905Y53353D01*
X455226Y52021D01*
X454347Y50811D01*
X453289Y49753D01*
X452079Y48874D01*
X450747Y48195D01*
X449599Y47822D01*
X449599Y54501D01*
G37*
%LPD*%
%LPC*%
G36*
X437922Y59499D02*
X437922Y59499D01*
X438295Y60647D01*
X438974Y61979D01*
X439853Y63189D01*
X440911Y64247D01*
X442121Y65126D01*
X443453Y65805D01*
X444601Y66178D01*
X444601Y59499D01*
X437922Y59499D01*
G37*
%LPD*%
%LPC*%
G36*
X443453Y48195D02*
X443453Y48195D01*
X442121Y48874D01*
X440911Y49753D01*
X439853Y50811D01*
X438974Y52021D01*
X438295Y53353D01*
X437922Y54501D01*
X444601Y54501D01*
X444601Y47822D01*
X443453Y48195D01*
G37*
%LPD*%
%LPC*%
G36*
X883485Y364885D02*
X883485Y364885D01*
X883485Y371459D01*
X884869Y371459D01*
X890059Y366269D01*
X890059Y364885D01*
X883485Y364885D01*
G37*
%LPD*%
%LPC*%
G36*
X705685Y364885D02*
X705685Y364885D01*
X705685Y371459D01*
X707069Y371459D01*
X712259Y366269D01*
X712259Y364885D01*
X705685Y364885D01*
G37*
%LPD*%
%LPC*%
G36*
X502485Y364885D02*
X502485Y364885D01*
X502485Y371459D01*
X503869Y371459D01*
X509059Y366269D01*
X509059Y364885D01*
X502485Y364885D01*
G37*
%LPD*%
%LPC*%
G36*
X502485Y353741D02*
X502485Y353741D01*
X502485Y360315D01*
X509059Y360315D01*
X509059Y358931D01*
X503869Y353741D01*
X502485Y353741D01*
G37*
%LPD*%
%LPC*%
G36*
X872341Y364885D02*
X872341Y364885D01*
X872341Y366269D01*
X877531Y371459D01*
X878915Y371459D01*
X878915Y364885D01*
X872341Y364885D01*
G37*
%LPD*%
%LPC*%
G36*
X883485Y353741D02*
X883485Y353741D01*
X883485Y360315D01*
X890059Y360315D01*
X890059Y358931D01*
X884869Y353741D01*
X883485Y353741D01*
G37*
%LPD*%
%LPC*%
G36*
X694541Y364885D02*
X694541Y364885D01*
X694541Y366269D01*
X699731Y371459D01*
X701115Y371459D01*
X701115Y364885D01*
X694541Y364885D01*
G37*
%LPD*%
%LPC*%
G36*
X491341Y364885D02*
X491341Y364885D01*
X491341Y366269D01*
X496531Y371459D01*
X497915Y371459D01*
X497915Y364885D01*
X491341Y364885D01*
G37*
%LPD*%
%LPC*%
G36*
X705685Y353741D02*
X705685Y353741D01*
X705685Y360315D01*
X712259Y360315D01*
X712259Y358931D01*
X707069Y353741D01*
X705685Y353741D01*
G37*
%LPD*%
%LPC*%
G36*
X496531Y353741D02*
X496531Y353741D01*
X491341Y358931D01*
X491341Y360315D01*
X497915Y360315D01*
X497915Y353741D01*
X496531Y353741D01*
G37*
%LPD*%
%LPC*%
G36*
X699731Y353741D02*
X699731Y353741D01*
X694541Y358931D01*
X694541Y360315D01*
X701115Y360315D01*
X701115Y353741D01*
X699731Y353741D01*
G37*
%LPD*%
%LPC*%
G36*
X877531Y353741D02*
X877531Y353741D01*
X872341Y358931D01*
X872341Y360315D01*
X878915Y360315D01*
X878915Y353741D01*
X877531Y353741D01*
G37*
%LPD*%
%LPC*%
G36*
X221269Y451269D02*
X221269Y451269D01*
X221269Y458731D01*
X224846Y458731D01*
X224809Y458541D01*
X224432Y457631D01*
X223884Y456812D01*
X223188Y456116D01*
X223098Y456055D01*
X223060Y456023D01*
X223017Y455997D01*
X222940Y455919D01*
X222857Y455847D01*
X222829Y455806D01*
X222794Y455771D01*
X222739Y455676D01*
X222676Y455585D01*
X222659Y455539D01*
X222634Y455496D01*
X222604Y455390D01*
X222566Y455287D01*
X222561Y455238D01*
X222548Y455190D01*
X222545Y455080D01*
X222534Y454971D01*
X222541Y454922D01*
X222540Y454872D01*
X222565Y454765D01*
X222581Y454656D01*
X222600Y454610D01*
X222611Y454562D01*
X222662Y454465D01*
X222705Y454363D01*
X222735Y454324D01*
X222758Y454280D01*
X222831Y454198D01*
X222897Y454110D01*
X222936Y454079D01*
X222970Y454042D01*
X223097Y453945D01*
X223188Y453884D01*
X223884Y453188D01*
X224432Y452369D01*
X224809Y451459D01*
X224846Y451269D01*
X221269Y451269D01*
G37*
%LPD*%
%LPC*%
G36*
X178269Y118269D02*
X178269Y118269D01*
X178269Y121846D01*
X178459Y121809D01*
X179369Y121432D01*
X180188Y120884D01*
X180884Y120188D01*
X180945Y120098D01*
X180977Y120060D01*
X181003Y120017D01*
X181081Y119940D01*
X181153Y119857D01*
X181194Y119829D01*
X181229Y119794D01*
X181324Y119739D01*
X181415Y119676D01*
X181461Y119659D01*
X181504Y119634D01*
X181610Y119604D01*
X181713Y119566D01*
X181762Y119561D01*
X181810Y119548D01*
X181920Y119545D01*
X182029Y119534D01*
X182078Y119541D01*
X182128Y119540D01*
X182235Y119565D01*
X182344Y119581D01*
X182390Y119600D01*
X182438Y119611D01*
X182535Y119662D01*
X182637Y119705D01*
X182676Y119735D01*
X182720Y119758D01*
X182802Y119831D01*
X182890Y119897D01*
X182921Y119936D01*
X182958Y119970D01*
X183055Y120097D01*
X183116Y120188D01*
X183812Y120884D01*
X184631Y121432D01*
X185541Y121809D01*
X185731Y121846D01*
X185731Y118269D01*
X178269Y118269D01*
G37*
%LPD*%
%LPC*%
G36*
X188269Y118269D02*
X188269Y118269D01*
X188269Y121846D01*
X188459Y121809D01*
X189369Y121432D01*
X190188Y120884D01*
X190884Y120188D01*
X190945Y120098D01*
X190977Y120060D01*
X191003Y120017D01*
X191081Y119940D01*
X191153Y119857D01*
X191194Y119829D01*
X191229Y119794D01*
X191324Y119739D01*
X191415Y119676D01*
X191461Y119659D01*
X191504Y119634D01*
X191610Y119604D01*
X191713Y119566D01*
X191762Y119561D01*
X191810Y119548D01*
X191920Y119545D01*
X192029Y119534D01*
X192078Y119541D01*
X192128Y119540D01*
X192235Y119565D01*
X192344Y119581D01*
X192390Y119600D01*
X192438Y119611D01*
X192535Y119662D01*
X192637Y119705D01*
X192676Y119735D01*
X192720Y119758D01*
X192802Y119831D01*
X192890Y119897D01*
X192921Y119936D01*
X192958Y119970D01*
X193055Y120097D01*
X193116Y120188D01*
X193812Y120884D01*
X194631Y121432D01*
X195541Y121809D01*
X195731Y121846D01*
X195731Y118269D01*
X188269Y118269D01*
G37*
%LPD*%
%LPC*%
G36*
X181269Y391269D02*
X181269Y391269D01*
X181269Y394846D01*
X181459Y394809D01*
X182369Y394432D01*
X183188Y393884D01*
X183884Y393188D01*
X183945Y393098D01*
X183977Y393060D01*
X184003Y393017D01*
X184081Y392940D01*
X184153Y392857D01*
X184194Y392829D01*
X184229Y392794D01*
X184324Y392739D01*
X184415Y392676D01*
X184461Y392659D01*
X184504Y392634D01*
X184610Y392604D01*
X184713Y392566D01*
X184762Y392561D01*
X184810Y392548D01*
X184920Y392545D01*
X185029Y392534D01*
X185078Y392541D01*
X185128Y392540D01*
X185235Y392565D01*
X185344Y392581D01*
X185390Y392600D01*
X185438Y392611D01*
X185535Y392662D01*
X185637Y392705D01*
X185676Y392735D01*
X185720Y392758D01*
X185802Y392831D01*
X185890Y392897D01*
X185921Y392936D01*
X185958Y392970D01*
X186055Y393097D01*
X186116Y393188D01*
X186812Y393884D01*
X187631Y394432D01*
X188541Y394809D01*
X188731Y394846D01*
X188731Y391269D01*
X181269Y391269D01*
G37*
%LPD*%
%LPC*%
G36*
X191269Y391269D02*
X191269Y391269D01*
X191269Y394846D01*
X191459Y394809D01*
X192369Y394432D01*
X193188Y393884D01*
X193884Y393188D01*
X193945Y393098D01*
X193977Y393060D01*
X194003Y393017D01*
X194081Y392940D01*
X194153Y392857D01*
X194194Y392829D01*
X194229Y392794D01*
X194324Y392739D01*
X194415Y392676D01*
X194461Y392659D01*
X194504Y392634D01*
X194610Y392604D01*
X194713Y392566D01*
X194762Y392561D01*
X194810Y392548D01*
X194920Y392545D01*
X195029Y392534D01*
X195078Y392541D01*
X195128Y392540D01*
X195235Y392565D01*
X195344Y392581D01*
X195390Y392600D01*
X195438Y392611D01*
X195535Y392662D01*
X195637Y392705D01*
X195676Y392735D01*
X195720Y392758D01*
X195802Y392831D01*
X195890Y392897D01*
X195921Y392936D01*
X195958Y392970D01*
X196055Y393097D01*
X196116Y393188D01*
X196812Y393884D01*
X197631Y394432D01*
X198541Y394809D01*
X198731Y394846D01*
X198731Y391269D01*
X191269Y391269D01*
G37*
%LPD*%
%LPC*%
G36*
X199541Y193191D02*
X199541Y193191D01*
X198631Y193568D01*
X197812Y194116D01*
X197116Y194812D01*
X197055Y194903D01*
X197023Y194940D01*
X196997Y194983D01*
X196919Y195060D01*
X196847Y195143D01*
X196806Y195171D01*
X196771Y195206D01*
X196676Y195261D01*
X196585Y195324D01*
X196539Y195341D01*
X196496Y195366D01*
X196390Y195396D01*
X196287Y195434D01*
X196237Y195439D01*
X196190Y195452D01*
X196080Y195455D01*
X195971Y195466D01*
X195921Y195459D01*
X195872Y195460D01*
X195765Y195435D01*
X195656Y195419D01*
X195610Y195400D01*
X195562Y195389D01*
X195464Y195338D01*
X195363Y195295D01*
X195324Y195265D01*
X195279Y195242D01*
X195198Y195169D01*
X195110Y195103D01*
X195079Y195063D01*
X195042Y195030D01*
X194945Y194902D01*
X194884Y194812D01*
X194188Y194116D01*
X193369Y193568D01*
X192459Y193191D01*
X192269Y193154D01*
X192269Y196731D01*
X199731Y196731D01*
X199731Y193154D01*
X199541Y193191D01*
G37*
%LPD*%
%LPC*%
G36*
X188541Y385191D02*
X188541Y385191D01*
X187631Y385568D01*
X186812Y386116D01*
X186116Y386812D01*
X186055Y386903D01*
X186023Y386940D01*
X185997Y386983D01*
X185919Y387060D01*
X185847Y387143D01*
X185806Y387171D01*
X185771Y387206D01*
X185676Y387261D01*
X185585Y387324D01*
X185539Y387341D01*
X185496Y387366D01*
X185390Y387396D01*
X185287Y387434D01*
X185237Y387439D01*
X185190Y387452D01*
X185080Y387455D01*
X184971Y387466D01*
X184921Y387459D01*
X184872Y387460D01*
X184765Y387435D01*
X184656Y387419D01*
X184610Y387400D01*
X184562Y387389D01*
X184464Y387338D01*
X184363Y387295D01*
X184324Y387265D01*
X184279Y387242D01*
X184198Y387169D01*
X184110Y387103D01*
X184079Y387063D01*
X184042Y387030D01*
X183945Y386902D01*
X183884Y386812D01*
X183188Y386116D01*
X182369Y385568D01*
X181459Y385191D01*
X181269Y385154D01*
X181269Y388731D01*
X188731Y388731D01*
X188731Y385154D01*
X188541Y385191D01*
G37*
%LPD*%
%LPC*%
G36*
X185541Y112191D02*
X185541Y112191D01*
X184631Y112568D01*
X183812Y113116D01*
X183116Y113812D01*
X183055Y113903D01*
X183023Y113940D01*
X182997Y113983D01*
X182919Y114060D01*
X182847Y114143D01*
X182806Y114171D01*
X182771Y114206D01*
X182676Y114261D01*
X182585Y114324D01*
X182539Y114341D01*
X182496Y114366D01*
X182390Y114396D01*
X182287Y114434D01*
X182237Y114439D01*
X182190Y114452D01*
X182080Y114455D01*
X181971Y114466D01*
X181921Y114459D01*
X181872Y114460D01*
X181765Y114435D01*
X181656Y114419D01*
X181610Y114400D01*
X181562Y114389D01*
X181464Y114338D01*
X181363Y114295D01*
X181324Y114265D01*
X181279Y114242D01*
X181198Y114169D01*
X181110Y114103D01*
X181079Y114063D01*
X181042Y114030D01*
X180945Y113902D01*
X180884Y113812D01*
X180188Y113116D01*
X179369Y112568D01*
X178459Y112191D01*
X178269Y112154D01*
X178269Y115731D01*
X185731Y115731D01*
X185731Y112154D01*
X185541Y112191D01*
G37*
%LPD*%
%LPC*%
G36*
X198541Y385191D02*
X198541Y385191D01*
X197631Y385568D01*
X196812Y386116D01*
X196116Y386812D01*
X196055Y386903D01*
X196023Y386940D01*
X195997Y386983D01*
X195919Y387060D01*
X195847Y387143D01*
X195806Y387171D01*
X195771Y387206D01*
X195676Y387261D01*
X195585Y387324D01*
X195539Y387341D01*
X195496Y387366D01*
X195390Y387396D01*
X195287Y387434D01*
X195237Y387439D01*
X195190Y387452D01*
X195080Y387455D01*
X194971Y387466D01*
X194921Y387459D01*
X194872Y387460D01*
X194765Y387435D01*
X194656Y387419D01*
X194610Y387400D01*
X194562Y387389D01*
X194464Y387338D01*
X194363Y387295D01*
X194324Y387265D01*
X194279Y387242D01*
X194198Y387169D01*
X194110Y387103D01*
X194079Y387063D01*
X194042Y387030D01*
X193945Y386902D01*
X193884Y386812D01*
X193188Y386116D01*
X192369Y385568D01*
X191459Y385191D01*
X191269Y385154D01*
X191269Y388731D01*
X198731Y388731D01*
X198731Y385154D01*
X198541Y385191D01*
G37*
%LPD*%
%LPC*%
G36*
X215154Y451269D02*
X215154Y451269D01*
X215191Y451459D01*
X215568Y452369D01*
X216116Y453188D01*
X216812Y453884D01*
X216903Y453945D01*
X216940Y453977D01*
X216983Y454003D01*
X217060Y454081D01*
X217143Y454153D01*
X217171Y454194D01*
X217206Y454229D01*
X217261Y454324D01*
X217324Y454415D01*
X217341Y454461D01*
X217366Y454504D01*
X217396Y454610D01*
X217434Y454713D01*
X217439Y454763D01*
X217452Y454810D01*
X217455Y454920D01*
X217466Y455029D01*
X217459Y455079D01*
X217460Y455128D01*
X217435Y455235D01*
X217419Y455344D01*
X217400Y455390D01*
X217389Y455438D01*
X217338Y455536D01*
X217295Y455637D01*
X217265Y455676D01*
X217242Y455721D01*
X217169Y455802D01*
X217103Y455890D01*
X217063Y455921D01*
X217030Y455958D01*
X216902Y456055D01*
X216812Y456116D01*
X216116Y456812D01*
X215568Y457631D01*
X215191Y458541D01*
X215154Y458731D01*
X218731Y458731D01*
X218731Y451269D01*
X215154Y451269D01*
G37*
%LPD*%
%LPC*%
G36*
X195541Y112191D02*
X195541Y112191D01*
X194631Y112568D01*
X193812Y113116D01*
X193116Y113812D01*
X193055Y113903D01*
X193023Y113940D01*
X192997Y113983D01*
X192919Y114060D01*
X192847Y114143D01*
X192806Y114171D01*
X192771Y114206D01*
X192676Y114261D01*
X192585Y114324D01*
X192539Y114341D01*
X192496Y114366D01*
X192390Y114396D01*
X192287Y114434D01*
X192237Y114439D01*
X192190Y114452D01*
X192080Y114455D01*
X191971Y114466D01*
X191921Y114459D01*
X191872Y114460D01*
X191765Y114435D01*
X191656Y114419D01*
X191610Y114400D01*
X191562Y114389D01*
X191464Y114338D01*
X191363Y114295D01*
X191324Y114265D01*
X191279Y114242D01*
X191198Y114169D01*
X191110Y114103D01*
X191079Y114063D01*
X191042Y114030D01*
X190945Y113902D01*
X190884Y113812D01*
X190188Y113116D01*
X189369Y112568D01*
X188459Y112191D01*
X188269Y112154D01*
X188269Y115731D01*
X195731Y115731D01*
X195731Y112154D01*
X195541Y112191D01*
G37*
%LPD*%
%LPC*%
G36*
X189541Y193191D02*
X189541Y193191D01*
X188631Y193568D01*
X187812Y194116D01*
X187116Y194812D01*
X187055Y194902D01*
X187023Y194940D01*
X186997Y194983D01*
X186919Y195060D01*
X186847Y195143D01*
X186806Y195171D01*
X186771Y195206D01*
X186676Y195261D01*
X186585Y195324D01*
X186539Y195341D01*
X186496Y195366D01*
X186390Y195396D01*
X186287Y195434D01*
X186238Y195439D01*
X186190Y195452D01*
X186080Y195455D01*
X185971Y195466D01*
X185922Y195459D01*
X185872Y195460D01*
X185765Y195435D01*
X185656Y195419D01*
X185610Y195400D01*
X185562Y195389D01*
X185465Y195338D01*
X185363Y195295D01*
X185324Y195265D01*
X185280Y195242D01*
X185198Y195169D01*
X185110Y195103D01*
X185079Y195064D01*
X185042Y195030D01*
X184945Y194903D01*
X184884Y194812D01*
X184188Y194116D01*
X183369Y193568D01*
X182459Y193191D01*
X182269Y193154D01*
X182269Y196731D01*
X189731Y196731D01*
X189731Y193154D01*
X189541Y193191D01*
G37*
%LPD*%
%LPC*%
G36*
X221269Y461269D02*
X221269Y461269D01*
X221269Y464846D01*
X221459Y464809D01*
X222369Y464432D01*
X223188Y463884D01*
X223884Y463188D01*
X224432Y462369D01*
X224809Y461459D01*
X224846Y461269D01*
X221269Y461269D01*
G37*
%LPD*%
%LPC*%
G36*
X198269Y118269D02*
X198269Y118269D01*
X198269Y121846D01*
X198459Y121809D01*
X199369Y121432D01*
X200188Y120884D01*
X200884Y120188D01*
X201432Y119369D01*
X201809Y118459D01*
X201846Y118269D01*
X198269Y118269D01*
G37*
%LPD*%
%LPC*%
G36*
X210269Y437269D02*
X210269Y437269D01*
X210269Y440846D01*
X210459Y440809D01*
X211369Y440432D01*
X212188Y439884D01*
X212884Y439188D01*
X213432Y438369D01*
X213809Y437459D01*
X213846Y437269D01*
X210269Y437269D01*
G37*
%LPD*%
%LPC*%
G36*
X202269Y196731D02*
X202269Y196731D01*
X205846Y196731D01*
X205809Y196541D01*
X205432Y195631D01*
X204884Y194812D01*
X204188Y194116D01*
X203369Y193568D01*
X202459Y193191D01*
X202269Y193154D01*
X202269Y196731D01*
G37*
%LPD*%
%LPC*%
G36*
X175154Y391269D02*
X175154Y391269D01*
X175191Y391459D01*
X175568Y392369D01*
X176116Y393188D01*
X176812Y393884D01*
X177631Y394432D01*
X178541Y394809D01*
X178731Y394846D01*
X178731Y391269D01*
X175154Y391269D01*
G37*
%LPD*%
%LPC*%
G36*
X172154Y118269D02*
X172154Y118269D01*
X172191Y118459D01*
X172568Y119369D01*
X173116Y120188D01*
X173812Y120884D01*
X174631Y121432D01*
X175541Y121809D01*
X175731Y121846D01*
X175731Y118269D01*
X172154Y118269D01*
G37*
%LPD*%
%LPC*%
G36*
X215154Y461269D02*
X215154Y461269D01*
X215191Y461459D01*
X215568Y462369D01*
X216116Y463188D01*
X216812Y463884D01*
X217631Y464432D01*
X218541Y464809D01*
X218731Y464846D01*
X218731Y461269D01*
X215154Y461269D01*
G37*
%LPD*%
%LPC*%
G36*
X198269Y115731D02*
X198269Y115731D01*
X201846Y115731D01*
X201809Y115541D01*
X201432Y114631D01*
X200884Y113812D01*
X200188Y113116D01*
X199369Y112568D01*
X198459Y112191D01*
X198269Y112154D01*
X198269Y115731D01*
G37*
%LPD*%
%LPC*%
G36*
X204154Y437269D02*
X204154Y437269D01*
X204191Y437459D01*
X204568Y438369D01*
X205116Y439188D01*
X205812Y439884D01*
X206631Y440432D01*
X207541Y440809D01*
X207731Y440846D01*
X207731Y437269D01*
X204154Y437269D01*
G37*
%LPD*%
%LPC*%
G36*
X210269Y434731D02*
X210269Y434731D01*
X213846Y434731D01*
X213809Y434541D01*
X213432Y433631D01*
X212884Y432812D01*
X212188Y432116D01*
X211369Y431568D01*
X210459Y431191D01*
X210269Y431154D01*
X210269Y434731D01*
G37*
%LPD*%
%LPC*%
G36*
X221269Y448731D02*
X221269Y448731D01*
X224846Y448731D01*
X224809Y448541D01*
X224432Y447631D01*
X223884Y446812D01*
X223188Y446116D01*
X222369Y445568D01*
X221459Y445191D01*
X221269Y445154D01*
X221269Y448731D01*
G37*
%LPD*%
%LPC*%
G36*
X175541Y112191D02*
X175541Y112191D01*
X174631Y112568D01*
X173812Y113116D01*
X173116Y113812D01*
X172568Y114631D01*
X172191Y115541D01*
X172154Y115731D01*
X175731Y115731D01*
X175731Y112154D01*
X175541Y112191D01*
G37*
%LPD*%
%LPC*%
G36*
X178541Y385191D02*
X178541Y385191D01*
X177631Y385568D01*
X176812Y386116D01*
X176116Y386812D01*
X175568Y387631D01*
X175191Y388541D01*
X175154Y388731D01*
X178731Y388731D01*
X178731Y385154D01*
X178541Y385191D01*
G37*
%LPD*%
%LPC*%
G36*
X179541Y193191D02*
X179541Y193191D01*
X178631Y193568D01*
X177812Y194116D01*
X177116Y194812D01*
X176568Y195631D01*
X176191Y196541D01*
X176154Y196731D01*
X179731Y196731D01*
X179731Y193154D01*
X179541Y193191D01*
G37*
%LPD*%
%LPC*%
G36*
X218541Y445191D02*
X218541Y445191D01*
X217631Y445568D01*
X216812Y446116D01*
X216116Y446812D01*
X215568Y447631D01*
X215191Y448541D01*
X215154Y448731D01*
X218731Y448731D01*
X218731Y445154D01*
X218541Y445191D01*
G37*
%LPD*%
%LPC*%
G36*
X207541Y431191D02*
X207541Y431191D01*
X206631Y431568D01*
X205812Y432116D01*
X205116Y432812D01*
X204568Y433631D01*
X204191Y434541D01*
X204154Y434731D01*
X207731Y434731D01*
X207731Y431154D01*
X207541Y431191D01*
G37*
%LPD*%
%LPC*%
G36*
X1021699Y288099D02*
X1021699Y288099D01*
X1021699Y288101D01*
X1021701Y288101D01*
X1021701Y288099D01*
X1021699Y288099D01*
G37*
%LPD*%
%LPC*%
G36*
X18299Y288099D02*
X18299Y288099D01*
X18299Y288101D01*
X18301Y288101D01*
X18301Y288099D01*
X18299Y288099D01*
G37*
%LPD*%
D10*
X397100Y32300D03*
X447100Y57000D03*
D11*
X398600Y388000D03*
D12*
X398600Y362600D03*
X424000Y388000D03*
X424000Y362600D03*
X449400Y388000D03*
X449400Y362600D03*
X474800Y388000D03*
X474800Y362600D03*
X500200Y388000D03*
X500200Y362600D03*
X525600Y388000D03*
X525600Y362600D03*
X551000Y388000D03*
X551000Y362600D03*
X576400Y388000D03*
X576400Y362600D03*
X601800Y388000D03*
X601800Y362600D03*
X627200Y388000D03*
X627200Y362600D03*
X652600Y388000D03*
X652600Y362600D03*
X678000Y388000D03*
X678000Y362600D03*
X703400Y388000D03*
X703400Y362600D03*
X728800Y388000D03*
X728800Y362600D03*
X754200Y388000D03*
X754200Y362600D03*
X779600Y388000D03*
X779600Y362600D03*
X805000Y388000D03*
X805000Y362600D03*
X830400Y388000D03*
X830400Y362600D03*
X855800Y388000D03*
X855800Y362600D03*
X881200Y388000D03*
X881200Y362600D03*
D13*
X43700Y211900D03*
X43700Y237300D03*
X43700Y262700D03*
X43700Y288100D03*
X18300Y211900D03*
X18300Y237300D03*
X18300Y262700D03*
X18300Y288100D03*
X996300Y211900D03*
X996300Y237300D03*
X996300Y262700D03*
X996300Y288100D03*
X1021700Y211900D03*
X1021700Y237300D03*
X1021700Y262700D03*
X1021700Y288100D03*
D14*
X879200Y469404D02*
X879200Y481596D01*
X853800Y481596D02*
X853800Y469404D01*
X828400Y469404D02*
X828400Y481596D01*
X803000Y481596D02*
X803000Y469404D01*
X777600Y469404D02*
X777600Y481596D01*
X752200Y481596D02*
X752200Y469404D01*
X726800Y469404D02*
X726800Y481596D01*
X701400Y481596D02*
X701400Y469404D01*
X676000Y469404D02*
X676000Y481596D01*
X650600Y481596D02*
X650600Y469404D01*
X625200Y469404D02*
X625200Y481596D01*
X599800Y481596D02*
X599800Y469404D01*
X574400Y469404D02*
X574400Y481596D01*
X549000Y481596D02*
X549000Y469404D01*
X523600Y469404D02*
X523600Y481596D01*
X498200Y481596D02*
X498200Y469404D01*
X472800Y469404D02*
X472800Y481596D01*
X447400Y481596D02*
X447400Y469404D01*
X422000Y469404D02*
X422000Y481596D01*
X396600Y481596D02*
X396600Y469404D01*
X398600Y445396D02*
X398600Y433204D01*
X424000Y433204D02*
X424000Y445396D01*
X449400Y445396D02*
X449400Y433204D01*
X474800Y433204D02*
X474800Y445396D01*
X500200Y445396D02*
X500200Y433204D01*
X525600Y433204D02*
X525600Y445396D01*
X551000Y445396D02*
X551000Y433204D01*
X576400Y433204D02*
X576400Y445396D01*
X601800Y445396D02*
X601800Y433204D01*
X627200Y433204D02*
X627200Y445396D01*
X652600Y445396D02*
X652600Y433204D01*
X678000Y433204D02*
X678000Y445396D01*
X703400Y445396D02*
X703400Y433204D01*
X728800Y433204D02*
X728800Y445396D01*
X754200Y445396D02*
X754200Y433204D01*
X779600Y433204D02*
X779600Y445396D01*
X805000Y445396D02*
X805000Y433204D01*
X830400Y433204D02*
X830400Y445396D01*
X855800Y445396D02*
X855800Y433204D01*
X881200Y433204D02*
X881200Y445396D01*
D15*
X853800Y458991D02*
X853800Y475500D01*
X853800Y458991D02*
X844624Y449815D01*
X844624Y373776D01*
X855800Y362600D01*
X828400Y458991D02*
X828400Y475500D01*
X828400Y458991D02*
X819224Y449815D01*
X819224Y373776D01*
X830400Y362600D01*
X803000Y458991D02*
X803000Y475500D01*
X803000Y458991D02*
X793824Y449815D01*
X793824Y373776D01*
X805000Y362600D01*
X777600Y458991D02*
X777600Y475500D01*
X777600Y458991D02*
X768424Y449815D01*
X768424Y373776D01*
X779600Y362600D01*
X752200Y458991D02*
X752200Y475500D01*
X752200Y458991D02*
X743024Y449815D01*
X743024Y373776D01*
X754200Y362600D01*
X726800Y458991D02*
X726800Y475500D01*
X726800Y458991D02*
X717624Y449815D01*
X717624Y373776D01*
X728800Y362600D01*
X676000Y458991D02*
X676000Y475500D01*
X676000Y458991D02*
X666824Y449815D01*
X666824Y373776D01*
X678000Y362600D01*
X650600Y458991D02*
X650600Y475500D01*
X650600Y458991D02*
X641424Y449815D01*
X641424Y373776D01*
X652600Y362600D01*
X625200Y458991D02*
X625200Y475500D01*
X625200Y458991D02*
X616024Y449815D01*
X616024Y373776D01*
X627200Y362600D01*
X574400Y458991D02*
X574400Y475500D01*
X574400Y458991D02*
X565224Y449815D01*
X565224Y373776D01*
X576400Y362600D01*
X549000Y458991D02*
X549000Y475500D01*
X549000Y458991D02*
X539824Y449815D01*
X539824Y373776D01*
X551000Y362600D01*
X523600Y458991D02*
X523600Y475500D01*
X523600Y458991D02*
X514424Y449815D01*
X514424Y373776D01*
X525600Y362600D01*
X472800Y458991D02*
X472800Y475500D01*
X472800Y458991D02*
X463624Y449815D01*
X463624Y373776D01*
X474800Y362600D01*
D16*
X474800Y388000D02*
X474800Y439300D01*
X500200Y439300D02*
X500200Y388000D01*
X525600Y388000D02*
X525600Y439300D01*
X576400Y439300D02*
X576400Y388000D01*
X601800Y388000D02*
X601800Y439300D01*
X652600Y439300D02*
X652600Y388000D01*
X678000Y388000D02*
X678000Y439300D01*
X703400Y439300D02*
X703400Y388000D01*
X728800Y388000D02*
X728800Y439300D01*
X779600Y439300D02*
X779600Y388000D01*
X830400Y388000D02*
X830400Y439300D01*
X855800Y439300D02*
X855800Y388000D01*
X881200Y388000D02*
X881200Y439300D01*
D15*
X879200Y458991D02*
X879200Y475500D01*
X879200Y458991D02*
X870024Y449815D01*
X870024Y373776D01*
X881200Y362600D01*
D17*
X220000Y460000D03*
X220000Y450000D03*
X180000Y390000D03*
X190000Y390000D03*
X209000Y436000D03*
X200000Y390000D03*
X201000Y198000D03*
X191000Y198000D03*
X181000Y198000D03*
X177000Y117000D03*
X187000Y117000D03*
X197000Y117000D03*
D16*
X43700Y237300D02*
X996300Y237300D01*
X1021700Y237300D01*
X996300Y211900D02*
X43700Y211900D01*
X996300Y211900D02*
X1021700Y211900D01*
X996300Y262700D02*
X43700Y262700D01*
D15*
X422000Y458991D02*
X422000Y475500D01*
X422000Y458991D02*
X412824Y449815D01*
X412824Y373776D01*
X424000Y362600D01*
D16*
X430000Y280000D02*
X70000Y280000D01*
X430000Y280000D02*
X450000Y280000D01*
X469400Y280000D01*
X970000Y280000D01*
D15*
X32016Y276416D02*
X18300Y262700D01*
X447400Y458991D02*
X447400Y475500D01*
X447400Y458991D02*
X438224Y449815D01*
X438224Y373776D01*
X449400Y362600D01*
X52124Y280000D02*
X48540Y276416D01*
X52124Y280000D02*
X70000Y280000D01*
X48540Y276416D02*
X32016Y276416D01*
D16*
X449400Y300000D02*
X449400Y362600D01*
X449400Y300000D02*
X449400Y280600D01*
X450000Y280000D01*
X449400Y300000D02*
X430000Y280600D01*
X430000Y280000D01*
X449400Y300000D02*
X469400Y280000D01*
D15*
X987876Y280000D02*
X991460Y276416D01*
X987876Y280000D02*
X970000Y280000D01*
X1007984Y276416D02*
X1021700Y262700D01*
X1007984Y276416D02*
X991460Y276416D01*
D17*
X104000Y70000D03*
X118000Y70000D03*
X118000Y60000D03*
X104000Y60000D03*
X223000Y87000D03*
X214000Y87000D03*
X232000Y121000D03*
X241000Y121000D03*
X103000Y306000D03*
X115000Y306000D03*
X115000Y296000D03*
X103000Y296000D03*
X242000Y392000D03*
X242000Y401000D03*
X224000Y362500D03*
X215000Y362500D03*
X233000Y401000D03*
X233000Y392000D03*
D16*
X396600Y464379D02*
X396600Y475500D01*
X396600Y464379D02*
X383614Y451393D01*
X383614Y377586D01*
X398600Y362600D01*
M02*
