G04 EAGLE Gerber RS-274X export*
G75*
%MOMM*%
%FSLAX34Y34*%
%LPD*%
%INTop Copper*%
%IPPOS*%
%AMOC8*
5,1,8,0,0,1.08239X$1,22.5*%
G01*
%ADD10R,1.100000X1.000000*%
%ADD11R,2.700000X1.600000*%
%ADD12R,2.600000X1.400000*%
%ADD13C,1.500000*%
%ADD14R,3.400000X2.400000*%
%ADD15R,0.870000X0.980000*%
%ADD16R,1.400000X1.020000*%
%ADD17C,1.371600*%
%ADD18P,1.484606X8X22.500000*%
%ADD19P,1.649562X8X112.500000*%
%ADD20C,1.219200*%
%ADD21R,1.320800X0.558800*%
%ADD22C,0.600000*%
%ADD23C,0.812800*%
%ADD24C,0.254000*%
%ADD25C,1.016000*%
%ADD26C,1.270000*%
%ADD27C,0.508000*%
%ADD28C,0.406400*%

G36*
X1037129Y2552D02*
X1037129Y2552D01*
X1037180Y2554D01*
X1037212Y2572D01*
X1037248Y2580D01*
X1037287Y2613D01*
X1037332Y2637D01*
X1037353Y2667D01*
X1037381Y2690D01*
X1037402Y2737D01*
X1037432Y2779D01*
X1037440Y2821D01*
X1037452Y2849D01*
X1037451Y2879D01*
X1037459Y2921D01*
X1037459Y497079D01*
X1037448Y497129D01*
X1037446Y497180D01*
X1037428Y497212D01*
X1037420Y497248D01*
X1037387Y497287D01*
X1037363Y497332D01*
X1037333Y497353D01*
X1037310Y497381D01*
X1037263Y497402D01*
X1037221Y497432D01*
X1037179Y497440D01*
X1037151Y497452D01*
X1037121Y497451D01*
X1037079Y497459D01*
X2921Y497459D01*
X2871Y497448D01*
X2820Y497446D01*
X2788Y497428D01*
X2752Y497420D01*
X2713Y497387D01*
X2668Y497363D01*
X2647Y497333D01*
X2619Y497310D01*
X2598Y497263D01*
X2568Y497221D01*
X2560Y497179D01*
X2548Y497151D01*
X2549Y497121D01*
X2541Y497079D01*
X2541Y2921D01*
X2552Y2871D01*
X2554Y2820D01*
X2572Y2788D01*
X2580Y2752D01*
X2613Y2713D01*
X2637Y2668D01*
X2667Y2647D01*
X2690Y2619D01*
X2737Y2598D01*
X2779Y2568D01*
X2821Y2560D01*
X2849Y2548D01*
X2879Y2549D01*
X2921Y2541D01*
X1037079Y2541D01*
X1037129Y2552D01*
G37*
%LPC*%
G36*
X173422Y16189D02*
X173422Y16189D01*
X171189Y18422D01*
X171189Y80578D01*
X173422Y82811D01*
X206809Y82811D01*
X206859Y82822D01*
X206910Y82824D01*
X206942Y82842D01*
X206978Y82850D01*
X207017Y82883D01*
X207062Y82907D01*
X207083Y82937D01*
X207111Y82960D01*
X207132Y83007D01*
X207162Y83049D01*
X207170Y83091D01*
X207182Y83119D01*
X207181Y83149D01*
X207189Y83191D01*
X207189Y91578D01*
X209422Y93811D01*
X227523Y93811D01*
X227573Y93822D01*
X227624Y93824D01*
X227656Y93842D01*
X227692Y93850D01*
X227731Y93883D01*
X227776Y93907D01*
X227797Y93937D01*
X227825Y93960D01*
X227846Y94007D01*
X227876Y94049D01*
X227884Y94091D01*
X227896Y94119D01*
X227895Y94149D01*
X227903Y94191D01*
X227903Y95339D01*
X236127Y95339D01*
X236177Y95350D01*
X236228Y95352D01*
X236260Y95370D01*
X236296Y95378D01*
X236335Y95411D01*
X236380Y95435D01*
X236401Y95465D01*
X236429Y95488D01*
X236450Y95535D01*
X236480Y95577D01*
X236488Y95619D01*
X236500Y95647D01*
X236499Y95677D01*
X236507Y95719D01*
X236507Y96101D01*
X236509Y96101D01*
X236509Y95719D01*
X236520Y95669D01*
X236522Y95618D01*
X236540Y95586D01*
X236548Y95550D01*
X236581Y95511D01*
X236605Y95466D01*
X236635Y95445D01*
X236659Y95417D01*
X236705Y95396D01*
X236747Y95366D01*
X236789Y95358D01*
X236817Y95346D01*
X236847Y95347D01*
X236889Y95339D01*
X245113Y95339D01*
X245113Y92908D01*
X245025Y92696D01*
X245015Y92634D01*
X244997Y92573D01*
X245001Y92549D01*
X244997Y92525D01*
X245015Y92464D01*
X245026Y92402D01*
X245041Y92380D01*
X245048Y92360D01*
X245074Y92332D01*
X245107Y92282D01*
X245811Y91578D01*
X245811Y82736D01*
X245824Y82679D01*
X245824Y82673D01*
X245826Y82669D01*
X245828Y82662D01*
X245841Y82587D01*
X245848Y82577D01*
X245850Y82567D01*
X245874Y82538D01*
X245922Y82467D01*
X247811Y80578D01*
X247811Y64191D01*
X247822Y64141D01*
X247824Y64090D01*
X247842Y64058D01*
X247850Y64022D01*
X247883Y63983D01*
X247907Y63938D01*
X247937Y63917D01*
X247960Y63889D01*
X248007Y63868D01*
X248049Y63838D01*
X248091Y63830D01*
X248119Y63818D01*
X248149Y63819D01*
X248191Y63811D01*
X315809Y63811D01*
X315859Y63822D01*
X315910Y63824D01*
X315942Y63842D01*
X315978Y63850D01*
X316017Y63883D01*
X316062Y63907D01*
X316083Y63937D01*
X316111Y63960D01*
X316132Y64007D01*
X316162Y64049D01*
X316170Y64091D01*
X316182Y64119D01*
X316181Y64149D01*
X316189Y64191D01*
X316189Y255809D01*
X316178Y255859D01*
X316176Y255910D01*
X316158Y255942D01*
X316150Y255978D01*
X316117Y256017D01*
X316093Y256062D01*
X316063Y256083D01*
X316040Y256111D01*
X315993Y256132D01*
X315951Y256162D01*
X315909Y256170D01*
X315881Y256182D01*
X315851Y256181D01*
X315809Y256189D01*
X167422Y256189D01*
X165189Y258422D01*
X165189Y355578D01*
X167422Y357811D01*
X207809Y357811D01*
X207859Y357822D01*
X207910Y357824D01*
X207942Y357842D01*
X207978Y357850D01*
X208017Y357883D01*
X208062Y357907D01*
X208083Y357937D01*
X208111Y357960D01*
X208132Y358007D01*
X208162Y358049D01*
X208170Y358091D01*
X208182Y358119D01*
X208181Y358149D01*
X208189Y358191D01*
X208189Y367578D01*
X210422Y369811D01*
X229623Y369811D01*
X229673Y369822D01*
X229724Y369824D01*
X229756Y369842D01*
X229792Y369850D01*
X229831Y369883D01*
X229876Y369907D01*
X229897Y369937D01*
X229925Y369960D01*
X229946Y370007D01*
X229976Y370049D01*
X229984Y370091D01*
X229996Y370119D01*
X229995Y370149D01*
X230003Y370191D01*
X230003Y370239D01*
X238227Y370239D01*
X238277Y370250D01*
X238328Y370252D01*
X238360Y370270D01*
X238396Y370278D01*
X238435Y370311D01*
X238480Y370335D01*
X238501Y370365D01*
X238529Y370388D01*
X238550Y370435D01*
X238580Y370477D01*
X238588Y370519D01*
X238600Y370547D01*
X238600Y370550D01*
X238599Y370578D01*
X238607Y370619D01*
X238607Y371001D01*
X238609Y371001D01*
X238609Y370619D01*
X238620Y370569D01*
X238622Y370518D01*
X238640Y370486D01*
X238648Y370450D01*
X238681Y370411D01*
X238705Y370366D01*
X238735Y370345D01*
X238759Y370317D01*
X238805Y370296D01*
X238847Y370266D01*
X238889Y370258D01*
X238917Y370246D01*
X238947Y370247D01*
X238989Y370239D01*
X247213Y370239D01*
X247213Y367808D01*
X246908Y367073D01*
X246736Y366901D01*
X246709Y366857D01*
X246675Y366820D01*
X246664Y366785D01*
X246645Y366754D01*
X246640Y366703D01*
X246625Y366654D01*
X246632Y366618D01*
X246628Y366581D01*
X246646Y366533D01*
X246655Y366483D01*
X246679Y366448D01*
X246690Y366419D01*
X246712Y366398D01*
X246736Y366363D01*
X247753Y365346D01*
X247753Y357654D01*
X247118Y357019D01*
X247091Y356976D01*
X247056Y356938D01*
X247046Y356903D01*
X247027Y356872D01*
X247022Y356821D01*
X247007Y356772D01*
X247014Y356736D01*
X247010Y356699D01*
X247028Y356652D01*
X247037Y356601D01*
X247061Y356566D01*
X247072Y356537D01*
X247094Y356516D01*
X247118Y356481D01*
X247753Y355846D01*
X247753Y348154D01*
X246264Y346665D01*
X239191Y346665D01*
X239141Y346654D01*
X239090Y346652D01*
X239058Y346634D01*
X239022Y346626D01*
X238983Y346593D01*
X238938Y346569D01*
X238917Y346539D01*
X238889Y346516D01*
X238868Y346469D01*
X238838Y346427D01*
X238830Y346385D01*
X238818Y346357D01*
X238819Y346327D01*
X238811Y346285D01*
X238811Y324191D01*
X238822Y324141D01*
X238824Y324090D01*
X238842Y324058D01*
X238850Y324022D01*
X238883Y323983D01*
X238907Y323938D01*
X238937Y323917D01*
X238960Y323889D01*
X239007Y323868D01*
X239049Y323838D01*
X239091Y323830D01*
X239119Y323818D01*
X239149Y323819D01*
X239191Y323811D01*
X421578Y323811D01*
X423811Y321578D01*
X423811Y18422D01*
X421578Y16189D01*
X173422Y16189D01*
G37*
%LPD*%
G36*
X421254Y320118D02*
X421254Y320118D01*
X421247Y320237D01*
X421234Y320275D01*
X421229Y320316D01*
X421186Y320426D01*
X421149Y320539D01*
X421127Y320574D01*
X421112Y320611D01*
X421043Y320707D01*
X420979Y320808D01*
X420949Y320836D01*
X420926Y320869D01*
X420834Y320945D01*
X420747Y321026D01*
X420712Y321046D01*
X420681Y321071D01*
X420573Y321122D01*
X420469Y321180D01*
X420429Y321190D01*
X420393Y321207D01*
X420276Y321229D01*
X420161Y321259D01*
X420101Y321263D01*
X420081Y321267D01*
X420060Y321265D01*
X420000Y321269D01*
X236269Y321269D01*
X236269Y354000D01*
X236254Y354118D01*
X236247Y354237D01*
X236234Y354275D01*
X236229Y354316D01*
X236186Y354426D01*
X236149Y354539D01*
X236127Y354574D01*
X236112Y354611D01*
X236043Y354707D01*
X235979Y354808D01*
X235949Y354836D01*
X235926Y354869D01*
X235834Y354945D01*
X235747Y355026D01*
X235712Y355046D01*
X235681Y355071D01*
X235573Y355122D01*
X235469Y355180D01*
X235429Y355190D01*
X235393Y355207D01*
X235276Y355229D01*
X235161Y355259D01*
X235101Y355263D01*
X235081Y355267D01*
X235060Y355265D01*
X235000Y355269D01*
X169000Y355269D01*
X168882Y355254D01*
X168763Y355247D01*
X168725Y355234D01*
X168684Y355229D01*
X168574Y355186D01*
X168461Y355149D01*
X168426Y355127D01*
X168389Y355112D01*
X168293Y355043D01*
X168192Y354979D01*
X168164Y354949D01*
X168131Y354926D01*
X168056Y354834D01*
X167974Y354747D01*
X167954Y354712D01*
X167929Y354681D01*
X167878Y354573D01*
X167820Y354469D01*
X167810Y354429D01*
X167793Y354393D01*
X167771Y354276D01*
X167741Y354161D01*
X167737Y354101D01*
X167733Y354081D01*
X167735Y354060D01*
X167731Y354000D01*
X167731Y260000D01*
X167746Y259882D01*
X167753Y259763D01*
X167766Y259725D01*
X167771Y259684D01*
X167814Y259574D01*
X167851Y259461D01*
X167873Y259426D01*
X167888Y259389D01*
X167958Y259293D01*
X168021Y259192D01*
X168051Y259164D01*
X168074Y259131D01*
X168166Y259056D01*
X168253Y258974D01*
X168288Y258954D01*
X168319Y258929D01*
X168427Y258878D01*
X168531Y258820D01*
X168571Y258810D01*
X168607Y258793D01*
X168724Y258771D01*
X168839Y258741D01*
X168900Y258737D01*
X168920Y258733D01*
X168940Y258735D01*
X169000Y258731D01*
X318731Y258731D01*
X318731Y61269D01*
X245269Y61269D01*
X245269Y79000D01*
X245254Y79118D01*
X245247Y79237D01*
X245234Y79275D01*
X245229Y79316D01*
X245186Y79426D01*
X245149Y79539D01*
X245127Y79574D01*
X245112Y79611D01*
X245043Y79707D01*
X244979Y79808D01*
X244949Y79836D01*
X244926Y79869D01*
X244834Y79945D01*
X244747Y80026D01*
X244712Y80046D01*
X244681Y80071D01*
X244573Y80122D01*
X244469Y80180D01*
X244429Y80190D01*
X244393Y80207D01*
X244276Y80229D01*
X244161Y80259D01*
X244101Y80263D01*
X244081Y80267D01*
X244060Y80265D01*
X244000Y80269D01*
X175000Y80269D01*
X174882Y80254D01*
X174763Y80247D01*
X174725Y80234D01*
X174684Y80229D01*
X174574Y80186D01*
X174461Y80149D01*
X174426Y80127D01*
X174389Y80112D01*
X174293Y80043D01*
X174192Y79979D01*
X174164Y79949D01*
X174131Y79926D01*
X174056Y79834D01*
X173974Y79747D01*
X173954Y79712D01*
X173929Y79681D01*
X173878Y79573D01*
X173820Y79469D01*
X173810Y79429D01*
X173793Y79393D01*
X173771Y79276D01*
X173741Y79161D01*
X173737Y79101D01*
X173733Y79081D01*
X173735Y79060D01*
X173731Y79000D01*
X173731Y20000D01*
X173746Y19882D01*
X173753Y19763D01*
X173766Y19725D01*
X173771Y19684D01*
X173814Y19574D01*
X173851Y19461D01*
X173873Y19426D01*
X173888Y19389D01*
X173958Y19293D01*
X174021Y19192D01*
X174051Y19164D01*
X174074Y19131D01*
X174166Y19056D01*
X174253Y18974D01*
X174288Y18954D01*
X174319Y18929D01*
X174427Y18878D01*
X174531Y18820D01*
X174571Y18810D01*
X174607Y18793D01*
X174724Y18771D01*
X174839Y18741D01*
X174900Y18737D01*
X174920Y18733D01*
X174940Y18735D01*
X175000Y18731D01*
X420000Y18731D01*
X420118Y18746D01*
X420237Y18753D01*
X420275Y18766D01*
X420316Y18771D01*
X420426Y18814D01*
X420539Y18851D01*
X420574Y18873D01*
X420611Y18888D01*
X420707Y18958D01*
X420808Y19021D01*
X420836Y19051D01*
X420869Y19074D01*
X420945Y19166D01*
X421026Y19253D01*
X421046Y19288D01*
X421071Y19319D01*
X421122Y19427D01*
X421180Y19531D01*
X421190Y19571D01*
X421207Y19607D01*
X421229Y19724D01*
X421259Y19839D01*
X421263Y19900D01*
X421267Y19920D01*
X421265Y19940D01*
X421269Y20000D01*
X421269Y320000D01*
X421254Y320118D01*
G37*
%LPC*%
G36*
X992091Y201739D02*
X992091Y201739D01*
X988647Y205184D01*
X988582Y205224D01*
X988520Y205268D01*
X988508Y205270D01*
X988500Y205275D01*
X988462Y205279D01*
X988378Y205295D01*
X555426Y205295D01*
X552998Y206301D01*
X405701Y353598D01*
X405095Y355060D01*
X405073Y355091D01*
X405059Y355127D01*
X405023Y355161D01*
X404994Y355201D01*
X404960Y355219D01*
X404932Y355245D01*
X404885Y355259D01*
X404841Y355282D01*
X404803Y355283D01*
X404766Y355294D01*
X404717Y355286D01*
X404668Y355287D01*
X404633Y355271D01*
X404595Y355264D01*
X404545Y355230D01*
X404511Y355215D01*
X404497Y355198D01*
X404475Y355183D01*
X402493Y353201D01*
X394707Y353201D01*
X389201Y358707D01*
X389201Y366493D01*
X394707Y371999D01*
X402493Y371999D01*
X404046Y370446D01*
X404068Y370432D01*
X404084Y370412D01*
X404141Y370387D01*
X404193Y370354D01*
X404219Y370352D01*
X404243Y370341D01*
X404304Y370344D01*
X404366Y370338D01*
X404390Y370347D01*
X404416Y370348D01*
X404470Y370377D01*
X404528Y370399D01*
X404545Y370418D01*
X404568Y370431D01*
X404603Y370481D01*
X404645Y370526D01*
X404653Y370551D01*
X404668Y370572D01*
X404684Y370657D01*
X404695Y370693D01*
X404693Y370702D01*
X404695Y370715D01*
X404695Y372407D01*
X404678Y372481D01*
X404665Y372555D01*
X404658Y372566D01*
X404656Y372575D01*
X404632Y372604D01*
X404584Y372676D01*
X398770Y378490D01*
X398705Y378530D01*
X398643Y378574D01*
X398631Y378576D01*
X398622Y378581D01*
X398585Y378585D01*
X398501Y378601D01*
X396730Y378601D01*
X393276Y380032D01*
X390632Y382676D01*
X389201Y386130D01*
X389201Y389870D01*
X389680Y391026D01*
X389681Y391028D01*
X389682Y391029D01*
X389689Y391069D01*
X389696Y391084D01*
X389695Y391100D01*
X389709Y391172D01*
X389709Y441068D01*
X389934Y441612D01*
X389935Y441614D01*
X389936Y441615D01*
X389943Y441653D01*
X389945Y441657D01*
X389945Y441661D01*
X389963Y441757D01*
X389963Y447114D01*
X391278Y450288D01*
X393708Y452718D01*
X396882Y454033D01*
X400318Y454033D01*
X403492Y452718D01*
X405922Y450288D01*
X407237Y447114D01*
X407237Y441757D01*
X407237Y441756D01*
X407237Y441754D01*
X407262Y441631D01*
X407262Y441629D01*
X407262Y441628D01*
X407266Y441612D01*
X407491Y441068D01*
X407491Y391172D01*
X407491Y391170D01*
X407491Y391168D01*
X407510Y391074D01*
X407511Y391056D01*
X407515Y391047D01*
X407520Y391026D01*
X407999Y389870D01*
X407999Y388099D01*
X408011Y388047D01*
X408012Y388014D01*
X408021Y387998D01*
X408029Y387950D01*
X408036Y387940D01*
X408038Y387931D01*
X408062Y387902D01*
X408110Y387830D01*
X414988Y380953D01*
X416899Y379041D01*
X417905Y376614D01*
X417905Y370715D01*
X417911Y370689D01*
X417908Y370664D01*
X417930Y370606D01*
X417944Y370546D01*
X417961Y370526D01*
X417970Y370502D01*
X418015Y370460D01*
X418054Y370412D01*
X418078Y370402D01*
X418097Y370384D01*
X418156Y370367D01*
X418213Y370341D01*
X418238Y370342D01*
X418263Y370335D01*
X418324Y370345D01*
X418386Y370348D01*
X418408Y370360D01*
X418434Y370365D01*
X418505Y370413D01*
X418538Y370431D01*
X418544Y370439D01*
X418554Y370446D01*
X420107Y371999D01*
X427893Y371999D01*
X433399Y366493D01*
X433399Y362699D01*
X433416Y362625D01*
X433429Y362551D01*
X433436Y362540D01*
X433438Y362531D01*
X433462Y362502D01*
X433510Y362430D01*
X526524Y269416D01*
X526589Y269376D01*
X526651Y269332D01*
X526663Y269330D01*
X526672Y269325D01*
X526709Y269321D01*
X526793Y269305D01*
X988378Y269305D01*
X988452Y269322D01*
X988527Y269335D01*
X988537Y269342D01*
X988547Y269344D01*
X988575Y269368D01*
X988647Y269416D01*
X989885Y270654D01*
X989898Y270676D01*
X989918Y270692D01*
X989944Y270749D01*
X989976Y270801D01*
X989979Y270827D01*
X989989Y270851D01*
X989987Y270912D01*
X989993Y270974D01*
X989984Y270998D01*
X989983Y271024D01*
X989953Y271078D01*
X989931Y271136D01*
X989912Y271153D01*
X989900Y271176D01*
X989849Y271211D01*
X989804Y271253D01*
X989779Y271261D01*
X989758Y271276D01*
X989674Y271292D01*
X989638Y271303D01*
X989628Y271301D01*
X989616Y271303D01*
X971511Y271303D01*
X959531Y283284D01*
X959466Y283324D01*
X959404Y283368D01*
X959392Y283370D01*
X959384Y283375D01*
X959347Y283379D01*
X959262Y283395D01*
X520686Y283395D01*
X518259Y284401D01*
X449570Y353090D01*
X449505Y353130D01*
X449443Y353174D01*
X449431Y353176D01*
X449422Y353181D01*
X449385Y353185D01*
X449301Y353201D01*
X445507Y353201D01*
X440001Y358707D01*
X440001Y366493D01*
X445507Y371999D01*
X453293Y371999D01*
X458799Y366493D01*
X458799Y362699D01*
X458816Y362625D01*
X458829Y362551D01*
X458836Y362540D01*
X458838Y362531D01*
X458862Y362502D01*
X458910Y362430D01*
X524624Y296716D01*
X524689Y296676D01*
X524751Y296632D01*
X524763Y296630D01*
X524772Y296625D01*
X524809Y296621D01*
X524893Y296605D01*
X961314Y296605D01*
X963741Y295599D01*
X965599Y293741D01*
X966605Y291314D01*
X966605Y290738D01*
X966618Y290682D01*
X966618Y290670D01*
X966622Y290662D01*
X966635Y290589D01*
X966642Y290579D01*
X966644Y290569D01*
X966668Y290540D01*
X966716Y290469D01*
X975609Y281576D01*
X975674Y281536D01*
X975736Y281492D01*
X975748Y281490D01*
X975756Y281485D01*
X975793Y281481D01*
X975878Y281465D01*
X988412Y281465D01*
X988437Y281471D01*
X988462Y281468D01*
X988520Y281490D01*
X988580Y281504D01*
X988600Y281521D01*
X988624Y281530D01*
X988666Y281575D01*
X988714Y281614D01*
X988724Y281638D01*
X988742Y281657D01*
X988760Y281716D01*
X988785Y281773D01*
X988784Y281798D01*
X988791Y281823D01*
X988781Y281884D01*
X988778Y281946D01*
X988766Y281968D01*
X988761Y281994D01*
X988713Y282065D01*
X988695Y282098D01*
X988687Y282104D01*
X988680Y282114D01*
X986679Y284115D01*
X986679Y287339D01*
X995919Y287339D01*
X995969Y287350D01*
X996020Y287352D01*
X996052Y287370D01*
X996088Y287378D01*
X996127Y287411D01*
X996172Y287435D01*
X996193Y287465D01*
X996221Y287488D01*
X996242Y287535D01*
X996271Y287577D01*
X996280Y287619D01*
X996292Y287647D01*
X996292Y287655D01*
X996292Y287656D01*
X996291Y287679D01*
X996299Y287719D01*
X996299Y288101D01*
X996301Y288101D01*
X996301Y287719D01*
X996313Y287669D01*
X996314Y287618D01*
X996332Y287586D01*
X996340Y287550D01*
X996373Y287511D01*
X996397Y287466D01*
X996427Y287445D01*
X996451Y287417D01*
X996497Y287396D01*
X996539Y287366D01*
X996581Y287358D01*
X996609Y287346D01*
X996639Y287347D01*
X996681Y287339D01*
X1005921Y287339D01*
X1005921Y284115D01*
X1003920Y282114D01*
X1003906Y282092D01*
X1003886Y282076D01*
X1003861Y282019D01*
X1003828Y281967D01*
X1003826Y281941D01*
X1003815Y281917D01*
X1003818Y281856D01*
X1003812Y281794D01*
X1003821Y281770D01*
X1003822Y281744D01*
X1003851Y281690D01*
X1003873Y281632D01*
X1003892Y281615D01*
X1003905Y281592D01*
X1003955Y281557D01*
X1004000Y281515D01*
X1004025Y281507D01*
X1004046Y281492D01*
X1004131Y281476D01*
X1004167Y281465D01*
X1004176Y281467D01*
X1004188Y281465D01*
X1004244Y281465D01*
X1014901Y270808D01*
X1014944Y270781D01*
X1014982Y270746D01*
X1015017Y270736D01*
X1015048Y270717D01*
X1015099Y270712D01*
X1015148Y270697D01*
X1015184Y270704D01*
X1015221Y270700D01*
X1015268Y270718D01*
X1015319Y270727D01*
X1015354Y270751D01*
X1015382Y270762D01*
X1015403Y270784D01*
X1015439Y270808D01*
X1017491Y272861D01*
X1025909Y272861D01*
X1031861Y266909D01*
X1031861Y258491D01*
X1025909Y252539D01*
X1017491Y252539D01*
X1011539Y258491D01*
X1011539Y259642D01*
X1011522Y259716D01*
X1011509Y259790D01*
X1011502Y259801D01*
X1011500Y259810D01*
X1011476Y259839D01*
X1011428Y259911D01*
X1007110Y264229D01*
X1007088Y264242D01*
X1007072Y264262D01*
X1007015Y264287D01*
X1006963Y264320D01*
X1006937Y264322D01*
X1006913Y264333D01*
X1006852Y264331D01*
X1006790Y264337D01*
X1006766Y264327D01*
X1006740Y264326D01*
X1006686Y264297D01*
X1006628Y264275D01*
X1006611Y264256D01*
X1006588Y264244D01*
X1006553Y264193D01*
X1006511Y264148D01*
X1006503Y264123D01*
X1006488Y264102D01*
X1006472Y264017D01*
X1006461Y263982D01*
X1006463Y263972D01*
X1006461Y263960D01*
X1006461Y258491D01*
X1000509Y252539D01*
X992091Y252539D01*
X988647Y255984D01*
X988582Y256024D01*
X988520Y256068D01*
X988508Y256070D01*
X988500Y256075D01*
X988462Y256079D01*
X988378Y256095D01*
X522803Y256095D01*
X522778Y256089D01*
X522752Y256092D01*
X522694Y256070D01*
X522634Y256056D01*
X522614Y256039D01*
X522590Y256030D01*
X522548Y255985D01*
X522500Y255946D01*
X522490Y255922D01*
X522472Y255903D01*
X522455Y255844D01*
X522429Y255787D01*
X522430Y255762D01*
X522423Y255737D01*
X522434Y255676D01*
X522436Y255614D01*
X522448Y255592D01*
X522453Y255566D01*
X522501Y255495D01*
X522519Y255462D01*
X522527Y255456D01*
X522534Y255446D01*
X559364Y218616D01*
X559428Y218576D01*
X559490Y218532D01*
X559503Y218530D01*
X559511Y218525D01*
X559548Y218521D01*
X559633Y218505D01*
X988378Y218505D01*
X988452Y218522D01*
X988527Y218535D01*
X988537Y218542D01*
X988547Y218544D01*
X988575Y218568D01*
X988647Y218616D01*
X992091Y222061D01*
X1000509Y222061D01*
X1006461Y216109D01*
X1006461Y207691D01*
X1000509Y201739D01*
X992091Y201739D01*
G37*
%LPD*%
%LPC*%
G36*
X14091Y227139D02*
X14091Y227139D01*
X8139Y233091D01*
X8139Y241509D01*
X14091Y247461D01*
X22509Y247461D01*
X25953Y244016D01*
X26018Y243976D01*
X26080Y243932D01*
X26092Y243930D01*
X26101Y243925D01*
X26138Y243921D01*
X26222Y243905D01*
X35778Y243905D01*
X35852Y243922D01*
X35927Y243935D01*
X35937Y243942D01*
X35947Y243944D01*
X35975Y243968D01*
X36047Y244016D01*
X39491Y247461D01*
X42926Y247461D01*
X43000Y247478D01*
X43075Y247491D01*
X43085Y247498D01*
X43095Y247500D01*
X43123Y247524D01*
X43195Y247572D01*
X47513Y251890D01*
X47526Y251912D01*
X47546Y251928D01*
X47572Y251985D01*
X47604Y252037D01*
X47607Y252063D01*
X47617Y252087D01*
X47615Y252148D01*
X47621Y252210D01*
X47612Y252234D01*
X47611Y252260D01*
X47581Y252314D01*
X47559Y252372D01*
X47540Y252389D01*
X47528Y252412D01*
X47477Y252447D01*
X47432Y252489D01*
X47407Y252497D01*
X47386Y252512D01*
X47302Y252528D01*
X47266Y252539D01*
X47256Y252537D01*
X47244Y252539D01*
X39491Y252539D01*
X33539Y258491D01*
X33539Y266909D01*
X39491Y272861D01*
X47909Y272861D01*
X53861Y266909D01*
X53861Y259156D01*
X53867Y259131D01*
X53864Y259105D01*
X53886Y259048D01*
X53900Y258987D01*
X53917Y258967D01*
X53926Y258943D01*
X53971Y258901D01*
X54010Y258854D01*
X54034Y258843D01*
X54053Y258826D01*
X54112Y258808D01*
X54169Y258783D01*
X54194Y258784D01*
X54219Y258776D01*
X54280Y258787D01*
X54342Y258789D01*
X54364Y258802D01*
X54390Y258806D01*
X54461Y258854D01*
X54494Y258872D01*
X54500Y258880D01*
X54510Y258887D01*
X62268Y266645D01*
X62308Y266710D01*
X62352Y266772D01*
X62354Y266784D01*
X62359Y266792D01*
X62363Y266829D01*
X62379Y266914D01*
X62379Y381516D01*
X63539Y384317D01*
X76078Y396855D01*
X76118Y396920D01*
X76162Y396982D01*
X76164Y396994D01*
X76169Y397002D01*
X76173Y397039D01*
X76189Y397124D01*
X76189Y471578D01*
X78422Y473811D01*
X168264Y473811D01*
X168338Y473828D01*
X168413Y473841D01*
X168423Y473848D01*
X168433Y473850D01*
X168462Y473874D01*
X168533Y473922D01*
X169522Y474911D01*
X281579Y474911D01*
X281629Y474922D01*
X281680Y474924D01*
X281712Y474942D01*
X281748Y474950D01*
X281787Y474983D01*
X281832Y475007D01*
X281853Y475037D01*
X281881Y475060D01*
X281902Y475107D01*
X281932Y475149D01*
X281940Y475191D01*
X281952Y475219D01*
X281951Y475249D01*
X281959Y475291D01*
X281959Y477252D01*
X283448Y478741D01*
X299552Y478741D01*
X301041Y477252D01*
X301041Y464948D01*
X299552Y463459D01*
X283448Y463459D01*
X281959Y464948D01*
X281959Y466909D01*
X281948Y466959D01*
X281946Y467010D01*
X281928Y467042D01*
X281920Y467078D01*
X281887Y467117D01*
X281863Y467162D01*
X281833Y467183D01*
X281810Y467211D01*
X281763Y467232D01*
X281721Y467262D01*
X281679Y467270D01*
X281651Y467282D01*
X281621Y467281D01*
X281579Y467289D01*
X174191Y467289D01*
X174141Y467278D01*
X174090Y467276D01*
X174058Y467258D01*
X174022Y467250D01*
X173983Y467217D01*
X173938Y467193D01*
X173917Y467163D01*
X173889Y467140D01*
X173868Y467093D01*
X173838Y467051D01*
X173830Y467009D01*
X173818Y466981D01*
X173819Y466951D01*
X173811Y466909D01*
X173811Y388422D01*
X171578Y386189D01*
X87124Y386189D01*
X87050Y386172D01*
X86975Y386159D01*
X86965Y386152D01*
X86955Y386150D01*
X86927Y386126D01*
X86855Y386078D01*
X77732Y376955D01*
X77723Y376940D01*
X77719Y376937D01*
X77715Y376927D01*
X77692Y376890D01*
X77648Y376828D01*
X77646Y376816D01*
X77641Y376808D01*
X77637Y376771D01*
X77621Y376686D01*
X77621Y353928D01*
X77627Y353903D01*
X77624Y353877D01*
X77646Y353819D01*
X77660Y353759D01*
X77677Y353739D01*
X77686Y353715D01*
X77731Y353673D01*
X77770Y353626D01*
X77794Y353615D01*
X77813Y353597D01*
X77872Y353580D01*
X77929Y353555D01*
X77954Y353556D01*
X77979Y353548D01*
X78040Y353559D01*
X78102Y353561D01*
X78124Y353574D01*
X78150Y353578D01*
X78221Y353626D01*
X78254Y353644D01*
X78260Y353652D01*
X78270Y353659D01*
X78422Y353811D01*
X131578Y353811D01*
X133811Y351578D01*
X133811Y288422D01*
X131578Y286189D01*
X78422Y286189D01*
X78270Y286341D01*
X78248Y286355D01*
X78232Y286374D01*
X78175Y286400D01*
X78123Y286432D01*
X78097Y286435D01*
X78073Y286445D01*
X78012Y286443D01*
X77950Y286449D01*
X77926Y286440D01*
X77900Y286439D01*
X77846Y286409D01*
X77788Y286387D01*
X77771Y286368D01*
X77748Y286356D01*
X77713Y286306D01*
X77671Y286260D01*
X77663Y286235D01*
X77648Y286214D01*
X77632Y286130D01*
X77621Y286094D01*
X77623Y286084D01*
X77621Y286072D01*
X77621Y262084D01*
X76461Y259283D01*
X74263Y257086D01*
X53972Y236795D01*
X53932Y236730D01*
X53888Y236668D01*
X53886Y236656D01*
X53881Y236648D01*
X53877Y236611D01*
X53861Y236526D01*
X53861Y233091D01*
X47909Y227139D01*
X39491Y227139D01*
X36047Y230584D01*
X35982Y230624D01*
X35920Y230668D01*
X35908Y230670D01*
X35899Y230675D01*
X35862Y230679D01*
X35778Y230695D01*
X26222Y230695D01*
X26148Y230678D01*
X26073Y230665D01*
X26063Y230658D01*
X26053Y230656D01*
X26025Y230632D01*
X25953Y230584D01*
X22509Y227139D01*
X14091Y227139D01*
G37*
%LPD*%
%LPC*%
G36*
X78422Y146189D02*
X78422Y146189D01*
X76189Y148422D01*
X76189Y197809D01*
X76178Y197859D01*
X76176Y197910D01*
X76158Y197942D01*
X76150Y197978D01*
X76117Y198017D01*
X76093Y198062D01*
X76063Y198083D01*
X76040Y198111D01*
X75993Y198132D01*
X75951Y198162D01*
X75909Y198170D01*
X75881Y198182D01*
X75851Y198181D01*
X75809Y198189D01*
X8422Y198189D01*
X6189Y200422D01*
X6189Y221578D01*
X8422Y223811D01*
X75809Y223811D01*
X75859Y223822D01*
X75910Y223824D01*
X75942Y223842D01*
X75978Y223850D01*
X76017Y223883D01*
X76062Y223907D01*
X76083Y223937D01*
X76111Y223960D01*
X76132Y224007D01*
X76162Y224049D01*
X76170Y224091D01*
X76182Y224119D01*
X76181Y224149D01*
X76182Y224153D01*
X76182Y224154D01*
X76182Y224155D01*
X76189Y224191D01*
X76189Y241578D01*
X78422Y243811D01*
X141578Y243811D01*
X143833Y241556D01*
X143876Y241529D01*
X143914Y241494D01*
X143949Y241484D01*
X143980Y241465D01*
X144031Y241460D01*
X144080Y241445D01*
X144116Y241452D01*
X144153Y241448D01*
X144200Y241466D01*
X144251Y241475D01*
X144286Y241499D01*
X144315Y241510D01*
X144336Y241532D01*
X144371Y241556D01*
X147895Y245081D01*
X282105Y245081D01*
X296433Y230752D01*
X296498Y230712D01*
X296560Y230668D01*
X296572Y230666D01*
X296580Y230661D01*
X296617Y230657D01*
X296702Y230641D01*
X306652Y230641D01*
X308141Y229152D01*
X308141Y216848D01*
X306652Y215359D01*
X290548Y215359D01*
X289059Y216848D01*
X289059Y223598D01*
X289042Y223672D01*
X289029Y223747D01*
X289022Y223757D01*
X289020Y223767D01*
X288996Y223796D01*
X288948Y223867D01*
X278007Y234808D01*
X277942Y234848D01*
X277880Y234892D01*
X277868Y234894D01*
X277860Y234899D01*
X277823Y234903D01*
X277738Y234919D01*
X152262Y234919D01*
X152188Y234902D01*
X152113Y234889D01*
X152103Y234882D01*
X152093Y234880D01*
X152064Y234856D01*
X151993Y234808D01*
X143922Y226737D01*
X143882Y226672D01*
X143838Y226610D01*
X143836Y226598D01*
X143831Y226590D01*
X143827Y226553D01*
X143811Y226468D01*
X143811Y148422D01*
X141578Y146189D01*
X78422Y146189D01*
G37*
%LPD*%
G36*
X170118Y388746D02*
X170118Y388746D01*
X170237Y388753D01*
X170275Y388766D01*
X170316Y388771D01*
X170426Y388814D01*
X170539Y388851D01*
X170574Y388873D01*
X170611Y388888D01*
X170707Y388958D01*
X170808Y389021D01*
X170836Y389051D01*
X170869Y389074D01*
X170945Y389166D01*
X171026Y389253D01*
X171046Y389288D01*
X171071Y389319D01*
X171122Y389427D01*
X171180Y389531D01*
X171190Y389571D01*
X171207Y389607D01*
X171229Y389724D01*
X171259Y389839D01*
X171263Y389900D01*
X171267Y389920D01*
X171265Y389940D01*
X171269Y390000D01*
X171269Y470000D01*
X171254Y470118D01*
X171247Y470237D01*
X171234Y470275D01*
X171229Y470316D01*
X171186Y470426D01*
X171149Y470539D01*
X171127Y470574D01*
X171112Y470611D01*
X171043Y470707D01*
X170979Y470808D01*
X170949Y470836D01*
X170926Y470869D01*
X170834Y470945D01*
X170747Y471026D01*
X170712Y471046D01*
X170681Y471071D01*
X170573Y471122D01*
X170469Y471180D01*
X170429Y471190D01*
X170393Y471207D01*
X170276Y471229D01*
X170161Y471259D01*
X170101Y471263D01*
X170081Y471267D01*
X170060Y471265D01*
X170000Y471269D01*
X80000Y471269D01*
X79882Y471254D01*
X79763Y471247D01*
X79725Y471234D01*
X79684Y471229D01*
X79574Y471186D01*
X79461Y471149D01*
X79426Y471127D01*
X79389Y471112D01*
X79293Y471043D01*
X79192Y470979D01*
X79164Y470949D01*
X79131Y470926D01*
X79056Y470834D01*
X78974Y470747D01*
X78954Y470712D01*
X78929Y470681D01*
X78878Y470573D01*
X78820Y470469D01*
X78810Y470429D01*
X78793Y470393D01*
X78771Y470276D01*
X78741Y470161D01*
X78737Y470101D01*
X78733Y470081D01*
X78735Y470060D01*
X78734Y470045D01*
X78733Y470043D01*
X78733Y470042D01*
X78731Y470000D01*
X78731Y390000D01*
X78746Y389882D01*
X78753Y389763D01*
X78766Y389725D01*
X78771Y389684D01*
X78814Y389574D01*
X78851Y389461D01*
X78873Y389426D01*
X78888Y389389D01*
X78958Y389293D01*
X79021Y389192D01*
X79051Y389164D01*
X79074Y389131D01*
X79166Y389056D01*
X79253Y388974D01*
X79288Y388954D01*
X79319Y388929D01*
X79427Y388878D01*
X79531Y388820D01*
X79571Y388810D01*
X79607Y388793D01*
X79724Y388771D01*
X79839Y388741D01*
X79900Y388737D01*
X79920Y388733D01*
X79940Y388735D01*
X80000Y388731D01*
X170000Y388731D01*
X170118Y388746D01*
G37*
G36*
X140118Y148746D02*
X140118Y148746D01*
X140237Y148753D01*
X140275Y148766D01*
X140316Y148771D01*
X140426Y148814D01*
X140539Y148851D01*
X140574Y148873D01*
X140611Y148888D01*
X140707Y148958D01*
X140808Y149021D01*
X140836Y149051D01*
X140869Y149074D01*
X140945Y149166D01*
X141026Y149253D01*
X141046Y149288D01*
X141071Y149319D01*
X141122Y149427D01*
X141180Y149531D01*
X141190Y149571D01*
X141207Y149607D01*
X141229Y149724D01*
X141259Y149839D01*
X141263Y149900D01*
X141267Y149920D01*
X141265Y149940D01*
X141269Y150000D01*
X141269Y240000D01*
X141254Y240118D01*
X141247Y240237D01*
X141234Y240275D01*
X141229Y240316D01*
X141186Y240426D01*
X141149Y240539D01*
X141127Y240574D01*
X141112Y240611D01*
X141043Y240707D01*
X140979Y240808D01*
X140949Y240836D01*
X140926Y240869D01*
X140834Y240945D01*
X140747Y241026D01*
X140712Y241046D01*
X140681Y241071D01*
X140573Y241122D01*
X140469Y241180D01*
X140429Y241190D01*
X140393Y241207D01*
X140276Y241229D01*
X140161Y241259D01*
X140101Y241263D01*
X140081Y241267D01*
X140060Y241265D01*
X140000Y241269D01*
X80000Y241269D01*
X79882Y241254D01*
X79763Y241247D01*
X79725Y241234D01*
X79684Y241229D01*
X79574Y241186D01*
X79461Y241149D01*
X79426Y241127D01*
X79389Y241112D01*
X79293Y241043D01*
X79192Y240979D01*
X79164Y240949D01*
X79131Y240926D01*
X79056Y240834D01*
X78974Y240747D01*
X78954Y240712D01*
X78929Y240681D01*
X78878Y240573D01*
X78820Y240469D01*
X78810Y240429D01*
X78793Y240393D01*
X78771Y240276D01*
X78741Y240161D01*
X78737Y240101D01*
X78733Y240081D01*
X78735Y240060D01*
X78731Y240000D01*
X78731Y221269D01*
X10000Y221269D01*
X9882Y221254D01*
X9763Y221247D01*
X9725Y221234D01*
X9684Y221229D01*
X9574Y221186D01*
X9461Y221149D01*
X9426Y221127D01*
X9389Y221112D01*
X9293Y221043D01*
X9192Y220979D01*
X9164Y220949D01*
X9131Y220926D01*
X9056Y220834D01*
X8974Y220747D01*
X8954Y220712D01*
X8929Y220681D01*
X8878Y220573D01*
X8820Y220469D01*
X8810Y220429D01*
X8793Y220393D01*
X8771Y220276D01*
X8741Y220161D01*
X8737Y220101D01*
X8733Y220081D01*
X8735Y220060D01*
X8731Y220000D01*
X8731Y202000D01*
X8746Y201882D01*
X8753Y201763D01*
X8766Y201725D01*
X8771Y201684D01*
X8814Y201574D01*
X8851Y201461D01*
X8873Y201426D01*
X8888Y201389D01*
X8958Y201293D01*
X9021Y201192D01*
X9051Y201164D01*
X9074Y201131D01*
X9166Y201056D01*
X9253Y200974D01*
X9288Y200954D01*
X9319Y200929D01*
X9427Y200878D01*
X9531Y200820D01*
X9571Y200810D01*
X9607Y200793D01*
X9724Y200771D01*
X9839Y200741D01*
X9900Y200737D01*
X9920Y200733D01*
X9940Y200735D01*
X10000Y200731D01*
X78731Y200731D01*
X78731Y150000D01*
X78746Y149882D01*
X78753Y149763D01*
X78766Y149725D01*
X78771Y149684D01*
X78814Y149574D01*
X78851Y149461D01*
X78873Y149426D01*
X78888Y149389D01*
X78958Y149293D01*
X79021Y149192D01*
X79051Y149164D01*
X79074Y149131D01*
X79166Y149056D01*
X79253Y148974D01*
X79288Y148954D01*
X79319Y148929D01*
X79427Y148878D01*
X79531Y148820D01*
X79571Y148810D01*
X79607Y148793D01*
X79724Y148771D01*
X79839Y148741D01*
X79900Y148737D01*
X79920Y148733D01*
X79940Y148735D01*
X80000Y148731D01*
X140000Y148731D01*
X140118Y148746D01*
G37*
%LPC*%
G36*
X253236Y71765D02*
X253236Y71765D01*
X251747Y73254D01*
X251747Y80946D01*
X252382Y81581D01*
X252409Y81624D01*
X252444Y81662D01*
X252454Y81697D01*
X252473Y81728D01*
X252478Y81779D01*
X252493Y81828D01*
X252486Y81864D01*
X252490Y81901D01*
X252472Y81948D01*
X252463Y81999D01*
X252439Y82034D01*
X252428Y82063D01*
X252406Y82084D01*
X252382Y82119D01*
X251747Y82754D01*
X251747Y90446D01*
X252382Y91081D01*
X252409Y91124D01*
X252444Y91162D01*
X252454Y91197D01*
X252473Y91228D01*
X252478Y91279D01*
X252493Y91328D01*
X252486Y91364D01*
X252490Y91401D01*
X252472Y91448D01*
X252463Y91499D01*
X252439Y91534D01*
X252428Y91563D01*
X252406Y91584D01*
X252382Y91619D01*
X251747Y92254D01*
X251747Y99946D01*
X253236Y101435D01*
X259602Y101435D01*
X259676Y101452D01*
X259751Y101465D01*
X259761Y101472D01*
X259771Y101474D01*
X259800Y101498D01*
X259871Y101546D01*
X271016Y112691D01*
X271056Y112755D01*
X271100Y112817D01*
X271102Y112829D01*
X271107Y112838D01*
X271111Y112875D01*
X271127Y112960D01*
X271127Y113679D01*
X271116Y113729D01*
X271114Y113780D01*
X271096Y113812D01*
X271088Y113848D01*
X271055Y113887D01*
X271031Y113932D01*
X271001Y113953D01*
X270978Y113981D01*
X270931Y114002D01*
X270889Y114032D01*
X270847Y114040D01*
X270819Y114052D01*
X270789Y114051D01*
X270747Y114059D01*
X269148Y114059D01*
X268067Y115140D01*
X268024Y115167D01*
X267986Y115202D01*
X267951Y115212D01*
X267920Y115231D01*
X267869Y115236D01*
X267820Y115251D01*
X267784Y115244D01*
X267747Y115248D01*
X267700Y115230D01*
X267649Y115221D01*
X267614Y115197D01*
X267585Y115186D01*
X267565Y115164D01*
X267529Y115140D01*
X265578Y113189D01*
X225422Y113189D01*
X223189Y115422D01*
X223189Y127578D01*
X225422Y129811D01*
X265578Y129811D01*
X267429Y127960D01*
X267472Y127933D01*
X267510Y127898D01*
X267545Y127888D01*
X267576Y127869D01*
X267627Y127864D01*
X267676Y127849D01*
X267712Y127856D01*
X267749Y127852D01*
X267797Y127870D01*
X267847Y127879D01*
X267882Y127903D01*
X267911Y127914D01*
X267932Y127936D01*
X267967Y127960D01*
X269148Y129141D01*
X282252Y129141D01*
X283741Y127652D01*
X283741Y115548D01*
X282252Y114059D01*
X280653Y114059D01*
X280603Y114048D01*
X280552Y114046D01*
X280520Y114028D01*
X280484Y114020D01*
X280445Y113987D01*
X280400Y113963D01*
X280379Y113933D01*
X280351Y113910D01*
X280330Y113863D01*
X280300Y113821D01*
X280292Y113779D01*
X280280Y113751D01*
X280281Y113721D01*
X280273Y113679D01*
X280273Y109014D01*
X270148Y98889D01*
X270108Y98825D01*
X270064Y98763D01*
X270062Y98751D01*
X270057Y98742D01*
X270053Y98705D01*
X270037Y98620D01*
X270037Y92254D01*
X269402Y91619D01*
X269375Y91576D01*
X269340Y91538D01*
X269330Y91503D01*
X269311Y91472D01*
X269306Y91421D01*
X269291Y91372D01*
X269298Y91336D01*
X269294Y91299D01*
X269312Y91252D01*
X269321Y91201D01*
X269345Y91166D01*
X269356Y91137D01*
X269378Y91116D01*
X269402Y91081D01*
X270037Y90446D01*
X270037Y82707D01*
X270022Y82683D01*
X270019Y82657D01*
X270009Y82633D01*
X270011Y82572D01*
X270005Y82510D01*
X270014Y82486D01*
X270015Y82460D01*
X270045Y82406D01*
X270067Y82348D01*
X270086Y82331D01*
X270098Y82308D01*
X270148Y82273D01*
X270194Y82231D01*
X270218Y82223D01*
X270240Y82208D01*
X270324Y82192D01*
X270360Y82181D01*
X270370Y82183D01*
X270382Y82181D01*
X274838Y82181D01*
X274912Y82198D01*
X274987Y82211D01*
X274997Y82218D01*
X275007Y82220D01*
X275036Y82244D01*
X275107Y82292D01*
X293558Y100743D01*
X293589Y100793D01*
X293591Y100795D01*
X293595Y100803D01*
X293598Y100808D01*
X293642Y100870D01*
X293644Y100882D01*
X293649Y100890D01*
X293653Y100927D01*
X293654Y100935D01*
X293662Y100953D01*
X293662Y100972D01*
X293669Y101012D01*
X293669Y168779D01*
X293658Y168829D01*
X293656Y168880D01*
X293638Y168912D01*
X293630Y168948D01*
X293597Y168987D01*
X293573Y169032D01*
X293543Y169053D01*
X293520Y169081D01*
X293473Y169102D01*
X293431Y169132D01*
X293389Y169140D01*
X293361Y169152D01*
X293355Y169152D01*
X291859Y170648D01*
X291859Y182552D01*
X293360Y184053D01*
X293390Y184054D01*
X293422Y184072D01*
X293458Y184080D01*
X293497Y184113D01*
X293542Y184137D01*
X293563Y184167D01*
X293591Y184190D01*
X293612Y184237D01*
X293642Y184279D01*
X293650Y184321D01*
X293662Y184349D01*
X293661Y184379D01*
X293669Y184421D01*
X293669Y196179D01*
X293658Y196229D01*
X293656Y196280D01*
X293638Y196312D01*
X293630Y196348D01*
X293597Y196387D01*
X293573Y196432D01*
X293543Y196453D01*
X293520Y196481D01*
X293473Y196502D01*
X293431Y196532D01*
X293389Y196540D01*
X293361Y196552D01*
X293331Y196551D01*
X293289Y196559D01*
X290548Y196559D01*
X289059Y198048D01*
X289059Y210352D01*
X290548Y211841D01*
X306652Y211841D01*
X308141Y210352D01*
X308141Y198048D01*
X306652Y196559D01*
X304211Y196559D01*
X304161Y196548D01*
X304110Y196546D01*
X304078Y196528D01*
X304042Y196520D01*
X304003Y196487D01*
X303958Y196463D01*
X303937Y196433D01*
X303909Y196410D01*
X303888Y196363D01*
X303858Y196321D01*
X303850Y196279D01*
X303838Y196251D01*
X303839Y196221D01*
X303831Y196179D01*
X303831Y184421D01*
X303842Y184371D01*
X303844Y184320D01*
X303862Y184288D01*
X303870Y184252D01*
X303903Y184213D01*
X303927Y184168D01*
X303957Y184147D01*
X303980Y184119D01*
X304027Y184098D01*
X304069Y184068D01*
X304111Y184060D01*
X304139Y184048D01*
X304145Y184048D01*
X305641Y182552D01*
X305641Y170648D01*
X304140Y169147D01*
X304110Y169146D01*
X304078Y169128D01*
X304042Y169120D01*
X304003Y169087D01*
X303958Y169063D01*
X303937Y169033D01*
X303909Y169010D01*
X303888Y168963D01*
X303858Y168921D01*
X303850Y168879D01*
X303838Y168851D01*
X303839Y168821D01*
X303831Y168779D01*
X303831Y96645D01*
X279205Y72019D01*
X268960Y72019D01*
X268886Y72002D01*
X268811Y71989D01*
X268801Y71982D01*
X268791Y71980D01*
X268762Y71956D01*
X268691Y71908D01*
X268548Y71765D01*
X253236Y71765D01*
G37*
%LPD*%
G36*
X130118Y288746D02*
X130118Y288746D01*
X130237Y288753D01*
X130275Y288766D01*
X130316Y288771D01*
X130426Y288814D01*
X130539Y288851D01*
X130574Y288873D01*
X130611Y288888D01*
X130707Y288958D01*
X130808Y289021D01*
X130836Y289051D01*
X130869Y289074D01*
X130945Y289166D01*
X131026Y289253D01*
X131046Y289288D01*
X131071Y289319D01*
X131122Y289427D01*
X131180Y289531D01*
X131190Y289571D01*
X131207Y289607D01*
X131229Y289724D01*
X131259Y289839D01*
X131263Y289900D01*
X131267Y289920D01*
X131265Y289940D01*
X131269Y290000D01*
X131269Y350000D01*
X131254Y350118D01*
X131247Y350237D01*
X131234Y350275D01*
X131229Y350316D01*
X131186Y350426D01*
X131149Y350539D01*
X131127Y350574D01*
X131112Y350611D01*
X131043Y350707D01*
X130979Y350808D01*
X130949Y350836D01*
X130926Y350869D01*
X130834Y350945D01*
X130747Y351026D01*
X130712Y351046D01*
X130681Y351071D01*
X130573Y351122D01*
X130469Y351180D01*
X130429Y351190D01*
X130393Y351207D01*
X130276Y351229D01*
X130161Y351259D01*
X130101Y351263D01*
X130081Y351267D01*
X130060Y351265D01*
X130000Y351269D01*
X80000Y351269D01*
X79882Y351254D01*
X79763Y351247D01*
X79725Y351234D01*
X79684Y351229D01*
X79574Y351186D01*
X79461Y351149D01*
X79426Y351127D01*
X79389Y351112D01*
X79293Y351043D01*
X79192Y350979D01*
X79164Y350949D01*
X79131Y350926D01*
X79056Y350834D01*
X78974Y350747D01*
X78954Y350712D01*
X78929Y350681D01*
X78878Y350573D01*
X78820Y350469D01*
X78810Y350429D01*
X78793Y350393D01*
X78771Y350276D01*
X78741Y350161D01*
X78737Y350101D01*
X78733Y350081D01*
X78735Y350060D01*
X78731Y350000D01*
X78731Y290000D01*
X78746Y289882D01*
X78753Y289763D01*
X78766Y289725D01*
X78771Y289684D01*
X78814Y289574D01*
X78851Y289461D01*
X78873Y289426D01*
X78888Y289389D01*
X78958Y289293D01*
X79021Y289192D01*
X79051Y289164D01*
X79074Y289131D01*
X79166Y289056D01*
X79253Y288974D01*
X79288Y288954D01*
X79319Y288929D01*
X79427Y288878D01*
X79531Y288820D01*
X79571Y288810D01*
X79607Y288793D01*
X79724Y288771D01*
X79839Y288741D01*
X79900Y288737D01*
X79920Y288733D01*
X79940Y288735D01*
X80000Y288731D01*
X130000Y288731D01*
X130118Y288746D01*
G37*
%LPC*%
G36*
X88422Y46189D02*
X88422Y46189D01*
X86189Y48422D01*
X86189Y111578D01*
X88422Y113811D01*
X131578Y113811D01*
X133811Y111578D01*
X133811Y48422D01*
X131578Y46189D01*
X88422Y46189D01*
G37*
%LPD*%
%LPC*%
G36*
X597907Y353201D02*
X597907Y353201D01*
X592401Y358707D01*
X592401Y364656D01*
X592384Y364730D01*
X592371Y364805D01*
X592364Y364815D01*
X592362Y364825D01*
X592338Y364854D01*
X592290Y364925D01*
X585543Y371671D01*
X585543Y382933D01*
X585537Y382959D01*
X585540Y382984D01*
X585518Y383042D01*
X585504Y383102D01*
X585487Y383122D01*
X585478Y383146D01*
X585433Y383188D01*
X585394Y383236D01*
X585370Y383246D01*
X585351Y383264D01*
X585292Y383281D01*
X585235Y383307D01*
X585210Y383306D01*
X585185Y383313D01*
X585124Y383303D01*
X585062Y383300D01*
X585040Y383288D01*
X585014Y383283D01*
X584943Y383235D01*
X584910Y383217D01*
X584904Y383209D01*
X584894Y383202D01*
X580293Y378601D01*
X572507Y378601D01*
X567001Y384107D01*
X567001Y391893D01*
X572507Y397399D01*
X580293Y397399D01*
X584894Y392798D01*
X584916Y392784D01*
X584932Y392764D01*
X584989Y392739D01*
X585041Y392706D01*
X585067Y392704D01*
X585091Y392693D01*
X585152Y392696D01*
X585214Y392690D01*
X585238Y392699D01*
X585264Y392700D01*
X585318Y392729D01*
X585376Y392751D01*
X585393Y392770D01*
X585416Y392783D01*
X585451Y392833D01*
X585493Y392878D01*
X585501Y392903D01*
X585516Y392924D01*
X585532Y393009D01*
X585543Y393045D01*
X585541Y393054D01*
X585543Y393067D01*
X585543Y430797D01*
X585540Y430810D01*
X585542Y430823D01*
X585521Y430894D01*
X585504Y430966D01*
X585496Y430976D01*
X585492Y430988D01*
X585441Y431042D01*
X585394Y431100D01*
X585382Y431105D01*
X585373Y431114D01*
X585303Y431140D01*
X585235Y431171D01*
X585222Y431170D01*
X585210Y431175D01*
X585137Y431167D01*
X585062Y431164D01*
X585051Y431158D01*
X585038Y431156D01*
X584975Y431117D01*
X584910Y431081D01*
X584903Y431071D01*
X584892Y431064D01*
X584812Y430943D01*
X583722Y428312D01*
X581292Y425882D01*
X578118Y424567D01*
X574682Y424567D01*
X571508Y425882D01*
X569078Y428312D01*
X567763Y431486D01*
X567763Y447114D01*
X569078Y450288D01*
X571508Y452718D01*
X574682Y454033D01*
X578118Y454033D01*
X581292Y452718D01*
X583722Y450288D01*
X584812Y447657D01*
X584819Y447647D01*
X584822Y447634D01*
X584859Y447590D01*
X584875Y447561D01*
X584888Y447551D01*
X584913Y447516D01*
X584924Y447510D01*
X584932Y447500D01*
X585000Y447470D01*
X585013Y447463D01*
X585016Y447461D01*
X585018Y447461D01*
X585066Y447435D01*
X585079Y447435D01*
X585091Y447429D01*
X585165Y447432D01*
X585239Y447430D01*
X585251Y447436D01*
X585264Y447436D01*
X585329Y447471D01*
X585331Y447473D01*
X585332Y447473D01*
X585396Y447502D01*
X585405Y447513D01*
X585416Y447519D01*
X585455Y447574D01*
X585465Y447583D01*
X585470Y447594D01*
X585505Y447637D01*
X585508Y447650D01*
X585516Y447660D01*
X585527Y447721D01*
X585536Y447741D01*
X585535Y447763D01*
X585543Y447803D01*
X585543Y451919D01*
X594608Y460984D01*
X594648Y461049D01*
X594692Y461111D01*
X594694Y461123D01*
X594699Y461131D01*
X594703Y461168D01*
X594719Y461253D01*
X594719Y462113D01*
X594702Y462187D01*
X594689Y462262D01*
X594682Y462272D01*
X594680Y462282D01*
X594656Y462311D01*
X594608Y462382D01*
X592478Y464512D01*
X591163Y467686D01*
X591163Y483314D01*
X592478Y486488D01*
X594908Y488918D01*
X598082Y490233D01*
X601518Y490233D01*
X604692Y488918D01*
X607122Y486488D01*
X608437Y483314D01*
X608437Y467686D01*
X607122Y464512D01*
X604992Y462382D01*
X604952Y462317D01*
X604908Y462255D01*
X604906Y462243D01*
X604901Y462235D01*
X604897Y462198D01*
X604881Y462113D01*
X604881Y456886D01*
X602676Y454682D01*
X602663Y454660D01*
X602643Y454644D01*
X602617Y454587D01*
X602585Y454535D01*
X602582Y454509D01*
X602572Y454485D01*
X602574Y454424D01*
X602568Y454362D01*
X602577Y454338D01*
X602578Y454312D01*
X602608Y454258D01*
X602630Y454200D01*
X602649Y454183D01*
X602661Y454160D01*
X602712Y454125D01*
X602757Y454083D01*
X602782Y454075D01*
X602803Y454060D01*
X602887Y454044D01*
X602923Y454033D01*
X602933Y454035D01*
X602945Y454033D01*
X603518Y454033D01*
X606692Y452718D01*
X609122Y450288D01*
X610437Y447114D01*
X610437Y431486D01*
X609122Y428312D01*
X606692Y425882D01*
X603518Y424567D01*
X600082Y424567D01*
X596908Y425882D01*
X596354Y426436D01*
X596332Y426450D01*
X596316Y426469D01*
X596259Y426495D01*
X596207Y426527D01*
X596181Y426530D01*
X596157Y426540D01*
X596096Y426538D01*
X596034Y426544D01*
X596010Y426535D01*
X595984Y426534D01*
X595930Y426504D01*
X595872Y426482D01*
X595855Y426463D01*
X595832Y426451D01*
X595797Y426401D01*
X595755Y426355D01*
X595747Y426330D01*
X595732Y426309D01*
X595716Y426225D01*
X595713Y426214D01*
X595712Y426212D01*
X595712Y426211D01*
X595705Y426189D01*
X595707Y426179D01*
X595705Y426167D01*
X595705Y396115D01*
X595711Y396089D01*
X595708Y396064D01*
X595730Y396006D01*
X595744Y395946D01*
X595761Y395926D01*
X595770Y395902D01*
X595815Y395860D01*
X595854Y395812D01*
X595878Y395802D01*
X595897Y395784D01*
X595956Y395767D01*
X596013Y395741D01*
X596038Y395742D01*
X596063Y395735D01*
X596124Y395745D01*
X596186Y395748D01*
X596208Y395760D01*
X596234Y395765D01*
X596305Y395813D01*
X596338Y395831D01*
X596344Y395839D01*
X596354Y395846D01*
X597907Y397399D01*
X605693Y397399D01*
X611199Y391893D01*
X611199Y384107D01*
X605693Y378601D01*
X597907Y378601D01*
X596354Y380154D01*
X596332Y380168D01*
X596316Y380188D01*
X596259Y380213D01*
X596207Y380246D01*
X596181Y380248D01*
X596157Y380259D01*
X596096Y380256D01*
X596034Y380262D01*
X596010Y380253D01*
X595984Y380252D01*
X595930Y380223D01*
X595872Y380201D01*
X595855Y380182D01*
X595832Y380169D01*
X595797Y380119D01*
X595755Y380074D01*
X595747Y380049D01*
X595732Y380028D01*
X595716Y379943D01*
X595705Y379907D01*
X595707Y379898D01*
X595705Y379885D01*
X595705Y376038D01*
X595722Y375964D01*
X595735Y375889D01*
X595742Y375879D01*
X595744Y375869D01*
X595768Y375840D01*
X595816Y375769D01*
X599475Y372110D01*
X599540Y372070D01*
X599602Y372026D01*
X599614Y372024D01*
X599622Y372019D01*
X599659Y372015D01*
X599744Y371999D01*
X605693Y371999D01*
X611199Y366493D01*
X611199Y358707D01*
X605693Y353201D01*
X597907Y353201D01*
G37*
%LPD*%
%LPC*%
G36*
X255336Y346665D02*
X255336Y346665D01*
X253847Y348154D01*
X253847Y355846D01*
X254482Y356481D01*
X254509Y356524D01*
X254544Y356562D01*
X254554Y356597D01*
X254573Y356628D01*
X254578Y356679D01*
X254593Y356728D01*
X254586Y356764D01*
X254590Y356801D01*
X254572Y356848D01*
X254563Y356899D01*
X254539Y356934D01*
X254528Y356963D01*
X254506Y356984D01*
X254482Y357019D01*
X253847Y357654D01*
X253847Y365346D01*
X254482Y365981D01*
X254509Y366024D01*
X254544Y366062D01*
X254554Y366097D01*
X254573Y366128D01*
X254578Y366179D01*
X254593Y366228D01*
X254586Y366264D01*
X254590Y366301D01*
X254572Y366348D01*
X254563Y366399D01*
X254539Y366434D01*
X254528Y366463D01*
X254506Y366484D01*
X254482Y366519D01*
X253847Y367154D01*
X253847Y374846D01*
X255336Y376335D01*
X262780Y376335D01*
X262854Y376352D01*
X262929Y376365D01*
X262939Y376372D01*
X262949Y376374D01*
X262978Y376398D01*
X263049Y376446D01*
X266578Y379975D01*
X266618Y380040D01*
X266662Y380102D01*
X266664Y380114D01*
X266669Y380122D01*
X266673Y380159D01*
X266689Y380244D01*
X266689Y387479D01*
X266678Y387529D01*
X266676Y387580D01*
X266658Y387612D01*
X266650Y387648D01*
X266617Y387687D01*
X266593Y387732D01*
X266563Y387753D01*
X266540Y387781D01*
X266493Y387802D01*
X266451Y387832D01*
X266409Y387840D01*
X266381Y387852D01*
X266351Y387851D01*
X266309Y387859D01*
X264191Y387859D01*
X264141Y387848D01*
X264090Y387846D01*
X264058Y387828D01*
X264022Y387820D01*
X263983Y387787D01*
X263938Y387763D01*
X263917Y387733D01*
X263889Y387710D01*
X263868Y387663D01*
X263838Y387621D01*
X263830Y387579D01*
X263818Y387551D01*
X263819Y387521D01*
X263811Y387479D01*
X263811Y384422D01*
X261578Y382189D01*
X228422Y382189D01*
X226189Y384422D01*
X226189Y406578D01*
X228422Y408811D01*
X261578Y408811D01*
X263811Y406578D01*
X263811Y403321D01*
X263822Y403271D01*
X263824Y403220D01*
X263842Y403188D01*
X263850Y403152D01*
X263883Y403113D01*
X263907Y403068D01*
X263937Y403047D01*
X263960Y403019D01*
X264007Y402998D01*
X264049Y402968D01*
X264091Y402960D01*
X264119Y402948D01*
X264149Y402949D01*
X264191Y402941D01*
X277052Y402941D01*
X278541Y401452D01*
X278541Y389348D01*
X277052Y387859D01*
X274691Y387859D01*
X274641Y387848D01*
X274590Y387846D01*
X274558Y387828D01*
X274522Y387820D01*
X274483Y387787D01*
X274438Y387763D01*
X274417Y387733D01*
X274389Y387710D01*
X274368Y387663D01*
X274338Y387621D01*
X274330Y387579D01*
X274318Y387551D01*
X274319Y387521D01*
X274311Y387479D01*
X274311Y376930D01*
X272248Y374867D01*
X272208Y374802D01*
X272164Y374740D01*
X272162Y374728D01*
X272157Y374720D01*
X272153Y374683D01*
X272137Y374598D01*
X272137Y367154D01*
X271502Y366519D01*
X271475Y366476D01*
X271440Y366438D01*
X271430Y366403D01*
X271411Y366372D01*
X271406Y366321D01*
X271391Y366272D01*
X271398Y366236D01*
X271394Y366199D01*
X271412Y366152D01*
X271421Y366101D01*
X271445Y366066D01*
X271456Y366037D01*
X271478Y366016D01*
X271502Y365981D01*
X272137Y365346D01*
X272137Y363603D01*
X272143Y363577D01*
X272140Y363552D01*
X272162Y363494D01*
X272176Y363434D01*
X272193Y363414D01*
X272202Y363390D01*
X272247Y363348D01*
X272286Y363300D01*
X272310Y363290D01*
X272329Y363272D01*
X272388Y363255D01*
X272445Y363229D01*
X272470Y363230D01*
X272495Y363223D01*
X272556Y363234D01*
X272618Y363236D01*
X272640Y363248D01*
X272666Y363253D01*
X272737Y363301D01*
X272770Y363319D01*
X272776Y363327D01*
X272786Y363334D01*
X289828Y380376D01*
X289868Y380440D01*
X289912Y380502D01*
X289914Y380515D01*
X289919Y380523D01*
X289923Y380560D01*
X289939Y380645D01*
X289939Y422579D01*
X289928Y422629D01*
X289926Y422680D01*
X289908Y422712D01*
X289900Y422748D01*
X289867Y422787D01*
X289843Y422832D01*
X289813Y422853D01*
X289790Y422881D01*
X289743Y422902D01*
X289701Y422932D01*
X289659Y422940D01*
X289631Y422952D01*
X289601Y422951D01*
X289559Y422959D01*
X288348Y422959D01*
X286859Y424448D01*
X286859Y436352D01*
X288348Y437841D01*
X289559Y437841D01*
X289609Y437852D01*
X289660Y437854D01*
X289692Y437872D01*
X289728Y437880D01*
X289767Y437913D01*
X289812Y437937D01*
X289833Y437967D01*
X289861Y437990D01*
X289882Y438037D01*
X289912Y438079D01*
X289920Y438121D01*
X289932Y438149D01*
X289931Y438179D01*
X289939Y438221D01*
X289939Y444279D01*
X289928Y444329D01*
X289926Y444380D01*
X289908Y444412D01*
X289900Y444448D01*
X289867Y444487D01*
X289843Y444532D01*
X289813Y444553D01*
X289790Y444581D01*
X289743Y444602D01*
X289701Y444632D01*
X289659Y444640D01*
X289631Y444652D01*
X289601Y444651D01*
X289559Y444659D01*
X283448Y444659D01*
X281959Y446148D01*
X281959Y458452D01*
X283448Y459941D01*
X299552Y459941D01*
X301041Y458452D01*
X301041Y446148D01*
X299552Y444659D01*
X297941Y444659D01*
X297891Y444648D01*
X297840Y444646D01*
X297808Y444628D01*
X297772Y444620D01*
X297733Y444587D01*
X297688Y444563D01*
X297667Y444533D01*
X297639Y444510D01*
X297618Y444463D01*
X297588Y444421D01*
X297580Y444379D01*
X297568Y444351D01*
X297569Y444321D01*
X297561Y444279D01*
X297561Y438221D01*
X297572Y438171D01*
X297574Y438120D01*
X297592Y438088D01*
X297600Y438052D01*
X297633Y438013D01*
X297657Y437968D01*
X297687Y437947D01*
X297710Y437919D01*
X297757Y437898D01*
X297799Y437868D01*
X297841Y437860D01*
X297869Y437848D01*
X297899Y437849D01*
X297941Y437841D01*
X299152Y437841D01*
X300641Y436352D01*
X300641Y424448D01*
X299152Y422959D01*
X297941Y422959D01*
X297891Y422948D01*
X297840Y422946D01*
X297808Y422928D01*
X297772Y422920D01*
X297733Y422887D01*
X297688Y422863D01*
X297667Y422833D01*
X297639Y422810D01*
X297618Y422763D01*
X297588Y422721D01*
X297580Y422679D01*
X297568Y422651D01*
X297569Y422621D01*
X297561Y422579D01*
X297561Y377330D01*
X272248Y352018D01*
X272208Y351953D01*
X272164Y351891D01*
X272162Y351879D01*
X272157Y351870D01*
X272153Y351833D01*
X272137Y351749D01*
X272137Y348154D01*
X270648Y346665D01*
X255336Y346665D01*
G37*
%LPD*%
G36*
X130118Y48746D02*
X130118Y48746D01*
X130237Y48753D01*
X130275Y48766D01*
X130316Y48771D01*
X130426Y48814D01*
X130539Y48851D01*
X130574Y48873D01*
X130611Y48888D01*
X130707Y48958D01*
X130808Y49021D01*
X130836Y49051D01*
X130869Y49074D01*
X130945Y49166D01*
X131026Y49253D01*
X131046Y49288D01*
X131071Y49319D01*
X131122Y49427D01*
X131180Y49531D01*
X131190Y49571D01*
X131207Y49607D01*
X131229Y49724D01*
X131259Y49839D01*
X131263Y49900D01*
X131267Y49920D01*
X131265Y49940D01*
X131269Y50000D01*
X131269Y110000D01*
X131254Y110118D01*
X131247Y110237D01*
X131234Y110275D01*
X131229Y110316D01*
X131186Y110426D01*
X131149Y110539D01*
X131127Y110574D01*
X131112Y110611D01*
X131043Y110707D01*
X130979Y110808D01*
X130949Y110836D01*
X130926Y110869D01*
X130834Y110945D01*
X130747Y111026D01*
X130712Y111046D01*
X130681Y111071D01*
X130573Y111122D01*
X130469Y111180D01*
X130429Y111190D01*
X130393Y111207D01*
X130276Y111229D01*
X130161Y111259D01*
X130101Y111263D01*
X130081Y111267D01*
X130060Y111265D01*
X130000Y111269D01*
X90000Y111269D01*
X89882Y111254D01*
X89763Y111247D01*
X89725Y111234D01*
X89684Y111229D01*
X89574Y111186D01*
X89461Y111149D01*
X89426Y111127D01*
X89389Y111112D01*
X89293Y111043D01*
X89192Y110979D01*
X89164Y110949D01*
X89131Y110926D01*
X89056Y110834D01*
X88974Y110747D01*
X88954Y110712D01*
X88929Y110681D01*
X88878Y110573D01*
X88820Y110469D01*
X88810Y110429D01*
X88793Y110393D01*
X88771Y110276D01*
X88741Y110161D01*
X88737Y110101D01*
X88733Y110081D01*
X88735Y110060D01*
X88731Y110000D01*
X88731Y50000D01*
X88746Y49882D01*
X88753Y49763D01*
X88766Y49725D01*
X88771Y49684D01*
X88814Y49574D01*
X88851Y49461D01*
X88873Y49426D01*
X88888Y49389D01*
X88958Y49293D01*
X89021Y49192D01*
X89051Y49164D01*
X89074Y49131D01*
X89166Y49056D01*
X89253Y48974D01*
X89288Y48954D01*
X89319Y48929D01*
X89427Y48878D01*
X89531Y48820D01*
X89571Y48810D01*
X89607Y48793D01*
X89724Y48771D01*
X89839Y48741D01*
X89900Y48737D01*
X89920Y48733D01*
X89940Y48735D01*
X90000Y48731D01*
X130000Y48731D01*
X130118Y48746D01*
G37*
%LPC*%
G36*
X420107Y378601D02*
X420107Y378601D01*
X414601Y384107D01*
X414601Y391893D01*
X414998Y392290D01*
X415038Y392354D01*
X415082Y392416D01*
X415084Y392428D01*
X415089Y392437D01*
X415093Y392474D01*
X415109Y392559D01*
X415109Y441068D01*
X415334Y441612D01*
X415335Y441614D01*
X415336Y441615D01*
X415343Y441653D01*
X415345Y441657D01*
X415345Y441661D01*
X415363Y441757D01*
X415363Y447114D01*
X416678Y450288D01*
X419108Y452718D01*
X422282Y454033D01*
X425718Y454033D01*
X428892Y452718D01*
X431322Y450288D01*
X432637Y447114D01*
X432637Y441757D01*
X432637Y441756D01*
X432637Y441754D01*
X432662Y441631D01*
X432662Y441629D01*
X432662Y441628D01*
X432666Y441612D01*
X432891Y441068D01*
X432891Y392559D01*
X432908Y392485D01*
X432921Y392410D01*
X432928Y392400D01*
X432930Y392390D01*
X432954Y392361D01*
X433002Y392290D01*
X433399Y391893D01*
X433399Y384107D01*
X427893Y378601D01*
X420107Y378601D01*
G37*
%LPD*%
%LPC*%
G36*
X988213Y28959D02*
X988213Y28959D01*
X981214Y31858D01*
X975858Y37214D01*
X972959Y44213D01*
X972959Y51787D01*
X975858Y58786D01*
X981214Y64142D01*
X988213Y67041D01*
X995787Y67041D01*
X1002786Y64142D01*
X1008142Y58786D01*
X1011041Y51787D01*
X1011041Y44213D01*
X1008142Y37214D01*
X1002786Y31858D01*
X995787Y28959D01*
X988213Y28959D01*
G37*
%LPD*%
%LPC*%
G36*
X988213Y432959D02*
X988213Y432959D01*
X981214Y435858D01*
X975858Y441214D01*
X972959Y448213D01*
X972959Y455787D01*
X975858Y462786D01*
X981214Y468142D01*
X988213Y471041D01*
X995787Y471041D01*
X1002786Y468142D01*
X1008142Y462786D01*
X1011041Y455787D01*
X1011041Y448213D01*
X1008142Y441214D01*
X1002786Y435858D01*
X995787Y432959D01*
X988213Y432959D01*
G37*
%LPD*%
%LPC*%
G36*
X44213Y28959D02*
X44213Y28959D01*
X37214Y31858D01*
X31858Y37214D01*
X28959Y44213D01*
X28959Y51787D01*
X31858Y58786D01*
X37214Y64142D01*
X44213Y67041D01*
X51787Y67041D01*
X58786Y64142D01*
X64142Y58786D01*
X67041Y51787D01*
X67041Y44213D01*
X64142Y37214D01*
X58786Y31858D01*
X51787Y28959D01*
X44213Y28959D01*
G37*
%LPD*%
%LPC*%
G36*
X44213Y432959D02*
X44213Y432959D01*
X37214Y435858D01*
X31858Y441214D01*
X28959Y448213D01*
X28959Y455787D01*
X31858Y462786D01*
X37214Y468142D01*
X44213Y471041D01*
X51787Y471041D01*
X58786Y468142D01*
X64142Y462786D01*
X67041Y455787D01*
X67041Y448213D01*
X64142Y441214D01*
X58786Y435858D01*
X51787Y432959D01*
X44213Y432959D01*
G37*
%LPD*%
G36*
X260118Y384746D02*
X260118Y384746D01*
X260237Y384753D01*
X260275Y384766D01*
X260316Y384771D01*
X260426Y384814D01*
X260539Y384851D01*
X260574Y384873D01*
X260611Y384888D01*
X260707Y384958D01*
X260808Y385021D01*
X260836Y385051D01*
X260869Y385074D01*
X260945Y385166D01*
X261026Y385253D01*
X261046Y385288D01*
X261071Y385319D01*
X261122Y385427D01*
X261180Y385531D01*
X261190Y385571D01*
X261207Y385607D01*
X261229Y385724D01*
X261259Y385839D01*
X261263Y385900D01*
X261267Y385920D01*
X261265Y385940D01*
X261269Y386000D01*
X261269Y405000D01*
X261254Y405118D01*
X261247Y405237D01*
X261234Y405275D01*
X261229Y405316D01*
X261186Y405426D01*
X261149Y405539D01*
X261127Y405574D01*
X261112Y405611D01*
X261043Y405707D01*
X260979Y405808D01*
X260949Y405836D01*
X260926Y405869D01*
X260834Y405945D01*
X260747Y406026D01*
X260712Y406046D01*
X260681Y406071D01*
X260573Y406122D01*
X260469Y406180D01*
X260429Y406190D01*
X260393Y406207D01*
X260276Y406229D01*
X260161Y406259D01*
X260101Y406263D01*
X260081Y406267D01*
X260060Y406265D01*
X260000Y406269D01*
X230000Y406269D01*
X229882Y406254D01*
X229763Y406247D01*
X229725Y406234D01*
X229684Y406229D01*
X229574Y406186D01*
X229461Y406149D01*
X229426Y406127D01*
X229389Y406112D01*
X229293Y406043D01*
X229192Y405979D01*
X229164Y405949D01*
X229131Y405926D01*
X229056Y405834D01*
X228974Y405747D01*
X228954Y405712D01*
X228929Y405681D01*
X228878Y405573D01*
X228820Y405469D01*
X228810Y405429D01*
X228793Y405393D01*
X228771Y405276D01*
X228741Y405161D01*
X228737Y405101D01*
X228733Y405081D01*
X228735Y405060D01*
X228731Y405000D01*
X228731Y386000D01*
X228746Y385882D01*
X228753Y385763D01*
X228766Y385725D01*
X228771Y385684D01*
X228814Y385574D01*
X228851Y385461D01*
X228873Y385426D01*
X228888Y385389D01*
X228958Y385293D01*
X229021Y385192D01*
X229051Y385164D01*
X229074Y385131D01*
X229166Y385056D01*
X229253Y384974D01*
X229288Y384954D01*
X229319Y384929D01*
X229427Y384878D01*
X229531Y384820D01*
X229571Y384810D01*
X229607Y384793D01*
X229724Y384771D01*
X229839Y384741D01*
X229900Y384737D01*
X229920Y384733D01*
X229940Y384735D01*
X230000Y384731D01*
X260000Y384731D01*
X260118Y384746D01*
G37*
G36*
X264118Y115746D02*
X264118Y115746D01*
X264237Y115753D01*
X264275Y115766D01*
X264316Y115771D01*
X264426Y115814D01*
X264539Y115851D01*
X264574Y115873D01*
X264611Y115888D01*
X264707Y115958D01*
X264808Y116021D01*
X264836Y116051D01*
X264869Y116074D01*
X264945Y116166D01*
X265026Y116253D01*
X265046Y116288D01*
X265071Y116319D01*
X265122Y116427D01*
X265180Y116531D01*
X265190Y116571D01*
X265207Y116607D01*
X265229Y116724D01*
X265259Y116839D01*
X265263Y116900D01*
X265267Y116920D01*
X265265Y116940D01*
X265269Y117000D01*
X265269Y126000D01*
X265254Y126118D01*
X265247Y126237D01*
X265234Y126275D01*
X265229Y126316D01*
X265186Y126426D01*
X265149Y126539D01*
X265127Y126574D01*
X265112Y126611D01*
X265043Y126707D01*
X264979Y126808D01*
X264949Y126836D01*
X264926Y126869D01*
X264834Y126945D01*
X264747Y127026D01*
X264712Y127046D01*
X264681Y127071D01*
X264573Y127122D01*
X264469Y127180D01*
X264429Y127190D01*
X264393Y127207D01*
X264276Y127229D01*
X264161Y127259D01*
X264101Y127263D01*
X264081Y127267D01*
X264060Y127265D01*
X264000Y127269D01*
X227000Y127269D01*
X226882Y127254D01*
X226763Y127247D01*
X226725Y127234D01*
X226684Y127229D01*
X226574Y127186D01*
X226461Y127149D01*
X226426Y127127D01*
X226389Y127112D01*
X226293Y127043D01*
X226192Y126979D01*
X226164Y126949D01*
X226131Y126926D01*
X226056Y126834D01*
X225974Y126747D01*
X225954Y126712D01*
X225929Y126681D01*
X225878Y126573D01*
X225820Y126469D01*
X225810Y126429D01*
X225793Y126393D01*
X225771Y126276D01*
X225741Y126161D01*
X225737Y126101D01*
X225733Y126081D01*
X225735Y126060D01*
X225731Y126000D01*
X225731Y117000D01*
X225746Y116882D01*
X225753Y116763D01*
X225766Y116725D01*
X225771Y116684D01*
X225814Y116574D01*
X225851Y116461D01*
X225873Y116426D01*
X225888Y116389D01*
X225958Y116293D01*
X226021Y116192D01*
X226051Y116164D01*
X226074Y116131D01*
X226166Y116056D01*
X226253Y115974D01*
X226288Y115954D01*
X226319Y115929D01*
X226427Y115878D01*
X226531Y115820D01*
X226571Y115810D01*
X226607Y115793D01*
X226724Y115771D01*
X226839Y115741D01*
X226900Y115737D01*
X226920Y115733D01*
X226940Y115735D01*
X227000Y115731D01*
X264000Y115731D01*
X264118Y115746D01*
G37*
%LPC*%
G36*
X394882Y460767D02*
X394882Y460767D01*
X391708Y462082D01*
X389278Y464512D01*
X387963Y467686D01*
X387963Y483314D01*
X389278Y486488D01*
X391708Y488918D01*
X394882Y490233D01*
X398318Y490233D01*
X401492Y488918D01*
X403922Y486488D01*
X405237Y483314D01*
X405237Y467686D01*
X403922Y464512D01*
X401492Y462082D01*
X398318Y460767D01*
X394882Y460767D01*
G37*
%LPD*%
%LPC*%
G36*
X650882Y424567D02*
X650882Y424567D01*
X647708Y425882D01*
X645278Y428312D01*
X643963Y431486D01*
X643963Y447114D01*
X645278Y450288D01*
X647708Y452718D01*
X650882Y454033D01*
X654318Y454033D01*
X657492Y452718D01*
X659922Y450288D01*
X661237Y447114D01*
X661237Y431486D01*
X659922Y428312D01*
X657492Y425882D01*
X654318Y424567D01*
X650882Y424567D01*
G37*
%LPD*%
%LPC*%
G36*
X623482Y460767D02*
X623482Y460767D01*
X620308Y462082D01*
X617878Y464512D01*
X616563Y467686D01*
X616563Y483314D01*
X617878Y486488D01*
X620308Y488918D01*
X623482Y490233D01*
X626918Y490233D01*
X630092Y488918D01*
X632522Y486488D01*
X633837Y483314D01*
X633837Y467686D01*
X632522Y464512D01*
X630092Y462082D01*
X626918Y460767D01*
X623482Y460767D01*
G37*
%LPD*%
%LPC*%
G36*
X648882Y460767D02*
X648882Y460767D01*
X645708Y462082D01*
X643278Y464512D01*
X641963Y467686D01*
X641963Y483314D01*
X643278Y486488D01*
X645708Y488918D01*
X648882Y490233D01*
X652318Y490233D01*
X655492Y488918D01*
X657922Y486488D01*
X659237Y483314D01*
X659237Y467686D01*
X657922Y464512D01*
X655492Y462082D01*
X652318Y460767D01*
X648882Y460767D01*
G37*
%LPD*%
%LPC*%
G36*
X674282Y460767D02*
X674282Y460767D01*
X671108Y462082D01*
X668678Y464512D01*
X667363Y467686D01*
X667363Y483314D01*
X668678Y486488D01*
X671108Y488918D01*
X674282Y490233D01*
X677718Y490233D01*
X680892Y488918D01*
X683322Y486488D01*
X684637Y483314D01*
X684637Y467686D01*
X683322Y464512D01*
X680892Y462082D01*
X677718Y460767D01*
X674282Y460767D01*
G37*
%LPD*%
%LPC*%
G36*
X725082Y460767D02*
X725082Y460767D01*
X721908Y462082D01*
X719478Y464512D01*
X718163Y467686D01*
X718163Y483314D01*
X719478Y486488D01*
X721908Y488918D01*
X725082Y490233D01*
X728518Y490233D01*
X731692Y488918D01*
X734122Y486488D01*
X735437Y483314D01*
X735437Y467686D01*
X734122Y464512D01*
X731692Y462082D01*
X728518Y460767D01*
X725082Y460767D01*
G37*
%LPD*%
%LPC*%
G36*
X750482Y460767D02*
X750482Y460767D01*
X747308Y462082D01*
X744878Y464512D01*
X743563Y467686D01*
X743563Y483314D01*
X744878Y486488D01*
X747308Y488918D01*
X750482Y490233D01*
X753918Y490233D01*
X757092Y488918D01*
X759522Y486488D01*
X760837Y483314D01*
X760837Y467686D01*
X759522Y464512D01*
X757092Y462082D01*
X753918Y460767D01*
X750482Y460767D01*
G37*
%LPD*%
%LPC*%
G36*
X775882Y460767D02*
X775882Y460767D01*
X772708Y462082D01*
X770278Y464512D01*
X768963Y467686D01*
X768963Y483314D01*
X770278Y486488D01*
X772708Y488918D01*
X775882Y490233D01*
X779318Y490233D01*
X782492Y488918D01*
X784922Y486488D01*
X786237Y483314D01*
X786237Y467686D01*
X784922Y464512D01*
X782492Y462082D01*
X779318Y460767D01*
X775882Y460767D01*
G37*
%LPD*%
%LPC*%
G36*
X801282Y460767D02*
X801282Y460767D01*
X798108Y462082D01*
X795678Y464512D01*
X794363Y467686D01*
X794363Y483314D01*
X795678Y486488D01*
X798108Y488918D01*
X801282Y490233D01*
X804718Y490233D01*
X807892Y488918D01*
X810322Y486488D01*
X811637Y483314D01*
X811637Y467686D01*
X810322Y464512D01*
X807892Y462082D01*
X804718Y460767D01*
X801282Y460767D01*
G37*
%LPD*%
%LPC*%
G36*
X473082Y424567D02*
X473082Y424567D01*
X469908Y425882D01*
X467478Y428312D01*
X466163Y431486D01*
X466163Y447114D01*
X467478Y450288D01*
X469908Y452718D01*
X473082Y454033D01*
X476518Y454033D01*
X479692Y452718D01*
X482122Y450288D01*
X483437Y447114D01*
X483437Y431486D01*
X482122Y428312D01*
X479692Y425882D01*
X476518Y424567D01*
X473082Y424567D01*
G37*
%LPD*%
%LPC*%
G36*
X676282Y424567D02*
X676282Y424567D01*
X673108Y425882D01*
X670678Y428312D01*
X669363Y431486D01*
X669363Y447114D01*
X670678Y450288D01*
X673108Y452718D01*
X676282Y454033D01*
X679718Y454033D01*
X682892Y452718D01*
X685322Y450288D01*
X686637Y447114D01*
X686637Y431486D01*
X685322Y428312D01*
X682892Y425882D01*
X679718Y424567D01*
X676282Y424567D01*
G37*
%LPD*%
%LPC*%
G36*
X471082Y460767D02*
X471082Y460767D01*
X467908Y462082D01*
X465478Y464512D01*
X464163Y467686D01*
X464163Y483314D01*
X465478Y486488D01*
X467908Y488918D01*
X471082Y490233D01*
X474518Y490233D01*
X477692Y488918D01*
X480122Y486488D01*
X481437Y483314D01*
X481437Y467686D01*
X480122Y464512D01*
X477692Y462082D01*
X474518Y460767D01*
X471082Y460767D01*
G37*
%LPD*%
%LPC*%
G36*
X701682Y424567D02*
X701682Y424567D01*
X698508Y425882D01*
X696078Y428312D01*
X694763Y431486D01*
X694763Y447114D01*
X696078Y450288D01*
X698508Y452718D01*
X701682Y454033D01*
X705118Y454033D01*
X708292Y452718D01*
X710722Y450288D01*
X712037Y447114D01*
X712037Y431486D01*
X710722Y428312D01*
X708292Y425882D01*
X705118Y424567D01*
X701682Y424567D01*
G37*
%LPD*%
%LPC*%
G36*
X828682Y424567D02*
X828682Y424567D01*
X825508Y425882D01*
X823078Y428312D01*
X821763Y431486D01*
X821763Y447114D01*
X823078Y450288D01*
X825508Y452718D01*
X828682Y454033D01*
X832118Y454033D01*
X835292Y452718D01*
X837722Y450288D01*
X839037Y447114D01*
X839037Y431486D01*
X837722Y428312D01*
X835292Y425882D01*
X832118Y424567D01*
X828682Y424567D01*
G37*
%LPD*%
%LPC*%
G36*
X727082Y424567D02*
X727082Y424567D01*
X723908Y425882D01*
X721478Y428312D01*
X720163Y431486D01*
X720163Y447114D01*
X721478Y450288D01*
X723908Y452718D01*
X727082Y454033D01*
X730518Y454033D01*
X733692Y452718D01*
X736122Y450288D01*
X737437Y447114D01*
X737437Y431486D01*
X736122Y428312D01*
X733692Y425882D01*
X730518Y424567D01*
X727082Y424567D01*
G37*
%LPD*%
%LPC*%
G36*
X572682Y460767D02*
X572682Y460767D01*
X569508Y462082D01*
X567078Y464512D01*
X565763Y467686D01*
X565763Y483314D01*
X567078Y486488D01*
X569508Y488918D01*
X572682Y490233D01*
X576118Y490233D01*
X579292Y488918D01*
X581722Y486488D01*
X583037Y483314D01*
X583037Y467686D01*
X581722Y464512D01*
X579292Y462082D01*
X576118Y460767D01*
X572682Y460767D01*
G37*
%LPD*%
%LPC*%
G36*
X852082Y460767D02*
X852082Y460767D01*
X848908Y462082D01*
X846478Y464512D01*
X845163Y467686D01*
X845163Y483314D01*
X846478Y486488D01*
X848908Y488918D01*
X852082Y490233D01*
X855518Y490233D01*
X858692Y488918D01*
X861122Y486488D01*
X862437Y483314D01*
X862437Y467686D01*
X861122Y464512D01*
X858692Y462082D01*
X855518Y460767D01*
X852082Y460767D01*
G37*
%LPD*%
%LPC*%
G36*
X826682Y460767D02*
X826682Y460767D01*
X823508Y462082D01*
X821078Y464512D01*
X819763Y467686D01*
X819763Y483314D01*
X821078Y486488D01*
X823508Y488918D01*
X826682Y490233D01*
X830118Y490233D01*
X833292Y488918D01*
X835722Y486488D01*
X837037Y483314D01*
X837037Y467686D01*
X835722Y464512D01*
X833292Y462082D01*
X830118Y460767D01*
X826682Y460767D01*
G37*
%LPD*%
%LPC*%
G36*
X420282Y460767D02*
X420282Y460767D01*
X417108Y462082D01*
X414678Y464512D01*
X413363Y467686D01*
X413363Y483314D01*
X414678Y486488D01*
X417108Y488918D01*
X420282Y490233D01*
X423718Y490233D01*
X426892Y488918D01*
X429322Y486488D01*
X430637Y483314D01*
X430637Y467686D01*
X429322Y464512D01*
X426892Y462082D01*
X423718Y460767D01*
X420282Y460767D01*
G37*
%LPD*%
%LPC*%
G36*
X523882Y424567D02*
X523882Y424567D01*
X520708Y425882D01*
X518278Y428312D01*
X516963Y431486D01*
X516963Y447114D01*
X518278Y450288D01*
X520708Y452718D01*
X523882Y454033D01*
X527318Y454033D01*
X530492Y452718D01*
X532922Y450288D01*
X534237Y447114D01*
X534237Y431486D01*
X532922Y428312D01*
X530492Y425882D01*
X527318Y424567D01*
X523882Y424567D01*
G37*
%LPD*%
%LPC*%
G36*
X445682Y460767D02*
X445682Y460767D01*
X442508Y462082D01*
X440078Y464512D01*
X438763Y467686D01*
X438763Y483314D01*
X440078Y486488D01*
X442508Y488918D01*
X445682Y490233D01*
X449118Y490233D01*
X452292Y488918D01*
X454722Y486488D01*
X456037Y483314D01*
X456037Y467686D01*
X454722Y464512D01*
X452292Y462082D01*
X449118Y460767D01*
X445682Y460767D01*
G37*
%LPD*%
%LPC*%
G36*
X521882Y460767D02*
X521882Y460767D01*
X518708Y462082D01*
X516278Y464512D01*
X514963Y467686D01*
X514963Y483314D01*
X516278Y486488D01*
X518708Y488918D01*
X521882Y490233D01*
X525318Y490233D01*
X528492Y488918D01*
X530922Y486488D01*
X532237Y483314D01*
X532237Y467686D01*
X530922Y464512D01*
X528492Y462082D01*
X525318Y460767D01*
X521882Y460767D01*
G37*
%LPD*%
%LPC*%
G36*
X879482Y424567D02*
X879482Y424567D01*
X876308Y425882D01*
X873878Y428312D01*
X872563Y431486D01*
X872563Y447114D01*
X873878Y450288D01*
X876308Y452718D01*
X879482Y454033D01*
X882918Y454033D01*
X886092Y452718D01*
X888522Y450288D01*
X889837Y447114D01*
X889837Y431486D01*
X888522Y428312D01*
X886092Y425882D01*
X882918Y424567D01*
X879482Y424567D01*
G37*
%LPD*%
%LPC*%
G36*
X498482Y424567D02*
X498482Y424567D01*
X495308Y425882D01*
X492878Y428312D01*
X491563Y431486D01*
X491563Y447114D01*
X492878Y450288D01*
X495308Y452718D01*
X498482Y454033D01*
X501918Y454033D01*
X505092Y452718D01*
X507522Y450288D01*
X508837Y447114D01*
X508837Y431486D01*
X507522Y428312D01*
X505092Y425882D01*
X501918Y424567D01*
X498482Y424567D01*
G37*
%LPD*%
%LPC*%
G36*
X854082Y424567D02*
X854082Y424567D01*
X850908Y425882D01*
X848478Y428312D01*
X847163Y431486D01*
X847163Y447114D01*
X848478Y450288D01*
X850908Y452718D01*
X854082Y454033D01*
X857518Y454033D01*
X860692Y452718D01*
X863122Y450288D01*
X864437Y447114D01*
X864437Y431486D01*
X863122Y428312D01*
X860692Y425882D01*
X857518Y424567D01*
X854082Y424567D01*
G37*
%LPD*%
%LPC*%
G36*
X547282Y460767D02*
X547282Y460767D01*
X544108Y462082D01*
X541678Y464512D01*
X540363Y467686D01*
X540363Y483314D01*
X541678Y486488D01*
X544108Y488918D01*
X547282Y490233D01*
X550718Y490233D01*
X553892Y488918D01*
X556322Y486488D01*
X557637Y483314D01*
X557637Y467686D01*
X556322Y464512D01*
X553892Y462082D01*
X550718Y460767D01*
X547282Y460767D01*
G37*
%LPD*%
%LPC*%
G36*
X777882Y424567D02*
X777882Y424567D01*
X774708Y425882D01*
X772278Y428312D01*
X770963Y431486D01*
X770963Y447114D01*
X772278Y450288D01*
X774708Y452718D01*
X777882Y454033D01*
X781318Y454033D01*
X784492Y452718D01*
X786922Y450288D01*
X788237Y447114D01*
X788237Y431486D01*
X786922Y428312D01*
X784492Y425882D01*
X781318Y424567D01*
X777882Y424567D01*
G37*
%LPD*%
%LPC*%
G36*
X1017491Y201739D02*
X1017491Y201739D01*
X1011539Y207691D01*
X1011539Y216109D01*
X1017491Y222061D01*
X1025909Y222061D01*
X1031861Y216109D01*
X1031861Y207691D01*
X1025909Y201739D01*
X1017491Y201739D01*
G37*
%LPD*%
%LPC*%
G36*
X992091Y227139D02*
X992091Y227139D01*
X986139Y233091D01*
X986139Y241509D01*
X992091Y247461D01*
X1000509Y247461D01*
X1006461Y241509D01*
X1006461Y233091D01*
X1000509Y227139D01*
X992091Y227139D01*
G37*
%LPD*%
%LPC*%
G36*
X1017491Y227139D02*
X1017491Y227139D01*
X1011539Y233091D01*
X1011539Y241509D01*
X1017491Y247461D01*
X1025909Y247461D01*
X1031861Y241509D01*
X1031861Y233091D01*
X1025909Y227139D01*
X1017491Y227139D01*
G37*
%LPD*%
%LPC*%
G36*
X14091Y252539D02*
X14091Y252539D01*
X8139Y258491D01*
X8139Y266909D01*
X14091Y272861D01*
X22509Y272861D01*
X28461Y266909D01*
X28461Y258491D01*
X22509Y252539D01*
X14091Y252539D01*
G37*
%LPD*%
%LPC*%
G36*
X801107Y353201D02*
X801107Y353201D01*
X795601Y358707D01*
X795601Y366493D01*
X801107Y371999D01*
X808893Y371999D01*
X814399Y366493D01*
X814399Y358707D01*
X808893Y353201D01*
X801107Y353201D01*
G37*
%LPD*%
%LPC*%
G36*
X851907Y353201D02*
X851907Y353201D01*
X846401Y358707D01*
X846401Y366493D01*
X851907Y371999D01*
X859693Y371999D01*
X865199Y366493D01*
X865199Y358707D01*
X859693Y353201D01*
X851907Y353201D01*
G37*
%LPD*%
%LPC*%
G36*
X521707Y353201D02*
X521707Y353201D01*
X516201Y358707D01*
X516201Y366493D01*
X521707Y371999D01*
X529493Y371999D01*
X534999Y366493D01*
X534999Y358707D01*
X529493Y353201D01*
X521707Y353201D01*
G37*
%LPD*%
%LPC*%
G36*
X826507Y353201D02*
X826507Y353201D01*
X821001Y358707D01*
X821001Y366493D01*
X826507Y371999D01*
X834293Y371999D01*
X839799Y366493D01*
X839799Y358707D01*
X834293Y353201D01*
X826507Y353201D01*
G37*
%LPD*%
%LPC*%
G36*
X470907Y353201D02*
X470907Y353201D01*
X465401Y358707D01*
X465401Y366493D01*
X470907Y371999D01*
X478693Y371999D01*
X484199Y366493D01*
X484199Y358707D01*
X478693Y353201D01*
X470907Y353201D01*
G37*
%LPD*%
%LPC*%
G36*
X750307Y353201D02*
X750307Y353201D01*
X744801Y358707D01*
X744801Y366493D01*
X750307Y371999D01*
X758093Y371999D01*
X763599Y366493D01*
X763599Y358707D01*
X758093Y353201D01*
X750307Y353201D01*
G37*
%LPD*%
%LPC*%
G36*
X674107Y378601D02*
X674107Y378601D01*
X668601Y384107D01*
X668601Y391893D01*
X674107Y397399D01*
X681893Y397399D01*
X687399Y391893D01*
X687399Y384107D01*
X681893Y378601D01*
X674107Y378601D01*
G37*
%LPD*%
%LPC*%
G36*
X826507Y378601D02*
X826507Y378601D01*
X821001Y384107D01*
X821001Y391893D01*
X826507Y397399D01*
X834293Y397399D01*
X839799Y391893D01*
X839799Y384107D01*
X834293Y378601D01*
X826507Y378601D01*
G37*
%LPD*%
%LPC*%
G36*
X877307Y378601D02*
X877307Y378601D01*
X871801Y384107D01*
X871801Y391893D01*
X877307Y397399D01*
X885093Y397399D01*
X890599Y391893D01*
X890599Y384107D01*
X885093Y378601D01*
X877307Y378601D01*
G37*
%LPD*%
%LPC*%
G36*
X496307Y378601D02*
X496307Y378601D01*
X490801Y384107D01*
X490801Y391893D01*
X496307Y397399D01*
X504093Y397399D01*
X509599Y391893D01*
X509599Y384107D01*
X504093Y378601D01*
X496307Y378601D01*
G37*
%LPD*%
%LPC*%
G36*
X699507Y378601D02*
X699507Y378601D01*
X694001Y384107D01*
X694001Y391893D01*
X699507Y397399D01*
X707293Y397399D01*
X712799Y391893D01*
X712799Y384107D01*
X707293Y378601D01*
X699507Y378601D01*
G37*
%LPD*%
%LPC*%
G36*
X648707Y378601D02*
X648707Y378601D01*
X643201Y384107D01*
X643201Y391893D01*
X648707Y397399D01*
X656493Y397399D01*
X661999Y391893D01*
X661999Y384107D01*
X656493Y378601D01*
X648707Y378601D01*
G37*
%LPD*%
%LPC*%
G36*
X470907Y378601D02*
X470907Y378601D01*
X465401Y384107D01*
X465401Y391893D01*
X470907Y397399D01*
X478693Y397399D01*
X484199Y391893D01*
X484199Y384107D01*
X478693Y378601D01*
X470907Y378601D01*
G37*
%LPD*%
%LPC*%
G36*
X851907Y378601D02*
X851907Y378601D01*
X846401Y384107D01*
X846401Y391893D01*
X851907Y397399D01*
X859693Y397399D01*
X865199Y391893D01*
X865199Y384107D01*
X859693Y378601D01*
X851907Y378601D01*
G37*
%LPD*%
%LPC*%
G36*
X521707Y378601D02*
X521707Y378601D01*
X516201Y384107D01*
X516201Y391893D01*
X521707Y397399D01*
X529493Y397399D01*
X534999Y391893D01*
X534999Y384107D01*
X529493Y378601D01*
X521707Y378601D01*
G37*
%LPD*%
%LPC*%
G36*
X775707Y353201D02*
X775707Y353201D01*
X770201Y358707D01*
X770201Y366493D01*
X775707Y371999D01*
X783493Y371999D01*
X788999Y366493D01*
X788999Y358707D01*
X783493Y353201D01*
X775707Y353201D01*
G37*
%LPD*%
%LPC*%
G36*
X623307Y353201D02*
X623307Y353201D01*
X617801Y358707D01*
X617801Y366493D01*
X623307Y371999D01*
X631093Y371999D01*
X636599Y366493D01*
X636599Y358707D01*
X631093Y353201D01*
X623307Y353201D01*
G37*
%LPD*%
%LPC*%
G36*
X724907Y378601D02*
X724907Y378601D01*
X719401Y384107D01*
X719401Y391893D01*
X724907Y397399D01*
X732693Y397399D01*
X738199Y391893D01*
X738199Y384107D01*
X732693Y378601D01*
X724907Y378601D01*
G37*
%LPD*%
%LPC*%
G36*
X775707Y378601D02*
X775707Y378601D01*
X770201Y384107D01*
X770201Y391893D01*
X775707Y397399D01*
X783493Y397399D01*
X788999Y391893D01*
X788999Y384107D01*
X783493Y378601D01*
X775707Y378601D01*
G37*
%LPD*%
%LPC*%
G36*
X648707Y353201D02*
X648707Y353201D01*
X643201Y358707D01*
X643201Y366493D01*
X648707Y371999D01*
X656493Y371999D01*
X661999Y366493D01*
X661999Y358707D01*
X656493Y353201D01*
X648707Y353201D01*
G37*
%LPD*%
%LPC*%
G36*
X547107Y353201D02*
X547107Y353201D01*
X541601Y358707D01*
X541601Y366493D01*
X547107Y371999D01*
X554893Y371999D01*
X560399Y366493D01*
X560399Y358707D01*
X554893Y353201D01*
X547107Y353201D01*
G37*
%LPD*%
%LPC*%
G36*
X572507Y353201D02*
X572507Y353201D01*
X567001Y358707D01*
X567001Y366493D01*
X572507Y371999D01*
X580293Y371999D01*
X585799Y366493D01*
X585799Y358707D01*
X580293Y353201D01*
X572507Y353201D01*
G37*
%LPD*%
%LPC*%
G36*
X674107Y353201D02*
X674107Y353201D01*
X668601Y358707D01*
X668601Y366493D01*
X674107Y371999D01*
X681893Y371999D01*
X687399Y366493D01*
X687399Y358707D01*
X681893Y353201D01*
X674107Y353201D01*
G37*
%LPD*%
%LPC*%
G36*
X724907Y353201D02*
X724907Y353201D01*
X719401Y358707D01*
X719401Y366493D01*
X724907Y371999D01*
X732693Y371999D01*
X738199Y366493D01*
X738199Y358707D01*
X732693Y353201D01*
X724907Y353201D01*
G37*
%LPD*%
G36*
X242118Y82746D02*
X242118Y82746D01*
X242237Y82753D01*
X242275Y82766D01*
X242316Y82771D01*
X242426Y82814D01*
X242539Y82851D01*
X242574Y82873D01*
X242611Y82888D01*
X242707Y82958D01*
X242808Y83021D01*
X242836Y83051D01*
X242869Y83074D01*
X242945Y83166D01*
X243026Y83253D01*
X243046Y83288D01*
X243071Y83319D01*
X243122Y83427D01*
X243180Y83531D01*
X243190Y83571D01*
X243207Y83607D01*
X243229Y83724D01*
X243259Y83839D01*
X243263Y83900D01*
X243267Y83920D01*
X243265Y83940D01*
X243269Y84000D01*
X243269Y89496D01*
X243254Y89614D01*
X243247Y89733D01*
X243234Y89771D01*
X243229Y89812D01*
X243186Y89922D01*
X243149Y90035D01*
X243127Y90070D01*
X243112Y90107D01*
X243043Y90203D01*
X242979Y90304D01*
X242949Y90332D01*
X242926Y90365D01*
X242834Y90441D01*
X242747Y90522D01*
X242712Y90542D01*
X242681Y90567D01*
X242573Y90618D01*
X242469Y90676D01*
X242429Y90686D01*
X242393Y90703D01*
X242276Y90725D01*
X242161Y90755D01*
X242101Y90759D01*
X242081Y90763D01*
X242060Y90761D01*
X242000Y90765D01*
X228852Y90765D01*
X228719Y90897D01*
X228641Y90958D01*
X228569Y91026D01*
X228516Y91055D01*
X228468Y91092D01*
X228377Y91132D01*
X228290Y91180D01*
X228232Y91195D01*
X228176Y91219D01*
X228078Y91234D01*
X227983Y91259D01*
X227883Y91265D01*
X227862Y91269D01*
X227850Y91267D01*
X227822Y91269D01*
X211000Y91269D01*
X210882Y91254D01*
X210763Y91247D01*
X210725Y91234D01*
X210684Y91229D01*
X210574Y91186D01*
X210461Y91149D01*
X210426Y91127D01*
X210389Y91112D01*
X210293Y91043D01*
X210192Y90979D01*
X210164Y90949D01*
X210131Y90926D01*
X210056Y90834D01*
X209974Y90747D01*
X209954Y90712D01*
X209929Y90681D01*
X209878Y90573D01*
X209820Y90469D01*
X209810Y90429D01*
X209793Y90393D01*
X209771Y90276D01*
X209741Y90161D01*
X209737Y90101D01*
X209733Y90081D01*
X209735Y90060D01*
X209731Y90000D01*
X209731Y84000D01*
X209746Y83882D01*
X209753Y83763D01*
X209766Y83725D01*
X209771Y83684D01*
X209814Y83574D01*
X209851Y83461D01*
X209873Y83426D01*
X209888Y83389D01*
X209958Y83293D01*
X210021Y83192D01*
X210051Y83164D01*
X210074Y83131D01*
X210166Y83056D01*
X210253Y82974D01*
X210288Y82954D01*
X210319Y82929D01*
X210427Y82878D01*
X210531Y82820D01*
X210571Y82810D01*
X210607Y82793D01*
X210724Y82771D01*
X210839Y82741D01*
X210900Y82737D01*
X210920Y82733D01*
X210940Y82735D01*
X211000Y82731D01*
X242000Y82731D01*
X242118Y82746D01*
G37*
G36*
X235118Y357746D02*
X235118Y357746D01*
X235237Y357753D01*
X235275Y357766D01*
X235316Y357771D01*
X235426Y357814D01*
X235539Y357851D01*
X235574Y357873D01*
X235611Y357888D01*
X235707Y357958D01*
X235808Y358021D01*
X235836Y358051D01*
X235869Y358074D01*
X235945Y358166D01*
X236026Y358253D01*
X236046Y358288D01*
X236071Y358319D01*
X236122Y358427D01*
X236180Y358531D01*
X236190Y358571D01*
X236207Y358607D01*
X236229Y358724D01*
X236259Y358839D01*
X236263Y358900D01*
X236267Y358920D01*
X236265Y358940D01*
X236269Y359000D01*
X236269Y364396D01*
X236254Y364514D01*
X236247Y364633D01*
X236234Y364671D01*
X236229Y364712D01*
X236186Y364822D01*
X236149Y364935D01*
X236127Y364970D01*
X236112Y365007D01*
X236043Y365103D01*
X235979Y365204D01*
X235949Y365232D01*
X235926Y365265D01*
X235834Y365341D01*
X235747Y365422D01*
X235712Y365442D01*
X235681Y365467D01*
X235573Y365518D01*
X235469Y365576D01*
X235429Y365586D01*
X235393Y365603D01*
X235276Y365625D01*
X235161Y365655D01*
X235101Y365659D01*
X235081Y365663D01*
X235060Y365661D01*
X235000Y365665D01*
X230952Y365665D01*
X229719Y366898D01*
X229641Y366958D01*
X229569Y367026D01*
X229516Y367055D01*
X229468Y367092D01*
X229377Y367132D01*
X229290Y367180D01*
X229232Y367195D01*
X229176Y367219D01*
X229078Y367234D01*
X228983Y367259D01*
X228883Y367265D01*
X228862Y367269D01*
X228850Y367267D01*
X228822Y367269D01*
X212000Y367269D01*
X211882Y367254D01*
X211763Y367247D01*
X211725Y367234D01*
X211684Y367229D01*
X211574Y367186D01*
X211461Y367149D01*
X211426Y367127D01*
X211389Y367112D01*
X211293Y367043D01*
X211192Y366979D01*
X211164Y366949D01*
X211131Y366926D01*
X211056Y366834D01*
X210974Y366747D01*
X210954Y366712D01*
X210929Y366681D01*
X210878Y366573D01*
X210820Y366469D01*
X210810Y366429D01*
X210793Y366393D01*
X210771Y366276D01*
X210741Y366161D01*
X210737Y366101D01*
X210733Y366081D01*
X210735Y366060D01*
X210731Y366000D01*
X210731Y359000D01*
X210746Y358882D01*
X210753Y358763D01*
X210766Y358725D01*
X210771Y358684D01*
X210814Y358574D01*
X210851Y358461D01*
X210873Y358426D01*
X210888Y358389D01*
X210958Y358293D01*
X211021Y358192D01*
X211051Y358164D01*
X211074Y358131D01*
X211166Y358056D01*
X211253Y357974D01*
X211288Y357954D01*
X211319Y357929D01*
X211427Y357878D01*
X211531Y357820D01*
X211571Y357810D01*
X211607Y357793D01*
X211724Y357771D01*
X211839Y357741D01*
X211900Y357737D01*
X211920Y357733D01*
X211940Y357735D01*
X212000Y357731D01*
X235000Y357731D01*
X235118Y357746D01*
G37*
%LPC*%
G36*
X189561Y100061D02*
X189561Y100061D01*
X189561Y109301D01*
X202698Y109301D01*
X203433Y108996D01*
X203996Y108433D01*
X204301Y107698D01*
X204301Y100061D01*
X189561Y100061D01*
G37*
%LPD*%
%LPC*%
G36*
X186861Y373861D02*
X186861Y373861D01*
X186861Y383101D01*
X199998Y383101D01*
X200733Y382796D01*
X201296Y382233D01*
X201601Y381498D01*
X201601Y373861D01*
X186861Y373861D01*
G37*
%LPD*%
%LPC*%
G36*
X170599Y373861D02*
X170599Y373861D01*
X170599Y381498D01*
X170904Y382233D01*
X171467Y382796D01*
X172202Y383101D01*
X185339Y383101D01*
X185339Y373861D01*
X170599Y373861D01*
G37*
%LPD*%
%LPC*%
G36*
X173299Y100061D02*
X173299Y100061D01*
X173299Y107698D01*
X173604Y108433D01*
X174167Y108996D01*
X174902Y109301D01*
X188039Y109301D01*
X188039Y100061D01*
X173299Y100061D01*
G37*
%LPD*%
%LPC*%
G36*
X186861Y363099D02*
X186861Y363099D01*
X186861Y372339D01*
X201601Y372339D01*
X201601Y364702D01*
X201296Y363967D01*
X200733Y363404D01*
X199998Y363099D01*
X186861Y363099D01*
G37*
%LPD*%
%LPC*%
G36*
X189561Y89299D02*
X189561Y89299D01*
X189561Y98539D01*
X204301Y98539D01*
X204301Y90902D01*
X203996Y90167D01*
X203433Y89604D01*
X202698Y89299D01*
X189561Y89299D01*
G37*
%LPD*%
%LPC*%
G36*
X174902Y89299D02*
X174902Y89299D01*
X174167Y89604D01*
X173604Y90167D01*
X173299Y90902D01*
X173299Y98539D01*
X188039Y98539D01*
X188039Y89299D01*
X174902Y89299D01*
G37*
%LPD*%
%LPC*%
G36*
X172202Y363099D02*
X172202Y363099D01*
X171467Y363404D01*
X170904Y363967D01*
X170599Y364702D01*
X170599Y372339D01*
X185339Y372339D01*
X185339Y363099D01*
X172202Y363099D01*
G37*
%LPD*%
%LPC*%
G36*
X169761Y218761D02*
X169761Y218761D01*
X169761Y227001D01*
X182398Y227001D01*
X183133Y226696D01*
X183696Y226133D01*
X184001Y225398D01*
X184001Y218761D01*
X169761Y218761D01*
G37*
%LPD*%
%LPC*%
G36*
X198961Y452761D02*
X198961Y452761D01*
X198961Y461001D01*
X211598Y461001D01*
X212333Y460696D01*
X212896Y460133D01*
X213201Y459398D01*
X213201Y452761D01*
X198961Y452761D01*
G37*
%LPD*%
%LPC*%
G36*
X183199Y452761D02*
X183199Y452761D01*
X183199Y459398D01*
X183504Y460133D01*
X184067Y460696D01*
X184802Y461001D01*
X197439Y461001D01*
X197439Y452761D01*
X183199Y452761D01*
G37*
%LPD*%
%LPC*%
G36*
X153999Y218761D02*
X153999Y218761D01*
X153999Y225398D01*
X154304Y226133D01*
X154867Y226696D01*
X155602Y227001D01*
X168239Y227001D01*
X168239Y218761D01*
X153999Y218761D01*
G37*
%LPD*%
%LPC*%
G36*
X198961Y442999D02*
X198961Y442999D01*
X198961Y451239D01*
X213201Y451239D01*
X213201Y444602D01*
X212896Y443867D01*
X212333Y443304D01*
X211598Y442999D01*
X198961Y442999D01*
G37*
%LPD*%
%LPC*%
G36*
X169761Y208999D02*
X169761Y208999D01*
X169761Y217239D01*
X184001Y217239D01*
X184001Y210602D01*
X183696Y209867D01*
X183133Y209304D01*
X182398Y208999D01*
X169761Y208999D01*
G37*
%LPD*%
%LPC*%
G36*
X155602Y208999D02*
X155602Y208999D01*
X154867Y209304D01*
X154304Y209867D01*
X153999Y210602D01*
X153999Y217239D01*
X168239Y217239D01*
X168239Y208999D01*
X155602Y208999D01*
G37*
%LPD*%
%LPC*%
G36*
X184802Y442999D02*
X184802Y442999D01*
X184067Y443304D01*
X183504Y443867D01*
X183199Y444602D01*
X183199Y451239D01*
X197439Y451239D01*
X197439Y442999D01*
X184802Y442999D01*
G37*
%LPD*%
%LPC*%
G36*
X879961Y476261D02*
X879961Y476261D01*
X879961Y489693D01*
X879998Y489693D01*
X881562Y489382D01*
X883035Y488771D01*
X884361Y487885D01*
X885489Y486757D01*
X886375Y485431D01*
X886986Y483958D01*
X887297Y482393D01*
X887297Y476261D01*
X879961Y476261D01*
G37*
%LPD*%
%LPC*%
G36*
X498961Y476261D02*
X498961Y476261D01*
X498961Y489693D01*
X498998Y489693D01*
X500562Y489382D01*
X502035Y488771D01*
X503361Y487885D01*
X504489Y486757D01*
X505375Y485431D01*
X505986Y483958D01*
X506297Y482393D01*
X506297Y476261D01*
X498961Y476261D01*
G37*
%LPD*%
%LPC*%
G36*
X805761Y440061D02*
X805761Y440061D01*
X805761Y453493D01*
X805798Y453493D01*
X807362Y453182D01*
X808835Y452571D01*
X810161Y451685D01*
X811289Y450557D01*
X812175Y449231D01*
X812786Y447758D01*
X813097Y446193D01*
X813097Y440061D01*
X805761Y440061D01*
G37*
%LPD*%
%LPC*%
G36*
X754961Y440061D02*
X754961Y440061D01*
X754961Y453493D01*
X754998Y453493D01*
X756562Y453182D01*
X758035Y452571D01*
X759361Y451685D01*
X760489Y450557D01*
X761375Y449231D01*
X761986Y447758D01*
X762297Y446193D01*
X762297Y440061D01*
X754961Y440061D01*
G37*
%LPD*%
%LPC*%
G36*
X627961Y440061D02*
X627961Y440061D01*
X627961Y453493D01*
X627998Y453493D01*
X629562Y453182D01*
X631035Y452571D01*
X632361Y451685D01*
X633489Y450557D01*
X634375Y449231D01*
X634986Y447758D01*
X635297Y446193D01*
X635297Y440061D01*
X627961Y440061D01*
G37*
%LPD*%
%LPC*%
G36*
X551761Y440061D02*
X551761Y440061D01*
X551761Y453493D01*
X551798Y453493D01*
X553362Y453182D01*
X554835Y452571D01*
X556161Y451685D01*
X557289Y450557D01*
X558175Y449231D01*
X558786Y447758D01*
X559097Y446193D01*
X559097Y440061D01*
X551761Y440061D01*
G37*
%LPD*%
%LPC*%
G36*
X702161Y476261D02*
X702161Y476261D01*
X702161Y489693D01*
X702198Y489693D01*
X703762Y489382D01*
X705235Y488771D01*
X706561Y487885D01*
X707689Y486757D01*
X708575Y485431D01*
X709186Y483958D01*
X709497Y482393D01*
X709497Y476261D01*
X702161Y476261D01*
G37*
%LPD*%
%LPC*%
G36*
X450161Y440061D02*
X450161Y440061D01*
X450161Y453493D01*
X450198Y453493D01*
X451762Y453182D01*
X453235Y452571D01*
X454561Y451685D01*
X455689Y450557D01*
X456575Y449231D01*
X457186Y447758D01*
X457497Y446193D01*
X457497Y440061D01*
X450161Y440061D01*
G37*
%LPD*%
%LPC*%
G36*
X498961Y461307D02*
X498961Y461307D01*
X498961Y474739D01*
X506297Y474739D01*
X506297Y468607D01*
X506108Y467659D01*
X506033Y467279D01*
X505986Y467042D01*
X505375Y465569D01*
X504489Y464243D01*
X503361Y463115D01*
X502035Y462229D01*
X500562Y461618D01*
X498997Y461307D01*
X498961Y461307D01*
G37*
%LPD*%
%LPC*%
G36*
X879961Y461307D02*
X879961Y461307D01*
X879961Y474739D01*
X887297Y474739D01*
X887297Y468607D01*
X887108Y467659D01*
X887033Y467279D01*
X886986Y467042D01*
X886375Y465569D01*
X885489Y464243D01*
X884361Y463115D01*
X883035Y462229D01*
X881562Y461618D01*
X879997Y461307D01*
X879961Y461307D01*
G37*
%LPD*%
%LPC*%
G36*
X702161Y461307D02*
X702161Y461307D01*
X702161Y474739D01*
X709497Y474739D01*
X709497Y468607D01*
X709308Y467659D01*
X709233Y467279D01*
X709186Y467042D01*
X708575Y465569D01*
X707689Y464243D01*
X706561Y463115D01*
X705235Y462229D01*
X703762Y461618D01*
X702197Y461307D01*
X702161Y461307D01*
G37*
%LPD*%
%LPC*%
G36*
X754961Y425107D02*
X754961Y425107D01*
X754961Y438539D01*
X762297Y438539D01*
X762297Y432407D01*
X762275Y432296D01*
X762048Y431155D01*
X761986Y430842D01*
X761375Y429369D01*
X760489Y428043D01*
X759361Y426915D01*
X758035Y426029D01*
X756562Y425418D01*
X754997Y425107D01*
X754961Y425107D01*
G37*
%LPD*%
%LPC*%
G36*
X627961Y425107D02*
X627961Y425107D01*
X627961Y438539D01*
X635297Y438539D01*
X635297Y432407D01*
X635275Y432296D01*
X635048Y431155D01*
X634986Y430842D01*
X634375Y429369D01*
X633489Y428043D01*
X632361Y426915D01*
X631035Y426029D01*
X629562Y425418D01*
X627997Y425107D01*
X627961Y425107D01*
G37*
%LPD*%
%LPC*%
G36*
X450161Y425107D02*
X450161Y425107D01*
X450161Y438539D01*
X457497Y438539D01*
X457497Y432407D01*
X457475Y432296D01*
X457248Y431155D01*
X457186Y430842D01*
X456575Y429369D01*
X455689Y428043D01*
X454561Y426915D01*
X453235Y426029D01*
X451762Y425418D01*
X450197Y425107D01*
X450161Y425107D01*
G37*
%LPD*%
%LPC*%
G36*
X551761Y425107D02*
X551761Y425107D01*
X551761Y438539D01*
X559097Y438539D01*
X559097Y432407D01*
X559075Y432296D01*
X558848Y431155D01*
X558786Y430842D01*
X558175Y429369D01*
X557289Y428043D01*
X556161Y426915D01*
X554835Y426029D01*
X553362Y425418D01*
X551797Y425107D01*
X551761Y425107D01*
G37*
%LPD*%
%LPC*%
G36*
X805761Y425107D02*
X805761Y425107D01*
X805761Y438539D01*
X813097Y438539D01*
X813097Y432407D01*
X813075Y432296D01*
X812848Y431155D01*
X812786Y430842D01*
X812175Y429369D01*
X811289Y428043D01*
X810161Y426915D01*
X808835Y426029D01*
X807362Y425418D01*
X805797Y425107D01*
X805761Y425107D01*
G37*
%LPD*%
%LPC*%
G36*
X871103Y476261D02*
X871103Y476261D01*
X871103Y482393D01*
X871245Y483104D01*
X871320Y483484D01*
X871320Y483485D01*
X871414Y483958D01*
X872025Y485431D01*
X872911Y486757D01*
X874039Y487885D01*
X875365Y488771D01*
X876838Y489382D01*
X878403Y489693D01*
X878439Y489693D01*
X878439Y476261D01*
X871103Y476261D01*
G37*
%LPD*%
%LPC*%
G36*
X693303Y476261D02*
X693303Y476261D01*
X693303Y482393D01*
X693445Y483104D01*
X693520Y483484D01*
X693520Y483485D01*
X693614Y483958D01*
X694225Y485431D01*
X695111Y486757D01*
X696239Y487885D01*
X697565Y488771D01*
X699038Y489382D01*
X700603Y489693D01*
X700639Y489693D01*
X700639Y476261D01*
X693303Y476261D01*
G37*
%LPD*%
%LPC*%
G36*
X490103Y476261D02*
X490103Y476261D01*
X490103Y482393D01*
X490245Y483104D01*
X490320Y483484D01*
X490320Y483485D01*
X490414Y483958D01*
X491025Y485431D01*
X491911Y486757D01*
X493039Y487885D01*
X494365Y488771D01*
X495838Y489382D01*
X497403Y489693D01*
X497439Y489693D01*
X497439Y476261D01*
X490103Y476261D01*
G37*
%LPD*%
%LPC*%
G36*
X619103Y440061D02*
X619103Y440061D01*
X619103Y446193D01*
X619184Y446600D01*
X619260Y446980D01*
X619260Y446981D01*
X619414Y447758D01*
X620025Y449231D01*
X620911Y450557D01*
X622039Y451685D01*
X623365Y452571D01*
X624838Y453182D01*
X626403Y453493D01*
X626439Y453493D01*
X626439Y440061D01*
X619103Y440061D01*
G37*
%LPD*%
%LPC*%
G36*
X441303Y440061D02*
X441303Y440061D01*
X441303Y446193D01*
X441384Y446600D01*
X441460Y446980D01*
X441460Y446981D01*
X441614Y447758D01*
X442225Y449231D01*
X443111Y450557D01*
X444239Y451685D01*
X445565Y452571D01*
X447038Y453182D01*
X448603Y453493D01*
X448639Y453493D01*
X448639Y440061D01*
X441303Y440061D01*
G37*
%LPD*%
%LPC*%
G36*
X542903Y440061D02*
X542903Y440061D01*
X542903Y446193D01*
X542984Y446600D01*
X543060Y446980D01*
X543060Y446981D01*
X543214Y447758D01*
X543825Y449231D01*
X544711Y450557D01*
X545839Y451685D01*
X547165Y452571D01*
X548638Y453182D01*
X550203Y453493D01*
X550239Y453493D01*
X550239Y440061D01*
X542903Y440061D01*
G37*
%LPD*%
%LPC*%
G36*
X746103Y440061D02*
X746103Y440061D01*
X746103Y446193D01*
X746184Y446600D01*
X746260Y446980D01*
X746260Y446981D01*
X746414Y447758D01*
X747025Y449231D01*
X747911Y450557D01*
X749039Y451685D01*
X750365Y452571D01*
X751838Y453182D01*
X753403Y453493D01*
X753439Y453493D01*
X753439Y440061D01*
X746103Y440061D01*
G37*
%LPD*%
%LPC*%
G36*
X796903Y440061D02*
X796903Y440061D01*
X796903Y446193D01*
X796984Y446600D01*
X797060Y446980D01*
X797060Y446981D01*
X797214Y447758D01*
X797825Y449231D01*
X798711Y450557D01*
X799839Y451685D01*
X801165Y452571D01*
X802638Y453182D01*
X804203Y453493D01*
X804239Y453493D01*
X804239Y440061D01*
X796903Y440061D01*
G37*
%LPD*%
%LPC*%
G36*
X448603Y425107D02*
X448603Y425107D01*
X447038Y425418D01*
X445565Y426029D01*
X444239Y426915D01*
X443111Y428043D01*
X442225Y429369D01*
X441614Y430842D01*
X441303Y432407D01*
X441303Y438539D01*
X448639Y438539D01*
X448639Y425107D01*
X448603Y425107D01*
G37*
%LPD*%
%LPC*%
G36*
X700603Y461307D02*
X700603Y461307D01*
X699038Y461618D01*
X697565Y462229D01*
X696239Y463115D01*
X695111Y464243D01*
X694225Y465569D01*
X693614Y467042D01*
X693303Y468607D01*
X693303Y474739D01*
X700639Y474739D01*
X700639Y461307D01*
X700603Y461307D01*
G37*
%LPD*%
%LPC*%
G36*
X550203Y425107D02*
X550203Y425107D01*
X548638Y425418D01*
X547165Y426029D01*
X545839Y426915D01*
X544711Y428043D01*
X543825Y429369D01*
X543214Y430842D01*
X542903Y432407D01*
X542903Y438539D01*
X550239Y438539D01*
X550239Y425107D01*
X550203Y425107D01*
G37*
%LPD*%
%LPC*%
G36*
X753403Y425107D02*
X753403Y425107D01*
X751838Y425418D01*
X750365Y426029D01*
X749039Y426915D01*
X747911Y428043D01*
X747025Y429369D01*
X746414Y430842D01*
X746103Y432407D01*
X746103Y438539D01*
X753439Y438539D01*
X753439Y425107D01*
X753403Y425107D01*
G37*
%LPD*%
%LPC*%
G36*
X626403Y425107D02*
X626403Y425107D01*
X624838Y425418D01*
X623365Y426029D01*
X622039Y426915D01*
X620911Y428043D01*
X620025Y429369D01*
X619414Y430842D01*
X619103Y432407D01*
X619103Y438539D01*
X626439Y438539D01*
X626439Y425107D01*
X626403Y425107D01*
G37*
%LPD*%
%LPC*%
G36*
X804203Y425107D02*
X804203Y425107D01*
X802638Y425418D01*
X801165Y426029D01*
X799839Y426915D01*
X798711Y428043D01*
X797825Y429369D01*
X797214Y430842D01*
X796903Y432407D01*
X796903Y438539D01*
X804239Y438539D01*
X804239Y425107D01*
X804203Y425107D01*
G37*
%LPD*%
%LPC*%
G36*
X878403Y461307D02*
X878403Y461307D01*
X876838Y461618D01*
X875365Y462229D01*
X874039Y463115D01*
X872911Y464243D01*
X872025Y465569D01*
X871414Y467042D01*
X871103Y468607D01*
X871103Y474739D01*
X878439Y474739D01*
X878439Y461307D01*
X878403Y461307D01*
G37*
%LPD*%
%LPC*%
G36*
X497403Y461307D02*
X497403Y461307D01*
X495838Y461618D01*
X494365Y462229D01*
X493039Y463115D01*
X491911Y464243D01*
X491025Y465569D01*
X490414Y467042D01*
X490103Y468607D01*
X490103Y474739D01*
X497439Y474739D01*
X497439Y461307D01*
X497403Y461307D01*
G37*
%LPD*%
%LPC*%
G36*
X1022461Y288861D02*
X1022461Y288861D01*
X1022461Y297721D01*
X1025685Y297721D01*
X1031321Y292085D01*
X1031321Y288861D01*
X1022461Y288861D01*
G37*
%LPD*%
%LPC*%
G36*
X997061Y288861D02*
X997061Y288861D01*
X997061Y297721D01*
X1000285Y297721D01*
X1005921Y292085D01*
X1005921Y288861D01*
X997061Y288861D01*
G37*
%LPD*%
%LPC*%
G36*
X44461Y288861D02*
X44461Y288861D01*
X44461Y297721D01*
X47685Y297721D01*
X53321Y292085D01*
X53321Y288861D01*
X44461Y288861D01*
G37*
%LPD*%
%LPC*%
G36*
X19061Y288861D02*
X19061Y288861D01*
X19061Y297721D01*
X22285Y297721D01*
X27921Y292085D01*
X27921Y288861D01*
X19061Y288861D01*
G37*
%LPD*%
%LPC*%
G36*
X1012079Y288861D02*
X1012079Y288861D01*
X1012079Y292085D01*
X1017715Y297721D01*
X1020939Y297721D01*
X1020939Y288861D01*
X1012079Y288861D01*
G37*
%LPD*%
%LPC*%
G36*
X44461Y278479D02*
X44461Y278479D01*
X44461Y287339D01*
X53321Y287339D01*
X53321Y284115D01*
X47685Y278479D01*
X44461Y278479D01*
G37*
%LPD*%
%LPC*%
G36*
X1022461Y278479D02*
X1022461Y278479D01*
X1022461Y287339D01*
X1031321Y287339D01*
X1031321Y284115D01*
X1025685Y278479D01*
X1022461Y278479D01*
G37*
%LPD*%
%LPC*%
G36*
X34079Y288861D02*
X34079Y288861D01*
X34079Y292085D01*
X39715Y297721D01*
X42939Y297721D01*
X42939Y288861D01*
X34079Y288861D01*
G37*
%LPD*%
%LPC*%
G36*
X8679Y288861D02*
X8679Y288861D01*
X8679Y292085D01*
X14315Y297721D01*
X17539Y297721D01*
X17539Y288861D01*
X8679Y288861D01*
G37*
%LPD*%
%LPC*%
G36*
X19061Y278479D02*
X19061Y278479D01*
X19061Y287339D01*
X27921Y287339D01*
X27921Y284115D01*
X22285Y278479D01*
X19061Y278479D01*
G37*
%LPD*%
%LPC*%
G36*
X986679Y288861D02*
X986679Y288861D01*
X986679Y292085D01*
X992315Y297721D01*
X995539Y297721D01*
X995539Y288861D01*
X986679Y288861D01*
G37*
%LPD*%
%LPC*%
G36*
X14315Y278479D02*
X14315Y278479D01*
X8679Y284115D01*
X8679Y287339D01*
X17539Y287339D01*
X17539Y278479D01*
X14315Y278479D01*
G37*
%LPD*%
%LPC*%
G36*
X1017715Y278479D02*
X1017715Y278479D01*
X1012079Y284115D01*
X1012079Y287339D01*
X1020939Y287339D01*
X1020939Y278479D01*
X1017715Y278479D01*
G37*
%LPD*%
%LPC*%
G36*
X39715Y278479D02*
X39715Y278479D01*
X34079Y284115D01*
X34079Y287339D01*
X42939Y287339D01*
X42939Y278479D01*
X39715Y278479D01*
G37*
%LPD*%
%LPC*%
G36*
X447861Y57761D02*
X447861Y57761D01*
X447861Y66501D01*
X448036Y66501D01*
X449871Y66136D01*
X451600Y65419D01*
X453156Y64380D01*
X454480Y63056D01*
X455519Y61500D01*
X456236Y59771D01*
X456601Y57936D01*
X456601Y57761D01*
X447861Y57761D01*
G37*
%LPD*%
%LPC*%
G36*
X437599Y57761D02*
X437599Y57761D01*
X437599Y57936D01*
X437685Y58365D01*
X437760Y58745D01*
X437912Y59506D01*
X437964Y59771D01*
X438681Y61500D01*
X439720Y63056D01*
X441044Y64380D01*
X442600Y65419D01*
X444329Y66136D01*
X446164Y66501D01*
X446339Y66501D01*
X446339Y57761D01*
X437599Y57761D01*
G37*
%LPD*%
%LPC*%
G36*
X447861Y47499D02*
X447861Y47499D01*
X447861Y56239D01*
X456601Y56239D01*
X456601Y56064D01*
X456558Y55848D01*
X456482Y55468D01*
X456331Y54708D01*
X456331Y54707D01*
X456255Y54327D01*
X456236Y54229D01*
X455519Y52500D01*
X454480Y50944D01*
X453156Y49620D01*
X451600Y48581D01*
X449871Y47864D01*
X448036Y47499D01*
X447861Y47499D01*
G37*
%LPD*%
%LPC*%
G36*
X446164Y47499D02*
X446164Y47499D01*
X444329Y47864D01*
X442600Y48581D01*
X441044Y49620D01*
X439720Y50944D01*
X438681Y52500D01*
X437964Y54229D01*
X437599Y56064D01*
X437599Y56239D01*
X446339Y56239D01*
X446339Y47499D01*
X446164Y47499D01*
G37*
%LPD*%
%LPC*%
G36*
X450161Y388761D02*
X450161Y388761D01*
X450161Y396859D01*
X453069Y396859D01*
X458259Y391669D01*
X458259Y388761D01*
X450161Y388761D01*
G37*
%LPD*%
%LPC*%
G36*
X754961Y388761D02*
X754961Y388761D01*
X754961Y396859D01*
X757869Y396859D01*
X763059Y391669D01*
X763059Y388761D01*
X754961Y388761D01*
G37*
%LPD*%
%LPC*%
G36*
X627961Y388761D02*
X627961Y388761D01*
X627961Y396859D01*
X630869Y396859D01*
X636059Y391669D01*
X636059Y388761D01*
X627961Y388761D01*
G37*
%LPD*%
%LPC*%
G36*
X551761Y388761D02*
X551761Y388761D01*
X551761Y396859D01*
X554669Y396859D01*
X559859Y391669D01*
X559859Y388761D01*
X551761Y388761D01*
G37*
%LPD*%
%LPC*%
G36*
X805761Y388761D02*
X805761Y388761D01*
X805761Y396859D01*
X808669Y396859D01*
X813859Y391669D01*
X813859Y388761D01*
X805761Y388761D01*
G37*
%LPD*%
%LPC*%
G36*
X704161Y363361D02*
X704161Y363361D01*
X704161Y371459D01*
X707069Y371459D01*
X712259Y366269D01*
X712259Y363361D01*
X704161Y363361D01*
G37*
%LPD*%
%LPC*%
G36*
X881961Y363361D02*
X881961Y363361D01*
X881961Y371459D01*
X884869Y371459D01*
X890059Y366269D01*
X890059Y363361D01*
X881961Y363361D01*
G37*
%LPD*%
%LPC*%
G36*
X500961Y363361D02*
X500961Y363361D01*
X500961Y371459D01*
X503869Y371459D01*
X509059Y366269D01*
X509059Y363361D01*
X500961Y363361D01*
G37*
%LPD*%
%LPC*%
G36*
X694541Y363361D02*
X694541Y363361D01*
X694541Y366269D01*
X699731Y371459D01*
X702639Y371459D01*
X702639Y363361D01*
X694541Y363361D01*
G37*
%LPD*%
%LPC*%
G36*
X491341Y363361D02*
X491341Y363361D01*
X491341Y366269D01*
X496531Y371459D01*
X499439Y371459D01*
X499439Y363361D01*
X491341Y363361D01*
G37*
%LPD*%
%LPC*%
G36*
X872341Y363361D02*
X872341Y363361D01*
X872341Y366269D01*
X877531Y371459D01*
X880439Y371459D01*
X880439Y363361D01*
X872341Y363361D01*
G37*
%LPD*%
%LPC*%
G36*
X440541Y388761D02*
X440541Y388761D01*
X440541Y391669D01*
X445731Y396859D01*
X448639Y396859D01*
X448639Y388761D01*
X440541Y388761D01*
G37*
%LPD*%
%LPC*%
G36*
X618341Y388761D02*
X618341Y388761D01*
X618341Y391669D01*
X623531Y396859D01*
X626439Y396859D01*
X626439Y388761D01*
X618341Y388761D01*
G37*
%LPD*%
%LPC*%
G36*
X542141Y388761D02*
X542141Y388761D01*
X542141Y391669D01*
X547331Y396859D01*
X550239Y396859D01*
X550239Y388761D01*
X542141Y388761D01*
G37*
%LPD*%
%LPC*%
G36*
X796141Y388761D02*
X796141Y388761D01*
X796141Y391669D01*
X801331Y396859D01*
X804239Y396859D01*
X804239Y388761D01*
X796141Y388761D01*
G37*
%LPD*%
%LPC*%
G36*
X745341Y388761D02*
X745341Y388761D01*
X745341Y391669D01*
X750531Y396859D01*
X753439Y396859D01*
X753439Y388761D01*
X745341Y388761D01*
G37*
%LPD*%
%LPC*%
G36*
X805761Y379141D02*
X805761Y379141D01*
X805761Y387239D01*
X813859Y387239D01*
X813859Y384331D01*
X808669Y379141D01*
X805761Y379141D01*
G37*
%LPD*%
%LPC*%
G36*
X881961Y353741D02*
X881961Y353741D01*
X881961Y361839D01*
X890059Y361839D01*
X890059Y358931D01*
X884869Y353741D01*
X881961Y353741D01*
G37*
%LPD*%
%LPC*%
G36*
X627961Y379141D02*
X627961Y379141D01*
X627961Y387239D01*
X636059Y387239D01*
X636059Y384331D01*
X630869Y379141D01*
X627961Y379141D01*
G37*
%LPD*%
%LPC*%
G36*
X704161Y353741D02*
X704161Y353741D01*
X704161Y361839D01*
X712259Y361839D01*
X712259Y358931D01*
X707069Y353741D01*
X704161Y353741D01*
G37*
%LPD*%
%LPC*%
G36*
X500961Y353741D02*
X500961Y353741D01*
X500961Y361839D01*
X509059Y361839D01*
X509059Y358931D01*
X503869Y353741D01*
X500961Y353741D01*
G37*
%LPD*%
%LPC*%
G36*
X754961Y379141D02*
X754961Y379141D01*
X754961Y387239D01*
X763059Y387239D01*
X763059Y384331D01*
X757869Y379141D01*
X754961Y379141D01*
G37*
%LPD*%
%LPC*%
G36*
X551761Y379141D02*
X551761Y379141D01*
X551761Y387239D01*
X559859Y387239D01*
X559859Y384331D01*
X554669Y379141D01*
X551761Y379141D01*
G37*
%LPD*%
%LPC*%
G36*
X450161Y379141D02*
X450161Y379141D01*
X450161Y387239D01*
X458259Y387239D01*
X458259Y384331D01*
X453069Y379141D01*
X450161Y379141D01*
G37*
%LPD*%
%LPC*%
G36*
X801331Y379141D02*
X801331Y379141D01*
X796141Y384331D01*
X796141Y387239D01*
X804239Y387239D01*
X804239Y379141D01*
X801331Y379141D01*
G37*
%LPD*%
%LPC*%
G36*
X699731Y353741D02*
X699731Y353741D01*
X694541Y358931D01*
X694541Y361839D01*
X702639Y361839D01*
X702639Y353741D01*
X699731Y353741D01*
G37*
%LPD*%
%LPC*%
G36*
X623531Y379141D02*
X623531Y379141D01*
X618341Y384331D01*
X618341Y387239D01*
X626439Y387239D01*
X626439Y379141D01*
X623531Y379141D01*
G37*
%LPD*%
%LPC*%
G36*
X750531Y379141D02*
X750531Y379141D01*
X745341Y384331D01*
X745341Y387239D01*
X753439Y387239D01*
X753439Y379141D01*
X750531Y379141D01*
G37*
%LPD*%
%LPC*%
G36*
X445731Y379141D02*
X445731Y379141D01*
X440541Y384331D01*
X440541Y387239D01*
X448639Y387239D01*
X448639Y379141D01*
X445731Y379141D01*
G37*
%LPD*%
%LPC*%
G36*
X547331Y379141D02*
X547331Y379141D01*
X542141Y384331D01*
X542141Y387239D01*
X550239Y387239D01*
X550239Y379141D01*
X547331Y379141D01*
G37*
%LPD*%
%LPC*%
G36*
X877531Y353741D02*
X877531Y353741D01*
X872341Y358931D01*
X872341Y361839D01*
X880439Y361839D01*
X880439Y353741D01*
X877531Y353741D01*
G37*
%LPD*%
%LPC*%
G36*
X496531Y353741D02*
X496531Y353741D01*
X491341Y358931D01*
X491341Y361839D01*
X499439Y361839D01*
X499439Y353741D01*
X496531Y353741D01*
G37*
%LPD*%
%LPC*%
G36*
X283211Y177361D02*
X283211Y177361D01*
X283211Y183501D01*
X287198Y183501D01*
X287933Y183196D01*
X288496Y182633D01*
X288801Y181898D01*
X288801Y177361D01*
X283211Y177361D01*
G37*
%LPD*%
%LPC*%
G36*
X278211Y431161D02*
X278211Y431161D01*
X278211Y437301D01*
X282198Y437301D01*
X282933Y436996D01*
X283496Y436433D01*
X283801Y435698D01*
X283801Y431161D01*
X278211Y431161D01*
G37*
%LPD*%
%LPC*%
G36*
X278211Y423499D02*
X278211Y423499D01*
X278211Y429639D01*
X283801Y429639D01*
X283801Y425102D01*
X283496Y424367D01*
X282933Y423804D01*
X282198Y423499D01*
X278211Y423499D01*
G37*
%LPD*%
%LPC*%
G36*
X283211Y169699D02*
X283211Y169699D01*
X283211Y175839D01*
X288801Y175839D01*
X288801Y171302D01*
X288496Y170567D01*
X287933Y170004D01*
X287198Y169699D01*
X283211Y169699D01*
G37*
%LPD*%
%LPC*%
G36*
X271099Y431161D02*
X271099Y431161D01*
X271099Y435698D01*
X271404Y436433D01*
X271967Y436996D01*
X272702Y437301D01*
X276689Y437301D01*
X276689Y431161D01*
X271099Y431161D01*
G37*
%LPD*%
%LPC*%
G36*
X276099Y177361D02*
X276099Y177361D01*
X276099Y181898D01*
X276404Y182633D01*
X276967Y183196D01*
X277702Y183501D01*
X281689Y183501D01*
X281689Y177361D01*
X276099Y177361D01*
G37*
%LPD*%
%LPC*%
G36*
X277702Y169699D02*
X277702Y169699D01*
X276967Y170004D01*
X276404Y170567D01*
X276099Y171302D01*
X276099Y175839D01*
X281689Y175839D01*
X281689Y169699D01*
X277702Y169699D01*
G37*
%LPD*%
%LPC*%
G36*
X272702Y423499D02*
X272702Y423499D01*
X271967Y423804D01*
X271404Y424367D01*
X271099Y425102D01*
X271099Y429639D01*
X276689Y429639D01*
X276689Y423499D01*
X272702Y423499D01*
G37*
%LPD*%
%LPC*%
G36*
X237269Y96861D02*
X237269Y96861D01*
X237269Y100895D01*
X243510Y100895D01*
X244245Y100590D01*
X244808Y100027D01*
X245113Y99292D01*
X245113Y96861D01*
X237269Y96861D01*
G37*
%LPD*%
%LPC*%
G36*
X239369Y371761D02*
X239369Y371761D01*
X239369Y375795D01*
X245610Y375795D01*
X246345Y375490D01*
X246908Y374927D01*
X247213Y374192D01*
X247213Y371761D01*
X239369Y371761D01*
G37*
%LPD*%
%LPC*%
G36*
X227903Y96861D02*
X227903Y96861D01*
X227903Y99292D01*
X228208Y100027D01*
X228771Y100590D01*
X229506Y100895D01*
X235747Y100895D01*
X235747Y96861D01*
X227903Y96861D01*
G37*
%LPD*%
%LPC*%
G36*
X230003Y371761D02*
X230003Y371761D01*
X230003Y374192D01*
X230308Y374927D01*
X230871Y375490D01*
X231606Y375795D01*
X237847Y375795D01*
X237847Y371761D01*
X230003Y371761D01*
G37*
%LPD*%
%LPC*%
G36*
X181761Y198761D02*
X181761Y198761D01*
X181761Y202973D01*
X182930Y202660D01*
X184071Y202002D01*
X185002Y201071D01*
X185671Y199912D01*
X185714Y199866D01*
X185751Y199815D01*
X185772Y199803D01*
X185789Y199785D01*
X185848Y199763D01*
X185904Y199734D01*
X185928Y199733D01*
X185952Y199725D01*
X186014Y199731D01*
X186077Y199729D01*
X186099Y199740D01*
X186124Y199742D01*
X186177Y199776D01*
X186234Y199802D01*
X186252Y199823D01*
X186271Y199834D01*
X186290Y199866D01*
X186329Y199912D01*
X186998Y201071D01*
X187929Y202002D01*
X189070Y202660D01*
X190239Y202973D01*
X190239Y198761D01*
X181761Y198761D01*
G37*
%LPD*%
%LPC*%
G36*
X180761Y390761D02*
X180761Y390761D01*
X180761Y394973D01*
X181930Y394660D01*
X183071Y394002D01*
X184002Y393071D01*
X184671Y391912D01*
X184714Y391866D01*
X184751Y391815D01*
X184772Y391803D01*
X184789Y391785D01*
X184848Y391763D01*
X184904Y391734D01*
X184928Y391733D01*
X184952Y391725D01*
X185014Y391731D01*
X185077Y391729D01*
X185099Y391740D01*
X185124Y391742D01*
X185177Y391776D01*
X185234Y391802D01*
X185252Y391823D01*
X185271Y391834D01*
X185290Y391866D01*
X185329Y391912D01*
X185998Y393071D01*
X186929Y394002D01*
X188070Y394660D01*
X189239Y394973D01*
X189239Y390761D01*
X180761Y390761D01*
G37*
%LPD*%
%LPC*%
G36*
X187761Y117761D02*
X187761Y117761D01*
X187761Y121973D01*
X188930Y121660D01*
X190071Y121002D01*
X191002Y120071D01*
X191671Y118912D01*
X191714Y118866D01*
X191751Y118815D01*
X191772Y118803D01*
X191789Y118785D01*
X191848Y118763D01*
X191904Y118734D01*
X191928Y118733D01*
X191952Y118725D01*
X192014Y118731D01*
X192077Y118729D01*
X192099Y118740D01*
X192124Y118742D01*
X192177Y118776D01*
X192234Y118802D01*
X192252Y118823D01*
X192271Y118834D01*
X192290Y118866D01*
X192329Y118912D01*
X192998Y120071D01*
X193929Y121002D01*
X195070Y121660D01*
X196239Y121973D01*
X196239Y117761D01*
X187761Y117761D01*
G37*
%LPD*%
%LPC*%
G36*
X190761Y390761D02*
X190761Y390761D01*
X190761Y394973D01*
X191930Y394660D01*
X193071Y394002D01*
X194002Y393071D01*
X194671Y391912D01*
X194714Y391866D01*
X194751Y391815D01*
X194772Y391803D01*
X194789Y391785D01*
X194848Y391763D01*
X194904Y391734D01*
X194928Y391733D01*
X194952Y391725D01*
X195014Y391731D01*
X195077Y391729D01*
X195099Y391740D01*
X195124Y391742D01*
X195177Y391776D01*
X195234Y391802D01*
X195252Y391823D01*
X195271Y391834D01*
X195290Y391866D01*
X195329Y391912D01*
X195998Y393071D01*
X196929Y394002D01*
X198070Y394660D01*
X199239Y394973D01*
X199239Y390761D01*
X190761Y390761D01*
G37*
%LPD*%
%LPC*%
G36*
X177761Y117761D02*
X177761Y117761D01*
X177761Y121973D01*
X178930Y121660D01*
X180071Y121002D01*
X181002Y120071D01*
X181671Y118912D01*
X181714Y118866D01*
X181751Y118815D01*
X181772Y118803D01*
X181789Y118785D01*
X181848Y118763D01*
X181904Y118734D01*
X181928Y118733D01*
X181952Y118725D01*
X182014Y118731D01*
X182077Y118729D01*
X182099Y118740D01*
X182124Y118742D01*
X182177Y118776D01*
X182234Y118802D01*
X182252Y118823D01*
X182271Y118834D01*
X182290Y118866D01*
X182329Y118912D01*
X182998Y120071D01*
X183929Y121002D01*
X185070Y121660D01*
X186239Y121973D01*
X186239Y117761D01*
X177761Y117761D01*
G37*
%LPD*%
%LPC*%
G36*
X220761Y450761D02*
X220761Y450761D01*
X220761Y459239D01*
X224973Y459239D01*
X224660Y458070D01*
X224002Y456929D01*
X223071Y455998D01*
X221912Y455329D01*
X221866Y455286D01*
X221815Y455249D01*
X221803Y455228D01*
X221785Y455211D01*
X221763Y455152D01*
X221734Y455096D01*
X221733Y455072D01*
X221725Y455048D01*
X221731Y454986D01*
X221729Y454923D01*
X221740Y454901D01*
X221742Y454876D01*
X221776Y454823D01*
X221802Y454766D01*
X221823Y454748D01*
X221834Y454729D01*
X221866Y454710D01*
X221912Y454671D01*
X223071Y454002D01*
X224002Y453071D01*
X224660Y451930D01*
X224973Y450761D01*
X220761Y450761D01*
G37*
%LPD*%
%LPC*%
G36*
X191761Y198761D02*
X191761Y198761D01*
X191761Y202973D01*
X192930Y202660D01*
X194071Y202002D01*
X195002Y201071D01*
X195671Y199912D01*
X195714Y199866D01*
X195751Y199815D01*
X195772Y199803D01*
X195789Y199785D01*
X195848Y199763D01*
X195904Y199734D01*
X195928Y199733D01*
X195952Y199724D01*
X196014Y199731D01*
X196077Y199729D01*
X196099Y199740D01*
X196124Y199742D01*
X196177Y199776D01*
X196234Y199802D01*
X196252Y199823D01*
X196271Y199834D01*
X196290Y199866D01*
X196329Y199912D01*
X196998Y201071D01*
X197929Y202002D01*
X199070Y202660D01*
X200239Y202973D01*
X200239Y198761D01*
X191761Y198761D01*
G37*
%LPD*%
%LPC*%
G36*
X180761Y389239D02*
X180761Y389239D01*
X189239Y389239D01*
X189239Y385027D01*
X188070Y385340D01*
X186929Y385998D01*
X185998Y386929D01*
X185329Y388088D01*
X185286Y388134D01*
X185249Y388185D01*
X185228Y388197D01*
X185211Y388215D01*
X185152Y388237D01*
X185096Y388266D01*
X185072Y388267D01*
X185048Y388275D01*
X184986Y388269D01*
X184923Y388271D01*
X184901Y388260D01*
X184876Y388258D01*
X184823Y388224D01*
X184766Y388198D01*
X184748Y388177D01*
X184729Y388166D01*
X184710Y388134D01*
X184671Y388088D01*
X184002Y386929D01*
X183071Y385998D01*
X181930Y385340D01*
X180761Y385027D01*
X180761Y389239D01*
G37*
%LPD*%
%LPC*%
G36*
X187761Y116239D02*
X187761Y116239D01*
X196239Y116239D01*
X196239Y112027D01*
X195070Y112340D01*
X193929Y112998D01*
X192998Y113929D01*
X192329Y115088D01*
X192286Y115134D01*
X192249Y115185D01*
X192228Y115197D01*
X192211Y115215D01*
X192152Y115237D01*
X192096Y115266D01*
X192072Y115267D01*
X192048Y115275D01*
X191986Y115269D01*
X191923Y115271D01*
X191901Y115260D01*
X191876Y115258D01*
X191823Y115224D01*
X191766Y115198D01*
X191748Y115177D01*
X191729Y115166D01*
X191710Y115134D01*
X191671Y115088D01*
X191002Y113929D01*
X190071Y112998D01*
X188930Y112340D01*
X187761Y112027D01*
X187761Y116239D01*
G37*
%LPD*%
%LPC*%
G36*
X191761Y197239D02*
X191761Y197239D01*
X200239Y197239D01*
X200239Y193027D01*
X199070Y193340D01*
X197929Y193998D01*
X196998Y194929D01*
X196329Y196088D01*
X196286Y196134D01*
X196249Y196185D01*
X196228Y196197D01*
X196211Y196215D01*
X196152Y196237D01*
X196096Y196266D01*
X196072Y196267D01*
X196048Y196275D01*
X195986Y196269D01*
X195923Y196271D01*
X195901Y196260D01*
X195876Y196258D01*
X195823Y196224D01*
X195766Y196198D01*
X195748Y196177D01*
X195729Y196166D01*
X195710Y196134D01*
X195671Y196088D01*
X195002Y194929D01*
X194071Y193998D01*
X192930Y193340D01*
X191761Y193027D01*
X191761Y197239D01*
G37*
%LPD*%
%LPC*%
G36*
X190761Y389239D02*
X190761Y389239D01*
X199239Y389239D01*
X199239Y385027D01*
X198070Y385340D01*
X196929Y385998D01*
X195998Y386929D01*
X195329Y388088D01*
X195286Y388134D01*
X195249Y388185D01*
X195228Y388197D01*
X195211Y388215D01*
X195152Y388237D01*
X195096Y388266D01*
X195072Y388267D01*
X195048Y388275D01*
X194986Y388269D01*
X194923Y388271D01*
X194901Y388260D01*
X194876Y388258D01*
X194823Y388224D01*
X194766Y388198D01*
X194748Y388177D01*
X194729Y388166D01*
X194710Y388134D01*
X194671Y388088D01*
X194002Y386929D01*
X193071Y385998D01*
X191930Y385340D01*
X190761Y385027D01*
X190761Y389239D01*
G37*
%LPD*%
%LPC*%
G36*
X215027Y450761D02*
X215027Y450761D01*
X215340Y451930D01*
X215998Y453071D01*
X216929Y454002D01*
X218088Y454671D01*
X218134Y454714D01*
X218185Y454751D01*
X218197Y454772D01*
X218215Y454789D01*
X218237Y454848D01*
X218266Y454904D01*
X218267Y454928D01*
X218275Y454952D01*
X218269Y455014D01*
X218271Y455077D01*
X218260Y455099D01*
X218258Y455124D01*
X218224Y455177D01*
X218198Y455234D01*
X218177Y455252D01*
X218166Y455271D01*
X218134Y455290D01*
X218088Y455329D01*
X216929Y455998D01*
X215998Y456929D01*
X215340Y458070D01*
X215027Y459239D01*
X219239Y459239D01*
X219239Y450761D01*
X215027Y450761D01*
G37*
%LPD*%
%LPC*%
G36*
X177761Y116239D02*
X177761Y116239D01*
X186239Y116239D01*
X186239Y112027D01*
X185070Y112340D01*
X183929Y112998D01*
X182998Y113929D01*
X182329Y115088D01*
X182286Y115134D01*
X182249Y115185D01*
X182228Y115197D01*
X182211Y115215D01*
X182152Y115237D01*
X182096Y115266D01*
X182072Y115267D01*
X182048Y115275D01*
X181986Y115269D01*
X181923Y115271D01*
X181901Y115260D01*
X181876Y115258D01*
X181823Y115224D01*
X181766Y115198D01*
X181748Y115177D01*
X181729Y115166D01*
X181710Y115134D01*
X181671Y115088D01*
X181002Y113929D01*
X180071Y112998D01*
X178930Y112340D01*
X177761Y112027D01*
X177761Y116239D01*
G37*
%LPD*%
%LPC*%
G36*
X181761Y197239D02*
X181761Y197239D01*
X190239Y197239D01*
X190239Y193027D01*
X189070Y193340D01*
X187929Y193998D01*
X186998Y194929D01*
X186329Y196088D01*
X186286Y196134D01*
X186249Y196185D01*
X186228Y196197D01*
X186211Y196215D01*
X186152Y196237D01*
X186096Y196266D01*
X186072Y196267D01*
X186048Y196275D01*
X185986Y196269D01*
X185923Y196271D01*
X185901Y196260D01*
X185876Y196258D01*
X185823Y196224D01*
X185766Y196198D01*
X185748Y196177D01*
X185729Y196166D01*
X185710Y196134D01*
X185671Y196088D01*
X185002Y194929D01*
X184071Y193998D01*
X182930Y193340D01*
X181761Y193027D01*
X181761Y197239D01*
G37*
%LPD*%
%LPC*%
G36*
X197761Y117761D02*
X197761Y117761D01*
X197761Y121973D01*
X198930Y121660D01*
X200071Y121002D01*
X201002Y120071D01*
X201660Y118930D01*
X201973Y117761D01*
X197761Y117761D01*
G37*
%LPD*%
%LPC*%
G36*
X209761Y436761D02*
X209761Y436761D01*
X209761Y440973D01*
X210930Y440660D01*
X212071Y440002D01*
X213002Y439071D01*
X213660Y437930D01*
X213973Y436761D01*
X209761Y436761D01*
G37*
%LPD*%
%LPC*%
G36*
X200761Y390761D02*
X200761Y390761D01*
X200761Y394973D01*
X201930Y394660D01*
X203071Y394002D01*
X204002Y393071D01*
X204660Y391930D01*
X204973Y390761D01*
X200761Y390761D01*
G37*
%LPD*%
%LPC*%
G36*
X220761Y460761D02*
X220761Y460761D01*
X220761Y464973D01*
X221930Y464660D01*
X223071Y464002D01*
X224002Y463071D01*
X224660Y461930D01*
X224973Y460761D01*
X220761Y460761D01*
G37*
%LPD*%
%LPC*%
G36*
X201761Y198761D02*
X201761Y198761D01*
X201761Y202973D01*
X202930Y202660D01*
X204071Y202002D01*
X205002Y201071D01*
X205660Y199930D01*
X205973Y198761D01*
X201761Y198761D01*
G37*
%LPD*%
%LPC*%
G36*
X215027Y460761D02*
X215027Y460761D01*
X215340Y461930D01*
X215998Y463071D01*
X216929Y464002D01*
X218070Y464660D01*
X219239Y464973D01*
X219239Y460761D01*
X215027Y460761D01*
G37*
%LPD*%
%LPC*%
G36*
X201761Y197239D02*
X201761Y197239D01*
X205973Y197239D01*
X205660Y196070D01*
X205002Y194929D01*
X204071Y193998D01*
X202930Y193340D01*
X201761Y193027D01*
X201761Y197239D01*
G37*
%LPD*%
%LPC*%
G36*
X200761Y389239D02*
X200761Y389239D01*
X204973Y389239D01*
X204660Y388070D01*
X204002Y386929D01*
X203071Y385998D01*
X201930Y385340D01*
X200761Y385027D01*
X200761Y389239D01*
G37*
%LPD*%
%LPC*%
G36*
X220761Y449239D02*
X220761Y449239D01*
X224973Y449239D01*
X224660Y448070D01*
X224002Y446929D01*
X223071Y445998D01*
X221930Y445340D01*
X220761Y445027D01*
X220761Y449239D01*
G37*
%LPD*%
%LPC*%
G36*
X197761Y116239D02*
X197761Y116239D01*
X201973Y116239D01*
X201660Y115070D01*
X201002Y113929D01*
X200071Y112998D01*
X198930Y112340D01*
X197761Y112027D01*
X197761Y116239D01*
G37*
%LPD*%
%LPC*%
G36*
X175027Y390761D02*
X175027Y390761D01*
X175340Y391930D01*
X175998Y393071D01*
X176929Y394002D01*
X178070Y394660D01*
X179239Y394973D01*
X179239Y390761D01*
X175027Y390761D01*
G37*
%LPD*%
%LPC*%
G36*
X172027Y117761D02*
X172027Y117761D01*
X172340Y118930D01*
X172998Y120071D01*
X173929Y121002D01*
X175070Y121660D01*
X176239Y121973D01*
X176239Y117761D01*
X172027Y117761D01*
G37*
%LPD*%
%LPC*%
G36*
X204027Y436761D02*
X204027Y436761D01*
X204340Y437930D01*
X204998Y439071D01*
X205929Y440002D01*
X207070Y440660D01*
X208239Y440973D01*
X208239Y436761D01*
X204027Y436761D01*
G37*
%LPD*%
%LPC*%
G36*
X176027Y198761D02*
X176027Y198761D01*
X176340Y199930D01*
X176998Y201071D01*
X177929Y202002D01*
X179070Y202660D01*
X180239Y202973D01*
X180239Y198761D01*
X176027Y198761D01*
G37*
%LPD*%
%LPC*%
G36*
X209761Y435239D02*
X209761Y435239D01*
X213973Y435239D01*
X213660Y434070D01*
X213002Y432929D01*
X212071Y431998D01*
X210930Y431340D01*
X209761Y431027D01*
X209761Y435239D01*
G37*
%LPD*%
%LPC*%
G36*
X175070Y112340D02*
X175070Y112340D01*
X173929Y112998D01*
X172998Y113929D01*
X172340Y115070D01*
X172205Y115576D01*
X172204Y115576D01*
X172027Y116239D01*
X176239Y116239D01*
X176239Y112027D01*
X175070Y112340D01*
G37*
%LPD*%
%LPC*%
G36*
X207070Y431340D02*
X207070Y431340D01*
X205929Y431998D01*
X204998Y432929D01*
X204340Y434070D01*
X204027Y435239D01*
X208239Y435239D01*
X208239Y431027D01*
X207070Y431340D01*
G37*
%LPD*%
%LPC*%
G36*
X218070Y445340D02*
X218070Y445340D01*
X216929Y445998D01*
X215998Y446929D01*
X215340Y448070D01*
X215027Y449239D01*
X219239Y449239D01*
X219239Y445027D01*
X218070Y445340D01*
G37*
%LPD*%
%LPC*%
G36*
X179070Y193340D02*
X179070Y193340D01*
X177929Y193998D01*
X176998Y194929D01*
X176340Y196070D01*
X176027Y197239D01*
X180239Y197239D01*
X180239Y193027D01*
X179070Y193340D01*
G37*
%LPD*%
%LPC*%
G36*
X178070Y385340D02*
X178070Y385340D01*
X176929Y385998D01*
X175998Y386929D01*
X175340Y388070D01*
X175027Y389239D01*
X179239Y389239D01*
X179239Y385027D01*
X178070Y385340D01*
G37*
%LPD*%
%LPC*%
G36*
X200999Y197999D02*
X200999Y197999D01*
X200999Y198001D01*
X201001Y198001D01*
X201001Y197999D01*
X200999Y197999D01*
G37*
%LPD*%
%LPC*%
G36*
X180999Y197999D02*
X180999Y197999D01*
X180999Y198001D01*
X181001Y198001D01*
X181001Y197999D01*
X180999Y197999D01*
G37*
%LPD*%
%LPC*%
G36*
X208999Y435999D02*
X208999Y435999D01*
X208999Y436001D01*
X209001Y436001D01*
X209001Y435999D01*
X208999Y435999D01*
G37*
%LPD*%
%LPC*%
G36*
X179999Y389999D02*
X179999Y389999D01*
X179999Y390001D01*
X180001Y390001D01*
X180001Y389999D01*
X179999Y389999D01*
G37*
%LPD*%
%LPC*%
G36*
X190999Y197999D02*
X190999Y197999D01*
X190999Y198001D01*
X191001Y198001D01*
X191001Y197999D01*
X190999Y197999D01*
G37*
%LPD*%
%LPC*%
G36*
X199999Y389999D02*
X199999Y389999D01*
X199999Y390001D01*
X200001Y390001D01*
X200001Y389999D01*
X199999Y389999D01*
G37*
%LPD*%
%LPC*%
G36*
X447099Y56999D02*
X447099Y56999D01*
X447099Y57001D01*
X447101Y57001D01*
X447101Y56999D01*
X447099Y56999D01*
G37*
%LPD*%
%LPC*%
G36*
X189999Y389999D02*
X189999Y389999D01*
X189999Y390001D01*
X190001Y390001D01*
X190001Y389999D01*
X189999Y389999D01*
G37*
%LPD*%
%LPC*%
G36*
X627199Y387999D02*
X627199Y387999D01*
X627199Y388001D01*
X627201Y388001D01*
X627201Y387999D01*
X627199Y387999D01*
G37*
%LPD*%
%LPC*%
G36*
X550999Y439299D02*
X550999Y439299D01*
X550999Y439301D01*
X551001Y439301D01*
X551001Y439299D01*
X550999Y439299D01*
G37*
%LPD*%
%LPC*%
G36*
X754199Y387999D02*
X754199Y387999D01*
X754199Y388001D01*
X754201Y388001D01*
X754201Y387999D01*
X754199Y387999D01*
G37*
%LPD*%
%LPC*%
G36*
X43699Y288099D02*
X43699Y288099D01*
X43699Y288101D01*
X43701Y288101D01*
X43701Y288099D01*
X43699Y288099D01*
G37*
%LPD*%
%LPC*%
G36*
X449399Y387999D02*
X449399Y387999D01*
X449399Y388001D01*
X449401Y388001D01*
X449401Y387999D01*
X449399Y387999D01*
G37*
%LPD*%
%LPC*%
G36*
X449399Y439299D02*
X449399Y439299D01*
X449399Y439301D01*
X449401Y439301D01*
X449401Y439299D01*
X449399Y439299D01*
G37*
%LPD*%
%LPC*%
G36*
X176999Y116999D02*
X176999Y116999D01*
X176999Y117001D01*
X177001Y117001D01*
X177001Y116999D01*
X176999Y116999D01*
G37*
%LPD*%
%LPC*%
G36*
X186999Y116999D02*
X186999Y116999D01*
X186999Y117001D01*
X187001Y117001D01*
X187001Y116999D01*
X186999Y116999D01*
G37*
%LPD*%
%LPC*%
G36*
X196999Y116999D02*
X196999Y116999D01*
X196999Y117001D01*
X197001Y117001D01*
X197001Y116999D01*
X196999Y116999D01*
G37*
%LPD*%
%LPC*%
G36*
X881199Y362599D02*
X881199Y362599D01*
X881199Y362601D01*
X881201Y362601D01*
X881201Y362599D01*
X881199Y362599D01*
G37*
%LPD*%
%LPC*%
G36*
X703399Y362599D02*
X703399Y362599D01*
X703399Y362601D01*
X703401Y362601D01*
X703401Y362599D01*
X703399Y362599D01*
G37*
%LPD*%
%LPC*%
G36*
X627199Y439299D02*
X627199Y439299D01*
X627199Y439301D01*
X627201Y439301D01*
X627201Y439299D01*
X627199Y439299D01*
G37*
%LPD*%
%LPC*%
G36*
X498199Y475499D02*
X498199Y475499D01*
X498199Y475501D01*
X498201Y475501D01*
X498201Y475499D01*
X498199Y475499D01*
G37*
%LPD*%
%LPC*%
G36*
X804999Y439299D02*
X804999Y439299D01*
X804999Y439301D01*
X805001Y439301D01*
X805001Y439299D01*
X804999Y439299D01*
G37*
%LPD*%
%LPC*%
G36*
X754199Y439299D02*
X754199Y439299D01*
X754199Y439301D01*
X754201Y439301D01*
X754201Y439299D01*
X754199Y439299D01*
G37*
%LPD*%
%LPC*%
G36*
X219999Y449999D02*
X219999Y449999D01*
X219999Y450001D01*
X220001Y450001D01*
X220001Y449999D01*
X219999Y449999D01*
G37*
%LPD*%
%LPC*%
G36*
X879199Y475499D02*
X879199Y475499D01*
X879199Y475501D01*
X879201Y475501D01*
X879201Y475499D01*
X879199Y475499D01*
G37*
%LPD*%
%LPC*%
G36*
X804999Y387999D02*
X804999Y387999D01*
X804999Y388001D01*
X805001Y388001D01*
X805001Y387999D01*
X804999Y387999D01*
G37*
%LPD*%
%LPC*%
G36*
X550999Y387999D02*
X550999Y387999D01*
X550999Y388001D01*
X551001Y388001D01*
X551001Y387999D01*
X550999Y387999D01*
G37*
%LPD*%
%LPC*%
G36*
X701399Y475499D02*
X701399Y475499D01*
X701399Y475501D01*
X701401Y475501D01*
X701401Y475499D01*
X701399Y475499D01*
G37*
%LPD*%
%LPC*%
G36*
X500199Y362599D02*
X500199Y362599D01*
X500199Y362601D01*
X500201Y362601D01*
X500201Y362599D01*
X500199Y362599D01*
G37*
%LPD*%
%LPC*%
G36*
X18299Y288099D02*
X18299Y288099D01*
X18299Y288101D01*
X18301Y288101D01*
X18301Y288099D01*
X18299Y288099D01*
G37*
%LPD*%
%LPC*%
G36*
X219999Y459999D02*
X219999Y459999D01*
X219999Y460001D01*
X220001Y460001D01*
X220001Y459999D01*
X219999Y459999D01*
G37*
%LPD*%
%LPC*%
G36*
X1021699Y288099D02*
X1021699Y288099D01*
X1021699Y288101D01*
X1021701Y288101D01*
X1021701Y288099D01*
X1021699Y288099D01*
G37*
%LPD*%
%LPC*%
G36*
X186099Y373099D02*
X186099Y373099D01*
X186099Y373101D01*
X186101Y373101D01*
X186101Y373099D01*
X186099Y373099D01*
G37*
%LPD*%
%LPC*%
G36*
X188799Y99299D02*
X188799Y99299D01*
X188799Y99301D01*
X188801Y99301D01*
X188801Y99299D01*
X188799Y99299D01*
G37*
%LPD*%
%LPC*%
G36*
X198199Y451999D02*
X198199Y451999D01*
X198199Y452001D01*
X198201Y452001D01*
X198201Y451999D01*
X198199Y451999D01*
G37*
%LPD*%
%LPC*%
G36*
X282449Y176599D02*
X282449Y176599D01*
X282449Y176601D01*
X282451Y176601D01*
X282451Y176599D01*
X282449Y176599D01*
G37*
%LPD*%
%LPC*%
G36*
X168999Y217999D02*
X168999Y217999D01*
X168999Y218001D01*
X169001Y218001D01*
X169001Y217999D01*
X168999Y217999D01*
G37*
%LPD*%
%LPC*%
G36*
X277449Y430399D02*
X277449Y430399D01*
X277449Y430401D01*
X277451Y430401D01*
X277451Y430399D01*
X277449Y430399D01*
G37*
%LPD*%
D10*
X275700Y121600D03*
X258700Y121600D03*
X270500Y395400D03*
X253500Y395400D03*
D11*
X188800Y99300D03*
X188800Y71300D03*
X186100Y373100D03*
X186100Y345100D03*
D12*
X169000Y218000D03*
X128000Y218000D03*
X198200Y452000D03*
X157200Y452000D03*
D13*
X397100Y32300D03*
X447100Y57000D03*
D14*
X109500Y90000D03*
X109500Y172000D03*
X104800Y328000D03*
X104800Y410000D03*
D15*
X282450Y176600D03*
X298750Y176600D03*
X277450Y430400D03*
X293750Y430400D03*
D16*
X298600Y204200D03*
X298600Y223000D03*
X291500Y452300D03*
X291500Y471100D03*
D17*
X398600Y388000D03*
D18*
X398600Y362600D03*
X424000Y388000D03*
X424000Y362600D03*
X449400Y388000D03*
X449400Y362600D03*
X474800Y388000D03*
X474800Y362600D03*
X500200Y388000D03*
X500200Y362600D03*
X525600Y388000D03*
X525600Y362600D03*
X551000Y388000D03*
X551000Y362600D03*
X576400Y388000D03*
X576400Y362600D03*
X601800Y388000D03*
X601800Y362600D03*
X627200Y388000D03*
X627200Y362600D03*
X652600Y388000D03*
X652600Y362600D03*
X678000Y388000D03*
X678000Y362600D03*
X703400Y388000D03*
X703400Y362600D03*
X728800Y388000D03*
X728800Y362600D03*
X754200Y388000D03*
X754200Y362600D03*
X779600Y388000D03*
X779600Y362600D03*
X805000Y388000D03*
X805000Y362600D03*
X830400Y388000D03*
X830400Y362600D03*
X855800Y388000D03*
X855800Y362600D03*
X881200Y388000D03*
X881200Y362600D03*
D19*
X43700Y211900D03*
X43700Y237300D03*
X43700Y262700D03*
X43700Y288100D03*
X18300Y211900D03*
X18300Y237300D03*
X18300Y262700D03*
X18300Y288100D03*
X996300Y211900D03*
X996300Y237300D03*
X996300Y262700D03*
X996300Y288100D03*
X1021700Y211900D03*
X1021700Y237300D03*
X1021700Y262700D03*
X1021700Y288100D03*
D20*
X879200Y469404D02*
X879200Y481596D01*
X853800Y481596D02*
X853800Y469404D01*
X828400Y469404D02*
X828400Y481596D01*
X803000Y481596D02*
X803000Y469404D01*
X777600Y469404D02*
X777600Y481596D01*
X752200Y481596D02*
X752200Y469404D01*
X726800Y469404D02*
X726800Y481596D01*
X701400Y481596D02*
X701400Y469404D01*
X676000Y469404D02*
X676000Y481596D01*
X650600Y481596D02*
X650600Y469404D01*
X625200Y469404D02*
X625200Y481596D01*
X599800Y481596D02*
X599800Y469404D01*
X574400Y469404D02*
X574400Y481596D01*
X549000Y481596D02*
X549000Y469404D01*
X523600Y469404D02*
X523600Y481596D01*
X498200Y481596D02*
X498200Y469404D01*
X472800Y469404D02*
X472800Y481596D01*
X447400Y481596D02*
X447400Y469404D01*
X422000Y469404D02*
X422000Y481596D01*
X396600Y481596D02*
X396600Y469404D01*
X398600Y445396D02*
X398600Y433204D01*
X424000Y433204D02*
X424000Y445396D01*
X449400Y445396D02*
X449400Y433204D01*
X474800Y433204D02*
X474800Y445396D01*
X500200Y445396D02*
X500200Y433204D01*
X525600Y433204D02*
X525600Y445396D01*
X551000Y445396D02*
X551000Y433204D01*
X576400Y433204D02*
X576400Y445396D01*
X601800Y445396D02*
X601800Y433204D01*
X627200Y433204D02*
X627200Y445396D01*
X652600Y445396D02*
X652600Y433204D01*
X678000Y433204D02*
X678000Y445396D01*
X703400Y445396D02*
X703400Y433204D01*
X728800Y433204D02*
X728800Y445396D01*
X754200Y445396D02*
X754200Y433204D01*
X779600Y433204D02*
X779600Y445396D01*
X805000Y445396D02*
X805000Y433204D01*
X830400Y433204D02*
X830400Y445396D01*
X855800Y445396D02*
X855800Y433204D01*
X881200Y433204D02*
X881200Y445396D01*
D21*
X236508Y96100D03*
X236508Y86600D03*
X236508Y77100D03*
X260892Y77100D03*
X260892Y86600D03*
X260892Y96100D03*
X238608Y371000D03*
X238608Y361500D03*
X238608Y352000D03*
X262992Y352000D03*
X262992Y361500D03*
X262992Y371000D03*
D22*
X220000Y460000D03*
X220000Y450000D03*
X180000Y390000D03*
X190000Y390000D03*
X209000Y436000D03*
X200000Y390000D03*
X201000Y198000D03*
X191000Y198000D03*
X181000Y198000D03*
X177000Y117000D03*
X187000Y117000D03*
X197000Y117000D03*
D23*
X43700Y237300D02*
X18300Y237300D01*
D24*
X171100Y471100D02*
X291500Y471100D01*
X157200Y457200D02*
X157200Y452000D01*
X157200Y457200D02*
X171100Y471100D01*
D25*
X70000Y263600D02*
X43700Y237300D01*
X142000Y452000D02*
X157200Y452000D01*
X70000Y380000D02*
X70000Y263600D01*
X70000Y380000D02*
X142000Y452000D01*
D23*
X43700Y211900D02*
X18300Y211900D01*
X398600Y388000D02*
X411300Y375300D01*
X411300Y357339D01*
X556739Y211900D01*
X996300Y211900D01*
D26*
X398600Y388000D02*
X398600Y439300D01*
D27*
X298600Y223000D02*
X297000Y223000D01*
X280000Y240000D01*
X150000Y240000D01*
X128000Y218000D01*
D23*
X424000Y362600D02*
X523900Y262700D01*
X996300Y262700D01*
X522000Y290000D02*
X449400Y362600D01*
X522000Y290000D02*
X960000Y290000D01*
D27*
X1015824Y262700D02*
X1021700Y262700D01*
X1015824Y262700D02*
X1002140Y276384D01*
X973616Y276384D01*
X960000Y290000D01*
D22*
X104000Y70000D03*
X118000Y70000D03*
X118000Y60000D03*
X104000Y60000D03*
X223000Y87000D03*
X214000Y87000D03*
X232000Y121000D03*
X241000Y121000D03*
D28*
X260892Y96100D02*
X275700Y110908D01*
X275700Y121600D01*
D27*
X298750Y204050D02*
X298600Y204200D01*
X298750Y204050D02*
X298750Y176600D01*
X277100Y77100D02*
X260892Y77100D01*
X298750Y98750D02*
X298750Y176600D01*
X298750Y98750D02*
X277100Y77100D01*
D22*
X103000Y306000D03*
X115000Y306000D03*
X115000Y296000D03*
X103000Y296000D03*
X242000Y392000D03*
X242000Y401000D03*
X224000Y362500D03*
X215000Y362500D03*
X233000Y401000D03*
X233000Y392000D03*
D24*
X262992Y371000D02*
X270500Y378508D01*
X270500Y395400D01*
X266841Y352000D02*
X262992Y352000D01*
X266841Y352000D02*
X293750Y378909D01*
X293750Y430400D01*
X293750Y450050D01*
X291500Y452300D01*
D27*
X599800Y458991D02*
X599800Y475500D01*
X599800Y458991D02*
X590624Y449815D01*
X590624Y373776D01*
X601800Y362600D01*
D26*
X424000Y388000D02*
X424000Y439300D01*
M02*
