G04 EAGLE Gerber RS-274X export*
G75*
%MOMM*%
%FSLAX34Y34*%
%LPD*%
%IN*%
%IPPOS*%
%AMOC8*
5,1,8,0,0,1.08239X$1,22.5*%
G01*
%ADD10C,0.254000*%


D10*
X0Y0D02*
X1040000Y0D01*
X1040000Y500000D01*
X0Y500000D01*
X0Y0D01*
X64500Y47460D02*
X64429Y46382D01*
X64288Y45311D01*
X64078Y44251D01*
X63798Y43208D01*
X63451Y42185D01*
X63037Y41187D01*
X62560Y40218D01*
X62019Y39282D01*
X61419Y38384D01*
X60762Y37527D01*
X60049Y36715D01*
X59285Y35951D01*
X58473Y35239D01*
X57616Y34581D01*
X56718Y33981D01*
X55782Y33441D01*
X54813Y32963D01*
X53815Y32549D01*
X52792Y32202D01*
X51749Y31922D01*
X50689Y31712D01*
X49618Y31571D01*
X48540Y31500D01*
X47460Y31500D01*
X46382Y31571D01*
X45311Y31712D01*
X44251Y31922D01*
X43208Y32202D01*
X42185Y32549D01*
X41187Y32963D01*
X40218Y33441D01*
X39282Y33981D01*
X38384Y34581D01*
X37527Y35239D01*
X36715Y35951D01*
X35951Y36715D01*
X35239Y37527D01*
X34581Y38384D01*
X33981Y39282D01*
X33441Y40218D01*
X32963Y41187D01*
X32549Y42185D01*
X32202Y43208D01*
X31922Y44251D01*
X31712Y45311D01*
X31571Y46382D01*
X31500Y47460D01*
X31500Y48540D01*
X31571Y49618D01*
X31712Y50689D01*
X31922Y51749D01*
X32202Y52792D01*
X32549Y53815D01*
X32963Y54813D01*
X33441Y55782D01*
X33981Y56718D01*
X34581Y57616D01*
X35239Y58473D01*
X35951Y59285D01*
X36715Y60049D01*
X37527Y60762D01*
X38384Y61419D01*
X39282Y62019D01*
X40218Y62560D01*
X41187Y63037D01*
X42185Y63451D01*
X43208Y63798D01*
X44251Y64078D01*
X45311Y64288D01*
X46382Y64429D01*
X47460Y64500D01*
X48540Y64500D01*
X49618Y64429D01*
X50689Y64288D01*
X51749Y64078D01*
X52792Y63798D01*
X53815Y63451D01*
X54813Y63037D01*
X55782Y62560D01*
X56718Y62019D01*
X57616Y61419D01*
X58473Y60762D01*
X59285Y60049D01*
X60049Y59285D01*
X60762Y58473D01*
X61419Y57616D01*
X62019Y56718D01*
X62560Y55782D01*
X63037Y54813D01*
X63451Y53815D01*
X63798Y52792D01*
X64078Y51749D01*
X64288Y50689D01*
X64429Y49618D01*
X64500Y48540D01*
X64500Y47460D01*
X64500Y451460D02*
X64429Y450382D01*
X64288Y449311D01*
X64078Y448251D01*
X63798Y447208D01*
X63451Y446185D01*
X63037Y445187D01*
X62560Y444218D01*
X62019Y443282D01*
X61419Y442384D01*
X60762Y441527D01*
X60049Y440715D01*
X59285Y439951D01*
X58473Y439239D01*
X57616Y438581D01*
X56718Y437981D01*
X55782Y437441D01*
X54813Y436963D01*
X53815Y436549D01*
X52792Y436202D01*
X51749Y435922D01*
X50689Y435712D01*
X49618Y435571D01*
X48540Y435500D01*
X47460Y435500D01*
X46382Y435571D01*
X45311Y435712D01*
X44251Y435922D01*
X43208Y436202D01*
X42185Y436549D01*
X41187Y436963D01*
X40218Y437441D01*
X39282Y437981D01*
X38384Y438581D01*
X37527Y439239D01*
X36715Y439951D01*
X35951Y440715D01*
X35239Y441527D01*
X34581Y442384D01*
X33981Y443282D01*
X33441Y444218D01*
X32963Y445187D01*
X32549Y446185D01*
X32202Y447208D01*
X31922Y448251D01*
X31712Y449311D01*
X31571Y450382D01*
X31500Y451460D01*
X31500Y452540D01*
X31571Y453618D01*
X31712Y454689D01*
X31922Y455749D01*
X32202Y456792D01*
X32549Y457815D01*
X32963Y458813D01*
X33441Y459782D01*
X33981Y460718D01*
X34581Y461616D01*
X35239Y462473D01*
X35951Y463285D01*
X36715Y464049D01*
X37527Y464762D01*
X38384Y465419D01*
X39282Y466019D01*
X40218Y466560D01*
X41187Y467037D01*
X42185Y467451D01*
X43208Y467798D01*
X44251Y468078D01*
X45311Y468288D01*
X46382Y468429D01*
X47460Y468500D01*
X48540Y468500D01*
X49618Y468429D01*
X50689Y468288D01*
X51749Y468078D01*
X52792Y467798D01*
X53815Y467451D01*
X54813Y467037D01*
X55782Y466560D01*
X56718Y466019D01*
X57616Y465419D01*
X58473Y464762D01*
X59285Y464049D01*
X60049Y463285D01*
X60762Y462473D01*
X61419Y461616D01*
X62019Y460718D01*
X62560Y459782D01*
X63037Y458813D01*
X63451Y457815D01*
X63798Y456792D01*
X64078Y455749D01*
X64288Y454689D01*
X64429Y453618D01*
X64500Y452540D01*
X64500Y451460D01*
X1008500Y47460D02*
X1008429Y46382D01*
X1008288Y45311D01*
X1008078Y44251D01*
X1007798Y43208D01*
X1007451Y42185D01*
X1007037Y41187D01*
X1006560Y40218D01*
X1006019Y39282D01*
X1005419Y38384D01*
X1004762Y37527D01*
X1004049Y36715D01*
X1003285Y35951D01*
X1002473Y35239D01*
X1001616Y34581D01*
X1000718Y33981D01*
X999782Y33441D01*
X998813Y32963D01*
X997815Y32549D01*
X996792Y32202D01*
X995749Y31922D01*
X994689Y31712D01*
X993618Y31571D01*
X992540Y31500D01*
X991460Y31500D01*
X990382Y31571D01*
X989311Y31712D01*
X988251Y31922D01*
X987208Y32202D01*
X986185Y32549D01*
X985187Y32963D01*
X984218Y33441D01*
X983282Y33981D01*
X982384Y34581D01*
X981527Y35239D01*
X980715Y35951D01*
X979951Y36715D01*
X979239Y37527D01*
X978581Y38384D01*
X977981Y39282D01*
X977441Y40218D01*
X976963Y41187D01*
X976549Y42185D01*
X976202Y43208D01*
X975922Y44251D01*
X975712Y45311D01*
X975571Y46382D01*
X975500Y47460D01*
X975500Y48540D01*
X975571Y49618D01*
X975712Y50689D01*
X975922Y51749D01*
X976202Y52792D01*
X976549Y53815D01*
X976963Y54813D01*
X977441Y55782D01*
X977981Y56718D01*
X978581Y57616D01*
X979239Y58473D01*
X979951Y59285D01*
X980715Y60049D01*
X981527Y60762D01*
X982384Y61419D01*
X983282Y62019D01*
X984218Y62560D01*
X985187Y63037D01*
X986185Y63451D01*
X987208Y63798D01*
X988251Y64078D01*
X989311Y64288D01*
X990382Y64429D01*
X991460Y64500D01*
X992540Y64500D01*
X993618Y64429D01*
X994689Y64288D01*
X995749Y64078D01*
X996792Y63798D01*
X997815Y63451D01*
X998813Y63037D01*
X999782Y62560D01*
X1000718Y62019D01*
X1001616Y61419D01*
X1002473Y60762D01*
X1003285Y60049D01*
X1004049Y59285D01*
X1004762Y58473D01*
X1005419Y57616D01*
X1006019Y56718D01*
X1006560Y55782D01*
X1007037Y54813D01*
X1007451Y53815D01*
X1007798Y52792D01*
X1008078Y51749D01*
X1008288Y50689D01*
X1008429Y49618D01*
X1008500Y48540D01*
X1008500Y47460D01*
X1008500Y451460D02*
X1008429Y450382D01*
X1008288Y449311D01*
X1008078Y448251D01*
X1007798Y447208D01*
X1007451Y446185D01*
X1007037Y445187D01*
X1006560Y444218D01*
X1006019Y443282D01*
X1005419Y442384D01*
X1004762Y441527D01*
X1004049Y440715D01*
X1003285Y439951D01*
X1002473Y439239D01*
X1001616Y438581D01*
X1000718Y437981D01*
X999782Y437441D01*
X998813Y436963D01*
X997815Y436549D01*
X996792Y436202D01*
X995749Y435922D01*
X994689Y435712D01*
X993618Y435571D01*
X992540Y435500D01*
X991460Y435500D01*
X990382Y435571D01*
X989311Y435712D01*
X988251Y435922D01*
X987208Y436202D01*
X986185Y436549D01*
X985187Y436963D01*
X984218Y437441D01*
X983282Y437981D01*
X982384Y438581D01*
X981527Y439239D01*
X980715Y439951D01*
X979951Y440715D01*
X979239Y441527D01*
X978581Y442384D01*
X977981Y443282D01*
X977441Y444218D01*
X976963Y445187D01*
X976549Y446185D01*
X976202Y447208D01*
X975922Y448251D01*
X975712Y449311D01*
X975571Y450382D01*
X975500Y451460D01*
X975500Y452540D01*
X975571Y453618D01*
X975712Y454689D01*
X975922Y455749D01*
X976202Y456792D01*
X976549Y457815D01*
X976963Y458813D01*
X977441Y459782D01*
X977981Y460718D01*
X978581Y461616D01*
X979239Y462473D01*
X979951Y463285D01*
X980715Y464049D01*
X981527Y464762D01*
X982384Y465419D01*
X983282Y466019D01*
X984218Y466560D01*
X985187Y467037D01*
X986185Y467451D01*
X987208Y467798D01*
X988251Y468078D01*
X989311Y468288D01*
X990382Y468429D01*
X991460Y468500D01*
X992540Y468500D01*
X993618Y468429D01*
X994689Y468288D01*
X995749Y468078D01*
X996792Y467798D01*
X997815Y467451D01*
X998813Y467037D01*
X999782Y466560D01*
X1000718Y466019D01*
X1001616Y465419D01*
X1002473Y464762D01*
X1003285Y464049D01*
X1004049Y463285D01*
X1004762Y462473D01*
X1005419Y461616D01*
X1006019Y460718D01*
X1006560Y459782D01*
X1007037Y458813D01*
X1007451Y457815D01*
X1007798Y456792D01*
X1008078Y455749D01*
X1008288Y454689D01*
X1008429Y453618D01*
X1008500Y452540D01*
X1008500Y451460D01*
M02*
