G04 EAGLE Gerber RS-274X export*
G75*
%MOMM*%
%FSLAX34Y34*%
%LPD*%
%INSilkscreen Top*%
%IPPOS*%
%AMOC8*
5,1,8,0,0,1.08239X$1,22.5*%
G01*
%ADD10C,0.101600*%
%ADD11C,0.076200*%
%ADD12C,0.100000*%
%ADD13C,0.127000*%
%ADD14C,0.152400*%


D10*
X244182Y134058D02*
X241585Y134058D01*
X241486Y134060D01*
X241386Y134066D01*
X241287Y134075D01*
X241189Y134088D01*
X241091Y134105D01*
X240993Y134126D01*
X240897Y134151D01*
X240802Y134179D01*
X240708Y134211D01*
X240615Y134246D01*
X240523Y134285D01*
X240433Y134328D01*
X240345Y134373D01*
X240258Y134423D01*
X240174Y134475D01*
X240091Y134531D01*
X240011Y134589D01*
X239933Y134651D01*
X239858Y134716D01*
X239785Y134784D01*
X239715Y134854D01*
X239647Y134927D01*
X239582Y135002D01*
X239520Y135080D01*
X239462Y135160D01*
X239406Y135243D01*
X239354Y135327D01*
X239304Y135414D01*
X239259Y135502D01*
X239216Y135592D01*
X239177Y135684D01*
X239142Y135777D01*
X239110Y135871D01*
X239082Y135966D01*
X239057Y136062D01*
X239036Y136160D01*
X239019Y136258D01*
X239006Y136356D01*
X238997Y136455D01*
X238991Y136555D01*
X238989Y136654D01*
X238989Y143146D01*
X238991Y143245D01*
X238997Y143345D01*
X239006Y143444D01*
X239019Y143542D01*
X239036Y143640D01*
X239057Y143738D01*
X239082Y143834D01*
X239110Y143929D01*
X239142Y144023D01*
X239177Y144116D01*
X239216Y144208D01*
X239259Y144298D01*
X239304Y144386D01*
X239354Y144473D01*
X239406Y144557D01*
X239462Y144640D01*
X239520Y144720D01*
X239582Y144798D01*
X239647Y144873D01*
X239715Y144946D01*
X239785Y145016D01*
X239858Y145084D01*
X239933Y145149D01*
X240011Y145211D01*
X240091Y145269D01*
X240174Y145325D01*
X240258Y145377D01*
X240345Y145427D01*
X240433Y145472D01*
X240523Y145515D01*
X240615Y145554D01*
X240707Y145589D01*
X240802Y145621D01*
X240897Y145649D01*
X240993Y145674D01*
X241091Y145695D01*
X241189Y145712D01*
X241287Y145725D01*
X241386Y145734D01*
X241486Y145740D01*
X241585Y145742D01*
X244182Y145742D01*
X249097Y140549D02*
X252343Y140549D01*
X252343Y140550D02*
X252456Y140548D01*
X252569Y140542D01*
X252682Y140532D01*
X252795Y140518D01*
X252907Y140501D01*
X253018Y140479D01*
X253128Y140454D01*
X253238Y140424D01*
X253346Y140391D01*
X253453Y140354D01*
X253559Y140314D01*
X253663Y140269D01*
X253766Y140221D01*
X253867Y140170D01*
X253966Y140115D01*
X254063Y140057D01*
X254158Y139995D01*
X254251Y139930D01*
X254341Y139862D01*
X254429Y139791D01*
X254515Y139716D01*
X254598Y139639D01*
X254678Y139559D01*
X254755Y139476D01*
X254830Y139390D01*
X254901Y139302D01*
X254969Y139212D01*
X255034Y139119D01*
X255096Y139024D01*
X255154Y138927D01*
X255209Y138828D01*
X255260Y138727D01*
X255308Y138624D01*
X255353Y138520D01*
X255393Y138414D01*
X255430Y138307D01*
X255463Y138199D01*
X255493Y138089D01*
X255518Y137979D01*
X255540Y137868D01*
X255557Y137756D01*
X255571Y137643D01*
X255581Y137530D01*
X255587Y137417D01*
X255589Y137304D01*
X255587Y137191D01*
X255581Y137078D01*
X255571Y136965D01*
X255557Y136852D01*
X255540Y136740D01*
X255518Y136629D01*
X255493Y136519D01*
X255463Y136409D01*
X255430Y136301D01*
X255393Y136194D01*
X255353Y136088D01*
X255308Y135984D01*
X255260Y135881D01*
X255209Y135780D01*
X255154Y135681D01*
X255096Y135584D01*
X255034Y135489D01*
X254969Y135396D01*
X254901Y135306D01*
X254830Y135218D01*
X254755Y135132D01*
X254678Y135049D01*
X254598Y134969D01*
X254515Y134892D01*
X254429Y134817D01*
X254341Y134746D01*
X254251Y134678D01*
X254158Y134613D01*
X254063Y134551D01*
X253966Y134493D01*
X253867Y134438D01*
X253766Y134387D01*
X253663Y134339D01*
X253559Y134294D01*
X253453Y134254D01*
X253346Y134217D01*
X253238Y134184D01*
X253128Y134154D01*
X253018Y134129D01*
X252907Y134107D01*
X252795Y134090D01*
X252682Y134076D01*
X252569Y134066D01*
X252456Y134060D01*
X252343Y134058D01*
X249097Y134058D01*
X249097Y145742D01*
X252343Y145742D01*
X252444Y145740D01*
X252544Y145734D01*
X252644Y145724D01*
X252744Y145711D01*
X252843Y145693D01*
X252942Y145672D01*
X253039Y145647D01*
X253136Y145618D01*
X253231Y145585D01*
X253325Y145549D01*
X253417Y145509D01*
X253508Y145466D01*
X253597Y145419D01*
X253684Y145369D01*
X253770Y145315D01*
X253853Y145258D01*
X253933Y145198D01*
X254012Y145135D01*
X254088Y145068D01*
X254161Y144999D01*
X254231Y144927D01*
X254299Y144853D01*
X254364Y144776D01*
X254425Y144696D01*
X254484Y144614D01*
X254539Y144530D01*
X254591Y144444D01*
X254640Y144356D01*
X254685Y144266D01*
X254727Y144174D01*
X254765Y144081D01*
X254799Y143986D01*
X254830Y143891D01*
X254857Y143794D01*
X254880Y143696D01*
X254900Y143597D01*
X254915Y143497D01*
X254927Y143397D01*
X254935Y143297D01*
X254939Y143196D01*
X254939Y143096D01*
X254935Y142995D01*
X254927Y142895D01*
X254915Y142795D01*
X254900Y142695D01*
X254880Y142596D01*
X254857Y142498D01*
X254830Y142401D01*
X254799Y142306D01*
X254765Y142211D01*
X254727Y142118D01*
X254685Y142026D01*
X254640Y141936D01*
X254591Y141848D01*
X254539Y141762D01*
X254484Y141678D01*
X254425Y141596D01*
X254364Y141516D01*
X254299Y141439D01*
X254231Y141365D01*
X254161Y141293D01*
X254088Y141224D01*
X254012Y141157D01*
X253933Y141094D01*
X253853Y141034D01*
X253770Y140977D01*
X253684Y140923D01*
X253597Y140873D01*
X253508Y140826D01*
X253417Y140783D01*
X253325Y140743D01*
X253231Y140707D01*
X253136Y140674D01*
X253039Y140645D01*
X252942Y140620D01*
X252843Y140599D01*
X252744Y140581D01*
X252644Y140568D01*
X252544Y140558D01*
X252444Y140552D01*
X252343Y140550D01*
X263491Y134058D02*
X263590Y134060D01*
X263690Y134066D01*
X263789Y134075D01*
X263887Y134088D01*
X263985Y134105D01*
X264083Y134126D01*
X264179Y134151D01*
X264274Y134179D01*
X264368Y134211D01*
X264461Y134246D01*
X264553Y134285D01*
X264643Y134328D01*
X264731Y134373D01*
X264818Y134423D01*
X264902Y134475D01*
X264985Y134531D01*
X265065Y134589D01*
X265143Y134651D01*
X265218Y134716D01*
X265291Y134784D01*
X265361Y134854D01*
X265429Y134927D01*
X265494Y135002D01*
X265556Y135080D01*
X265614Y135160D01*
X265670Y135243D01*
X265722Y135327D01*
X265772Y135414D01*
X265817Y135502D01*
X265860Y135592D01*
X265899Y135684D01*
X265934Y135777D01*
X265966Y135871D01*
X265994Y135966D01*
X266019Y136062D01*
X266040Y136160D01*
X266057Y136258D01*
X266070Y136356D01*
X266079Y136455D01*
X266085Y136555D01*
X266087Y136654D01*
X263491Y134058D02*
X263347Y134060D01*
X263202Y134066D01*
X263058Y134075D01*
X262915Y134088D01*
X262771Y134105D01*
X262628Y134126D01*
X262486Y134151D01*
X262345Y134179D01*
X262204Y134211D01*
X262064Y134247D01*
X261925Y134286D01*
X261787Y134329D01*
X261651Y134376D01*
X261515Y134426D01*
X261381Y134480D01*
X261249Y134537D01*
X261118Y134598D01*
X260989Y134662D01*
X260861Y134730D01*
X260735Y134800D01*
X260611Y134875D01*
X260490Y134952D01*
X260370Y135033D01*
X260252Y135116D01*
X260137Y135203D01*
X260024Y135293D01*
X259913Y135386D01*
X259805Y135481D01*
X259699Y135580D01*
X259596Y135681D01*
X259921Y143146D02*
X259923Y143245D01*
X259929Y143345D01*
X259938Y143444D01*
X259951Y143542D01*
X259968Y143640D01*
X259989Y143738D01*
X260014Y143834D01*
X260042Y143929D01*
X260074Y144023D01*
X260109Y144116D01*
X260148Y144208D01*
X260191Y144298D01*
X260236Y144386D01*
X260286Y144473D01*
X260338Y144557D01*
X260394Y144640D01*
X260452Y144720D01*
X260514Y144798D01*
X260579Y144873D01*
X260647Y144946D01*
X260717Y145016D01*
X260790Y145084D01*
X260865Y145149D01*
X260943Y145211D01*
X261023Y145269D01*
X261106Y145325D01*
X261190Y145377D01*
X261277Y145427D01*
X261365Y145472D01*
X261455Y145515D01*
X261547Y145554D01*
X261640Y145589D01*
X261734Y145621D01*
X261829Y145649D01*
X261926Y145674D01*
X262023Y145695D01*
X262121Y145712D01*
X262219Y145725D01*
X262318Y145734D01*
X262418Y145740D01*
X262517Y145742D01*
X262653Y145740D01*
X262789Y145734D01*
X262925Y145725D01*
X263061Y145712D01*
X263196Y145694D01*
X263330Y145674D01*
X263464Y145649D01*
X263598Y145621D01*
X263730Y145588D01*
X263861Y145553D01*
X263992Y145513D01*
X264121Y145470D01*
X264249Y145424D01*
X264375Y145373D01*
X264501Y145320D01*
X264624Y145262D01*
X264746Y145202D01*
X264866Y145138D01*
X264985Y145070D01*
X265101Y145000D01*
X265215Y144926D01*
X265328Y144849D01*
X265438Y144768D01*
X261218Y140874D02*
X261132Y140927D01*
X261048Y140984D01*
X260966Y141043D01*
X260886Y141106D01*
X260809Y141172D01*
X260734Y141240D01*
X260662Y141312D01*
X260593Y141386D01*
X260527Y141463D01*
X260464Y141542D01*
X260404Y141624D01*
X260347Y141708D01*
X260293Y141794D01*
X260243Y141882D01*
X260196Y141972D01*
X260152Y142063D01*
X260113Y142157D01*
X260076Y142251D01*
X260044Y142347D01*
X260015Y142445D01*
X259990Y142543D01*
X259969Y142642D01*
X259951Y142742D01*
X259938Y142842D01*
X259928Y142943D01*
X259922Y143045D01*
X259920Y143146D01*
X264789Y138926D02*
X264875Y138873D01*
X264959Y138816D01*
X265041Y138757D01*
X265121Y138694D01*
X265198Y138628D01*
X265273Y138560D01*
X265345Y138488D01*
X265414Y138414D01*
X265480Y138337D01*
X265543Y138258D01*
X265603Y138176D01*
X265660Y138092D01*
X265714Y138006D01*
X265764Y137918D01*
X265811Y137828D01*
X265855Y137737D01*
X265894Y137643D01*
X265931Y137549D01*
X265963Y137453D01*
X265992Y137355D01*
X266017Y137257D01*
X266038Y137158D01*
X266056Y137058D01*
X266069Y136958D01*
X266079Y136857D01*
X266085Y136755D01*
X266087Y136654D01*
X264789Y138926D02*
X261219Y140874D01*
X273128Y145742D02*
X273128Y134058D01*
X269883Y145742D02*
X276374Y145742D01*
X280551Y143146D02*
X283796Y145742D01*
X283796Y134058D01*
X280551Y134058D02*
X287042Y134058D01*
X234982Y406858D02*
X232385Y406858D01*
X232286Y406860D01*
X232186Y406866D01*
X232087Y406875D01*
X231989Y406888D01*
X231891Y406905D01*
X231793Y406926D01*
X231697Y406951D01*
X231602Y406979D01*
X231508Y407011D01*
X231415Y407046D01*
X231323Y407085D01*
X231233Y407128D01*
X231145Y407173D01*
X231058Y407223D01*
X230974Y407275D01*
X230891Y407331D01*
X230811Y407389D01*
X230733Y407451D01*
X230658Y407516D01*
X230585Y407584D01*
X230515Y407654D01*
X230447Y407727D01*
X230382Y407802D01*
X230320Y407880D01*
X230262Y407960D01*
X230206Y408043D01*
X230154Y408127D01*
X230104Y408214D01*
X230059Y408302D01*
X230016Y408392D01*
X229977Y408484D01*
X229942Y408577D01*
X229910Y408671D01*
X229882Y408766D01*
X229857Y408862D01*
X229836Y408960D01*
X229819Y409058D01*
X229806Y409156D01*
X229797Y409255D01*
X229791Y409355D01*
X229789Y409454D01*
X229789Y415946D01*
X229791Y416045D01*
X229797Y416145D01*
X229806Y416244D01*
X229819Y416342D01*
X229836Y416440D01*
X229857Y416538D01*
X229882Y416634D01*
X229910Y416729D01*
X229942Y416823D01*
X229977Y416916D01*
X230016Y417008D01*
X230059Y417098D01*
X230104Y417186D01*
X230154Y417273D01*
X230206Y417357D01*
X230262Y417440D01*
X230320Y417520D01*
X230382Y417598D01*
X230447Y417673D01*
X230515Y417746D01*
X230585Y417816D01*
X230658Y417884D01*
X230733Y417949D01*
X230811Y418011D01*
X230891Y418069D01*
X230974Y418125D01*
X231058Y418177D01*
X231145Y418227D01*
X231233Y418272D01*
X231323Y418315D01*
X231415Y418354D01*
X231507Y418389D01*
X231602Y418421D01*
X231697Y418449D01*
X231793Y418474D01*
X231891Y418495D01*
X231989Y418512D01*
X232087Y418525D01*
X232186Y418534D01*
X232286Y418540D01*
X232385Y418542D01*
X234982Y418542D01*
X239897Y413349D02*
X243143Y413349D01*
X243143Y413350D02*
X243256Y413348D01*
X243369Y413342D01*
X243482Y413332D01*
X243595Y413318D01*
X243707Y413301D01*
X243818Y413279D01*
X243928Y413254D01*
X244038Y413224D01*
X244146Y413191D01*
X244253Y413154D01*
X244359Y413114D01*
X244463Y413069D01*
X244566Y413021D01*
X244667Y412970D01*
X244766Y412915D01*
X244863Y412857D01*
X244958Y412795D01*
X245051Y412730D01*
X245141Y412662D01*
X245229Y412591D01*
X245315Y412516D01*
X245398Y412439D01*
X245478Y412359D01*
X245555Y412276D01*
X245630Y412190D01*
X245701Y412102D01*
X245769Y412012D01*
X245834Y411919D01*
X245896Y411824D01*
X245954Y411727D01*
X246009Y411628D01*
X246060Y411527D01*
X246108Y411424D01*
X246153Y411320D01*
X246193Y411214D01*
X246230Y411107D01*
X246263Y410999D01*
X246293Y410889D01*
X246318Y410779D01*
X246340Y410668D01*
X246357Y410556D01*
X246371Y410443D01*
X246381Y410330D01*
X246387Y410217D01*
X246389Y410104D01*
X246387Y409991D01*
X246381Y409878D01*
X246371Y409765D01*
X246357Y409652D01*
X246340Y409540D01*
X246318Y409429D01*
X246293Y409319D01*
X246263Y409209D01*
X246230Y409101D01*
X246193Y408994D01*
X246153Y408888D01*
X246108Y408784D01*
X246060Y408681D01*
X246009Y408580D01*
X245954Y408481D01*
X245896Y408384D01*
X245834Y408289D01*
X245769Y408196D01*
X245701Y408106D01*
X245630Y408018D01*
X245555Y407932D01*
X245478Y407849D01*
X245398Y407769D01*
X245315Y407692D01*
X245229Y407617D01*
X245141Y407546D01*
X245051Y407478D01*
X244958Y407413D01*
X244863Y407351D01*
X244766Y407293D01*
X244667Y407238D01*
X244566Y407187D01*
X244463Y407139D01*
X244359Y407094D01*
X244253Y407054D01*
X244146Y407017D01*
X244038Y406984D01*
X243928Y406954D01*
X243818Y406929D01*
X243707Y406907D01*
X243595Y406890D01*
X243482Y406876D01*
X243369Y406866D01*
X243256Y406860D01*
X243143Y406858D01*
X239897Y406858D01*
X239897Y418542D01*
X243143Y418542D01*
X243244Y418540D01*
X243344Y418534D01*
X243444Y418524D01*
X243544Y418511D01*
X243643Y418493D01*
X243742Y418472D01*
X243839Y418447D01*
X243936Y418418D01*
X244031Y418385D01*
X244125Y418349D01*
X244217Y418309D01*
X244308Y418266D01*
X244397Y418219D01*
X244484Y418169D01*
X244570Y418115D01*
X244653Y418058D01*
X244733Y417998D01*
X244812Y417935D01*
X244888Y417868D01*
X244961Y417799D01*
X245031Y417727D01*
X245099Y417653D01*
X245164Y417576D01*
X245225Y417496D01*
X245284Y417414D01*
X245339Y417330D01*
X245391Y417244D01*
X245440Y417156D01*
X245485Y417066D01*
X245527Y416974D01*
X245565Y416881D01*
X245599Y416786D01*
X245630Y416691D01*
X245657Y416594D01*
X245680Y416496D01*
X245700Y416397D01*
X245715Y416297D01*
X245727Y416197D01*
X245735Y416097D01*
X245739Y415996D01*
X245739Y415896D01*
X245735Y415795D01*
X245727Y415695D01*
X245715Y415595D01*
X245700Y415495D01*
X245680Y415396D01*
X245657Y415298D01*
X245630Y415201D01*
X245599Y415106D01*
X245565Y415011D01*
X245527Y414918D01*
X245485Y414826D01*
X245440Y414736D01*
X245391Y414648D01*
X245339Y414562D01*
X245284Y414478D01*
X245225Y414396D01*
X245164Y414316D01*
X245099Y414239D01*
X245031Y414165D01*
X244961Y414093D01*
X244888Y414024D01*
X244812Y413957D01*
X244733Y413894D01*
X244653Y413834D01*
X244570Y413777D01*
X244484Y413723D01*
X244397Y413673D01*
X244308Y413626D01*
X244217Y413583D01*
X244125Y413543D01*
X244031Y413507D01*
X243936Y413474D01*
X243839Y413445D01*
X243742Y413420D01*
X243643Y413399D01*
X243544Y413381D01*
X243444Y413368D01*
X243344Y413358D01*
X243244Y413352D01*
X243143Y413350D01*
X254291Y406858D02*
X254390Y406860D01*
X254490Y406866D01*
X254589Y406875D01*
X254687Y406888D01*
X254785Y406905D01*
X254883Y406926D01*
X254979Y406951D01*
X255074Y406979D01*
X255168Y407011D01*
X255261Y407046D01*
X255353Y407085D01*
X255443Y407128D01*
X255531Y407173D01*
X255618Y407223D01*
X255702Y407275D01*
X255785Y407331D01*
X255865Y407389D01*
X255943Y407451D01*
X256018Y407516D01*
X256091Y407584D01*
X256161Y407654D01*
X256229Y407727D01*
X256294Y407802D01*
X256356Y407880D01*
X256414Y407960D01*
X256470Y408043D01*
X256522Y408127D01*
X256572Y408214D01*
X256617Y408302D01*
X256660Y408392D01*
X256699Y408484D01*
X256734Y408577D01*
X256766Y408671D01*
X256794Y408766D01*
X256819Y408862D01*
X256840Y408960D01*
X256857Y409058D01*
X256870Y409156D01*
X256879Y409255D01*
X256885Y409355D01*
X256887Y409454D01*
X254291Y406858D02*
X254147Y406860D01*
X254002Y406866D01*
X253858Y406875D01*
X253715Y406888D01*
X253571Y406905D01*
X253428Y406926D01*
X253286Y406951D01*
X253145Y406979D01*
X253004Y407011D01*
X252864Y407047D01*
X252725Y407086D01*
X252587Y407129D01*
X252451Y407176D01*
X252315Y407226D01*
X252181Y407280D01*
X252049Y407337D01*
X251918Y407398D01*
X251789Y407462D01*
X251661Y407530D01*
X251535Y407600D01*
X251411Y407675D01*
X251290Y407752D01*
X251170Y407833D01*
X251052Y407916D01*
X250937Y408003D01*
X250824Y408093D01*
X250713Y408186D01*
X250605Y408281D01*
X250499Y408380D01*
X250396Y408481D01*
X250721Y415946D02*
X250723Y416045D01*
X250729Y416145D01*
X250738Y416244D01*
X250751Y416342D01*
X250768Y416440D01*
X250789Y416538D01*
X250814Y416634D01*
X250842Y416729D01*
X250874Y416823D01*
X250909Y416916D01*
X250948Y417008D01*
X250991Y417098D01*
X251036Y417186D01*
X251086Y417273D01*
X251138Y417357D01*
X251194Y417440D01*
X251252Y417520D01*
X251314Y417598D01*
X251379Y417673D01*
X251447Y417746D01*
X251517Y417816D01*
X251590Y417884D01*
X251665Y417949D01*
X251743Y418011D01*
X251823Y418069D01*
X251906Y418125D01*
X251990Y418177D01*
X252077Y418227D01*
X252165Y418272D01*
X252255Y418315D01*
X252347Y418354D01*
X252440Y418389D01*
X252534Y418421D01*
X252629Y418449D01*
X252726Y418474D01*
X252823Y418495D01*
X252921Y418512D01*
X253019Y418525D01*
X253118Y418534D01*
X253218Y418540D01*
X253317Y418542D01*
X253453Y418540D01*
X253589Y418534D01*
X253725Y418525D01*
X253861Y418512D01*
X253996Y418494D01*
X254130Y418474D01*
X254264Y418449D01*
X254398Y418421D01*
X254530Y418388D01*
X254661Y418353D01*
X254792Y418313D01*
X254921Y418270D01*
X255049Y418224D01*
X255175Y418173D01*
X255301Y418120D01*
X255424Y418062D01*
X255546Y418002D01*
X255666Y417938D01*
X255785Y417870D01*
X255901Y417800D01*
X256015Y417726D01*
X256128Y417649D01*
X256238Y417568D01*
X252018Y413674D02*
X251932Y413727D01*
X251848Y413784D01*
X251766Y413843D01*
X251686Y413906D01*
X251609Y413972D01*
X251534Y414040D01*
X251462Y414112D01*
X251393Y414186D01*
X251327Y414263D01*
X251264Y414342D01*
X251204Y414424D01*
X251147Y414508D01*
X251093Y414594D01*
X251043Y414682D01*
X250996Y414772D01*
X250952Y414863D01*
X250913Y414957D01*
X250876Y415051D01*
X250844Y415147D01*
X250815Y415245D01*
X250790Y415343D01*
X250769Y415442D01*
X250751Y415542D01*
X250738Y415642D01*
X250728Y415743D01*
X250722Y415845D01*
X250720Y415946D01*
X255589Y411726D02*
X255675Y411673D01*
X255759Y411616D01*
X255841Y411557D01*
X255921Y411494D01*
X255998Y411428D01*
X256073Y411360D01*
X256145Y411288D01*
X256214Y411214D01*
X256280Y411137D01*
X256343Y411058D01*
X256403Y410976D01*
X256460Y410892D01*
X256514Y410806D01*
X256564Y410718D01*
X256611Y410628D01*
X256655Y410537D01*
X256694Y410443D01*
X256731Y410349D01*
X256763Y410253D01*
X256792Y410155D01*
X256817Y410057D01*
X256838Y409958D01*
X256856Y409858D01*
X256869Y409758D01*
X256879Y409657D01*
X256885Y409555D01*
X256887Y409454D01*
X255589Y411726D02*
X252019Y413674D01*
X263928Y418542D02*
X263928Y406858D01*
X260683Y418542D02*
X267174Y418542D01*
X274921Y418542D02*
X275028Y418540D01*
X275134Y418534D01*
X275240Y418524D01*
X275346Y418511D01*
X275452Y418493D01*
X275556Y418472D01*
X275660Y418447D01*
X275763Y418418D01*
X275864Y418386D01*
X275964Y418349D01*
X276063Y418309D01*
X276161Y418266D01*
X276257Y418219D01*
X276351Y418168D01*
X276443Y418114D01*
X276533Y418057D01*
X276621Y417997D01*
X276706Y417933D01*
X276789Y417866D01*
X276870Y417796D01*
X276948Y417724D01*
X277024Y417648D01*
X277096Y417570D01*
X277166Y417489D01*
X277233Y417406D01*
X277297Y417321D01*
X277357Y417233D01*
X277414Y417143D01*
X277468Y417051D01*
X277519Y416957D01*
X277566Y416861D01*
X277609Y416763D01*
X277649Y416664D01*
X277686Y416564D01*
X277718Y416463D01*
X277747Y416360D01*
X277772Y416256D01*
X277793Y416152D01*
X277811Y416046D01*
X277824Y415940D01*
X277834Y415834D01*
X277840Y415728D01*
X277842Y415621D01*
X274921Y418542D02*
X274800Y418540D01*
X274679Y418534D01*
X274559Y418524D01*
X274438Y418511D01*
X274319Y418493D01*
X274199Y418472D01*
X274081Y418447D01*
X273964Y418418D01*
X273847Y418385D01*
X273732Y418349D01*
X273618Y418308D01*
X273505Y418265D01*
X273393Y418217D01*
X273284Y418166D01*
X273176Y418111D01*
X273069Y418053D01*
X272965Y417992D01*
X272863Y417927D01*
X272763Y417859D01*
X272665Y417788D01*
X272569Y417714D01*
X272476Y417637D01*
X272386Y417556D01*
X272298Y417473D01*
X272213Y417387D01*
X272130Y417298D01*
X272051Y417207D01*
X271974Y417113D01*
X271901Y417017D01*
X271831Y416919D01*
X271764Y416818D01*
X271700Y416715D01*
X271640Y416610D01*
X271583Y416503D01*
X271529Y416395D01*
X271479Y416285D01*
X271433Y416173D01*
X271390Y416060D01*
X271351Y415945D01*
X276869Y413349D02*
X276948Y413426D01*
X277024Y413507D01*
X277097Y413590D01*
X277167Y413675D01*
X277234Y413763D01*
X277298Y413853D01*
X277358Y413945D01*
X277415Y414040D01*
X277469Y414136D01*
X277520Y414234D01*
X277567Y414334D01*
X277611Y414436D01*
X277651Y414539D01*
X277687Y414643D01*
X277719Y414749D01*
X277748Y414855D01*
X277773Y414963D01*
X277795Y415071D01*
X277812Y415181D01*
X277826Y415290D01*
X277835Y415400D01*
X277841Y415511D01*
X277843Y415621D01*
X276868Y413349D02*
X271351Y406858D01*
X277842Y406858D01*
X176551Y40858D02*
X173954Y40858D01*
X173855Y40860D01*
X173755Y40866D01*
X173656Y40875D01*
X173558Y40888D01*
X173460Y40905D01*
X173362Y40926D01*
X173266Y40951D01*
X173171Y40979D01*
X173077Y41011D01*
X172984Y41046D01*
X172892Y41085D01*
X172802Y41128D01*
X172714Y41173D01*
X172627Y41223D01*
X172543Y41275D01*
X172460Y41331D01*
X172380Y41389D01*
X172302Y41451D01*
X172227Y41516D01*
X172154Y41584D01*
X172084Y41654D01*
X172016Y41727D01*
X171951Y41802D01*
X171889Y41880D01*
X171831Y41960D01*
X171775Y42043D01*
X171723Y42127D01*
X171673Y42214D01*
X171628Y42302D01*
X171585Y42392D01*
X171546Y42484D01*
X171511Y42577D01*
X171479Y42671D01*
X171451Y42766D01*
X171426Y42862D01*
X171405Y42960D01*
X171388Y43058D01*
X171375Y43156D01*
X171366Y43255D01*
X171360Y43355D01*
X171358Y43454D01*
X171358Y49946D01*
X171360Y50045D01*
X171366Y50145D01*
X171375Y50244D01*
X171388Y50342D01*
X171405Y50440D01*
X171426Y50538D01*
X171451Y50634D01*
X171479Y50729D01*
X171511Y50823D01*
X171546Y50916D01*
X171585Y51008D01*
X171628Y51098D01*
X171673Y51186D01*
X171723Y51273D01*
X171775Y51357D01*
X171831Y51440D01*
X171889Y51520D01*
X171951Y51598D01*
X172016Y51673D01*
X172084Y51746D01*
X172154Y51816D01*
X172227Y51884D01*
X172302Y51949D01*
X172380Y52011D01*
X172460Y52069D01*
X172543Y52125D01*
X172627Y52177D01*
X172714Y52227D01*
X172802Y52272D01*
X172892Y52315D01*
X172984Y52354D01*
X173076Y52389D01*
X173171Y52421D01*
X173266Y52449D01*
X173362Y52474D01*
X173460Y52495D01*
X173558Y52512D01*
X173656Y52525D01*
X173755Y52534D01*
X173855Y52540D01*
X173954Y52542D01*
X176551Y52542D01*
X181876Y52542D02*
X181876Y40858D01*
X180578Y40858D02*
X183174Y40858D01*
X183174Y52542D02*
X180578Y52542D01*
X188155Y52542D02*
X188155Y40858D01*
X194646Y40858D02*
X188155Y52542D01*
X194646Y52542D02*
X194646Y40858D01*
X199966Y49946D02*
X203212Y52542D01*
X203212Y40858D01*
X206457Y40858D02*
X199966Y40858D01*
X175851Y316658D02*
X173254Y316658D01*
X173155Y316660D01*
X173055Y316666D01*
X172956Y316675D01*
X172858Y316688D01*
X172760Y316705D01*
X172662Y316726D01*
X172566Y316751D01*
X172471Y316779D01*
X172377Y316811D01*
X172284Y316846D01*
X172192Y316885D01*
X172102Y316928D01*
X172014Y316973D01*
X171927Y317023D01*
X171843Y317075D01*
X171760Y317131D01*
X171680Y317189D01*
X171602Y317251D01*
X171527Y317316D01*
X171454Y317384D01*
X171384Y317454D01*
X171316Y317527D01*
X171251Y317602D01*
X171189Y317680D01*
X171131Y317760D01*
X171075Y317843D01*
X171023Y317927D01*
X170973Y318014D01*
X170928Y318102D01*
X170885Y318192D01*
X170846Y318284D01*
X170811Y318377D01*
X170779Y318471D01*
X170751Y318566D01*
X170726Y318662D01*
X170705Y318760D01*
X170688Y318858D01*
X170675Y318956D01*
X170666Y319055D01*
X170660Y319155D01*
X170658Y319254D01*
X170658Y325746D01*
X170660Y325845D01*
X170666Y325945D01*
X170675Y326044D01*
X170688Y326142D01*
X170705Y326240D01*
X170726Y326338D01*
X170751Y326434D01*
X170779Y326529D01*
X170811Y326623D01*
X170846Y326716D01*
X170885Y326808D01*
X170928Y326898D01*
X170973Y326986D01*
X171023Y327073D01*
X171075Y327157D01*
X171131Y327240D01*
X171189Y327320D01*
X171251Y327398D01*
X171316Y327473D01*
X171384Y327546D01*
X171454Y327616D01*
X171527Y327684D01*
X171602Y327749D01*
X171680Y327811D01*
X171760Y327869D01*
X171843Y327925D01*
X171927Y327977D01*
X172014Y328027D01*
X172102Y328072D01*
X172192Y328115D01*
X172284Y328154D01*
X172376Y328189D01*
X172471Y328221D01*
X172566Y328249D01*
X172662Y328274D01*
X172760Y328295D01*
X172858Y328312D01*
X172956Y328325D01*
X173055Y328334D01*
X173155Y328340D01*
X173254Y328342D01*
X175851Y328342D01*
X181176Y328342D02*
X181176Y316658D01*
X179878Y316658D02*
X182474Y316658D01*
X182474Y328342D02*
X179878Y328342D01*
X187455Y328342D02*
X187455Y316658D01*
X193946Y316658D02*
X187455Y328342D01*
X193946Y328342D02*
X193946Y316658D01*
X202836Y328342D02*
X202943Y328340D01*
X203049Y328334D01*
X203155Y328324D01*
X203261Y328311D01*
X203367Y328293D01*
X203471Y328272D01*
X203575Y328247D01*
X203678Y328218D01*
X203779Y328186D01*
X203879Y328149D01*
X203978Y328109D01*
X204076Y328066D01*
X204172Y328019D01*
X204266Y327968D01*
X204358Y327914D01*
X204448Y327857D01*
X204536Y327797D01*
X204621Y327733D01*
X204704Y327666D01*
X204785Y327596D01*
X204863Y327524D01*
X204939Y327448D01*
X205011Y327370D01*
X205081Y327289D01*
X205148Y327206D01*
X205212Y327121D01*
X205272Y327033D01*
X205329Y326943D01*
X205383Y326851D01*
X205434Y326757D01*
X205481Y326661D01*
X205524Y326563D01*
X205564Y326464D01*
X205601Y326364D01*
X205633Y326263D01*
X205662Y326160D01*
X205687Y326056D01*
X205708Y325952D01*
X205726Y325846D01*
X205739Y325740D01*
X205749Y325634D01*
X205755Y325528D01*
X205757Y325421D01*
X202836Y328342D02*
X202715Y328340D01*
X202594Y328334D01*
X202474Y328324D01*
X202353Y328311D01*
X202234Y328293D01*
X202114Y328272D01*
X201996Y328247D01*
X201879Y328218D01*
X201762Y328185D01*
X201647Y328149D01*
X201533Y328108D01*
X201420Y328065D01*
X201308Y328017D01*
X201199Y327966D01*
X201091Y327911D01*
X200984Y327853D01*
X200880Y327792D01*
X200778Y327727D01*
X200678Y327659D01*
X200580Y327588D01*
X200484Y327514D01*
X200391Y327437D01*
X200301Y327356D01*
X200213Y327273D01*
X200128Y327187D01*
X200045Y327098D01*
X199966Y327007D01*
X199889Y326913D01*
X199816Y326817D01*
X199746Y326719D01*
X199679Y326618D01*
X199615Y326515D01*
X199555Y326410D01*
X199498Y326303D01*
X199444Y326195D01*
X199394Y326085D01*
X199348Y325973D01*
X199305Y325860D01*
X199266Y325745D01*
X204784Y323149D02*
X204863Y323226D01*
X204939Y323307D01*
X205012Y323390D01*
X205082Y323475D01*
X205149Y323563D01*
X205213Y323653D01*
X205273Y323745D01*
X205330Y323840D01*
X205384Y323936D01*
X205435Y324034D01*
X205482Y324134D01*
X205526Y324236D01*
X205566Y324339D01*
X205602Y324443D01*
X205634Y324549D01*
X205663Y324655D01*
X205688Y324763D01*
X205710Y324871D01*
X205727Y324981D01*
X205741Y325090D01*
X205750Y325200D01*
X205756Y325311D01*
X205758Y325421D01*
X204784Y323149D02*
X199266Y316658D01*
X205757Y316658D01*
X174500Y208500D02*
X174500Y192000D01*
X136000Y192000D01*
X122500Y205500D01*
X122500Y208500D01*
X122500Y227500D02*
X122500Y230500D01*
X136000Y244000D01*
X174500Y244000D01*
X174500Y227500D01*
X171500Y209500D02*
X171286Y208943D01*
X171059Y208391D01*
X170818Y207845D01*
X170565Y207305D01*
X170298Y206771D01*
X170018Y206244D01*
X169726Y205724D01*
X169421Y205211D01*
X169103Y204706D01*
X168774Y204208D01*
X168432Y203719D01*
X168079Y203238D01*
X167714Y202766D01*
X167337Y202303D01*
X166950Y201850D01*
X166551Y201405D01*
X166142Y200971D01*
X165723Y200547D01*
X165293Y200133D01*
X164853Y199730D01*
X164404Y199337D01*
X163945Y198956D01*
X163477Y198585D01*
X163000Y198227D01*
X162515Y197880D01*
X162021Y197545D01*
X161519Y197222D01*
X161010Y196911D01*
X160493Y196613D01*
X159969Y196327D01*
X159438Y196055D01*
X158901Y195795D01*
X158357Y195549D01*
X157808Y195315D01*
X157253Y195096D01*
X156693Y194889D01*
X156129Y194697D01*
X155559Y194518D01*
X154986Y194353D01*
X154408Y194203D01*
X153828Y194066D01*
X153244Y193943D01*
X152657Y193835D01*
X152068Y193741D01*
X151476Y193661D01*
X150883Y193596D01*
X150289Y193545D01*
X149693Y193509D01*
X149097Y193487D01*
X148500Y193480D01*
X147903Y193487D01*
X147307Y193509D01*
X146711Y193545D01*
X146117Y193596D01*
X145524Y193661D01*
X144932Y193741D01*
X144343Y193835D01*
X143756Y193943D01*
X143172Y194066D01*
X142592Y194203D01*
X142014Y194353D01*
X141441Y194518D01*
X140871Y194697D01*
X140307Y194889D01*
X139747Y195096D01*
X139192Y195315D01*
X138643Y195549D01*
X138099Y195795D01*
X137562Y196055D01*
X137031Y196327D01*
X136507Y196613D01*
X135990Y196911D01*
X135481Y197222D01*
X134979Y197545D01*
X134485Y197880D01*
X134000Y198227D01*
X133523Y198585D01*
X133055Y198956D01*
X132596Y199337D01*
X132147Y199730D01*
X131707Y200133D01*
X131277Y200547D01*
X130858Y200971D01*
X130449Y201405D01*
X130050Y201850D01*
X129663Y202303D01*
X129286Y202766D01*
X128921Y203238D01*
X128568Y203719D01*
X128226Y204208D01*
X127897Y204706D01*
X127579Y205211D01*
X127274Y205724D01*
X126982Y206244D01*
X126702Y206771D01*
X126435Y207305D01*
X126182Y207845D01*
X125941Y208391D01*
X125714Y208943D01*
X125500Y209500D01*
X125500Y226500D02*
X125714Y227057D01*
X125941Y227609D01*
X126182Y228155D01*
X126435Y228695D01*
X126702Y229229D01*
X126982Y229756D01*
X127274Y230276D01*
X127579Y230789D01*
X127897Y231294D01*
X128226Y231792D01*
X128568Y232281D01*
X128921Y232762D01*
X129286Y233234D01*
X129663Y233697D01*
X130050Y234150D01*
X130449Y234595D01*
X130858Y235029D01*
X131277Y235453D01*
X131707Y235867D01*
X132147Y236270D01*
X132596Y236663D01*
X133055Y237044D01*
X133523Y237415D01*
X134000Y237773D01*
X134485Y238120D01*
X134979Y238455D01*
X135481Y238778D01*
X135990Y239089D01*
X136507Y239387D01*
X137031Y239673D01*
X137562Y239945D01*
X138099Y240205D01*
X138643Y240451D01*
X139192Y240685D01*
X139747Y240904D01*
X140307Y241111D01*
X140871Y241303D01*
X141441Y241482D01*
X142014Y241647D01*
X142592Y241797D01*
X143172Y241934D01*
X143756Y242057D01*
X144343Y242165D01*
X144932Y242259D01*
X145524Y242339D01*
X146117Y242404D01*
X146711Y242455D01*
X147307Y242491D01*
X147903Y242513D01*
X148500Y242520D01*
X149097Y242513D01*
X149693Y242491D01*
X150289Y242455D01*
X150883Y242404D01*
X151476Y242339D01*
X152068Y242259D01*
X152657Y242165D01*
X153244Y242057D01*
X153828Y241934D01*
X154408Y241797D01*
X154986Y241647D01*
X155559Y241482D01*
X156129Y241303D01*
X156693Y241111D01*
X157253Y240904D01*
X157808Y240685D01*
X158357Y240451D01*
X158901Y240205D01*
X159438Y239945D01*
X159969Y239673D01*
X160493Y239387D01*
X161010Y239089D01*
X161519Y238778D01*
X162021Y238455D01*
X162515Y238120D01*
X163000Y237773D01*
X163477Y237415D01*
X163945Y237044D01*
X164404Y236663D01*
X164853Y236270D01*
X165293Y235867D01*
X165723Y235453D01*
X166142Y235029D01*
X166551Y234595D01*
X166950Y234150D01*
X167337Y233697D01*
X167714Y233234D01*
X168079Y232762D01*
X168432Y232281D01*
X168774Y231792D01*
X169103Y231294D01*
X169421Y230789D01*
X169726Y230276D01*
X170018Y229756D01*
X170298Y229229D01*
X170565Y228695D01*
X170818Y228155D01*
X171059Y227609D01*
X171286Y227057D01*
X171500Y226500D01*
D11*
X76607Y206721D02*
X74518Y206721D01*
X74429Y206723D01*
X74341Y206729D01*
X74253Y206738D01*
X74165Y206751D01*
X74078Y206768D01*
X73992Y206788D01*
X73907Y206813D01*
X73822Y206840D01*
X73739Y206872D01*
X73658Y206906D01*
X73578Y206945D01*
X73500Y206986D01*
X73423Y207031D01*
X73349Y207079D01*
X73276Y207130D01*
X73206Y207184D01*
X73139Y207242D01*
X73073Y207302D01*
X73011Y207364D01*
X72951Y207430D01*
X72893Y207497D01*
X72839Y207567D01*
X72788Y207640D01*
X72740Y207714D01*
X72695Y207791D01*
X72654Y207869D01*
X72615Y207949D01*
X72581Y208030D01*
X72549Y208113D01*
X72522Y208198D01*
X72497Y208283D01*
X72477Y208369D01*
X72460Y208456D01*
X72447Y208544D01*
X72438Y208632D01*
X72432Y208720D01*
X72430Y208809D01*
X72430Y214031D01*
X72432Y214122D01*
X72438Y214213D01*
X72448Y214304D01*
X72462Y214394D01*
X72479Y214483D01*
X72501Y214571D01*
X72527Y214659D01*
X72556Y214745D01*
X72589Y214830D01*
X72626Y214913D01*
X72666Y214995D01*
X72710Y215075D01*
X72757Y215153D01*
X72808Y215229D01*
X72861Y215302D01*
X72918Y215373D01*
X72979Y215442D01*
X73042Y215507D01*
X73107Y215570D01*
X73176Y215630D01*
X73247Y215688D01*
X73320Y215741D01*
X73396Y215792D01*
X73474Y215839D01*
X73554Y215883D01*
X73636Y215923D01*
X73719Y215960D01*
X73804Y215993D01*
X73890Y216022D01*
X73978Y216048D01*
X74066Y216070D01*
X74155Y216087D01*
X74245Y216101D01*
X74336Y216111D01*
X74427Y216117D01*
X74518Y216119D01*
X76607Y216119D01*
X80076Y213508D02*
X80076Y209332D01*
X80075Y213508D02*
X80077Y213609D01*
X80083Y213710D01*
X80093Y213811D01*
X80106Y213911D01*
X80124Y214011D01*
X80145Y214110D01*
X80171Y214208D01*
X80200Y214305D01*
X80232Y214401D01*
X80269Y214495D01*
X80309Y214588D01*
X80353Y214680D01*
X80400Y214769D01*
X80451Y214857D01*
X80505Y214943D01*
X80562Y215026D01*
X80622Y215108D01*
X80686Y215186D01*
X80752Y215263D01*
X80822Y215336D01*
X80894Y215407D01*
X80969Y215475D01*
X81047Y215540D01*
X81127Y215602D01*
X81209Y215661D01*
X81294Y215717D01*
X81381Y215769D01*
X81469Y215818D01*
X81560Y215864D01*
X81652Y215905D01*
X81746Y215944D01*
X81841Y215978D01*
X81937Y216009D01*
X82035Y216036D01*
X82133Y216060D01*
X82233Y216079D01*
X82333Y216095D01*
X82433Y216107D01*
X82534Y216115D01*
X82635Y216119D01*
X82737Y216119D01*
X82838Y216115D01*
X82939Y216107D01*
X83039Y216095D01*
X83139Y216079D01*
X83239Y216060D01*
X83337Y216036D01*
X83435Y216009D01*
X83531Y215978D01*
X83626Y215944D01*
X83720Y215905D01*
X83812Y215864D01*
X83903Y215818D01*
X83992Y215769D01*
X84078Y215717D01*
X84163Y215661D01*
X84245Y215602D01*
X84325Y215540D01*
X84403Y215475D01*
X84478Y215407D01*
X84550Y215336D01*
X84620Y215263D01*
X84686Y215186D01*
X84750Y215108D01*
X84810Y215026D01*
X84867Y214943D01*
X84921Y214857D01*
X84972Y214769D01*
X85019Y214680D01*
X85063Y214588D01*
X85103Y214495D01*
X85140Y214401D01*
X85172Y214305D01*
X85201Y214208D01*
X85227Y214110D01*
X85248Y214011D01*
X85266Y213911D01*
X85279Y213811D01*
X85289Y213710D01*
X85295Y213609D01*
X85297Y213508D01*
X85297Y209332D01*
X85295Y209231D01*
X85289Y209130D01*
X85279Y209029D01*
X85266Y208929D01*
X85248Y208829D01*
X85227Y208730D01*
X85201Y208632D01*
X85172Y208535D01*
X85140Y208439D01*
X85103Y208345D01*
X85063Y208252D01*
X85019Y208160D01*
X84972Y208071D01*
X84921Y207983D01*
X84867Y207897D01*
X84810Y207814D01*
X84750Y207732D01*
X84686Y207654D01*
X84620Y207577D01*
X84550Y207504D01*
X84478Y207433D01*
X84403Y207365D01*
X84325Y207300D01*
X84245Y207238D01*
X84163Y207179D01*
X84078Y207123D01*
X83991Y207071D01*
X83903Y207022D01*
X83812Y206976D01*
X83720Y206935D01*
X83626Y206896D01*
X83531Y206862D01*
X83435Y206831D01*
X83337Y206804D01*
X83239Y206780D01*
X83139Y206761D01*
X83039Y206745D01*
X82939Y206733D01*
X82838Y206725D01*
X82737Y206721D01*
X82635Y206721D01*
X82534Y206725D01*
X82433Y206733D01*
X82333Y206745D01*
X82233Y206761D01*
X82133Y206780D01*
X82035Y206804D01*
X81937Y206831D01*
X81841Y206862D01*
X81746Y206896D01*
X81652Y206935D01*
X81560Y206976D01*
X81469Y207022D01*
X81381Y207071D01*
X81294Y207123D01*
X81209Y207179D01*
X81127Y207238D01*
X81047Y207300D01*
X80969Y207365D01*
X80894Y207433D01*
X80822Y207504D01*
X80752Y207577D01*
X80686Y207654D01*
X80622Y207732D01*
X80562Y207814D01*
X80505Y207897D01*
X80451Y207983D01*
X80400Y208071D01*
X80353Y208160D01*
X80309Y208252D01*
X80269Y208345D01*
X80232Y208439D01*
X80200Y208535D01*
X80171Y208632D01*
X80145Y208730D01*
X80124Y208829D01*
X80106Y208929D01*
X80093Y209029D01*
X80083Y209130D01*
X80077Y209231D01*
X80075Y209332D01*
X89524Y209332D02*
X89524Y216119D01*
X89524Y209332D02*
X89526Y209231D01*
X89532Y209130D01*
X89542Y209029D01*
X89555Y208929D01*
X89573Y208829D01*
X89594Y208730D01*
X89620Y208632D01*
X89649Y208535D01*
X89681Y208439D01*
X89718Y208345D01*
X89758Y208252D01*
X89802Y208160D01*
X89849Y208071D01*
X89900Y207983D01*
X89954Y207897D01*
X90011Y207814D01*
X90071Y207732D01*
X90135Y207654D01*
X90201Y207577D01*
X90271Y207504D01*
X90343Y207433D01*
X90418Y207365D01*
X90496Y207300D01*
X90576Y207238D01*
X90658Y207179D01*
X90743Y207123D01*
X90830Y207071D01*
X90918Y207022D01*
X91009Y206976D01*
X91101Y206935D01*
X91195Y206896D01*
X91290Y206862D01*
X91386Y206831D01*
X91484Y206804D01*
X91582Y206780D01*
X91682Y206761D01*
X91782Y206745D01*
X91882Y206733D01*
X91983Y206725D01*
X92084Y206721D01*
X92186Y206721D01*
X92287Y206725D01*
X92388Y206733D01*
X92488Y206745D01*
X92588Y206761D01*
X92688Y206780D01*
X92786Y206804D01*
X92884Y206831D01*
X92980Y206862D01*
X93075Y206896D01*
X93169Y206935D01*
X93261Y206976D01*
X93352Y207022D01*
X93440Y207071D01*
X93527Y207123D01*
X93612Y207179D01*
X93694Y207238D01*
X93774Y207300D01*
X93852Y207365D01*
X93927Y207433D01*
X93999Y207504D01*
X94069Y207577D01*
X94135Y207654D01*
X94199Y207732D01*
X94259Y207814D01*
X94316Y207897D01*
X94370Y207983D01*
X94421Y208071D01*
X94468Y208160D01*
X94512Y208252D01*
X94552Y208345D01*
X94589Y208439D01*
X94621Y208535D01*
X94650Y208632D01*
X94676Y208730D01*
X94697Y208829D01*
X94715Y208929D01*
X94728Y209029D01*
X94738Y209130D01*
X94744Y209231D01*
X94746Y209332D01*
X94745Y209332D02*
X94745Y216119D01*
X100974Y216119D02*
X100974Y206721D01*
X98364Y216119D02*
X103585Y216119D01*
X106898Y214031D02*
X109508Y216119D01*
X109508Y206721D01*
X106898Y206721D02*
X112119Y206721D01*
D10*
X203700Y426000D02*
X203700Y442500D01*
X203700Y426000D02*
X165200Y426000D01*
X151700Y439500D01*
X151700Y442500D01*
X151700Y461500D02*
X151700Y464500D01*
X165200Y478000D01*
X203700Y478000D01*
X203700Y461500D01*
X200700Y443500D02*
X200486Y442943D01*
X200259Y442391D01*
X200018Y441845D01*
X199765Y441305D01*
X199498Y440771D01*
X199218Y440244D01*
X198926Y439724D01*
X198621Y439211D01*
X198303Y438706D01*
X197974Y438208D01*
X197632Y437719D01*
X197279Y437238D01*
X196914Y436766D01*
X196537Y436303D01*
X196150Y435850D01*
X195751Y435405D01*
X195342Y434971D01*
X194923Y434547D01*
X194493Y434133D01*
X194053Y433730D01*
X193604Y433337D01*
X193145Y432956D01*
X192677Y432585D01*
X192200Y432227D01*
X191715Y431880D01*
X191221Y431545D01*
X190719Y431222D01*
X190210Y430911D01*
X189693Y430613D01*
X189169Y430327D01*
X188638Y430055D01*
X188101Y429795D01*
X187557Y429549D01*
X187008Y429315D01*
X186453Y429096D01*
X185893Y428889D01*
X185329Y428697D01*
X184759Y428518D01*
X184186Y428353D01*
X183608Y428203D01*
X183028Y428066D01*
X182444Y427943D01*
X181857Y427835D01*
X181268Y427741D01*
X180676Y427661D01*
X180083Y427596D01*
X179489Y427545D01*
X178893Y427509D01*
X178297Y427487D01*
X177700Y427480D01*
X177103Y427487D01*
X176507Y427509D01*
X175911Y427545D01*
X175317Y427596D01*
X174724Y427661D01*
X174132Y427741D01*
X173543Y427835D01*
X172956Y427943D01*
X172372Y428066D01*
X171792Y428203D01*
X171214Y428353D01*
X170641Y428518D01*
X170071Y428697D01*
X169507Y428889D01*
X168947Y429096D01*
X168392Y429315D01*
X167843Y429549D01*
X167299Y429795D01*
X166762Y430055D01*
X166231Y430327D01*
X165707Y430613D01*
X165190Y430911D01*
X164681Y431222D01*
X164179Y431545D01*
X163685Y431880D01*
X163200Y432227D01*
X162723Y432585D01*
X162255Y432956D01*
X161796Y433337D01*
X161347Y433730D01*
X160907Y434133D01*
X160477Y434547D01*
X160058Y434971D01*
X159649Y435405D01*
X159250Y435850D01*
X158863Y436303D01*
X158486Y436766D01*
X158121Y437238D01*
X157768Y437719D01*
X157426Y438208D01*
X157097Y438706D01*
X156779Y439211D01*
X156474Y439724D01*
X156182Y440244D01*
X155902Y440771D01*
X155635Y441305D01*
X155382Y441845D01*
X155141Y442391D01*
X154914Y442943D01*
X154700Y443500D01*
X154700Y460500D02*
X154914Y461057D01*
X155141Y461609D01*
X155382Y462155D01*
X155635Y462695D01*
X155902Y463229D01*
X156182Y463756D01*
X156474Y464276D01*
X156779Y464789D01*
X157097Y465294D01*
X157426Y465792D01*
X157768Y466281D01*
X158121Y466762D01*
X158486Y467234D01*
X158863Y467697D01*
X159250Y468150D01*
X159649Y468595D01*
X160058Y469029D01*
X160477Y469453D01*
X160907Y469867D01*
X161347Y470270D01*
X161796Y470663D01*
X162255Y471044D01*
X162723Y471415D01*
X163200Y471773D01*
X163685Y472120D01*
X164179Y472455D01*
X164681Y472778D01*
X165190Y473089D01*
X165707Y473387D01*
X166231Y473673D01*
X166762Y473945D01*
X167299Y474205D01*
X167843Y474451D01*
X168392Y474685D01*
X168947Y474904D01*
X169507Y475111D01*
X170071Y475303D01*
X170641Y475482D01*
X171214Y475647D01*
X171792Y475797D01*
X172372Y475934D01*
X172956Y476057D01*
X173543Y476165D01*
X174132Y476259D01*
X174724Y476339D01*
X175317Y476404D01*
X175911Y476455D01*
X176507Y476491D01*
X177103Y476513D01*
X177700Y476520D01*
X178297Y476513D01*
X178893Y476491D01*
X179489Y476455D01*
X180083Y476404D01*
X180676Y476339D01*
X181268Y476259D01*
X181857Y476165D01*
X182444Y476057D01*
X183028Y475934D01*
X183608Y475797D01*
X184186Y475647D01*
X184759Y475482D01*
X185329Y475303D01*
X185893Y475111D01*
X186453Y474904D01*
X187008Y474685D01*
X187557Y474451D01*
X188101Y474205D01*
X188638Y473945D01*
X189169Y473673D01*
X189693Y473387D01*
X190210Y473089D01*
X190719Y472778D01*
X191221Y472455D01*
X191715Y472120D01*
X192200Y471773D01*
X192677Y471415D01*
X193145Y471044D01*
X193604Y470663D01*
X194053Y470270D01*
X194493Y469867D01*
X194923Y469453D01*
X195342Y469029D01*
X195751Y468595D01*
X196150Y468150D01*
X196537Y467697D01*
X196914Y467234D01*
X197279Y466762D01*
X197632Y466281D01*
X197974Y465792D01*
X198303Y465294D01*
X198621Y464789D01*
X198926Y464276D01*
X199218Y463756D01*
X199498Y463229D01*
X199765Y462695D01*
X200018Y462155D01*
X200259Y461609D01*
X200486Y461057D01*
X200700Y460500D01*
D11*
X105807Y457721D02*
X103718Y457721D01*
X103629Y457723D01*
X103541Y457729D01*
X103453Y457738D01*
X103365Y457751D01*
X103278Y457768D01*
X103192Y457788D01*
X103107Y457813D01*
X103022Y457840D01*
X102939Y457872D01*
X102858Y457906D01*
X102778Y457945D01*
X102700Y457986D01*
X102623Y458031D01*
X102549Y458079D01*
X102476Y458130D01*
X102406Y458184D01*
X102339Y458242D01*
X102273Y458302D01*
X102211Y458364D01*
X102151Y458430D01*
X102093Y458497D01*
X102039Y458567D01*
X101988Y458640D01*
X101940Y458714D01*
X101895Y458791D01*
X101854Y458869D01*
X101815Y458949D01*
X101781Y459030D01*
X101749Y459113D01*
X101722Y459198D01*
X101697Y459283D01*
X101677Y459369D01*
X101660Y459456D01*
X101647Y459544D01*
X101638Y459632D01*
X101632Y459720D01*
X101630Y459809D01*
X101630Y465031D01*
X101632Y465122D01*
X101638Y465213D01*
X101648Y465304D01*
X101662Y465394D01*
X101679Y465483D01*
X101701Y465571D01*
X101727Y465659D01*
X101756Y465745D01*
X101789Y465830D01*
X101826Y465913D01*
X101866Y465995D01*
X101910Y466075D01*
X101957Y466153D01*
X102008Y466229D01*
X102061Y466302D01*
X102118Y466373D01*
X102179Y466442D01*
X102242Y466507D01*
X102307Y466570D01*
X102376Y466630D01*
X102447Y466688D01*
X102520Y466741D01*
X102596Y466792D01*
X102674Y466839D01*
X102754Y466883D01*
X102836Y466923D01*
X102919Y466960D01*
X103004Y466993D01*
X103090Y467022D01*
X103178Y467048D01*
X103266Y467070D01*
X103355Y467087D01*
X103445Y467101D01*
X103536Y467111D01*
X103627Y467117D01*
X103718Y467119D01*
X105807Y467119D01*
X109276Y464508D02*
X109276Y460332D01*
X109275Y464508D02*
X109277Y464609D01*
X109283Y464710D01*
X109293Y464811D01*
X109306Y464911D01*
X109324Y465011D01*
X109345Y465110D01*
X109371Y465208D01*
X109400Y465305D01*
X109432Y465401D01*
X109469Y465495D01*
X109509Y465588D01*
X109553Y465680D01*
X109600Y465769D01*
X109651Y465857D01*
X109705Y465943D01*
X109762Y466026D01*
X109822Y466108D01*
X109886Y466186D01*
X109952Y466263D01*
X110022Y466336D01*
X110094Y466407D01*
X110169Y466475D01*
X110247Y466540D01*
X110327Y466602D01*
X110409Y466661D01*
X110494Y466717D01*
X110581Y466769D01*
X110669Y466818D01*
X110760Y466864D01*
X110852Y466905D01*
X110946Y466944D01*
X111041Y466978D01*
X111137Y467009D01*
X111235Y467036D01*
X111333Y467060D01*
X111433Y467079D01*
X111533Y467095D01*
X111633Y467107D01*
X111734Y467115D01*
X111835Y467119D01*
X111937Y467119D01*
X112038Y467115D01*
X112139Y467107D01*
X112239Y467095D01*
X112339Y467079D01*
X112439Y467060D01*
X112537Y467036D01*
X112635Y467009D01*
X112731Y466978D01*
X112826Y466944D01*
X112920Y466905D01*
X113012Y466864D01*
X113103Y466818D01*
X113192Y466769D01*
X113278Y466717D01*
X113363Y466661D01*
X113445Y466602D01*
X113525Y466540D01*
X113603Y466475D01*
X113678Y466407D01*
X113750Y466336D01*
X113820Y466263D01*
X113886Y466186D01*
X113950Y466108D01*
X114010Y466026D01*
X114067Y465943D01*
X114121Y465857D01*
X114172Y465769D01*
X114219Y465680D01*
X114263Y465588D01*
X114303Y465495D01*
X114340Y465401D01*
X114372Y465305D01*
X114401Y465208D01*
X114427Y465110D01*
X114448Y465011D01*
X114466Y464911D01*
X114479Y464811D01*
X114489Y464710D01*
X114495Y464609D01*
X114497Y464508D01*
X114497Y460332D01*
X114495Y460231D01*
X114489Y460130D01*
X114479Y460029D01*
X114466Y459929D01*
X114448Y459829D01*
X114427Y459730D01*
X114401Y459632D01*
X114372Y459535D01*
X114340Y459439D01*
X114303Y459345D01*
X114263Y459252D01*
X114219Y459160D01*
X114172Y459071D01*
X114121Y458983D01*
X114067Y458897D01*
X114010Y458814D01*
X113950Y458732D01*
X113886Y458654D01*
X113820Y458577D01*
X113750Y458504D01*
X113678Y458433D01*
X113603Y458365D01*
X113525Y458300D01*
X113445Y458238D01*
X113363Y458179D01*
X113278Y458123D01*
X113191Y458071D01*
X113103Y458022D01*
X113012Y457976D01*
X112920Y457935D01*
X112826Y457896D01*
X112731Y457862D01*
X112635Y457831D01*
X112537Y457804D01*
X112439Y457780D01*
X112339Y457761D01*
X112239Y457745D01*
X112139Y457733D01*
X112038Y457725D01*
X111937Y457721D01*
X111835Y457721D01*
X111734Y457725D01*
X111633Y457733D01*
X111533Y457745D01*
X111433Y457761D01*
X111333Y457780D01*
X111235Y457804D01*
X111137Y457831D01*
X111041Y457862D01*
X110946Y457896D01*
X110852Y457935D01*
X110760Y457976D01*
X110669Y458022D01*
X110581Y458071D01*
X110494Y458123D01*
X110409Y458179D01*
X110327Y458238D01*
X110247Y458300D01*
X110169Y458365D01*
X110094Y458433D01*
X110022Y458504D01*
X109952Y458577D01*
X109886Y458654D01*
X109822Y458732D01*
X109762Y458814D01*
X109705Y458897D01*
X109651Y458983D01*
X109600Y459071D01*
X109553Y459160D01*
X109509Y459252D01*
X109469Y459345D01*
X109432Y459439D01*
X109400Y459535D01*
X109371Y459632D01*
X109345Y459730D01*
X109324Y459829D01*
X109306Y459929D01*
X109293Y460029D01*
X109283Y460130D01*
X109277Y460231D01*
X109275Y460332D01*
X118724Y460332D02*
X118724Y467119D01*
X118724Y460332D02*
X118726Y460231D01*
X118732Y460130D01*
X118742Y460029D01*
X118755Y459929D01*
X118773Y459829D01*
X118794Y459730D01*
X118820Y459632D01*
X118849Y459535D01*
X118881Y459439D01*
X118918Y459345D01*
X118958Y459252D01*
X119002Y459160D01*
X119049Y459071D01*
X119100Y458983D01*
X119154Y458897D01*
X119211Y458814D01*
X119271Y458732D01*
X119335Y458654D01*
X119401Y458577D01*
X119471Y458504D01*
X119543Y458433D01*
X119618Y458365D01*
X119696Y458300D01*
X119776Y458238D01*
X119858Y458179D01*
X119943Y458123D01*
X120030Y458071D01*
X120118Y458022D01*
X120209Y457976D01*
X120301Y457935D01*
X120395Y457896D01*
X120490Y457862D01*
X120586Y457831D01*
X120684Y457804D01*
X120782Y457780D01*
X120882Y457761D01*
X120982Y457745D01*
X121082Y457733D01*
X121183Y457725D01*
X121284Y457721D01*
X121386Y457721D01*
X121487Y457725D01*
X121588Y457733D01*
X121688Y457745D01*
X121788Y457761D01*
X121888Y457780D01*
X121986Y457804D01*
X122084Y457831D01*
X122180Y457862D01*
X122275Y457896D01*
X122369Y457935D01*
X122461Y457976D01*
X122552Y458022D01*
X122640Y458071D01*
X122727Y458123D01*
X122812Y458179D01*
X122894Y458238D01*
X122974Y458300D01*
X123052Y458365D01*
X123127Y458433D01*
X123199Y458504D01*
X123269Y458577D01*
X123335Y458654D01*
X123399Y458732D01*
X123459Y458814D01*
X123516Y458897D01*
X123570Y458983D01*
X123621Y459071D01*
X123668Y459160D01*
X123712Y459252D01*
X123752Y459345D01*
X123789Y459439D01*
X123821Y459535D01*
X123850Y459632D01*
X123876Y459730D01*
X123897Y459829D01*
X123915Y459929D01*
X123928Y460029D01*
X123938Y460130D01*
X123944Y460231D01*
X123946Y460332D01*
X123945Y460332D02*
X123945Y467119D01*
X130174Y467119D02*
X130174Y457721D01*
X127564Y467119D02*
X132785Y467119D01*
X138970Y467120D02*
X139065Y467118D01*
X139159Y467112D01*
X139253Y467103D01*
X139347Y467090D01*
X139440Y467073D01*
X139532Y467052D01*
X139624Y467027D01*
X139714Y466999D01*
X139803Y466967D01*
X139891Y466932D01*
X139977Y466893D01*
X140062Y466851D01*
X140145Y466805D01*
X140226Y466756D01*
X140305Y466704D01*
X140382Y466649D01*
X140456Y466590D01*
X140528Y466529D01*
X140598Y466465D01*
X140665Y466398D01*
X140729Y466328D01*
X140790Y466256D01*
X140849Y466182D01*
X140904Y466105D01*
X140956Y466026D01*
X141005Y465945D01*
X141051Y465862D01*
X141093Y465777D01*
X141132Y465691D01*
X141167Y465603D01*
X141199Y465514D01*
X141227Y465424D01*
X141252Y465332D01*
X141273Y465240D01*
X141290Y465147D01*
X141303Y465053D01*
X141312Y464959D01*
X141318Y464865D01*
X141320Y464770D01*
X138970Y467119D02*
X138862Y467117D01*
X138753Y467111D01*
X138645Y467101D01*
X138538Y467088D01*
X138431Y467070D01*
X138324Y467049D01*
X138219Y467024D01*
X138114Y466995D01*
X138011Y466963D01*
X137909Y466926D01*
X137808Y466886D01*
X137709Y466843D01*
X137611Y466796D01*
X137515Y466745D01*
X137421Y466691D01*
X137329Y466634D01*
X137239Y466573D01*
X137151Y466509D01*
X137066Y466443D01*
X136983Y466373D01*
X136903Y466300D01*
X136825Y466224D01*
X136750Y466146D01*
X136678Y466065D01*
X136609Y465981D01*
X136543Y465895D01*
X136480Y465807D01*
X136421Y465716D01*
X136364Y465624D01*
X136311Y465529D01*
X136262Y465433D01*
X136216Y465334D01*
X136173Y465235D01*
X136134Y465133D01*
X136099Y465031D01*
X140536Y462942D02*
X140605Y463011D01*
X140671Y463082D01*
X140735Y463155D01*
X140796Y463231D01*
X140854Y463310D01*
X140908Y463390D01*
X140960Y463473D01*
X141008Y463557D01*
X141054Y463643D01*
X141095Y463731D01*
X141134Y463821D01*
X141169Y463912D01*
X141200Y464004D01*
X141228Y464097D01*
X141252Y464191D01*
X141272Y464286D01*
X141289Y464382D01*
X141302Y464479D01*
X141311Y464576D01*
X141317Y464673D01*
X141319Y464770D01*
X140536Y462942D02*
X136098Y457721D01*
X141319Y457721D01*
D12*
X470100Y84500D02*
X470100Y19500D01*
X350100Y19500D01*
X350100Y84500D01*
X470100Y84500D01*
D10*
X496165Y57842D02*
X496165Y48754D01*
X496163Y48655D01*
X496157Y48555D01*
X496148Y48456D01*
X496135Y48358D01*
X496118Y48260D01*
X496097Y48162D01*
X496072Y48066D01*
X496044Y47971D01*
X496012Y47877D01*
X495977Y47784D01*
X495938Y47692D01*
X495895Y47602D01*
X495850Y47514D01*
X495800Y47427D01*
X495748Y47343D01*
X495692Y47260D01*
X495634Y47180D01*
X495572Y47102D01*
X495507Y47027D01*
X495439Y46954D01*
X495369Y46884D01*
X495296Y46816D01*
X495221Y46751D01*
X495143Y46689D01*
X495063Y46631D01*
X494980Y46575D01*
X494896Y46523D01*
X494809Y46473D01*
X494721Y46428D01*
X494631Y46385D01*
X494539Y46346D01*
X494446Y46311D01*
X494352Y46279D01*
X494257Y46251D01*
X494161Y46226D01*
X494063Y46205D01*
X493965Y46188D01*
X493867Y46175D01*
X493768Y46166D01*
X493668Y46160D01*
X493569Y46158D01*
X492270Y46158D01*
X501439Y55246D02*
X504684Y57842D01*
X504684Y46158D01*
X501439Y46158D02*
X507930Y46158D01*
D13*
X160500Y85000D02*
X160500Y182000D01*
X58500Y182000D02*
X58500Y80000D01*
X155500Y80000D02*
X160500Y85000D01*
X155500Y80000D02*
X129100Y80000D01*
X90300Y80000D02*
X58500Y80000D01*
X129000Y182000D02*
X160500Y182000D01*
X89900Y182000D02*
X58400Y182000D01*
D10*
X35503Y103592D02*
X35503Y91908D01*
X40696Y91908D01*
X45006Y100996D02*
X48251Y103592D01*
X48251Y91908D01*
X45006Y91908D02*
X51497Y91908D01*
D13*
X155800Y323000D02*
X155800Y420000D01*
X53800Y420000D02*
X53800Y318000D01*
X150800Y318000D02*
X155800Y323000D01*
X150800Y318000D02*
X124400Y318000D01*
X85600Y318000D02*
X53800Y318000D01*
X124300Y420000D02*
X155800Y420000D01*
X85200Y420000D02*
X53700Y420000D01*
D10*
X25803Y402592D02*
X25803Y390908D01*
X30996Y390908D01*
X41797Y399671D02*
X41795Y399778D01*
X41789Y399884D01*
X41779Y399990D01*
X41766Y400096D01*
X41748Y400202D01*
X41727Y400306D01*
X41702Y400410D01*
X41673Y400513D01*
X41641Y400614D01*
X41604Y400714D01*
X41564Y400813D01*
X41521Y400911D01*
X41474Y401007D01*
X41423Y401101D01*
X41369Y401193D01*
X41312Y401283D01*
X41252Y401371D01*
X41188Y401456D01*
X41121Y401539D01*
X41051Y401620D01*
X40979Y401698D01*
X40903Y401774D01*
X40825Y401846D01*
X40744Y401916D01*
X40661Y401983D01*
X40576Y402047D01*
X40488Y402107D01*
X40398Y402164D01*
X40306Y402218D01*
X40212Y402269D01*
X40116Y402316D01*
X40018Y402359D01*
X39919Y402399D01*
X39819Y402436D01*
X39718Y402468D01*
X39615Y402497D01*
X39511Y402522D01*
X39407Y402543D01*
X39301Y402561D01*
X39195Y402574D01*
X39089Y402584D01*
X38983Y402590D01*
X38876Y402592D01*
X38755Y402590D01*
X38634Y402584D01*
X38514Y402574D01*
X38393Y402561D01*
X38274Y402543D01*
X38154Y402522D01*
X38036Y402497D01*
X37919Y402468D01*
X37802Y402435D01*
X37687Y402399D01*
X37573Y402358D01*
X37460Y402315D01*
X37348Y402267D01*
X37239Y402216D01*
X37131Y402161D01*
X37024Y402103D01*
X36920Y402042D01*
X36818Y401977D01*
X36718Y401909D01*
X36620Y401838D01*
X36524Y401764D01*
X36431Y401687D01*
X36341Y401606D01*
X36253Y401523D01*
X36168Y401437D01*
X36085Y401348D01*
X36006Y401257D01*
X35929Y401163D01*
X35856Y401067D01*
X35786Y400969D01*
X35719Y400868D01*
X35655Y400765D01*
X35595Y400660D01*
X35538Y400553D01*
X35484Y400445D01*
X35434Y400335D01*
X35388Y400223D01*
X35345Y400110D01*
X35306Y399995D01*
X40823Y397399D02*
X40902Y397476D01*
X40978Y397557D01*
X41051Y397640D01*
X41121Y397725D01*
X41188Y397813D01*
X41252Y397903D01*
X41312Y397995D01*
X41369Y398090D01*
X41423Y398186D01*
X41474Y398284D01*
X41521Y398384D01*
X41565Y398486D01*
X41605Y398589D01*
X41641Y398693D01*
X41673Y398799D01*
X41702Y398905D01*
X41727Y399013D01*
X41749Y399121D01*
X41766Y399231D01*
X41780Y399340D01*
X41789Y399450D01*
X41795Y399561D01*
X41797Y399671D01*
X40823Y397399D02*
X35306Y390908D01*
X41797Y390908D01*
X213758Y186142D02*
X213758Y174458D01*
X213758Y186142D02*
X217004Y186142D01*
X217117Y186140D01*
X217230Y186134D01*
X217343Y186124D01*
X217456Y186110D01*
X217568Y186093D01*
X217679Y186071D01*
X217789Y186046D01*
X217899Y186016D01*
X218007Y185983D01*
X218114Y185946D01*
X218220Y185906D01*
X218324Y185861D01*
X218427Y185813D01*
X218528Y185762D01*
X218627Y185707D01*
X218724Y185649D01*
X218819Y185587D01*
X218912Y185522D01*
X219002Y185454D01*
X219090Y185383D01*
X219176Y185308D01*
X219259Y185231D01*
X219339Y185151D01*
X219416Y185068D01*
X219491Y184982D01*
X219562Y184894D01*
X219630Y184804D01*
X219695Y184711D01*
X219757Y184616D01*
X219815Y184519D01*
X219870Y184420D01*
X219921Y184319D01*
X219969Y184216D01*
X220014Y184112D01*
X220054Y184006D01*
X220091Y183899D01*
X220124Y183791D01*
X220154Y183681D01*
X220179Y183571D01*
X220201Y183460D01*
X220218Y183348D01*
X220232Y183235D01*
X220242Y183122D01*
X220248Y183009D01*
X220250Y182896D01*
X220248Y182783D01*
X220242Y182670D01*
X220232Y182557D01*
X220218Y182444D01*
X220201Y182332D01*
X220179Y182221D01*
X220154Y182111D01*
X220124Y182001D01*
X220091Y181893D01*
X220054Y181786D01*
X220014Y181680D01*
X219969Y181576D01*
X219921Y181473D01*
X219870Y181372D01*
X219815Y181273D01*
X219757Y181176D01*
X219695Y181081D01*
X219630Y180988D01*
X219562Y180898D01*
X219491Y180810D01*
X219416Y180724D01*
X219339Y180641D01*
X219259Y180561D01*
X219176Y180484D01*
X219090Y180409D01*
X219002Y180338D01*
X218912Y180270D01*
X218819Y180205D01*
X218724Y180143D01*
X218627Y180085D01*
X218528Y180030D01*
X218427Y179979D01*
X218324Y179931D01*
X218220Y179886D01*
X218114Y179846D01*
X218007Y179809D01*
X217899Y179776D01*
X217789Y179746D01*
X217679Y179721D01*
X217568Y179699D01*
X217456Y179682D01*
X217343Y179668D01*
X217230Y179658D01*
X217117Y179652D01*
X217004Y179650D01*
X217004Y179651D02*
X213758Y179651D01*
X217653Y179651D02*
X220249Y174458D01*
X225518Y174458D02*
X225518Y186142D01*
X230711Y186142D01*
X230711Y180949D02*
X225518Y180949D01*
X235571Y180949D02*
X238816Y180949D01*
X238816Y180950D02*
X238929Y180948D01*
X239042Y180942D01*
X239155Y180932D01*
X239268Y180918D01*
X239380Y180901D01*
X239491Y180879D01*
X239601Y180854D01*
X239711Y180824D01*
X239819Y180791D01*
X239926Y180754D01*
X240032Y180714D01*
X240136Y180669D01*
X240239Y180621D01*
X240340Y180570D01*
X240439Y180515D01*
X240536Y180457D01*
X240631Y180395D01*
X240724Y180330D01*
X240814Y180262D01*
X240902Y180191D01*
X240988Y180116D01*
X241071Y180039D01*
X241151Y179959D01*
X241228Y179876D01*
X241303Y179790D01*
X241374Y179702D01*
X241442Y179612D01*
X241507Y179519D01*
X241569Y179424D01*
X241627Y179327D01*
X241682Y179228D01*
X241733Y179127D01*
X241781Y179024D01*
X241826Y178920D01*
X241866Y178814D01*
X241903Y178707D01*
X241936Y178599D01*
X241966Y178489D01*
X241991Y178379D01*
X242013Y178268D01*
X242030Y178156D01*
X242044Y178043D01*
X242054Y177930D01*
X242060Y177817D01*
X242062Y177704D01*
X242060Y177591D01*
X242054Y177478D01*
X242044Y177365D01*
X242030Y177252D01*
X242013Y177140D01*
X241991Y177029D01*
X241966Y176919D01*
X241936Y176809D01*
X241903Y176701D01*
X241866Y176594D01*
X241826Y176488D01*
X241781Y176384D01*
X241733Y176281D01*
X241682Y176180D01*
X241627Y176081D01*
X241569Y175984D01*
X241507Y175889D01*
X241442Y175796D01*
X241374Y175706D01*
X241303Y175618D01*
X241228Y175532D01*
X241151Y175449D01*
X241071Y175369D01*
X240988Y175292D01*
X240902Y175217D01*
X240814Y175146D01*
X240724Y175078D01*
X240631Y175013D01*
X240536Y174951D01*
X240439Y174893D01*
X240340Y174838D01*
X240239Y174787D01*
X240136Y174739D01*
X240032Y174694D01*
X239926Y174654D01*
X239819Y174617D01*
X239711Y174584D01*
X239601Y174554D01*
X239491Y174529D01*
X239380Y174507D01*
X239268Y174490D01*
X239155Y174476D01*
X239042Y174466D01*
X238929Y174460D01*
X238816Y174458D01*
X235571Y174458D01*
X235571Y186142D01*
X238816Y186142D01*
X238917Y186140D01*
X239017Y186134D01*
X239117Y186124D01*
X239217Y186111D01*
X239316Y186093D01*
X239415Y186072D01*
X239512Y186047D01*
X239609Y186018D01*
X239704Y185985D01*
X239798Y185949D01*
X239890Y185909D01*
X239981Y185866D01*
X240070Y185819D01*
X240157Y185769D01*
X240243Y185715D01*
X240326Y185658D01*
X240406Y185598D01*
X240485Y185535D01*
X240561Y185468D01*
X240634Y185399D01*
X240704Y185327D01*
X240772Y185253D01*
X240837Y185176D01*
X240898Y185096D01*
X240957Y185014D01*
X241012Y184930D01*
X241064Y184844D01*
X241113Y184756D01*
X241158Y184666D01*
X241200Y184574D01*
X241238Y184481D01*
X241272Y184386D01*
X241303Y184291D01*
X241330Y184194D01*
X241353Y184096D01*
X241373Y183997D01*
X241388Y183897D01*
X241400Y183797D01*
X241408Y183697D01*
X241412Y183596D01*
X241412Y183496D01*
X241408Y183395D01*
X241400Y183295D01*
X241388Y183195D01*
X241373Y183095D01*
X241353Y182996D01*
X241330Y182898D01*
X241303Y182801D01*
X241272Y182706D01*
X241238Y182611D01*
X241200Y182518D01*
X241158Y182426D01*
X241113Y182336D01*
X241064Y182248D01*
X241012Y182162D01*
X240957Y182078D01*
X240898Y181996D01*
X240837Y181916D01*
X240772Y181839D01*
X240704Y181765D01*
X240634Y181693D01*
X240561Y181624D01*
X240485Y181557D01*
X240406Y181494D01*
X240326Y181434D01*
X240243Y181377D01*
X240157Y181323D01*
X240070Y181273D01*
X239981Y181226D01*
X239890Y181183D01*
X239798Y181143D01*
X239704Y181107D01*
X239609Y181074D01*
X239512Y181045D01*
X239415Y181020D01*
X239316Y180999D01*
X239217Y180981D01*
X239117Y180968D01*
X239017Y180958D01*
X238917Y180952D01*
X238816Y180950D01*
X247001Y180949D02*
X250246Y180949D01*
X250246Y180950D02*
X250359Y180948D01*
X250472Y180942D01*
X250585Y180932D01*
X250698Y180918D01*
X250810Y180901D01*
X250921Y180879D01*
X251031Y180854D01*
X251141Y180824D01*
X251249Y180791D01*
X251356Y180754D01*
X251462Y180714D01*
X251566Y180669D01*
X251669Y180621D01*
X251770Y180570D01*
X251869Y180515D01*
X251966Y180457D01*
X252061Y180395D01*
X252154Y180330D01*
X252244Y180262D01*
X252332Y180191D01*
X252418Y180116D01*
X252501Y180039D01*
X252581Y179959D01*
X252658Y179876D01*
X252733Y179790D01*
X252804Y179702D01*
X252872Y179612D01*
X252937Y179519D01*
X252999Y179424D01*
X253057Y179327D01*
X253112Y179228D01*
X253163Y179127D01*
X253211Y179024D01*
X253256Y178920D01*
X253296Y178814D01*
X253333Y178707D01*
X253366Y178599D01*
X253396Y178489D01*
X253421Y178379D01*
X253443Y178268D01*
X253460Y178156D01*
X253474Y178043D01*
X253484Y177930D01*
X253490Y177817D01*
X253492Y177704D01*
X253490Y177591D01*
X253484Y177478D01*
X253474Y177365D01*
X253460Y177252D01*
X253443Y177140D01*
X253421Y177029D01*
X253396Y176919D01*
X253366Y176809D01*
X253333Y176701D01*
X253296Y176594D01*
X253256Y176488D01*
X253211Y176384D01*
X253163Y176281D01*
X253112Y176180D01*
X253057Y176081D01*
X252999Y175984D01*
X252937Y175889D01*
X252872Y175796D01*
X252804Y175706D01*
X252733Y175618D01*
X252658Y175532D01*
X252581Y175449D01*
X252501Y175369D01*
X252418Y175292D01*
X252332Y175217D01*
X252244Y175146D01*
X252154Y175078D01*
X252061Y175013D01*
X251966Y174951D01*
X251869Y174893D01*
X251770Y174838D01*
X251669Y174787D01*
X251566Y174739D01*
X251462Y174694D01*
X251356Y174654D01*
X251249Y174617D01*
X251141Y174584D01*
X251031Y174554D01*
X250921Y174529D01*
X250810Y174507D01*
X250698Y174490D01*
X250585Y174476D01*
X250472Y174466D01*
X250359Y174460D01*
X250246Y174458D01*
X247001Y174458D01*
X247001Y186142D01*
X250246Y186142D01*
X250347Y186140D01*
X250447Y186134D01*
X250547Y186124D01*
X250647Y186111D01*
X250746Y186093D01*
X250845Y186072D01*
X250942Y186047D01*
X251039Y186018D01*
X251134Y185985D01*
X251228Y185949D01*
X251320Y185909D01*
X251411Y185866D01*
X251500Y185819D01*
X251587Y185769D01*
X251673Y185715D01*
X251756Y185658D01*
X251836Y185598D01*
X251915Y185535D01*
X251991Y185468D01*
X252064Y185399D01*
X252134Y185327D01*
X252202Y185253D01*
X252267Y185176D01*
X252328Y185096D01*
X252387Y185014D01*
X252442Y184930D01*
X252494Y184844D01*
X252543Y184756D01*
X252588Y184666D01*
X252630Y184574D01*
X252668Y184481D01*
X252702Y184386D01*
X252733Y184291D01*
X252760Y184194D01*
X252783Y184096D01*
X252803Y183997D01*
X252818Y183897D01*
X252830Y183797D01*
X252838Y183697D01*
X252842Y183596D01*
X252842Y183496D01*
X252838Y183395D01*
X252830Y183295D01*
X252818Y183195D01*
X252803Y183095D01*
X252783Y182996D01*
X252760Y182898D01*
X252733Y182801D01*
X252702Y182706D01*
X252668Y182611D01*
X252630Y182518D01*
X252588Y182426D01*
X252543Y182336D01*
X252494Y182248D01*
X252442Y182162D01*
X252387Y182078D01*
X252328Y181996D01*
X252267Y181916D01*
X252202Y181839D01*
X252134Y181765D01*
X252064Y181693D01*
X251991Y181624D01*
X251915Y181557D01*
X251836Y181494D01*
X251756Y181434D01*
X251673Y181377D01*
X251587Y181323D01*
X251500Y181273D01*
X251411Y181226D01*
X251320Y181183D01*
X251228Y181143D01*
X251134Y181107D01*
X251039Y181074D01*
X250942Y181045D01*
X250845Y181020D01*
X250746Y180999D01*
X250647Y180981D01*
X250547Y180968D01*
X250447Y180958D01*
X250347Y180952D01*
X250246Y180950D01*
X257880Y183546D02*
X261126Y186142D01*
X261126Y174458D01*
X264371Y174458D02*
X257880Y174458D01*
X305758Y434258D02*
X305758Y445942D01*
X309004Y445942D01*
X309117Y445940D01*
X309230Y445934D01*
X309343Y445924D01*
X309456Y445910D01*
X309568Y445893D01*
X309679Y445871D01*
X309789Y445846D01*
X309899Y445816D01*
X310007Y445783D01*
X310114Y445746D01*
X310220Y445706D01*
X310324Y445661D01*
X310427Y445613D01*
X310528Y445562D01*
X310627Y445507D01*
X310724Y445449D01*
X310819Y445387D01*
X310912Y445322D01*
X311002Y445254D01*
X311090Y445183D01*
X311176Y445108D01*
X311259Y445031D01*
X311339Y444951D01*
X311416Y444868D01*
X311491Y444782D01*
X311562Y444694D01*
X311630Y444604D01*
X311695Y444511D01*
X311757Y444416D01*
X311815Y444319D01*
X311870Y444220D01*
X311921Y444119D01*
X311969Y444016D01*
X312014Y443912D01*
X312054Y443806D01*
X312091Y443699D01*
X312124Y443591D01*
X312154Y443481D01*
X312179Y443371D01*
X312201Y443260D01*
X312218Y443148D01*
X312232Y443035D01*
X312242Y442922D01*
X312248Y442809D01*
X312250Y442696D01*
X312248Y442583D01*
X312242Y442470D01*
X312232Y442357D01*
X312218Y442244D01*
X312201Y442132D01*
X312179Y442021D01*
X312154Y441911D01*
X312124Y441801D01*
X312091Y441693D01*
X312054Y441586D01*
X312014Y441480D01*
X311969Y441376D01*
X311921Y441273D01*
X311870Y441172D01*
X311815Y441073D01*
X311757Y440976D01*
X311695Y440881D01*
X311630Y440788D01*
X311562Y440698D01*
X311491Y440610D01*
X311416Y440524D01*
X311339Y440441D01*
X311259Y440361D01*
X311176Y440284D01*
X311090Y440209D01*
X311002Y440138D01*
X310912Y440070D01*
X310819Y440005D01*
X310724Y439943D01*
X310627Y439885D01*
X310528Y439830D01*
X310427Y439779D01*
X310324Y439731D01*
X310220Y439686D01*
X310114Y439646D01*
X310007Y439609D01*
X309899Y439576D01*
X309789Y439546D01*
X309679Y439521D01*
X309568Y439499D01*
X309456Y439482D01*
X309343Y439468D01*
X309230Y439458D01*
X309117Y439452D01*
X309004Y439450D01*
X309004Y439451D02*
X305758Y439451D01*
X309653Y439451D02*
X312249Y434258D01*
X317518Y434258D02*
X317518Y445942D01*
X322711Y445942D01*
X322711Y440749D02*
X317518Y440749D01*
X327571Y440749D02*
X330816Y440749D01*
X330816Y440750D02*
X330929Y440748D01*
X331042Y440742D01*
X331155Y440732D01*
X331268Y440718D01*
X331380Y440701D01*
X331491Y440679D01*
X331601Y440654D01*
X331711Y440624D01*
X331819Y440591D01*
X331926Y440554D01*
X332032Y440514D01*
X332136Y440469D01*
X332239Y440421D01*
X332340Y440370D01*
X332439Y440315D01*
X332536Y440257D01*
X332631Y440195D01*
X332724Y440130D01*
X332814Y440062D01*
X332902Y439991D01*
X332988Y439916D01*
X333071Y439839D01*
X333151Y439759D01*
X333228Y439676D01*
X333303Y439590D01*
X333374Y439502D01*
X333442Y439412D01*
X333507Y439319D01*
X333569Y439224D01*
X333627Y439127D01*
X333682Y439028D01*
X333733Y438927D01*
X333781Y438824D01*
X333826Y438720D01*
X333866Y438614D01*
X333903Y438507D01*
X333936Y438399D01*
X333966Y438289D01*
X333991Y438179D01*
X334013Y438068D01*
X334030Y437956D01*
X334044Y437843D01*
X334054Y437730D01*
X334060Y437617D01*
X334062Y437504D01*
X334060Y437391D01*
X334054Y437278D01*
X334044Y437165D01*
X334030Y437052D01*
X334013Y436940D01*
X333991Y436829D01*
X333966Y436719D01*
X333936Y436609D01*
X333903Y436501D01*
X333866Y436394D01*
X333826Y436288D01*
X333781Y436184D01*
X333733Y436081D01*
X333682Y435980D01*
X333627Y435881D01*
X333569Y435784D01*
X333507Y435689D01*
X333442Y435596D01*
X333374Y435506D01*
X333303Y435418D01*
X333228Y435332D01*
X333151Y435249D01*
X333071Y435169D01*
X332988Y435092D01*
X332902Y435017D01*
X332814Y434946D01*
X332724Y434878D01*
X332631Y434813D01*
X332536Y434751D01*
X332439Y434693D01*
X332340Y434638D01*
X332239Y434587D01*
X332136Y434539D01*
X332032Y434494D01*
X331926Y434454D01*
X331819Y434417D01*
X331711Y434384D01*
X331601Y434354D01*
X331491Y434329D01*
X331380Y434307D01*
X331268Y434290D01*
X331155Y434276D01*
X331042Y434266D01*
X330929Y434260D01*
X330816Y434258D01*
X327571Y434258D01*
X327571Y445942D01*
X330816Y445942D01*
X330917Y445940D01*
X331017Y445934D01*
X331117Y445924D01*
X331217Y445911D01*
X331316Y445893D01*
X331415Y445872D01*
X331512Y445847D01*
X331609Y445818D01*
X331704Y445785D01*
X331798Y445749D01*
X331890Y445709D01*
X331981Y445666D01*
X332070Y445619D01*
X332157Y445569D01*
X332243Y445515D01*
X332326Y445458D01*
X332406Y445398D01*
X332485Y445335D01*
X332561Y445268D01*
X332634Y445199D01*
X332704Y445127D01*
X332772Y445053D01*
X332837Y444976D01*
X332898Y444896D01*
X332957Y444814D01*
X333012Y444730D01*
X333064Y444644D01*
X333113Y444556D01*
X333158Y444466D01*
X333200Y444374D01*
X333238Y444281D01*
X333272Y444186D01*
X333303Y444091D01*
X333330Y443994D01*
X333353Y443896D01*
X333373Y443797D01*
X333388Y443697D01*
X333400Y443597D01*
X333408Y443497D01*
X333412Y443396D01*
X333412Y443296D01*
X333408Y443195D01*
X333400Y443095D01*
X333388Y442995D01*
X333373Y442895D01*
X333353Y442796D01*
X333330Y442698D01*
X333303Y442601D01*
X333272Y442506D01*
X333238Y442411D01*
X333200Y442318D01*
X333158Y442226D01*
X333113Y442136D01*
X333064Y442048D01*
X333012Y441962D01*
X332957Y441878D01*
X332898Y441796D01*
X332837Y441716D01*
X332772Y441639D01*
X332704Y441565D01*
X332634Y441493D01*
X332561Y441424D01*
X332485Y441357D01*
X332406Y441294D01*
X332326Y441234D01*
X332243Y441177D01*
X332157Y441123D01*
X332070Y441073D01*
X331981Y441026D01*
X331890Y440983D01*
X331798Y440943D01*
X331704Y440907D01*
X331609Y440874D01*
X331512Y440845D01*
X331415Y440820D01*
X331316Y440799D01*
X331217Y440781D01*
X331117Y440768D01*
X331017Y440758D01*
X330917Y440752D01*
X330816Y440750D01*
X339001Y440749D02*
X342246Y440749D01*
X342246Y440750D02*
X342359Y440748D01*
X342472Y440742D01*
X342585Y440732D01*
X342698Y440718D01*
X342810Y440701D01*
X342921Y440679D01*
X343031Y440654D01*
X343141Y440624D01*
X343249Y440591D01*
X343356Y440554D01*
X343462Y440514D01*
X343566Y440469D01*
X343669Y440421D01*
X343770Y440370D01*
X343869Y440315D01*
X343966Y440257D01*
X344061Y440195D01*
X344154Y440130D01*
X344244Y440062D01*
X344332Y439991D01*
X344418Y439916D01*
X344501Y439839D01*
X344581Y439759D01*
X344658Y439676D01*
X344733Y439590D01*
X344804Y439502D01*
X344872Y439412D01*
X344937Y439319D01*
X344999Y439224D01*
X345057Y439127D01*
X345112Y439028D01*
X345163Y438927D01*
X345211Y438824D01*
X345256Y438720D01*
X345296Y438614D01*
X345333Y438507D01*
X345366Y438399D01*
X345396Y438289D01*
X345421Y438179D01*
X345443Y438068D01*
X345460Y437956D01*
X345474Y437843D01*
X345484Y437730D01*
X345490Y437617D01*
X345492Y437504D01*
X345490Y437391D01*
X345484Y437278D01*
X345474Y437165D01*
X345460Y437052D01*
X345443Y436940D01*
X345421Y436829D01*
X345396Y436719D01*
X345366Y436609D01*
X345333Y436501D01*
X345296Y436394D01*
X345256Y436288D01*
X345211Y436184D01*
X345163Y436081D01*
X345112Y435980D01*
X345057Y435881D01*
X344999Y435784D01*
X344937Y435689D01*
X344872Y435596D01*
X344804Y435506D01*
X344733Y435418D01*
X344658Y435332D01*
X344581Y435249D01*
X344501Y435169D01*
X344418Y435092D01*
X344332Y435017D01*
X344244Y434946D01*
X344154Y434878D01*
X344061Y434813D01*
X343966Y434751D01*
X343869Y434693D01*
X343770Y434638D01*
X343669Y434587D01*
X343566Y434539D01*
X343462Y434494D01*
X343356Y434454D01*
X343249Y434417D01*
X343141Y434384D01*
X343031Y434354D01*
X342921Y434329D01*
X342810Y434307D01*
X342698Y434290D01*
X342585Y434276D01*
X342472Y434266D01*
X342359Y434260D01*
X342246Y434258D01*
X339001Y434258D01*
X339001Y445942D01*
X342246Y445942D01*
X342347Y445940D01*
X342447Y445934D01*
X342547Y445924D01*
X342647Y445911D01*
X342746Y445893D01*
X342845Y445872D01*
X342942Y445847D01*
X343039Y445818D01*
X343134Y445785D01*
X343228Y445749D01*
X343320Y445709D01*
X343411Y445666D01*
X343500Y445619D01*
X343587Y445569D01*
X343673Y445515D01*
X343756Y445458D01*
X343836Y445398D01*
X343915Y445335D01*
X343991Y445268D01*
X344064Y445199D01*
X344134Y445127D01*
X344202Y445053D01*
X344267Y444976D01*
X344328Y444896D01*
X344387Y444814D01*
X344442Y444730D01*
X344494Y444644D01*
X344543Y444556D01*
X344588Y444466D01*
X344630Y444374D01*
X344668Y444281D01*
X344702Y444186D01*
X344733Y444091D01*
X344760Y443994D01*
X344783Y443896D01*
X344803Y443797D01*
X344818Y443697D01*
X344830Y443597D01*
X344838Y443497D01*
X344842Y443396D01*
X344842Y443296D01*
X344838Y443195D01*
X344830Y443095D01*
X344818Y442995D01*
X344803Y442895D01*
X344783Y442796D01*
X344760Y442698D01*
X344733Y442601D01*
X344702Y442506D01*
X344668Y442411D01*
X344630Y442318D01*
X344588Y442226D01*
X344543Y442136D01*
X344494Y442048D01*
X344442Y441962D01*
X344387Y441878D01*
X344328Y441796D01*
X344267Y441716D01*
X344202Y441639D01*
X344134Y441565D01*
X344064Y441493D01*
X343991Y441424D01*
X343915Y441357D01*
X343836Y441294D01*
X343756Y441234D01*
X343673Y441177D01*
X343587Y441123D01*
X343500Y441073D01*
X343411Y441026D01*
X343320Y440983D01*
X343228Y440943D01*
X343134Y440907D01*
X343039Y440874D01*
X342942Y440845D01*
X342845Y440820D01*
X342746Y440799D01*
X342647Y440781D01*
X342547Y440768D01*
X342447Y440758D01*
X342347Y440752D01*
X342246Y440750D01*
X353450Y445942D02*
X353557Y445940D01*
X353663Y445934D01*
X353769Y445924D01*
X353875Y445911D01*
X353981Y445893D01*
X354085Y445872D01*
X354189Y445847D01*
X354292Y445818D01*
X354393Y445786D01*
X354493Y445749D01*
X354592Y445709D01*
X354690Y445666D01*
X354786Y445619D01*
X354880Y445568D01*
X354972Y445514D01*
X355062Y445457D01*
X355150Y445397D01*
X355235Y445333D01*
X355318Y445266D01*
X355399Y445196D01*
X355477Y445124D01*
X355553Y445048D01*
X355625Y444970D01*
X355695Y444889D01*
X355762Y444806D01*
X355826Y444721D01*
X355886Y444633D01*
X355943Y444543D01*
X355997Y444451D01*
X356048Y444357D01*
X356095Y444261D01*
X356138Y444163D01*
X356178Y444064D01*
X356215Y443964D01*
X356247Y443863D01*
X356276Y443760D01*
X356301Y443656D01*
X356322Y443552D01*
X356340Y443446D01*
X356353Y443340D01*
X356363Y443234D01*
X356369Y443128D01*
X356371Y443021D01*
X353450Y445942D02*
X353329Y445940D01*
X353208Y445934D01*
X353088Y445924D01*
X352967Y445911D01*
X352848Y445893D01*
X352728Y445872D01*
X352610Y445847D01*
X352493Y445818D01*
X352376Y445785D01*
X352261Y445749D01*
X352147Y445708D01*
X352034Y445665D01*
X351922Y445617D01*
X351813Y445566D01*
X351705Y445511D01*
X351598Y445453D01*
X351494Y445392D01*
X351392Y445327D01*
X351292Y445259D01*
X351194Y445188D01*
X351098Y445114D01*
X351005Y445037D01*
X350915Y444956D01*
X350827Y444873D01*
X350742Y444787D01*
X350659Y444698D01*
X350580Y444607D01*
X350503Y444513D01*
X350430Y444417D01*
X350360Y444319D01*
X350293Y444218D01*
X350229Y444115D01*
X350169Y444010D01*
X350112Y443903D01*
X350058Y443795D01*
X350008Y443685D01*
X349962Y443573D01*
X349919Y443460D01*
X349880Y443345D01*
X355398Y440749D02*
X355477Y440826D01*
X355553Y440907D01*
X355626Y440990D01*
X355696Y441075D01*
X355763Y441163D01*
X355827Y441253D01*
X355887Y441345D01*
X355944Y441440D01*
X355998Y441536D01*
X356049Y441634D01*
X356096Y441734D01*
X356140Y441836D01*
X356180Y441939D01*
X356216Y442043D01*
X356248Y442149D01*
X356277Y442255D01*
X356302Y442363D01*
X356324Y442471D01*
X356341Y442581D01*
X356355Y442690D01*
X356364Y442800D01*
X356370Y442911D01*
X356372Y443021D01*
X355398Y440749D02*
X349880Y434258D01*
X356371Y434258D01*
X235303Y225742D02*
X235303Y214058D01*
X235303Y225742D02*
X238548Y225742D01*
X238661Y225740D01*
X238774Y225734D01*
X238887Y225724D01*
X239000Y225710D01*
X239112Y225693D01*
X239223Y225671D01*
X239333Y225646D01*
X239443Y225616D01*
X239551Y225583D01*
X239658Y225546D01*
X239764Y225506D01*
X239868Y225461D01*
X239971Y225413D01*
X240072Y225362D01*
X240171Y225307D01*
X240268Y225249D01*
X240363Y225187D01*
X240456Y225122D01*
X240546Y225054D01*
X240634Y224983D01*
X240720Y224908D01*
X240803Y224831D01*
X240883Y224751D01*
X240960Y224668D01*
X241035Y224582D01*
X241106Y224494D01*
X241174Y224404D01*
X241239Y224311D01*
X241301Y224216D01*
X241359Y224119D01*
X241414Y224020D01*
X241465Y223919D01*
X241513Y223816D01*
X241558Y223712D01*
X241598Y223606D01*
X241635Y223499D01*
X241668Y223391D01*
X241698Y223281D01*
X241723Y223171D01*
X241745Y223060D01*
X241762Y222948D01*
X241776Y222835D01*
X241786Y222722D01*
X241792Y222609D01*
X241794Y222496D01*
X241792Y222383D01*
X241786Y222270D01*
X241776Y222157D01*
X241762Y222044D01*
X241745Y221932D01*
X241723Y221821D01*
X241698Y221711D01*
X241668Y221601D01*
X241635Y221493D01*
X241598Y221386D01*
X241558Y221280D01*
X241513Y221176D01*
X241465Y221073D01*
X241414Y220972D01*
X241359Y220873D01*
X241301Y220776D01*
X241239Y220681D01*
X241174Y220588D01*
X241106Y220498D01*
X241035Y220410D01*
X240960Y220324D01*
X240883Y220241D01*
X240803Y220161D01*
X240720Y220084D01*
X240634Y220009D01*
X240546Y219938D01*
X240456Y219870D01*
X240363Y219805D01*
X240268Y219743D01*
X240171Y219685D01*
X240072Y219630D01*
X239971Y219579D01*
X239868Y219531D01*
X239764Y219486D01*
X239658Y219446D01*
X239551Y219409D01*
X239443Y219376D01*
X239333Y219346D01*
X239223Y219321D01*
X239112Y219299D01*
X239000Y219282D01*
X238887Y219268D01*
X238774Y219258D01*
X238661Y219252D01*
X238548Y219250D01*
X238548Y219251D02*
X235303Y219251D01*
X239197Y219251D02*
X241794Y214058D01*
X247063Y214058D02*
X247063Y225742D01*
X252255Y225742D01*
X252255Y220549D02*
X247063Y220549D01*
X257115Y220549D02*
X260361Y220549D01*
X260361Y220550D02*
X260474Y220548D01*
X260587Y220542D01*
X260700Y220532D01*
X260813Y220518D01*
X260925Y220501D01*
X261036Y220479D01*
X261146Y220454D01*
X261256Y220424D01*
X261364Y220391D01*
X261471Y220354D01*
X261577Y220314D01*
X261681Y220269D01*
X261784Y220221D01*
X261885Y220170D01*
X261984Y220115D01*
X262081Y220057D01*
X262176Y219995D01*
X262269Y219930D01*
X262359Y219862D01*
X262447Y219791D01*
X262533Y219716D01*
X262616Y219639D01*
X262696Y219559D01*
X262773Y219476D01*
X262848Y219390D01*
X262919Y219302D01*
X262987Y219212D01*
X263052Y219119D01*
X263114Y219024D01*
X263172Y218927D01*
X263227Y218828D01*
X263278Y218727D01*
X263326Y218624D01*
X263371Y218520D01*
X263411Y218414D01*
X263448Y218307D01*
X263481Y218199D01*
X263511Y218089D01*
X263536Y217979D01*
X263558Y217868D01*
X263575Y217756D01*
X263589Y217643D01*
X263599Y217530D01*
X263605Y217417D01*
X263607Y217304D01*
X263605Y217191D01*
X263599Y217078D01*
X263589Y216965D01*
X263575Y216852D01*
X263558Y216740D01*
X263536Y216629D01*
X263511Y216519D01*
X263481Y216409D01*
X263448Y216301D01*
X263411Y216194D01*
X263371Y216088D01*
X263326Y215984D01*
X263278Y215881D01*
X263227Y215780D01*
X263172Y215681D01*
X263114Y215584D01*
X263052Y215489D01*
X262987Y215396D01*
X262919Y215306D01*
X262848Y215218D01*
X262773Y215132D01*
X262696Y215049D01*
X262616Y214969D01*
X262533Y214892D01*
X262447Y214817D01*
X262359Y214746D01*
X262269Y214678D01*
X262176Y214613D01*
X262081Y214551D01*
X261984Y214493D01*
X261885Y214438D01*
X261784Y214387D01*
X261681Y214339D01*
X261577Y214294D01*
X261471Y214254D01*
X261364Y214217D01*
X261256Y214184D01*
X261146Y214154D01*
X261036Y214129D01*
X260925Y214107D01*
X260813Y214090D01*
X260700Y214076D01*
X260587Y214066D01*
X260474Y214060D01*
X260361Y214058D01*
X257115Y214058D01*
X257115Y225742D01*
X260361Y225742D01*
X260462Y225740D01*
X260562Y225734D01*
X260662Y225724D01*
X260762Y225711D01*
X260861Y225693D01*
X260960Y225672D01*
X261057Y225647D01*
X261154Y225618D01*
X261249Y225585D01*
X261343Y225549D01*
X261435Y225509D01*
X261526Y225466D01*
X261615Y225419D01*
X261702Y225369D01*
X261788Y225315D01*
X261871Y225258D01*
X261951Y225198D01*
X262030Y225135D01*
X262106Y225068D01*
X262179Y224999D01*
X262249Y224927D01*
X262317Y224853D01*
X262382Y224776D01*
X262443Y224696D01*
X262502Y224614D01*
X262557Y224530D01*
X262609Y224444D01*
X262658Y224356D01*
X262703Y224266D01*
X262745Y224174D01*
X262783Y224081D01*
X262817Y223986D01*
X262848Y223891D01*
X262875Y223794D01*
X262898Y223696D01*
X262918Y223597D01*
X262933Y223497D01*
X262945Y223397D01*
X262953Y223297D01*
X262957Y223196D01*
X262957Y223096D01*
X262953Y222995D01*
X262945Y222895D01*
X262933Y222795D01*
X262918Y222695D01*
X262898Y222596D01*
X262875Y222498D01*
X262848Y222401D01*
X262817Y222306D01*
X262783Y222211D01*
X262745Y222118D01*
X262703Y222026D01*
X262658Y221936D01*
X262609Y221848D01*
X262557Y221762D01*
X262502Y221678D01*
X262443Y221596D01*
X262382Y221516D01*
X262317Y221439D01*
X262249Y221365D01*
X262179Y221293D01*
X262106Y221224D01*
X262030Y221157D01*
X261951Y221094D01*
X261871Y221034D01*
X261788Y220977D01*
X261702Y220923D01*
X261615Y220873D01*
X261526Y220826D01*
X261435Y220783D01*
X261343Y220743D01*
X261249Y220707D01*
X261154Y220674D01*
X261057Y220645D01*
X260960Y220620D01*
X260861Y220599D01*
X260762Y220581D01*
X260662Y220568D01*
X260562Y220558D01*
X260462Y220552D01*
X260361Y220550D01*
X270478Y225742D02*
X270478Y214058D01*
X267233Y225742D02*
X273724Y225742D01*
X277901Y223146D02*
X281146Y225742D01*
X281146Y214058D01*
X277901Y214058D02*
X284392Y214058D01*
X229203Y475158D02*
X229203Y486842D01*
X232448Y486842D01*
X232561Y486840D01*
X232674Y486834D01*
X232787Y486824D01*
X232900Y486810D01*
X233012Y486793D01*
X233123Y486771D01*
X233233Y486746D01*
X233343Y486716D01*
X233451Y486683D01*
X233558Y486646D01*
X233664Y486606D01*
X233768Y486561D01*
X233871Y486513D01*
X233972Y486462D01*
X234071Y486407D01*
X234168Y486349D01*
X234263Y486287D01*
X234356Y486222D01*
X234446Y486154D01*
X234534Y486083D01*
X234620Y486008D01*
X234703Y485931D01*
X234783Y485851D01*
X234860Y485768D01*
X234935Y485682D01*
X235006Y485594D01*
X235074Y485504D01*
X235139Y485411D01*
X235201Y485316D01*
X235259Y485219D01*
X235314Y485120D01*
X235365Y485019D01*
X235413Y484916D01*
X235458Y484812D01*
X235498Y484706D01*
X235535Y484599D01*
X235568Y484491D01*
X235598Y484381D01*
X235623Y484271D01*
X235645Y484160D01*
X235662Y484048D01*
X235676Y483935D01*
X235686Y483822D01*
X235692Y483709D01*
X235694Y483596D01*
X235692Y483483D01*
X235686Y483370D01*
X235676Y483257D01*
X235662Y483144D01*
X235645Y483032D01*
X235623Y482921D01*
X235598Y482811D01*
X235568Y482701D01*
X235535Y482593D01*
X235498Y482486D01*
X235458Y482380D01*
X235413Y482276D01*
X235365Y482173D01*
X235314Y482072D01*
X235259Y481973D01*
X235201Y481876D01*
X235139Y481781D01*
X235074Y481688D01*
X235006Y481598D01*
X234935Y481510D01*
X234860Y481424D01*
X234783Y481341D01*
X234703Y481261D01*
X234620Y481184D01*
X234534Y481109D01*
X234446Y481038D01*
X234356Y480970D01*
X234263Y480905D01*
X234168Y480843D01*
X234071Y480785D01*
X233972Y480730D01*
X233871Y480679D01*
X233768Y480631D01*
X233664Y480586D01*
X233558Y480546D01*
X233451Y480509D01*
X233343Y480476D01*
X233233Y480446D01*
X233123Y480421D01*
X233012Y480399D01*
X232900Y480382D01*
X232787Y480368D01*
X232674Y480358D01*
X232561Y480352D01*
X232448Y480350D01*
X232448Y480351D02*
X229203Y480351D01*
X233097Y480351D02*
X235694Y475158D01*
X240963Y475158D02*
X240963Y486842D01*
X246155Y486842D01*
X246155Y481649D02*
X240963Y481649D01*
X251015Y481649D02*
X254261Y481649D01*
X254261Y481650D02*
X254374Y481648D01*
X254487Y481642D01*
X254600Y481632D01*
X254713Y481618D01*
X254825Y481601D01*
X254936Y481579D01*
X255046Y481554D01*
X255156Y481524D01*
X255264Y481491D01*
X255371Y481454D01*
X255477Y481414D01*
X255581Y481369D01*
X255684Y481321D01*
X255785Y481270D01*
X255884Y481215D01*
X255981Y481157D01*
X256076Y481095D01*
X256169Y481030D01*
X256259Y480962D01*
X256347Y480891D01*
X256433Y480816D01*
X256516Y480739D01*
X256596Y480659D01*
X256673Y480576D01*
X256748Y480490D01*
X256819Y480402D01*
X256887Y480312D01*
X256952Y480219D01*
X257014Y480124D01*
X257072Y480027D01*
X257127Y479928D01*
X257178Y479827D01*
X257226Y479724D01*
X257271Y479620D01*
X257311Y479514D01*
X257348Y479407D01*
X257381Y479299D01*
X257411Y479189D01*
X257436Y479079D01*
X257458Y478968D01*
X257475Y478856D01*
X257489Y478743D01*
X257499Y478630D01*
X257505Y478517D01*
X257507Y478404D01*
X257505Y478291D01*
X257499Y478178D01*
X257489Y478065D01*
X257475Y477952D01*
X257458Y477840D01*
X257436Y477729D01*
X257411Y477619D01*
X257381Y477509D01*
X257348Y477401D01*
X257311Y477294D01*
X257271Y477188D01*
X257226Y477084D01*
X257178Y476981D01*
X257127Y476880D01*
X257072Y476781D01*
X257014Y476684D01*
X256952Y476589D01*
X256887Y476496D01*
X256819Y476406D01*
X256748Y476318D01*
X256673Y476232D01*
X256596Y476149D01*
X256516Y476069D01*
X256433Y475992D01*
X256347Y475917D01*
X256259Y475846D01*
X256169Y475778D01*
X256076Y475713D01*
X255981Y475651D01*
X255884Y475593D01*
X255785Y475538D01*
X255684Y475487D01*
X255581Y475439D01*
X255477Y475394D01*
X255371Y475354D01*
X255264Y475317D01*
X255156Y475284D01*
X255046Y475254D01*
X254936Y475229D01*
X254825Y475207D01*
X254713Y475190D01*
X254600Y475176D01*
X254487Y475166D01*
X254374Y475160D01*
X254261Y475158D01*
X251015Y475158D01*
X251015Y486842D01*
X254261Y486842D01*
X254362Y486840D01*
X254462Y486834D01*
X254562Y486824D01*
X254662Y486811D01*
X254761Y486793D01*
X254860Y486772D01*
X254957Y486747D01*
X255054Y486718D01*
X255149Y486685D01*
X255243Y486649D01*
X255335Y486609D01*
X255426Y486566D01*
X255515Y486519D01*
X255602Y486469D01*
X255688Y486415D01*
X255771Y486358D01*
X255851Y486298D01*
X255930Y486235D01*
X256006Y486168D01*
X256079Y486099D01*
X256149Y486027D01*
X256217Y485953D01*
X256282Y485876D01*
X256343Y485796D01*
X256402Y485714D01*
X256457Y485630D01*
X256509Y485544D01*
X256558Y485456D01*
X256603Y485366D01*
X256645Y485274D01*
X256683Y485181D01*
X256717Y485086D01*
X256748Y484991D01*
X256775Y484894D01*
X256798Y484796D01*
X256818Y484697D01*
X256833Y484597D01*
X256845Y484497D01*
X256853Y484397D01*
X256857Y484296D01*
X256857Y484196D01*
X256853Y484095D01*
X256845Y483995D01*
X256833Y483895D01*
X256818Y483795D01*
X256798Y483696D01*
X256775Y483598D01*
X256748Y483501D01*
X256717Y483406D01*
X256683Y483311D01*
X256645Y483218D01*
X256603Y483126D01*
X256558Y483036D01*
X256509Y482948D01*
X256457Y482862D01*
X256402Y482778D01*
X256343Y482696D01*
X256282Y482616D01*
X256217Y482539D01*
X256149Y482465D01*
X256079Y482393D01*
X256006Y482324D01*
X255930Y482257D01*
X255851Y482194D01*
X255771Y482134D01*
X255688Y482077D01*
X255602Y482023D01*
X255515Y481973D01*
X255426Y481926D01*
X255335Y481883D01*
X255243Y481843D01*
X255149Y481807D01*
X255054Y481774D01*
X254957Y481745D01*
X254860Y481720D01*
X254761Y481699D01*
X254662Y481681D01*
X254562Y481668D01*
X254462Y481658D01*
X254362Y481652D01*
X254261Y481650D01*
X264378Y486842D02*
X264378Y475158D01*
X261133Y486842D02*
X267624Y486842D01*
X275371Y486842D02*
X275478Y486840D01*
X275584Y486834D01*
X275690Y486824D01*
X275796Y486811D01*
X275902Y486793D01*
X276006Y486772D01*
X276110Y486747D01*
X276213Y486718D01*
X276314Y486686D01*
X276414Y486649D01*
X276513Y486609D01*
X276611Y486566D01*
X276707Y486519D01*
X276801Y486468D01*
X276893Y486414D01*
X276983Y486357D01*
X277071Y486297D01*
X277156Y486233D01*
X277239Y486166D01*
X277320Y486096D01*
X277398Y486024D01*
X277474Y485948D01*
X277546Y485870D01*
X277616Y485789D01*
X277683Y485706D01*
X277747Y485621D01*
X277807Y485533D01*
X277864Y485443D01*
X277918Y485351D01*
X277969Y485257D01*
X278016Y485161D01*
X278059Y485063D01*
X278099Y484964D01*
X278136Y484864D01*
X278168Y484763D01*
X278197Y484660D01*
X278222Y484556D01*
X278243Y484452D01*
X278261Y484346D01*
X278274Y484240D01*
X278284Y484134D01*
X278290Y484028D01*
X278292Y483921D01*
X275371Y486842D02*
X275250Y486840D01*
X275129Y486834D01*
X275009Y486824D01*
X274888Y486811D01*
X274769Y486793D01*
X274649Y486772D01*
X274531Y486747D01*
X274414Y486718D01*
X274297Y486685D01*
X274182Y486649D01*
X274068Y486608D01*
X273955Y486565D01*
X273843Y486517D01*
X273734Y486466D01*
X273626Y486411D01*
X273519Y486353D01*
X273415Y486292D01*
X273313Y486227D01*
X273213Y486159D01*
X273115Y486088D01*
X273019Y486014D01*
X272926Y485937D01*
X272836Y485856D01*
X272748Y485773D01*
X272663Y485687D01*
X272580Y485598D01*
X272501Y485507D01*
X272424Y485413D01*
X272351Y485317D01*
X272281Y485219D01*
X272214Y485118D01*
X272150Y485015D01*
X272090Y484910D01*
X272033Y484803D01*
X271979Y484695D01*
X271929Y484585D01*
X271883Y484473D01*
X271840Y484360D01*
X271801Y484245D01*
X277319Y481649D02*
X277398Y481726D01*
X277474Y481807D01*
X277547Y481890D01*
X277617Y481975D01*
X277684Y482063D01*
X277748Y482153D01*
X277808Y482245D01*
X277865Y482340D01*
X277919Y482436D01*
X277970Y482534D01*
X278017Y482634D01*
X278061Y482736D01*
X278101Y482839D01*
X278137Y482943D01*
X278169Y483049D01*
X278198Y483155D01*
X278223Y483263D01*
X278245Y483371D01*
X278262Y483481D01*
X278276Y483590D01*
X278285Y483700D01*
X278291Y483811D01*
X278293Y483921D01*
X277318Y481649D02*
X271801Y475158D01*
X278292Y475158D01*
D13*
X368600Y363555D02*
X365425Y361015D01*
X368600Y363555D02*
X368600Y352125D01*
X365425Y352125D02*
X371775Y352125D01*
X907235Y387365D02*
X909775Y396255D01*
X907235Y387365D02*
X913585Y387365D01*
X911680Y389905D02*
X911680Y384825D01*
X918665Y390540D02*
X918668Y390765D01*
X918676Y390990D01*
X918689Y391214D01*
X918708Y391438D01*
X918732Y391662D01*
X918761Y391885D01*
X918796Y392107D01*
X918836Y392328D01*
X918882Y392548D01*
X918932Y392767D01*
X918988Y392985D01*
X919049Y393202D01*
X919115Y393417D01*
X919186Y393630D01*
X919263Y393841D01*
X919344Y394051D01*
X919430Y394259D01*
X919521Y394464D01*
X919617Y394667D01*
X919617Y394668D02*
X919649Y394756D01*
X919685Y394843D01*
X919724Y394929D01*
X919767Y395013D01*
X919813Y395095D01*
X919862Y395175D01*
X919914Y395253D01*
X919970Y395329D01*
X920028Y395403D01*
X920090Y395474D01*
X920154Y395543D01*
X920221Y395609D01*
X920290Y395672D01*
X920362Y395733D01*
X920436Y395791D01*
X920513Y395845D01*
X920591Y395897D01*
X920672Y395945D01*
X920754Y395990D01*
X920839Y396032D01*
X920925Y396070D01*
X921012Y396105D01*
X921100Y396137D01*
X921190Y396164D01*
X921281Y396189D01*
X921373Y396209D01*
X921465Y396226D01*
X921559Y396239D01*
X921652Y396248D01*
X921746Y396254D01*
X921840Y396256D01*
X921934Y396254D01*
X922028Y396248D01*
X922121Y396239D01*
X922215Y396226D01*
X922307Y396209D01*
X922399Y396189D01*
X922490Y396164D01*
X922580Y396137D01*
X922668Y396105D01*
X922755Y396070D01*
X922841Y396032D01*
X922926Y395990D01*
X923008Y395945D01*
X923089Y395897D01*
X923167Y395845D01*
X923244Y395791D01*
X923318Y395733D01*
X923390Y395672D01*
X923459Y395609D01*
X923526Y395543D01*
X923590Y395474D01*
X923652Y395403D01*
X923710Y395329D01*
X923766Y395253D01*
X923818Y395175D01*
X923867Y395095D01*
X923913Y395013D01*
X923956Y394929D01*
X923995Y394843D01*
X924031Y394756D01*
X924063Y394668D01*
X924063Y394667D02*
X924159Y394464D01*
X924250Y394259D01*
X924336Y394051D01*
X924417Y393841D01*
X924494Y393630D01*
X924565Y393417D01*
X924631Y393202D01*
X924692Y392985D01*
X924748Y392767D01*
X924798Y392548D01*
X924844Y392328D01*
X924884Y392107D01*
X924919Y391885D01*
X924948Y391662D01*
X924972Y391438D01*
X924991Y391214D01*
X925004Y390990D01*
X925012Y390765D01*
X925015Y390540D01*
X918665Y390540D02*
X918668Y390315D01*
X918676Y390090D01*
X918689Y389866D01*
X918708Y389642D01*
X918732Y389418D01*
X918761Y389195D01*
X918796Y388973D01*
X918836Y388752D01*
X918882Y388532D01*
X918932Y388313D01*
X918988Y388095D01*
X919049Y387878D01*
X919115Y387663D01*
X919186Y387450D01*
X919263Y387239D01*
X919344Y387029D01*
X919430Y386821D01*
X919521Y386616D01*
X919617Y386413D01*
X919649Y386325D01*
X919685Y386238D01*
X919724Y386152D01*
X919767Y386068D01*
X919813Y385986D01*
X919862Y385906D01*
X919914Y385828D01*
X919970Y385752D01*
X920028Y385678D01*
X920090Y385607D01*
X920154Y385538D01*
X920221Y385472D01*
X920290Y385409D01*
X920362Y385348D01*
X920436Y385290D01*
X920513Y385236D01*
X920591Y385184D01*
X920672Y385136D01*
X920754Y385091D01*
X920839Y385049D01*
X920925Y385011D01*
X921012Y384976D01*
X921100Y384944D01*
X921190Y384917D01*
X921281Y384892D01*
X921373Y384872D01*
X921465Y384855D01*
X921559Y384842D01*
X921652Y384833D01*
X921746Y384827D01*
X921840Y384825D01*
X924063Y386413D02*
X924159Y386616D01*
X924250Y386821D01*
X924336Y387029D01*
X924417Y387239D01*
X924494Y387450D01*
X924565Y387663D01*
X924631Y387878D01*
X924692Y388095D01*
X924748Y388313D01*
X924798Y388532D01*
X924844Y388752D01*
X924884Y388973D01*
X924919Y389195D01*
X924948Y389418D01*
X924972Y389642D01*
X924991Y389866D01*
X925004Y390090D01*
X925012Y390315D01*
X925015Y390540D01*
X924063Y386413D02*
X924031Y386325D01*
X923995Y386238D01*
X923956Y386152D01*
X923913Y386068D01*
X923867Y385986D01*
X923818Y385906D01*
X923766Y385828D01*
X923710Y385752D01*
X923652Y385678D01*
X923590Y385607D01*
X923526Y385538D01*
X923459Y385472D01*
X923390Y385409D01*
X923318Y385348D01*
X923244Y385290D01*
X923167Y385236D01*
X923089Y385184D01*
X923008Y385136D01*
X922926Y385091D01*
X922841Y385049D01*
X922755Y385011D01*
X922668Y384976D01*
X922580Y384944D01*
X922490Y384917D01*
X922399Y384892D01*
X922307Y384872D01*
X922215Y384855D01*
X922121Y384842D01*
X922028Y384833D01*
X921934Y384827D01*
X921840Y384825D01*
X919300Y387365D02*
X924380Y393715D01*
X964900Y410300D02*
X314900Y410300D01*
X964900Y410300D02*
X964900Y110300D01*
X314900Y110300D01*
X314900Y410300D01*
X379900Y400300D02*
X379900Y350300D01*
X899900Y350300D01*
X899900Y400300D01*
X379900Y400300D01*
X559335Y341655D02*
X559335Y333400D01*
X559337Y333289D01*
X559343Y333179D01*
X559352Y333068D01*
X559366Y332958D01*
X559383Y332849D01*
X559404Y332740D01*
X559429Y332632D01*
X559458Y332525D01*
X559490Y332419D01*
X559526Y332314D01*
X559566Y332211D01*
X559609Y332109D01*
X559656Y332008D01*
X559707Y331909D01*
X559760Y331813D01*
X559817Y331718D01*
X559878Y331625D01*
X559941Y331534D01*
X560008Y331445D01*
X560078Y331359D01*
X560151Y331276D01*
X560226Y331194D01*
X560304Y331116D01*
X560386Y331041D01*
X560469Y330968D01*
X560555Y330898D01*
X560644Y330831D01*
X560735Y330768D01*
X560828Y330707D01*
X560923Y330650D01*
X561019Y330597D01*
X561118Y330546D01*
X561219Y330499D01*
X561321Y330456D01*
X561424Y330416D01*
X561529Y330380D01*
X561635Y330348D01*
X561742Y330319D01*
X561850Y330294D01*
X561959Y330273D01*
X562068Y330256D01*
X562178Y330242D01*
X562289Y330233D01*
X562399Y330227D01*
X562510Y330225D01*
X562621Y330227D01*
X562731Y330233D01*
X562842Y330242D01*
X562952Y330256D01*
X563061Y330273D01*
X563170Y330294D01*
X563278Y330319D01*
X563385Y330348D01*
X563491Y330380D01*
X563596Y330416D01*
X563699Y330456D01*
X563801Y330499D01*
X563902Y330546D01*
X564001Y330597D01*
X564098Y330650D01*
X564192Y330707D01*
X564285Y330768D01*
X564376Y330831D01*
X564465Y330898D01*
X564551Y330968D01*
X564634Y331041D01*
X564716Y331116D01*
X564794Y331194D01*
X564869Y331276D01*
X564942Y331359D01*
X565012Y331445D01*
X565079Y331534D01*
X565142Y331625D01*
X565203Y331718D01*
X565260Y331812D01*
X565313Y331909D01*
X565364Y332008D01*
X565411Y332109D01*
X565454Y332211D01*
X565494Y332314D01*
X565530Y332419D01*
X565562Y332525D01*
X565591Y332632D01*
X565616Y332740D01*
X565637Y332849D01*
X565654Y332958D01*
X565668Y333068D01*
X565677Y333179D01*
X565683Y333289D01*
X565685Y333400D01*
X565685Y341655D01*
X573559Y341655D02*
X573559Y330225D01*
X573559Y335940D02*
X571972Y336893D01*
X571971Y336892D02*
X571898Y336939D01*
X571827Y336988D01*
X571758Y337041D01*
X571692Y337097D01*
X571628Y337156D01*
X571567Y337217D01*
X571509Y337281D01*
X571454Y337348D01*
X571402Y337418D01*
X571354Y337489D01*
X571308Y337563D01*
X571266Y337639D01*
X571228Y337717D01*
X571193Y337796D01*
X571162Y337877D01*
X571135Y337959D01*
X571111Y338042D01*
X571091Y338127D01*
X571075Y338212D01*
X571063Y338298D01*
X571055Y338384D01*
X571051Y338470D01*
X571050Y338557D01*
X571054Y338644D01*
X571062Y338730D01*
X571073Y338816D01*
X571089Y338901D01*
X571108Y338985D01*
X571131Y339069D01*
X571158Y339151D01*
X571189Y339232D01*
X571224Y339312D01*
X571261Y339389D01*
X571303Y339465D01*
X571348Y339540D01*
X571396Y339611D01*
X571448Y339681D01*
X571502Y339748D01*
X571560Y339813D01*
X571620Y339875D01*
X571684Y339934D01*
X571750Y339990D01*
X571818Y340044D01*
X571889Y340093D01*
X571962Y340140D01*
X572037Y340183D01*
X572114Y340223D01*
X572192Y340259D01*
X572273Y340292D01*
X572354Y340321D01*
X572437Y340346D01*
X572521Y340368D01*
X572606Y340385D01*
X572607Y340385D02*
X572744Y340408D01*
X572883Y340428D01*
X573021Y340443D01*
X573160Y340455D01*
X573300Y340463D01*
X573439Y340466D01*
X573579Y340467D01*
X573718Y340463D01*
X573857Y340455D01*
X573996Y340444D01*
X574135Y340428D01*
X574273Y340409D01*
X574411Y340386D01*
X574548Y340359D01*
X574684Y340328D01*
X574819Y340294D01*
X574953Y340256D01*
X575087Y340214D01*
X575218Y340168D01*
X575349Y340119D01*
X575478Y340066D01*
X575606Y340010D01*
X575732Y339950D01*
X575856Y339887D01*
X575979Y339820D01*
X576099Y339750D01*
X573559Y335940D02*
X575147Y334988D01*
X575220Y334941D01*
X575291Y334892D01*
X575360Y334839D01*
X575426Y334783D01*
X575490Y334724D01*
X575551Y334663D01*
X575609Y334599D01*
X575664Y334532D01*
X575716Y334462D01*
X575764Y334391D01*
X575810Y334317D01*
X575852Y334241D01*
X575890Y334163D01*
X575925Y334084D01*
X575956Y334003D01*
X575983Y333921D01*
X576007Y333838D01*
X576027Y333753D01*
X576043Y333668D01*
X576055Y333582D01*
X576063Y333496D01*
X576067Y333410D01*
X576068Y333323D01*
X576064Y333236D01*
X576056Y333150D01*
X576045Y333064D01*
X576029Y332979D01*
X576010Y332895D01*
X575987Y332811D01*
X575960Y332729D01*
X575929Y332648D01*
X575894Y332568D01*
X575857Y332491D01*
X575815Y332415D01*
X575770Y332340D01*
X575722Y332269D01*
X575670Y332199D01*
X575616Y332132D01*
X575558Y332067D01*
X575498Y332005D01*
X575434Y331946D01*
X575368Y331890D01*
X575300Y331836D01*
X575229Y331787D01*
X575156Y331740D01*
X575081Y331697D01*
X575004Y331657D01*
X574926Y331621D01*
X574845Y331588D01*
X574764Y331559D01*
X574681Y331534D01*
X574597Y331512D01*
X574512Y331495D01*
X574511Y331495D02*
X574374Y331472D01*
X574235Y331452D01*
X574097Y331437D01*
X573958Y331425D01*
X573818Y331417D01*
X573679Y331414D01*
X573539Y331413D01*
X573400Y331417D01*
X573261Y331425D01*
X573122Y331436D01*
X572983Y331452D01*
X572845Y331471D01*
X572707Y331494D01*
X572570Y331521D01*
X572434Y331552D01*
X572299Y331586D01*
X572165Y331624D01*
X572031Y331666D01*
X571900Y331712D01*
X571769Y331761D01*
X571640Y331814D01*
X571512Y331870D01*
X571386Y331930D01*
X571262Y331993D01*
X571139Y332060D01*
X571019Y332130D01*
X581052Y339115D02*
X584227Y341655D01*
X584227Y330225D01*
X581052Y330225D02*
X587402Y330225D01*
D14*
X5600Y218250D02*
X5600Y205550D01*
X5600Y218250D02*
X11950Y224600D01*
X5600Y230950D01*
X5600Y243650D01*
X11950Y250000D01*
X5600Y205550D02*
X11950Y199200D01*
X11950Y250000D02*
X5600Y256350D01*
X5600Y269050D01*
X11950Y275400D01*
X5600Y281750D02*
X5600Y294450D01*
X5600Y281750D02*
X11950Y275400D01*
X5600Y294450D02*
X11950Y300800D01*
X50050Y300800D01*
X50050Y224600D02*
X56400Y218250D01*
X56400Y243650D02*
X50050Y250000D01*
X56400Y243650D02*
X56400Y230950D01*
X50050Y224600D01*
X50050Y199200D02*
X11950Y199200D01*
X50050Y199200D02*
X56400Y205550D01*
X56400Y218250D01*
X56400Y269050D02*
X50050Y275400D01*
X56400Y269050D02*
X56400Y256350D01*
X50050Y250000D01*
X50050Y275400D02*
X56400Y281750D01*
X56400Y294450D01*
X50050Y300800D01*
D13*
X39255Y190310D02*
X41795Y187135D01*
X39255Y190310D02*
X50685Y190310D01*
X50685Y187135D02*
X50685Y193485D01*
X17030Y310325D02*
X16919Y310327D01*
X16809Y310333D01*
X16698Y310342D01*
X16588Y310356D01*
X16479Y310373D01*
X16370Y310394D01*
X16262Y310419D01*
X16155Y310448D01*
X16049Y310480D01*
X15944Y310516D01*
X15841Y310556D01*
X15739Y310599D01*
X15638Y310646D01*
X15539Y310697D01*
X15443Y310750D01*
X15348Y310807D01*
X15255Y310868D01*
X15164Y310931D01*
X15075Y310998D01*
X14989Y311068D01*
X14906Y311141D01*
X14824Y311216D01*
X14746Y311294D01*
X14671Y311376D01*
X14598Y311459D01*
X14528Y311545D01*
X14461Y311634D01*
X14398Y311725D01*
X14337Y311818D01*
X14280Y311913D01*
X14227Y312009D01*
X14176Y312108D01*
X14129Y312209D01*
X14086Y312311D01*
X14046Y312414D01*
X14010Y312519D01*
X13978Y312625D01*
X13949Y312732D01*
X13924Y312840D01*
X13903Y312949D01*
X13886Y313058D01*
X13872Y313168D01*
X13863Y313279D01*
X13857Y313389D01*
X13855Y313500D01*
X13857Y313611D01*
X13863Y313721D01*
X13872Y313832D01*
X13886Y313942D01*
X13903Y314051D01*
X13924Y314160D01*
X13949Y314268D01*
X13978Y314375D01*
X14010Y314481D01*
X14046Y314586D01*
X14086Y314689D01*
X14129Y314791D01*
X14176Y314892D01*
X14227Y314991D01*
X14280Y315088D01*
X14337Y315182D01*
X14398Y315275D01*
X14461Y315366D01*
X14528Y315455D01*
X14598Y315541D01*
X14671Y315624D01*
X14746Y315706D01*
X14824Y315784D01*
X14906Y315859D01*
X14989Y315932D01*
X15075Y316002D01*
X15164Y316069D01*
X15255Y316132D01*
X15348Y316193D01*
X15442Y316250D01*
X15539Y316303D01*
X15638Y316354D01*
X15739Y316401D01*
X15841Y316444D01*
X15944Y316484D01*
X16049Y316520D01*
X16155Y316552D01*
X16262Y316581D01*
X16370Y316606D01*
X16479Y316627D01*
X16588Y316644D01*
X16698Y316658D01*
X16809Y316667D01*
X16919Y316673D01*
X17030Y316675D01*
X17141Y316673D01*
X17251Y316667D01*
X17362Y316658D01*
X17472Y316644D01*
X17581Y316627D01*
X17690Y316606D01*
X17798Y316581D01*
X17905Y316552D01*
X18011Y316520D01*
X18116Y316484D01*
X18219Y316444D01*
X18321Y316401D01*
X18422Y316354D01*
X18521Y316303D01*
X18618Y316250D01*
X18712Y316193D01*
X18805Y316132D01*
X18896Y316069D01*
X18985Y316002D01*
X19071Y315932D01*
X19154Y315859D01*
X19236Y315784D01*
X19314Y315706D01*
X19389Y315624D01*
X19462Y315541D01*
X19532Y315455D01*
X19599Y315366D01*
X19662Y315275D01*
X19723Y315182D01*
X19780Y315087D01*
X19833Y314991D01*
X19884Y314892D01*
X19931Y314791D01*
X19974Y314689D01*
X20014Y314586D01*
X20050Y314481D01*
X20082Y314375D01*
X20111Y314268D01*
X20136Y314160D01*
X20157Y314051D01*
X20174Y313942D01*
X20188Y313832D01*
X20197Y313721D01*
X20203Y313611D01*
X20205Y313500D01*
X20203Y313389D01*
X20197Y313279D01*
X20188Y313168D01*
X20174Y313058D01*
X20157Y312949D01*
X20136Y312840D01*
X20111Y312732D01*
X20082Y312625D01*
X20050Y312519D01*
X20014Y312414D01*
X19974Y312311D01*
X19931Y312209D01*
X19884Y312108D01*
X19833Y312009D01*
X19780Y311912D01*
X19723Y311818D01*
X19662Y311725D01*
X19599Y311634D01*
X19532Y311545D01*
X19462Y311459D01*
X19389Y311376D01*
X19314Y311294D01*
X19236Y311216D01*
X19154Y311141D01*
X19071Y311068D01*
X18985Y310998D01*
X18896Y310931D01*
X18805Y310868D01*
X18712Y310807D01*
X18617Y310750D01*
X18521Y310697D01*
X18422Y310646D01*
X18321Y310599D01*
X18219Y310556D01*
X18116Y310516D01*
X18011Y310480D01*
X17905Y310448D01*
X17798Y310419D01*
X17690Y310394D01*
X17581Y310373D01*
X17472Y310356D01*
X17362Y310342D01*
X17251Y310333D01*
X17141Y310327D01*
X17030Y310325D01*
X11315Y310960D02*
X11215Y310962D01*
X11116Y310968D01*
X11016Y310978D01*
X10918Y310991D01*
X10819Y311009D01*
X10722Y311030D01*
X10626Y311055D01*
X10530Y311084D01*
X10436Y311117D01*
X10343Y311153D01*
X10252Y311193D01*
X10162Y311237D01*
X10074Y311284D01*
X9988Y311334D01*
X9904Y311388D01*
X9822Y311445D01*
X9743Y311505D01*
X9665Y311569D01*
X9591Y311635D01*
X9519Y311704D01*
X9450Y311776D01*
X9384Y311850D01*
X9320Y311928D01*
X9260Y312007D01*
X9203Y312089D01*
X9149Y312173D01*
X9099Y312259D01*
X9052Y312347D01*
X9008Y312437D01*
X8968Y312528D01*
X8932Y312621D01*
X8899Y312715D01*
X8870Y312811D01*
X8845Y312907D01*
X8824Y313004D01*
X8806Y313103D01*
X8793Y313201D01*
X8783Y313301D01*
X8777Y313400D01*
X8775Y313500D01*
X8777Y313600D01*
X8783Y313699D01*
X8793Y313799D01*
X8806Y313897D01*
X8824Y313996D01*
X8845Y314093D01*
X8870Y314189D01*
X8899Y314285D01*
X8932Y314379D01*
X8968Y314472D01*
X9008Y314563D01*
X9052Y314653D01*
X9099Y314741D01*
X9149Y314827D01*
X9203Y314911D01*
X9260Y314993D01*
X9320Y315072D01*
X9384Y315150D01*
X9450Y315224D01*
X9519Y315296D01*
X9591Y315365D01*
X9665Y315431D01*
X9743Y315495D01*
X9822Y315555D01*
X9904Y315612D01*
X9988Y315666D01*
X10074Y315716D01*
X10162Y315763D01*
X10252Y315807D01*
X10343Y315847D01*
X10436Y315883D01*
X10530Y315916D01*
X10626Y315945D01*
X10722Y315970D01*
X10819Y315991D01*
X10918Y316009D01*
X11016Y316022D01*
X11116Y316032D01*
X11215Y316038D01*
X11315Y316040D01*
X11415Y316038D01*
X11514Y316032D01*
X11614Y316022D01*
X11712Y316009D01*
X11811Y315991D01*
X11908Y315970D01*
X12004Y315945D01*
X12100Y315916D01*
X12194Y315883D01*
X12287Y315847D01*
X12378Y315807D01*
X12468Y315763D01*
X12556Y315716D01*
X12642Y315666D01*
X12726Y315612D01*
X12808Y315555D01*
X12887Y315495D01*
X12965Y315431D01*
X13039Y315365D01*
X13111Y315296D01*
X13180Y315224D01*
X13246Y315150D01*
X13310Y315072D01*
X13370Y314993D01*
X13427Y314911D01*
X13481Y314827D01*
X13531Y314741D01*
X13578Y314653D01*
X13622Y314563D01*
X13662Y314472D01*
X13698Y314379D01*
X13731Y314285D01*
X13760Y314189D01*
X13785Y314093D01*
X13806Y313996D01*
X13824Y313897D01*
X13837Y313799D01*
X13847Y313699D01*
X13853Y313600D01*
X13855Y313500D01*
X13853Y313400D01*
X13847Y313301D01*
X13837Y313201D01*
X13824Y313103D01*
X13806Y313004D01*
X13785Y312907D01*
X13760Y312811D01*
X13731Y312715D01*
X13698Y312621D01*
X13662Y312528D01*
X13622Y312437D01*
X13578Y312347D01*
X13531Y312259D01*
X13481Y312173D01*
X13427Y312089D01*
X13370Y312007D01*
X13310Y311928D01*
X13246Y311850D01*
X13180Y311776D01*
X13111Y311704D01*
X13039Y311635D01*
X12965Y311569D01*
X12887Y311505D01*
X12808Y311445D01*
X12726Y311388D01*
X12642Y311334D01*
X12556Y311284D01*
X12468Y311237D01*
X12378Y311193D01*
X12287Y311153D01*
X12194Y311117D01*
X12100Y311084D01*
X12004Y311055D01*
X11908Y311030D01*
X11811Y311009D01*
X11712Y310991D01*
X11614Y310978D01*
X11514Y310968D01*
X11415Y310962D01*
X11315Y310960D01*
X15425Y163498D02*
X23680Y163498D01*
X23791Y163500D01*
X23901Y163506D01*
X24012Y163515D01*
X24122Y163529D01*
X24231Y163546D01*
X24340Y163567D01*
X24448Y163592D01*
X24555Y163621D01*
X24661Y163653D01*
X24766Y163689D01*
X24869Y163729D01*
X24971Y163772D01*
X25072Y163819D01*
X25171Y163870D01*
X25267Y163923D01*
X25362Y163980D01*
X25455Y164041D01*
X25546Y164104D01*
X25635Y164171D01*
X25721Y164241D01*
X25804Y164314D01*
X25886Y164389D01*
X25964Y164467D01*
X26039Y164549D01*
X26112Y164632D01*
X26182Y164718D01*
X26249Y164807D01*
X26312Y164898D01*
X26373Y164991D01*
X26430Y165085D01*
X26483Y165182D01*
X26534Y165281D01*
X26581Y165382D01*
X26624Y165484D01*
X26664Y165587D01*
X26700Y165692D01*
X26732Y165798D01*
X26761Y165905D01*
X26786Y166013D01*
X26807Y166122D01*
X26824Y166231D01*
X26838Y166341D01*
X26847Y166452D01*
X26853Y166562D01*
X26855Y166673D01*
X26853Y166784D01*
X26847Y166894D01*
X26838Y167005D01*
X26824Y167115D01*
X26807Y167224D01*
X26786Y167333D01*
X26761Y167441D01*
X26732Y167548D01*
X26700Y167654D01*
X26664Y167759D01*
X26624Y167862D01*
X26581Y167964D01*
X26534Y168065D01*
X26483Y168164D01*
X26430Y168260D01*
X26373Y168355D01*
X26312Y168448D01*
X26249Y168539D01*
X26182Y168628D01*
X26112Y168714D01*
X26039Y168797D01*
X25964Y168879D01*
X25886Y168957D01*
X25804Y169032D01*
X25721Y169105D01*
X25635Y169175D01*
X25546Y169242D01*
X25455Y169305D01*
X25362Y169366D01*
X25268Y169423D01*
X25171Y169476D01*
X25072Y169527D01*
X24971Y169574D01*
X24869Y169617D01*
X24766Y169657D01*
X24661Y169693D01*
X24555Y169725D01*
X24448Y169754D01*
X24340Y169779D01*
X24231Y169800D01*
X24122Y169817D01*
X24012Y169831D01*
X23901Y169840D01*
X23791Y169846D01*
X23680Y169848D01*
X15425Y169848D01*
X15425Y177722D02*
X26855Y177722D01*
X21140Y177722D02*
X20188Y176135D01*
X20188Y176134D02*
X20141Y176061D01*
X20092Y175990D01*
X20039Y175921D01*
X19983Y175855D01*
X19924Y175791D01*
X19863Y175730D01*
X19799Y175672D01*
X19732Y175617D01*
X19662Y175565D01*
X19591Y175517D01*
X19517Y175471D01*
X19441Y175429D01*
X19363Y175391D01*
X19284Y175356D01*
X19203Y175325D01*
X19121Y175298D01*
X19038Y175274D01*
X18953Y175254D01*
X18868Y175238D01*
X18782Y175226D01*
X18696Y175218D01*
X18610Y175214D01*
X18523Y175213D01*
X18436Y175217D01*
X18350Y175225D01*
X18264Y175236D01*
X18179Y175252D01*
X18095Y175271D01*
X18011Y175294D01*
X17929Y175321D01*
X17848Y175352D01*
X17768Y175387D01*
X17691Y175424D01*
X17615Y175466D01*
X17540Y175511D01*
X17469Y175559D01*
X17399Y175611D01*
X17332Y175665D01*
X17267Y175723D01*
X17205Y175783D01*
X17146Y175847D01*
X17090Y175913D01*
X17036Y175981D01*
X16987Y176052D01*
X16940Y176125D01*
X16897Y176200D01*
X16857Y176277D01*
X16821Y176355D01*
X16788Y176436D01*
X16759Y176517D01*
X16734Y176600D01*
X16712Y176684D01*
X16695Y176769D01*
X16695Y176770D02*
X16672Y176907D01*
X16652Y177046D01*
X16637Y177184D01*
X16625Y177323D01*
X16617Y177463D01*
X16614Y177602D01*
X16613Y177742D01*
X16617Y177881D01*
X16625Y178020D01*
X16636Y178159D01*
X16652Y178298D01*
X16671Y178436D01*
X16694Y178574D01*
X16721Y178711D01*
X16752Y178847D01*
X16786Y178982D01*
X16824Y179116D01*
X16866Y179250D01*
X16912Y179381D01*
X16961Y179512D01*
X17014Y179641D01*
X17070Y179769D01*
X17130Y179895D01*
X17193Y180019D01*
X17260Y180142D01*
X17330Y180262D01*
X21140Y177722D02*
X22093Y179310D01*
X22092Y179310D02*
X22139Y179383D01*
X22188Y179454D01*
X22241Y179523D01*
X22297Y179589D01*
X22356Y179653D01*
X22417Y179714D01*
X22481Y179772D01*
X22548Y179827D01*
X22618Y179879D01*
X22689Y179927D01*
X22763Y179973D01*
X22839Y180015D01*
X22917Y180053D01*
X22996Y180088D01*
X23077Y180119D01*
X23159Y180146D01*
X23242Y180170D01*
X23327Y180190D01*
X23412Y180206D01*
X23498Y180218D01*
X23584Y180226D01*
X23670Y180230D01*
X23757Y180231D01*
X23844Y180227D01*
X23930Y180219D01*
X24016Y180208D01*
X24101Y180192D01*
X24185Y180173D01*
X24269Y180150D01*
X24351Y180123D01*
X24432Y180092D01*
X24512Y180057D01*
X24589Y180020D01*
X24665Y179978D01*
X24740Y179933D01*
X24811Y179885D01*
X24881Y179833D01*
X24948Y179779D01*
X25013Y179721D01*
X25075Y179661D01*
X25134Y179597D01*
X25190Y179531D01*
X25244Y179463D01*
X25293Y179392D01*
X25340Y179319D01*
X25383Y179244D01*
X25423Y179167D01*
X25459Y179089D01*
X25492Y179008D01*
X25521Y178927D01*
X25546Y178844D01*
X25568Y178760D01*
X25585Y178675D01*
X25585Y178674D02*
X25608Y178537D01*
X25628Y178398D01*
X25643Y178260D01*
X25655Y178121D01*
X25663Y177981D01*
X25666Y177842D01*
X25667Y177702D01*
X25663Y177563D01*
X25655Y177424D01*
X25644Y177285D01*
X25628Y177146D01*
X25609Y177008D01*
X25586Y176870D01*
X25559Y176733D01*
X25528Y176597D01*
X25494Y176462D01*
X25456Y176328D01*
X25414Y176194D01*
X25368Y176063D01*
X25319Y175932D01*
X25266Y175803D01*
X25210Y175675D01*
X25150Y175549D01*
X25087Y175425D01*
X25020Y175302D01*
X24950Y175182D01*
X15425Y188708D02*
X15427Y188812D01*
X15433Y188917D01*
X15442Y189021D01*
X15455Y189124D01*
X15473Y189227D01*
X15493Y189329D01*
X15518Y189431D01*
X15546Y189531D01*
X15578Y189631D01*
X15614Y189729D01*
X15653Y189826D01*
X15695Y189921D01*
X15741Y190015D01*
X15791Y190107D01*
X15843Y190197D01*
X15899Y190285D01*
X15959Y190371D01*
X16021Y190455D01*
X16086Y190536D01*
X16154Y190615D01*
X16226Y190692D01*
X16299Y190765D01*
X16376Y190837D01*
X16455Y190905D01*
X16536Y190970D01*
X16620Y191032D01*
X16706Y191092D01*
X16794Y191148D01*
X16884Y191200D01*
X16976Y191250D01*
X17070Y191296D01*
X17165Y191338D01*
X17262Y191377D01*
X17360Y191413D01*
X17460Y191445D01*
X17560Y191473D01*
X17662Y191498D01*
X17764Y191518D01*
X17867Y191536D01*
X17970Y191549D01*
X18074Y191558D01*
X18179Y191564D01*
X18283Y191566D01*
X15425Y188708D02*
X15427Y188590D01*
X15433Y188471D01*
X15442Y188353D01*
X15455Y188236D01*
X15473Y188119D01*
X15493Y188002D01*
X15518Y187886D01*
X15546Y187771D01*
X15579Y187658D01*
X15614Y187545D01*
X15654Y187433D01*
X15696Y187323D01*
X15743Y187214D01*
X15793Y187106D01*
X15846Y187001D01*
X15903Y186897D01*
X15963Y186795D01*
X16026Y186695D01*
X16093Y186597D01*
X16162Y186501D01*
X16235Y186408D01*
X16311Y186317D01*
X16389Y186228D01*
X16471Y186142D01*
X16555Y186059D01*
X16641Y185978D01*
X16731Y185901D01*
X16822Y185826D01*
X16916Y185754D01*
X17013Y185685D01*
X17111Y185620D01*
X17212Y185557D01*
X17315Y185498D01*
X17419Y185442D01*
X17525Y185390D01*
X17633Y185341D01*
X17742Y185296D01*
X17853Y185254D01*
X17965Y185216D01*
X20505Y190613D02*
X20430Y190689D01*
X20351Y190764D01*
X20270Y190835D01*
X20186Y190904D01*
X20100Y190969D01*
X20012Y191031D01*
X19922Y191091D01*
X19830Y191147D01*
X19735Y191200D01*
X19639Y191249D01*
X19541Y191295D01*
X19442Y191338D01*
X19341Y191377D01*
X19239Y191412D01*
X19136Y191444D01*
X19032Y191472D01*
X18927Y191497D01*
X18820Y191518D01*
X18714Y191535D01*
X18607Y191548D01*
X18499Y191557D01*
X18391Y191563D01*
X18283Y191565D01*
X20505Y190613D02*
X26855Y185215D01*
X26855Y191565D01*
D14*
X1034400Y205550D02*
X1034400Y218250D01*
X1028050Y224600D01*
X1034400Y230950D01*
X1034400Y243650D01*
X1028050Y250000D01*
X1034400Y205550D02*
X1028050Y199200D01*
X1028050Y250000D02*
X1034400Y256350D01*
X1034400Y269050D01*
X1028050Y275400D01*
X1034400Y281750D02*
X1034400Y294450D01*
X1034400Y281750D02*
X1028050Y275400D01*
X1034400Y294450D02*
X1028050Y300800D01*
X989950Y300800D01*
X989950Y224600D02*
X983600Y218250D01*
X983600Y243650D02*
X989950Y250000D01*
X983600Y243650D02*
X983600Y230950D01*
X989950Y224600D01*
X989950Y199200D02*
X1028050Y199200D01*
X989950Y199200D02*
X983600Y205550D01*
X983600Y218250D01*
X983600Y269050D02*
X989950Y275400D01*
X983600Y269050D02*
X983600Y256350D01*
X989950Y250000D01*
X989950Y275400D02*
X983600Y281750D01*
X983600Y294450D01*
X989950Y300800D01*
D13*
X1000745Y190310D02*
X998205Y187135D01*
X1000745Y190310D02*
X989315Y190310D01*
X989315Y187135D02*
X989315Y193485D01*
X1022970Y310325D02*
X1023081Y310327D01*
X1023191Y310333D01*
X1023302Y310342D01*
X1023412Y310356D01*
X1023521Y310373D01*
X1023630Y310394D01*
X1023738Y310419D01*
X1023845Y310448D01*
X1023951Y310480D01*
X1024056Y310516D01*
X1024159Y310556D01*
X1024261Y310599D01*
X1024362Y310646D01*
X1024461Y310697D01*
X1024558Y310750D01*
X1024652Y310807D01*
X1024745Y310868D01*
X1024836Y310931D01*
X1024925Y310998D01*
X1025011Y311068D01*
X1025094Y311141D01*
X1025176Y311216D01*
X1025254Y311294D01*
X1025329Y311376D01*
X1025402Y311459D01*
X1025472Y311545D01*
X1025539Y311634D01*
X1025602Y311725D01*
X1025663Y311818D01*
X1025720Y311912D01*
X1025773Y312009D01*
X1025824Y312108D01*
X1025871Y312209D01*
X1025914Y312311D01*
X1025954Y312414D01*
X1025990Y312519D01*
X1026022Y312625D01*
X1026051Y312732D01*
X1026076Y312840D01*
X1026097Y312949D01*
X1026114Y313058D01*
X1026128Y313168D01*
X1026137Y313279D01*
X1026143Y313389D01*
X1026145Y313500D01*
X1026143Y313611D01*
X1026137Y313721D01*
X1026128Y313832D01*
X1026114Y313942D01*
X1026097Y314051D01*
X1026076Y314160D01*
X1026051Y314268D01*
X1026022Y314375D01*
X1025990Y314481D01*
X1025954Y314586D01*
X1025914Y314689D01*
X1025871Y314791D01*
X1025824Y314892D01*
X1025773Y314991D01*
X1025720Y315087D01*
X1025663Y315182D01*
X1025602Y315275D01*
X1025539Y315366D01*
X1025472Y315455D01*
X1025402Y315541D01*
X1025329Y315624D01*
X1025254Y315706D01*
X1025176Y315784D01*
X1025094Y315859D01*
X1025011Y315932D01*
X1024925Y316002D01*
X1024836Y316069D01*
X1024745Y316132D01*
X1024652Y316193D01*
X1024558Y316250D01*
X1024461Y316303D01*
X1024362Y316354D01*
X1024261Y316401D01*
X1024159Y316444D01*
X1024056Y316484D01*
X1023951Y316520D01*
X1023845Y316552D01*
X1023738Y316581D01*
X1023630Y316606D01*
X1023521Y316627D01*
X1023412Y316644D01*
X1023302Y316658D01*
X1023191Y316667D01*
X1023081Y316673D01*
X1022970Y316675D01*
X1022859Y316673D01*
X1022749Y316667D01*
X1022638Y316658D01*
X1022528Y316644D01*
X1022419Y316627D01*
X1022310Y316606D01*
X1022202Y316581D01*
X1022095Y316552D01*
X1021989Y316520D01*
X1021884Y316484D01*
X1021781Y316444D01*
X1021679Y316401D01*
X1021578Y316354D01*
X1021479Y316303D01*
X1021383Y316250D01*
X1021288Y316193D01*
X1021195Y316132D01*
X1021104Y316069D01*
X1021015Y316002D01*
X1020929Y315932D01*
X1020846Y315859D01*
X1020764Y315784D01*
X1020686Y315706D01*
X1020611Y315624D01*
X1020538Y315541D01*
X1020468Y315455D01*
X1020401Y315366D01*
X1020338Y315275D01*
X1020277Y315182D01*
X1020220Y315088D01*
X1020167Y314991D01*
X1020116Y314892D01*
X1020069Y314791D01*
X1020026Y314689D01*
X1019986Y314586D01*
X1019950Y314481D01*
X1019918Y314375D01*
X1019889Y314268D01*
X1019864Y314160D01*
X1019843Y314051D01*
X1019826Y313942D01*
X1019812Y313832D01*
X1019803Y313721D01*
X1019797Y313611D01*
X1019795Y313500D01*
X1019797Y313389D01*
X1019803Y313279D01*
X1019812Y313168D01*
X1019826Y313058D01*
X1019843Y312949D01*
X1019864Y312840D01*
X1019889Y312732D01*
X1019918Y312625D01*
X1019950Y312519D01*
X1019986Y312414D01*
X1020026Y312311D01*
X1020069Y312209D01*
X1020116Y312108D01*
X1020167Y312009D01*
X1020220Y311913D01*
X1020277Y311818D01*
X1020338Y311725D01*
X1020401Y311634D01*
X1020468Y311545D01*
X1020538Y311459D01*
X1020611Y311376D01*
X1020686Y311294D01*
X1020764Y311216D01*
X1020846Y311141D01*
X1020929Y311068D01*
X1021015Y310998D01*
X1021104Y310931D01*
X1021195Y310868D01*
X1021288Y310807D01*
X1021383Y310750D01*
X1021479Y310697D01*
X1021578Y310646D01*
X1021679Y310599D01*
X1021781Y310556D01*
X1021884Y310516D01*
X1021989Y310480D01*
X1022095Y310448D01*
X1022202Y310419D01*
X1022310Y310394D01*
X1022419Y310373D01*
X1022528Y310356D01*
X1022638Y310342D01*
X1022749Y310333D01*
X1022859Y310327D01*
X1022970Y310325D01*
X1028685Y310960D02*
X1028785Y310962D01*
X1028884Y310968D01*
X1028984Y310978D01*
X1029082Y310991D01*
X1029181Y311009D01*
X1029278Y311030D01*
X1029374Y311055D01*
X1029470Y311084D01*
X1029564Y311117D01*
X1029657Y311153D01*
X1029748Y311193D01*
X1029838Y311237D01*
X1029926Y311284D01*
X1030012Y311334D01*
X1030096Y311388D01*
X1030178Y311445D01*
X1030257Y311505D01*
X1030335Y311569D01*
X1030409Y311635D01*
X1030481Y311704D01*
X1030550Y311776D01*
X1030616Y311850D01*
X1030680Y311928D01*
X1030740Y312007D01*
X1030797Y312089D01*
X1030851Y312173D01*
X1030901Y312259D01*
X1030948Y312347D01*
X1030992Y312437D01*
X1031032Y312528D01*
X1031068Y312621D01*
X1031101Y312715D01*
X1031130Y312811D01*
X1031155Y312907D01*
X1031176Y313004D01*
X1031194Y313103D01*
X1031207Y313201D01*
X1031217Y313301D01*
X1031223Y313400D01*
X1031225Y313500D01*
X1031223Y313600D01*
X1031217Y313699D01*
X1031207Y313799D01*
X1031194Y313897D01*
X1031176Y313996D01*
X1031155Y314093D01*
X1031130Y314189D01*
X1031101Y314285D01*
X1031068Y314379D01*
X1031032Y314472D01*
X1030992Y314563D01*
X1030948Y314653D01*
X1030901Y314741D01*
X1030851Y314827D01*
X1030797Y314911D01*
X1030740Y314993D01*
X1030680Y315072D01*
X1030616Y315150D01*
X1030550Y315224D01*
X1030481Y315296D01*
X1030409Y315365D01*
X1030335Y315431D01*
X1030257Y315495D01*
X1030178Y315555D01*
X1030096Y315612D01*
X1030012Y315666D01*
X1029926Y315716D01*
X1029838Y315763D01*
X1029748Y315807D01*
X1029657Y315847D01*
X1029564Y315883D01*
X1029470Y315916D01*
X1029374Y315945D01*
X1029278Y315970D01*
X1029181Y315991D01*
X1029082Y316009D01*
X1028984Y316022D01*
X1028884Y316032D01*
X1028785Y316038D01*
X1028685Y316040D01*
X1028585Y316038D01*
X1028486Y316032D01*
X1028386Y316022D01*
X1028288Y316009D01*
X1028189Y315991D01*
X1028092Y315970D01*
X1027996Y315945D01*
X1027900Y315916D01*
X1027806Y315883D01*
X1027713Y315847D01*
X1027622Y315807D01*
X1027532Y315763D01*
X1027444Y315716D01*
X1027358Y315666D01*
X1027274Y315612D01*
X1027192Y315555D01*
X1027113Y315495D01*
X1027035Y315431D01*
X1026961Y315365D01*
X1026889Y315296D01*
X1026820Y315224D01*
X1026754Y315150D01*
X1026690Y315072D01*
X1026630Y314993D01*
X1026573Y314911D01*
X1026519Y314827D01*
X1026469Y314741D01*
X1026422Y314653D01*
X1026378Y314563D01*
X1026338Y314472D01*
X1026302Y314379D01*
X1026269Y314285D01*
X1026240Y314189D01*
X1026215Y314093D01*
X1026194Y313996D01*
X1026176Y313897D01*
X1026163Y313799D01*
X1026153Y313699D01*
X1026147Y313600D01*
X1026145Y313500D01*
X1026147Y313400D01*
X1026153Y313301D01*
X1026163Y313201D01*
X1026176Y313103D01*
X1026194Y313004D01*
X1026215Y312907D01*
X1026240Y312811D01*
X1026269Y312715D01*
X1026302Y312621D01*
X1026338Y312528D01*
X1026378Y312437D01*
X1026422Y312347D01*
X1026469Y312259D01*
X1026519Y312173D01*
X1026573Y312089D01*
X1026630Y312007D01*
X1026690Y311928D01*
X1026754Y311850D01*
X1026820Y311776D01*
X1026889Y311704D01*
X1026961Y311635D01*
X1027035Y311569D01*
X1027113Y311505D01*
X1027192Y311445D01*
X1027274Y311388D01*
X1027358Y311334D01*
X1027444Y311284D01*
X1027532Y311237D01*
X1027622Y311193D01*
X1027713Y311153D01*
X1027806Y311117D01*
X1027900Y311084D01*
X1027996Y311055D01*
X1028092Y311030D01*
X1028189Y311009D01*
X1028288Y310991D01*
X1028386Y310978D01*
X1028486Y310968D01*
X1028585Y310962D01*
X1028685Y310960D01*
X998845Y181265D02*
X998845Y173010D01*
X998847Y172899D01*
X998853Y172789D01*
X998862Y172678D01*
X998876Y172568D01*
X998893Y172459D01*
X998914Y172350D01*
X998939Y172242D01*
X998968Y172135D01*
X999000Y172029D01*
X999036Y171924D01*
X999076Y171821D01*
X999119Y171719D01*
X999166Y171618D01*
X999217Y171519D01*
X999270Y171423D01*
X999327Y171328D01*
X999388Y171235D01*
X999451Y171144D01*
X999518Y171055D01*
X999588Y170969D01*
X999661Y170886D01*
X999736Y170804D01*
X999814Y170726D01*
X999896Y170651D01*
X999979Y170578D01*
X1000065Y170508D01*
X1000154Y170441D01*
X1000245Y170378D01*
X1000338Y170317D01*
X1000433Y170260D01*
X1000529Y170207D01*
X1000628Y170156D01*
X1000729Y170109D01*
X1000831Y170066D01*
X1000934Y170026D01*
X1001039Y169990D01*
X1001145Y169958D01*
X1001252Y169929D01*
X1001360Y169904D01*
X1001469Y169883D01*
X1001578Y169866D01*
X1001688Y169852D01*
X1001799Y169843D01*
X1001909Y169837D01*
X1002020Y169835D01*
X1002131Y169837D01*
X1002241Y169843D01*
X1002352Y169852D01*
X1002462Y169866D01*
X1002571Y169883D01*
X1002680Y169904D01*
X1002788Y169929D01*
X1002895Y169958D01*
X1003001Y169990D01*
X1003106Y170026D01*
X1003209Y170066D01*
X1003311Y170109D01*
X1003412Y170156D01*
X1003511Y170207D01*
X1003608Y170260D01*
X1003702Y170317D01*
X1003795Y170378D01*
X1003886Y170441D01*
X1003975Y170508D01*
X1004061Y170578D01*
X1004144Y170651D01*
X1004226Y170726D01*
X1004304Y170804D01*
X1004379Y170886D01*
X1004452Y170969D01*
X1004522Y171055D01*
X1004589Y171144D01*
X1004652Y171235D01*
X1004713Y171328D01*
X1004770Y171422D01*
X1004823Y171519D01*
X1004874Y171618D01*
X1004921Y171719D01*
X1004964Y171821D01*
X1005004Y171924D01*
X1005040Y172029D01*
X1005072Y172135D01*
X1005101Y172242D01*
X1005126Y172350D01*
X1005147Y172459D01*
X1005164Y172568D01*
X1005178Y172678D01*
X1005187Y172789D01*
X1005193Y172899D01*
X1005195Y173010D01*
X1005195Y181265D01*
X1013069Y181265D02*
X1013069Y169835D01*
X1013069Y175550D02*
X1011482Y176503D01*
X1011481Y176502D02*
X1011408Y176549D01*
X1011337Y176598D01*
X1011268Y176651D01*
X1011202Y176707D01*
X1011138Y176766D01*
X1011077Y176827D01*
X1011019Y176891D01*
X1010964Y176958D01*
X1010912Y177028D01*
X1010864Y177099D01*
X1010818Y177173D01*
X1010776Y177249D01*
X1010738Y177327D01*
X1010703Y177406D01*
X1010672Y177487D01*
X1010645Y177569D01*
X1010621Y177652D01*
X1010601Y177737D01*
X1010585Y177822D01*
X1010573Y177908D01*
X1010565Y177994D01*
X1010561Y178080D01*
X1010560Y178167D01*
X1010564Y178254D01*
X1010572Y178340D01*
X1010583Y178426D01*
X1010599Y178511D01*
X1010618Y178595D01*
X1010641Y178679D01*
X1010668Y178761D01*
X1010699Y178842D01*
X1010734Y178922D01*
X1010771Y178999D01*
X1010813Y179075D01*
X1010858Y179150D01*
X1010906Y179221D01*
X1010958Y179291D01*
X1011012Y179358D01*
X1011070Y179423D01*
X1011130Y179485D01*
X1011194Y179544D01*
X1011260Y179600D01*
X1011328Y179654D01*
X1011399Y179703D01*
X1011472Y179750D01*
X1011547Y179793D01*
X1011624Y179833D01*
X1011702Y179869D01*
X1011783Y179902D01*
X1011864Y179931D01*
X1011947Y179956D01*
X1012031Y179978D01*
X1012116Y179995D01*
X1012117Y179995D02*
X1012254Y180018D01*
X1012393Y180038D01*
X1012531Y180053D01*
X1012670Y180065D01*
X1012810Y180073D01*
X1012949Y180076D01*
X1013089Y180077D01*
X1013228Y180073D01*
X1013367Y180065D01*
X1013506Y180054D01*
X1013645Y180038D01*
X1013783Y180019D01*
X1013921Y179996D01*
X1014058Y179969D01*
X1014194Y179938D01*
X1014329Y179904D01*
X1014463Y179866D01*
X1014597Y179824D01*
X1014728Y179778D01*
X1014859Y179729D01*
X1014988Y179676D01*
X1015116Y179620D01*
X1015242Y179560D01*
X1015366Y179497D01*
X1015489Y179430D01*
X1015609Y179360D01*
X1013069Y175550D02*
X1014657Y174598D01*
X1014730Y174551D01*
X1014801Y174502D01*
X1014870Y174449D01*
X1014936Y174393D01*
X1015000Y174334D01*
X1015061Y174273D01*
X1015119Y174209D01*
X1015174Y174142D01*
X1015226Y174072D01*
X1015274Y174001D01*
X1015320Y173927D01*
X1015362Y173851D01*
X1015400Y173773D01*
X1015435Y173694D01*
X1015466Y173613D01*
X1015493Y173531D01*
X1015517Y173448D01*
X1015537Y173363D01*
X1015553Y173278D01*
X1015565Y173192D01*
X1015573Y173106D01*
X1015577Y173020D01*
X1015578Y172933D01*
X1015574Y172846D01*
X1015566Y172760D01*
X1015555Y172674D01*
X1015539Y172589D01*
X1015520Y172505D01*
X1015497Y172421D01*
X1015470Y172339D01*
X1015439Y172258D01*
X1015404Y172178D01*
X1015367Y172101D01*
X1015325Y172025D01*
X1015280Y171950D01*
X1015232Y171879D01*
X1015180Y171809D01*
X1015126Y171742D01*
X1015068Y171677D01*
X1015008Y171615D01*
X1014944Y171556D01*
X1014878Y171500D01*
X1014810Y171446D01*
X1014739Y171397D01*
X1014666Y171350D01*
X1014591Y171307D01*
X1014514Y171267D01*
X1014436Y171231D01*
X1014355Y171198D01*
X1014274Y171169D01*
X1014191Y171144D01*
X1014107Y171122D01*
X1014022Y171105D01*
X1014021Y171105D02*
X1013884Y171082D01*
X1013745Y171062D01*
X1013607Y171047D01*
X1013468Y171035D01*
X1013328Y171027D01*
X1013189Y171024D01*
X1013049Y171023D01*
X1012910Y171027D01*
X1012771Y171035D01*
X1012632Y171046D01*
X1012493Y171062D01*
X1012355Y171081D01*
X1012217Y171104D01*
X1012080Y171131D01*
X1011944Y171162D01*
X1011809Y171196D01*
X1011675Y171234D01*
X1011541Y171276D01*
X1011410Y171322D01*
X1011279Y171371D01*
X1011150Y171424D01*
X1011022Y171480D01*
X1010896Y171540D01*
X1010772Y171603D01*
X1010649Y171670D01*
X1010529Y171740D01*
X1020562Y169835D02*
X1023737Y169835D01*
X1023848Y169837D01*
X1023958Y169843D01*
X1024069Y169852D01*
X1024179Y169866D01*
X1024288Y169883D01*
X1024397Y169904D01*
X1024505Y169929D01*
X1024612Y169958D01*
X1024718Y169990D01*
X1024823Y170026D01*
X1024926Y170066D01*
X1025028Y170109D01*
X1025129Y170156D01*
X1025228Y170207D01*
X1025325Y170260D01*
X1025419Y170317D01*
X1025512Y170378D01*
X1025603Y170441D01*
X1025692Y170508D01*
X1025778Y170578D01*
X1025861Y170651D01*
X1025943Y170726D01*
X1026021Y170804D01*
X1026096Y170886D01*
X1026169Y170969D01*
X1026239Y171055D01*
X1026306Y171144D01*
X1026369Y171235D01*
X1026430Y171328D01*
X1026487Y171422D01*
X1026540Y171519D01*
X1026591Y171618D01*
X1026638Y171719D01*
X1026681Y171821D01*
X1026721Y171924D01*
X1026757Y172029D01*
X1026789Y172135D01*
X1026818Y172242D01*
X1026843Y172350D01*
X1026864Y172459D01*
X1026881Y172568D01*
X1026895Y172678D01*
X1026904Y172789D01*
X1026910Y172899D01*
X1026912Y173010D01*
X1026910Y173121D01*
X1026904Y173231D01*
X1026895Y173342D01*
X1026881Y173452D01*
X1026864Y173561D01*
X1026843Y173670D01*
X1026818Y173778D01*
X1026789Y173885D01*
X1026757Y173991D01*
X1026721Y174096D01*
X1026681Y174199D01*
X1026638Y174301D01*
X1026591Y174402D01*
X1026540Y174501D01*
X1026487Y174597D01*
X1026430Y174692D01*
X1026369Y174785D01*
X1026306Y174876D01*
X1026239Y174965D01*
X1026169Y175051D01*
X1026096Y175134D01*
X1026021Y175216D01*
X1025943Y175294D01*
X1025861Y175369D01*
X1025778Y175442D01*
X1025692Y175512D01*
X1025603Y175579D01*
X1025512Y175642D01*
X1025419Y175703D01*
X1025325Y175760D01*
X1025228Y175813D01*
X1025129Y175864D01*
X1025028Y175911D01*
X1024926Y175954D01*
X1024823Y175994D01*
X1024718Y176030D01*
X1024612Y176062D01*
X1024505Y176091D01*
X1024397Y176116D01*
X1024288Y176137D01*
X1024179Y176154D01*
X1024069Y176168D01*
X1023958Y176177D01*
X1023848Y176183D01*
X1023737Y176185D01*
X1024372Y181265D02*
X1020562Y181265D01*
X1024372Y181265D02*
X1024472Y181263D01*
X1024571Y181257D01*
X1024671Y181247D01*
X1024769Y181234D01*
X1024868Y181216D01*
X1024965Y181195D01*
X1025061Y181170D01*
X1025157Y181141D01*
X1025251Y181108D01*
X1025344Y181072D01*
X1025435Y181032D01*
X1025525Y180988D01*
X1025613Y180941D01*
X1025699Y180891D01*
X1025783Y180837D01*
X1025865Y180780D01*
X1025944Y180720D01*
X1026022Y180656D01*
X1026096Y180590D01*
X1026168Y180521D01*
X1026237Y180449D01*
X1026303Y180375D01*
X1026367Y180297D01*
X1026427Y180218D01*
X1026484Y180136D01*
X1026538Y180052D01*
X1026588Y179966D01*
X1026635Y179878D01*
X1026679Y179788D01*
X1026719Y179697D01*
X1026755Y179604D01*
X1026788Y179510D01*
X1026817Y179414D01*
X1026842Y179318D01*
X1026863Y179221D01*
X1026881Y179122D01*
X1026894Y179024D01*
X1026904Y178924D01*
X1026910Y178825D01*
X1026912Y178725D01*
X1026910Y178625D01*
X1026904Y178526D01*
X1026894Y178426D01*
X1026881Y178328D01*
X1026863Y178229D01*
X1026842Y178132D01*
X1026817Y178036D01*
X1026788Y177940D01*
X1026755Y177846D01*
X1026719Y177753D01*
X1026679Y177662D01*
X1026635Y177572D01*
X1026588Y177484D01*
X1026538Y177398D01*
X1026484Y177314D01*
X1026427Y177232D01*
X1026367Y177153D01*
X1026303Y177075D01*
X1026237Y177001D01*
X1026168Y176929D01*
X1026096Y176860D01*
X1026022Y176794D01*
X1025944Y176730D01*
X1025865Y176670D01*
X1025783Y176613D01*
X1025699Y176559D01*
X1025613Y176509D01*
X1025525Y176462D01*
X1025435Y176418D01*
X1025344Y176378D01*
X1025251Y176342D01*
X1025157Y176309D01*
X1025061Y176280D01*
X1024965Y176255D01*
X1024868Y176234D01*
X1024769Y176216D01*
X1024671Y176203D01*
X1024571Y176193D01*
X1024472Y176187D01*
X1024372Y176185D01*
X1021832Y176185D01*
D14*
X891900Y462800D02*
X891900Y488200D01*
X869040Y488200D01*
X866500Y485660D01*
X863960Y488200D01*
X843640Y488200D01*
X841100Y485660D01*
X838560Y488200D01*
X818240Y488200D01*
X815700Y485660D01*
X813160Y488200D01*
X792840Y488200D01*
X790300Y485660D01*
X787760Y488200D01*
X790300Y465340D02*
X787760Y462800D01*
X790300Y465340D02*
X792840Y462800D01*
X813160Y462800D01*
X815700Y465340D01*
X818240Y462800D01*
X838560Y462800D01*
X841100Y465340D01*
X843640Y462800D01*
X863960Y462800D01*
X866500Y465340D01*
X869040Y462800D01*
X891900Y462800D01*
X787760Y488200D02*
X767440Y488200D01*
X764900Y485660D01*
X762360Y488200D01*
X742040Y488200D01*
X739500Y485660D01*
X736960Y488200D01*
X739500Y465340D02*
X736960Y462800D01*
X739500Y465340D02*
X742040Y462800D01*
X762360Y462800D01*
X764900Y465340D01*
X767440Y462800D01*
X787760Y462800D01*
X716640Y462800D02*
X714100Y465340D01*
X711560Y462800D01*
X716640Y462800D02*
X736960Y462800D01*
X714100Y485660D02*
X711560Y488200D01*
X714100Y485660D02*
X716640Y488200D01*
X736960Y488200D01*
X665840Y488200D02*
X663300Y485660D01*
X660760Y488200D01*
X640440Y488200D01*
X637900Y485660D01*
X635360Y488200D01*
X615040Y488200D01*
X612500Y485660D01*
X609960Y488200D01*
X589640Y488200D01*
X587100Y485660D01*
X584560Y488200D01*
X587100Y465340D02*
X584560Y462800D01*
X587100Y465340D02*
X589640Y462800D01*
X609960Y462800D01*
X612500Y465340D01*
X615040Y462800D01*
X635360Y462800D01*
X637900Y465340D01*
X640440Y462800D01*
X660760Y462800D01*
X663300Y465340D01*
X665840Y462800D01*
X584560Y488200D02*
X564240Y488200D01*
X561700Y485660D01*
X559160Y488200D01*
X538840Y488200D01*
X536300Y485660D01*
X533760Y488200D01*
X536300Y465340D02*
X533760Y462800D01*
X536300Y465340D02*
X538840Y462800D01*
X559160Y462800D01*
X561700Y465340D01*
X564240Y462800D01*
X584560Y462800D01*
X508360Y488200D02*
X488040Y488200D01*
X510900Y465340D02*
X513440Y462800D01*
X510900Y465340D02*
X508360Y462800D01*
X513440Y462800D02*
X533760Y462800D01*
X510900Y485660D02*
X508360Y488200D01*
X510900Y485660D02*
X513440Y488200D01*
X533760Y488200D01*
X462640Y488200D02*
X460100Y485660D01*
X457560Y488200D01*
X437240Y488200D01*
X434700Y485660D01*
X432160Y488200D01*
X411840Y488200D01*
X409300Y485660D01*
X406760Y488200D01*
X409300Y465340D02*
X406760Y462800D01*
X409300Y465340D02*
X411840Y462800D01*
X432160Y462800D01*
X434700Y465340D01*
X437240Y462800D01*
X457560Y462800D01*
X460100Y465340D01*
X462640Y462800D01*
X383900Y462800D02*
X383900Y488200D01*
X406760Y488200D01*
X406760Y462800D02*
X383900Y462800D01*
X485500Y485660D02*
X488040Y488200D01*
X485500Y485660D02*
X482960Y488200D01*
X485500Y465340D02*
X488040Y462800D01*
X485500Y465340D02*
X482960Y462800D01*
X462640Y462800D01*
X462640Y488200D02*
X482960Y488200D01*
X488040Y462800D02*
X508360Y462800D01*
X691240Y462800D02*
X711560Y462800D01*
X711560Y488200D02*
X691240Y488200D01*
X686160Y488200D02*
X665840Y488200D01*
X686160Y488200D02*
X688700Y485660D01*
X691240Y488200D01*
X688700Y465340D02*
X691240Y462800D01*
X688700Y465340D02*
X686160Y462800D01*
X665840Y462800D01*
D13*
X903098Y478100D02*
X903098Y486355D01*
X903098Y478100D02*
X903100Y477989D01*
X903106Y477879D01*
X903115Y477768D01*
X903129Y477658D01*
X903146Y477549D01*
X903167Y477440D01*
X903192Y477332D01*
X903221Y477225D01*
X903253Y477119D01*
X903289Y477014D01*
X903329Y476911D01*
X903372Y476809D01*
X903419Y476708D01*
X903470Y476609D01*
X903523Y476513D01*
X903580Y476418D01*
X903641Y476325D01*
X903704Y476234D01*
X903771Y476145D01*
X903841Y476059D01*
X903914Y475976D01*
X903989Y475894D01*
X904067Y475816D01*
X904149Y475741D01*
X904232Y475668D01*
X904318Y475598D01*
X904407Y475531D01*
X904498Y475468D01*
X904591Y475407D01*
X904686Y475350D01*
X904782Y475297D01*
X904881Y475246D01*
X904982Y475199D01*
X905084Y475156D01*
X905187Y475116D01*
X905292Y475080D01*
X905398Y475048D01*
X905505Y475019D01*
X905613Y474994D01*
X905722Y474973D01*
X905831Y474956D01*
X905941Y474942D01*
X906052Y474933D01*
X906162Y474927D01*
X906273Y474925D01*
X906384Y474927D01*
X906494Y474933D01*
X906605Y474942D01*
X906715Y474956D01*
X906824Y474973D01*
X906933Y474994D01*
X907041Y475019D01*
X907148Y475048D01*
X907254Y475080D01*
X907359Y475116D01*
X907462Y475156D01*
X907564Y475199D01*
X907665Y475246D01*
X907764Y475297D01*
X907861Y475350D01*
X907955Y475407D01*
X908048Y475468D01*
X908139Y475531D01*
X908228Y475598D01*
X908314Y475668D01*
X908397Y475741D01*
X908479Y475816D01*
X908557Y475894D01*
X908632Y475976D01*
X908705Y476059D01*
X908775Y476145D01*
X908842Y476234D01*
X908905Y476325D01*
X908966Y476418D01*
X909023Y476512D01*
X909076Y476609D01*
X909127Y476708D01*
X909174Y476809D01*
X909217Y476911D01*
X909257Y477014D01*
X909293Y477119D01*
X909325Y477225D01*
X909354Y477332D01*
X909379Y477440D01*
X909400Y477549D01*
X909417Y477658D01*
X909431Y477768D01*
X909440Y477879D01*
X909446Y477989D01*
X909448Y478100D01*
X909448Y486355D01*
X917322Y486355D02*
X917322Y474925D01*
X917322Y480640D02*
X915735Y481593D01*
X915734Y481592D02*
X915661Y481639D01*
X915590Y481688D01*
X915521Y481741D01*
X915455Y481797D01*
X915391Y481856D01*
X915330Y481917D01*
X915272Y481981D01*
X915217Y482048D01*
X915165Y482118D01*
X915117Y482189D01*
X915071Y482263D01*
X915029Y482339D01*
X914991Y482417D01*
X914956Y482496D01*
X914925Y482577D01*
X914898Y482659D01*
X914874Y482742D01*
X914854Y482827D01*
X914838Y482912D01*
X914826Y482998D01*
X914818Y483084D01*
X914814Y483170D01*
X914813Y483257D01*
X914817Y483344D01*
X914825Y483430D01*
X914836Y483516D01*
X914852Y483601D01*
X914871Y483685D01*
X914894Y483769D01*
X914921Y483851D01*
X914952Y483932D01*
X914987Y484012D01*
X915024Y484089D01*
X915066Y484165D01*
X915111Y484240D01*
X915159Y484311D01*
X915211Y484381D01*
X915265Y484448D01*
X915323Y484513D01*
X915383Y484575D01*
X915447Y484634D01*
X915513Y484690D01*
X915581Y484744D01*
X915652Y484793D01*
X915725Y484840D01*
X915800Y484883D01*
X915877Y484923D01*
X915955Y484959D01*
X916036Y484992D01*
X916117Y485021D01*
X916200Y485046D01*
X916284Y485068D01*
X916369Y485085D01*
X916370Y485085D02*
X916507Y485108D01*
X916646Y485128D01*
X916784Y485143D01*
X916923Y485155D01*
X917063Y485163D01*
X917202Y485166D01*
X917342Y485167D01*
X917481Y485163D01*
X917620Y485155D01*
X917759Y485144D01*
X917898Y485128D01*
X918036Y485109D01*
X918174Y485086D01*
X918311Y485059D01*
X918447Y485028D01*
X918582Y484994D01*
X918716Y484956D01*
X918850Y484914D01*
X918981Y484868D01*
X919112Y484819D01*
X919241Y484766D01*
X919369Y484710D01*
X919495Y484650D01*
X919619Y484587D01*
X919742Y484520D01*
X919862Y484450D01*
X917322Y480640D02*
X918910Y479688D01*
X918983Y479641D01*
X919054Y479592D01*
X919123Y479539D01*
X919189Y479483D01*
X919253Y479424D01*
X919314Y479363D01*
X919372Y479299D01*
X919427Y479232D01*
X919479Y479162D01*
X919527Y479091D01*
X919573Y479017D01*
X919615Y478941D01*
X919653Y478863D01*
X919688Y478784D01*
X919719Y478703D01*
X919746Y478621D01*
X919770Y478538D01*
X919790Y478453D01*
X919806Y478368D01*
X919818Y478282D01*
X919826Y478196D01*
X919830Y478110D01*
X919831Y478023D01*
X919827Y477936D01*
X919819Y477850D01*
X919808Y477764D01*
X919792Y477679D01*
X919773Y477595D01*
X919750Y477511D01*
X919723Y477429D01*
X919692Y477348D01*
X919657Y477268D01*
X919620Y477191D01*
X919578Y477115D01*
X919533Y477040D01*
X919485Y476969D01*
X919433Y476899D01*
X919379Y476832D01*
X919321Y476767D01*
X919261Y476705D01*
X919197Y476646D01*
X919131Y476590D01*
X919063Y476536D01*
X918992Y476487D01*
X918919Y476440D01*
X918844Y476397D01*
X918767Y476357D01*
X918689Y476321D01*
X918608Y476288D01*
X918527Y476259D01*
X918444Y476234D01*
X918360Y476212D01*
X918275Y476195D01*
X918274Y476195D02*
X918137Y476172D01*
X917998Y476152D01*
X917860Y476137D01*
X917721Y476125D01*
X917581Y476117D01*
X917442Y476114D01*
X917302Y476113D01*
X917163Y476117D01*
X917024Y476125D01*
X916885Y476136D01*
X916746Y476152D01*
X916608Y476171D01*
X916470Y476194D01*
X916333Y476221D01*
X916197Y476252D01*
X916062Y476286D01*
X915928Y476324D01*
X915794Y476366D01*
X915663Y476412D01*
X915532Y476461D01*
X915403Y476514D01*
X915275Y476570D01*
X915149Y476630D01*
X915025Y476693D01*
X914902Y476760D01*
X914782Y476830D01*
X924815Y477465D02*
X927355Y486355D01*
X924815Y477465D02*
X931165Y477465D01*
X929260Y480005D02*
X929260Y474925D01*
D14*
X385900Y452000D02*
X385900Y426600D01*
X408760Y426600D01*
X411300Y429140D01*
X413840Y426600D01*
X434160Y426600D01*
X436700Y429140D01*
X439240Y426600D01*
X459560Y426600D01*
X462100Y429140D01*
X464640Y426600D01*
X484960Y426600D01*
X487500Y429140D01*
X490040Y426600D01*
X487500Y449460D02*
X490040Y452000D01*
X487500Y449460D02*
X484960Y452000D01*
X464640Y452000D01*
X462100Y449460D01*
X459560Y452000D01*
X439240Y452000D01*
X436700Y449460D01*
X434160Y452000D01*
X413840Y452000D01*
X411300Y449460D01*
X408760Y452000D01*
X385900Y452000D01*
X490040Y426600D02*
X510360Y426600D01*
X512900Y429140D01*
X515440Y426600D01*
X535760Y426600D01*
X538300Y429140D01*
X540840Y426600D01*
X538300Y449460D02*
X540840Y452000D01*
X538300Y449460D02*
X535760Y452000D01*
X515440Y452000D01*
X512900Y449460D01*
X510360Y452000D01*
X490040Y452000D01*
X561160Y452000D02*
X563700Y449460D01*
X566240Y452000D01*
X561160Y452000D02*
X540840Y452000D01*
X563700Y429140D02*
X566240Y426600D01*
X563700Y429140D02*
X561160Y426600D01*
X540840Y426600D01*
X611960Y426600D02*
X614500Y429140D01*
X617040Y426600D01*
X637360Y426600D01*
X639900Y429140D01*
X642440Y426600D01*
X662760Y426600D01*
X665300Y429140D01*
X667840Y426600D01*
X688160Y426600D01*
X690700Y429140D01*
X693240Y426600D01*
X690700Y449460D02*
X693240Y452000D01*
X690700Y449460D02*
X688160Y452000D01*
X667840Y452000D01*
X665300Y449460D01*
X662760Y452000D01*
X642440Y452000D01*
X639900Y449460D01*
X637360Y452000D01*
X617040Y452000D01*
X614500Y449460D01*
X611960Y452000D01*
X693240Y426600D02*
X713560Y426600D01*
X716100Y429140D01*
X718640Y426600D01*
X738960Y426600D01*
X741500Y429140D01*
X744040Y426600D01*
X741500Y449460D02*
X744040Y452000D01*
X741500Y449460D02*
X738960Y452000D01*
X718640Y452000D01*
X716100Y449460D01*
X713560Y452000D01*
X693240Y452000D01*
X769440Y426600D02*
X789760Y426600D01*
X766900Y449460D02*
X764360Y452000D01*
X766900Y449460D02*
X769440Y452000D01*
X764360Y452000D02*
X744040Y452000D01*
X766900Y429140D02*
X769440Y426600D01*
X766900Y429140D02*
X764360Y426600D01*
X744040Y426600D01*
X815160Y426600D02*
X817700Y429140D01*
X820240Y426600D01*
X840560Y426600D01*
X843100Y429140D01*
X845640Y426600D01*
X865960Y426600D01*
X868500Y429140D01*
X871040Y426600D01*
X868500Y449460D02*
X871040Y452000D01*
X868500Y449460D02*
X865960Y452000D01*
X845640Y452000D01*
X843100Y449460D01*
X840560Y452000D01*
X820240Y452000D01*
X817700Y449460D01*
X815160Y452000D01*
X893900Y452000D02*
X893900Y426600D01*
X871040Y426600D01*
X871040Y452000D02*
X893900Y452000D01*
X792300Y429140D02*
X789760Y426600D01*
X792300Y429140D02*
X794840Y426600D01*
X792300Y449460D02*
X789760Y452000D01*
X792300Y449460D02*
X794840Y452000D01*
X815160Y452000D01*
X815160Y426600D02*
X794840Y426600D01*
X789760Y452000D02*
X769440Y452000D01*
X586560Y452000D02*
X566240Y452000D01*
X566240Y426600D02*
X586560Y426600D01*
X591640Y426600D02*
X611960Y426600D01*
X591640Y426600D02*
X589100Y429140D01*
X586560Y426600D01*
X589100Y449460D02*
X586560Y452000D01*
X589100Y449460D02*
X591640Y452000D01*
X611960Y452000D01*
D13*
X903635Y451875D02*
X903635Y443620D01*
X903637Y443509D01*
X903643Y443399D01*
X903652Y443288D01*
X903666Y443178D01*
X903683Y443069D01*
X903704Y442960D01*
X903729Y442852D01*
X903758Y442745D01*
X903790Y442639D01*
X903826Y442534D01*
X903866Y442431D01*
X903909Y442329D01*
X903956Y442228D01*
X904007Y442129D01*
X904060Y442033D01*
X904117Y441938D01*
X904178Y441845D01*
X904241Y441754D01*
X904308Y441665D01*
X904378Y441579D01*
X904451Y441496D01*
X904526Y441414D01*
X904604Y441336D01*
X904686Y441261D01*
X904769Y441188D01*
X904855Y441118D01*
X904944Y441051D01*
X905035Y440988D01*
X905128Y440927D01*
X905223Y440870D01*
X905319Y440817D01*
X905418Y440766D01*
X905519Y440719D01*
X905621Y440676D01*
X905724Y440636D01*
X905829Y440600D01*
X905935Y440568D01*
X906042Y440539D01*
X906150Y440514D01*
X906259Y440493D01*
X906368Y440476D01*
X906478Y440462D01*
X906589Y440453D01*
X906699Y440447D01*
X906810Y440445D01*
X906921Y440447D01*
X907031Y440453D01*
X907142Y440462D01*
X907252Y440476D01*
X907361Y440493D01*
X907470Y440514D01*
X907578Y440539D01*
X907685Y440568D01*
X907791Y440600D01*
X907896Y440636D01*
X907999Y440676D01*
X908101Y440719D01*
X908202Y440766D01*
X908301Y440817D01*
X908398Y440870D01*
X908492Y440927D01*
X908585Y440988D01*
X908676Y441051D01*
X908765Y441118D01*
X908851Y441188D01*
X908934Y441261D01*
X909016Y441336D01*
X909094Y441414D01*
X909169Y441496D01*
X909242Y441579D01*
X909312Y441665D01*
X909379Y441754D01*
X909442Y441845D01*
X909503Y441938D01*
X909560Y442032D01*
X909613Y442129D01*
X909664Y442228D01*
X909711Y442329D01*
X909754Y442431D01*
X909794Y442534D01*
X909830Y442639D01*
X909862Y442745D01*
X909891Y442852D01*
X909916Y442960D01*
X909937Y443069D01*
X909954Y443178D01*
X909968Y443288D01*
X909977Y443399D01*
X909983Y443509D01*
X909985Y443620D01*
X909985Y451875D01*
X917859Y451875D02*
X917859Y440445D01*
X917859Y446160D02*
X916272Y447113D01*
X916271Y447112D02*
X916198Y447159D01*
X916127Y447208D01*
X916058Y447261D01*
X915992Y447317D01*
X915928Y447376D01*
X915867Y447437D01*
X915809Y447501D01*
X915754Y447568D01*
X915702Y447638D01*
X915654Y447709D01*
X915608Y447783D01*
X915566Y447859D01*
X915528Y447937D01*
X915493Y448016D01*
X915462Y448097D01*
X915435Y448179D01*
X915411Y448262D01*
X915391Y448347D01*
X915375Y448432D01*
X915363Y448518D01*
X915355Y448604D01*
X915351Y448690D01*
X915350Y448777D01*
X915354Y448864D01*
X915362Y448950D01*
X915373Y449036D01*
X915389Y449121D01*
X915408Y449205D01*
X915431Y449289D01*
X915458Y449371D01*
X915489Y449452D01*
X915524Y449532D01*
X915561Y449609D01*
X915603Y449685D01*
X915648Y449760D01*
X915696Y449831D01*
X915748Y449901D01*
X915802Y449968D01*
X915860Y450033D01*
X915920Y450095D01*
X915984Y450154D01*
X916050Y450210D01*
X916118Y450264D01*
X916189Y450313D01*
X916262Y450360D01*
X916337Y450403D01*
X916414Y450443D01*
X916492Y450479D01*
X916573Y450512D01*
X916654Y450541D01*
X916737Y450566D01*
X916821Y450588D01*
X916906Y450605D01*
X916907Y450605D02*
X917044Y450628D01*
X917183Y450648D01*
X917321Y450663D01*
X917460Y450675D01*
X917600Y450683D01*
X917739Y450686D01*
X917879Y450687D01*
X918018Y450683D01*
X918157Y450675D01*
X918296Y450664D01*
X918435Y450648D01*
X918573Y450629D01*
X918711Y450606D01*
X918848Y450579D01*
X918984Y450548D01*
X919119Y450514D01*
X919253Y450476D01*
X919387Y450434D01*
X919518Y450388D01*
X919649Y450339D01*
X919778Y450286D01*
X919906Y450230D01*
X920032Y450170D01*
X920156Y450107D01*
X920279Y450040D01*
X920399Y449970D01*
X917859Y446160D02*
X919447Y445208D01*
X919520Y445161D01*
X919591Y445112D01*
X919660Y445059D01*
X919726Y445003D01*
X919790Y444944D01*
X919851Y444883D01*
X919909Y444819D01*
X919964Y444752D01*
X920016Y444682D01*
X920064Y444611D01*
X920110Y444537D01*
X920152Y444461D01*
X920190Y444383D01*
X920225Y444304D01*
X920256Y444223D01*
X920283Y444141D01*
X920307Y444058D01*
X920327Y443973D01*
X920343Y443888D01*
X920355Y443802D01*
X920363Y443716D01*
X920367Y443630D01*
X920368Y443543D01*
X920364Y443456D01*
X920356Y443370D01*
X920345Y443284D01*
X920329Y443199D01*
X920310Y443115D01*
X920287Y443031D01*
X920260Y442949D01*
X920229Y442868D01*
X920194Y442788D01*
X920157Y442711D01*
X920115Y442635D01*
X920070Y442560D01*
X920022Y442489D01*
X919970Y442419D01*
X919916Y442352D01*
X919858Y442287D01*
X919798Y442225D01*
X919734Y442166D01*
X919668Y442110D01*
X919600Y442056D01*
X919529Y442007D01*
X919456Y441960D01*
X919381Y441917D01*
X919304Y441877D01*
X919226Y441841D01*
X919145Y441808D01*
X919064Y441779D01*
X918981Y441754D01*
X918897Y441732D01*
X918812Y441715D01*
X918811Y441715D02*
X918674Y441692D01*
X918535Y441672D01*
X918397Y441657D01*
X918258Y441645D01*
X918118Y441637D01*
X917979Y441634D01*
X917839Y441633D01*
X917700Y441637D01*
X917561Y441645D01*
X917422Y441656D01*
X917283Y441672D01*
X917145Y441691D01*
X917007Y441714D01*
X916870Y441741D01*
X916734Y441772D01*
X916599Y441806D01*
X916465Y441844D01*
X916331Y441886D01*
X916200Y441932D01*
X916069Y441981D01*
X915940Y442034D01*
X915812Y442090D01*
X915686Y442150D01*
X915562Y442213D01*
X915439Y442280D01*
X915319Y442350D01*
X925352Y440445D02*
X929162Y440445D01*
X929262Y440447D01*
X929361Y440453D01*
X929461Y440463D01*
X929559Y440476D01*
X929658Y440494D01*
X929755Y440515D01*
X929851Y440540D01*
X929947Y440569D01*
X930041Y440602D01*
X930134Y440638D01*
X930225Y440678D01*
X930315Y440722D01*
X930403Y440769D01*
X930489Y440819D01*
X930573Y440873D01*
X930655Y440930D01*
X930734Y440990D01*
X930812Y441054D01*
X930886Y441120D01*
X930958Y441189D01*
X931027Y441261D01*
X931093Y441335D01*
X931157Y441413D01*
X931217Y441492D01*
X931274Y441574D01*
X931328Y441658D01*
X931378Y441744D01*
X931425Y441832D01*
X931469Y441922D01*
X931509Y442013D01*
X931545Y442106D01*
X931578Y442200D01*
X931607Y442296D01*
X931632Y442392D01*
X931653Y442489D01*
X931671Y442588D01*
X931684Y442686D01*
X931694Y442786D01*
X931700Y442885D01*
X931702Y442985D01*
X931702Y444255D01*
X931700Y444355D01*
X931694Y444454D01*
X931684Y444554D01*
X931671Y444652D01*
X931653Y444751D01*
X931632Y444848D01*
X931607Y444944D01*
X931578Y445040D01*
X931545Y445134D01*
X931509Y445227D01*
X931469Y445318D01*
X931425Y445408D01*
X931378Y445496D01*
X931328Y445582D01*
X931274Y445666D01*
X931217Y445748D01*
X931157Y445827D01*
X931093Y445905D01*
X931027Y445979D01*
X930958Y446051D01*
X930886Y446120D01*
X930812Y446186D01*
X930734Y446250D01*
X930655Y446310D01*
X930573Y446367D01*
X930489Y446421D01*
X930403Y446471D01*
X930315Y446518D01*
X930225Y446562D01*
X930134Y446602D01*
X930041Y446638D01*
X929947Y446671D01*
X929851Y446700D01*
X929755Y446725D01*
X929658Y446746D01*
X929559Y446764D01*
X929461Y446777D01*
X929361Y446787D01*
X929262Y446793D01*
X929162Y446795D01*
X925352Y446795D01*
X925352Y451875D01*
X931702Y451875D01*
D14*
X258860Y70090D02*
X238540Y70090D01*
X238540Y103110D02*
X258860Y103110D01*
D11*
X232155Y105340D02*
X232155Y109319D01*
X232155Y105340D02*
X234476Y102355D01*
X232155Y105340D02*
X229833Y102355D01*
X232155Y105340D02*
X235802Y106666D01*
X232155Y105340D02*
X228507Y106666D01*
X239315Y63569D02*
X239315Y54947D01*
X239317Y54833D01*
X239323Y54718D01*
X239333Y54604D01*
X239347Y54491D01*
X239364Y54377D01*
X239386Y54265D01*
X239411Y54153D01*
X239441Y54043D01*
X239474Y53933D01*
X239511Y53825D01*
X239551Y53718D01*
X239596Y53612D01*
X239643Y53508D01*
X239695Y53406D01*
X239750Y53306D01*
X239808Y53207D01*
X239870Y53111D01*
X239935Y53016D01*
X240003Y52925D01*
X240075Y52835D01*
X240149Y52748D01*
X240226Y52664D01*
X240307Y52582D01*
X240390Y52503D01*
X240475Y52427D01*
X240564Y52354D01*
X240654Y52285D01*
X240747Y52218D01*
X240843Y52155D01*
X240940Y52095D01*
X241040Y52038D01*
X241141Y51985D01*
X241244Y51935D01*
X241349Y51889D01*
X241455Y51846D01*
X241563Y51808D01*
X241672Y51773D01*
X241782Y51742D01*
X241893Y51714D01*
X242005Y51691D01*
X242118Y51671D01*
X242231Y51655D01*
X242345Y51643D01*
X242459Y51635D01*
X242574Y51631D01*
X242688Y51631D01*
X242803Y51635D01*
X242917Y51643D01*
X243031Y51655D01*
X243144Y51671D01*
X243257Y51691D01*
X243369Y51714D01*
X243480Y51742D01*
X243590Y51773D01*
X243699Y51808D01*
X243807Y51846D01*
X243913Y51889D01*
X244018Y51935D01*
X244121Y51985D01*
X244222Y52038D01*
X244322Y52095D01*
X244419Y52155D01*
X244515Y52218D01*
X244608Y52285D01*
X244698Y52354D01*
X244787Y52427D01*
X244872Y52503D01*
X244955Y52582D01*
X245036Y52664D01*
X245113Y52748D01*
X245187Y52835D01*
X245259Y52925D01*
X245327Y53016D01*
X245392Y53111D01*
X245454Y53207D01*
X245512Y53306D01*
X245567Y53406D01*
X245619Y53508D01*
X245666Y53612D01*
X245711Y53718D01*
X245751Y53825D01*
X245788Y53933D01*
X245821Y54043D01*
X245851Y54153D01*
X245876Y54265D01*
X245898Y54377D01*
X245915Y54491D01*
X245929Y54604D01*
X245939Y54718D01*
X245945Y54833D01*
X245947Y54947D01*
X245947Y63569D01*
X251126Y60916D02*
X254442Y63569D01*
X254442Y51631D01*
X251126Y51631D02*
X257758Y51631D01*
D14*
X260960Y344990D02*
X240640Y344990D01*
X240640Y378010D02*
X260960Y378010D01*
D11*
X234255Y380240D02*
X234255Y384219D01*
X234255Y380240D02*
X236576Y377255D01*
X234255Y380240D02*
X231933Y377255D01*
X234255Y380240D02*
X237902Y381566D01*
X234255Y380240D02*
X230607Y381566D01*
X241415Y339469D02*
X241415Y330847D01*
X241417Y330733D01*
X241423Y330618D01*
X241433Y330504D01*
X241447Y330391D01*
X241464Y330277D01*
X241486Y330165D01*
X241511Y330053D01*
X241541Y329943D01*
X241574Y329833D01*
X241611Y329725D01*
X241651Y329618D01*
X241696Y329512D01*
X241743Y329408D01*
X241795Y329306D01*
X241850Y329206D01*
X241908Y329107D01*
X241970Y329011D01*
X242035Y328916D01*
X242103Y328825D01*
X242175Y328735D01*
X242249Y328648D01*
X242326Y328564D01*
X242407Y328482D01*
X242490Y328403D01*
X242575Y328327D01*
X242664Y328254D01*
X242754Y328185D01*
X242847Y328118D01*
X242943Y328055D01*
X243040Y327995D01*
X243140Y327938D01*
X243241Y327885D01*
X243344Y327835D01*
X243449Y327789D01*
X243555Y327746D01*
X243663Y327708D01*
X243772Y327673D01*
X243882Y327642D01*
X243993Y327614D01*
X244105Y327591D01*
X244218Y327571D01*
X244331Y327555D01*
X244445Y327543D01*
X244559Y327535D01*
X244674Y327531D01*
X244788Y327531D01*
X244903Y327535D01*
X245017Y327543D01*
X245131Y327555D01*
X245244Y327571D01*
X245357Y327591D01*
X245469Y327614D01*
X245580Y327642D01*
X245690Y327673D01*
X245799Y327708D01*
X245907Y327746D01*
X246013Y327789D01*
X246118Y327835D01*
X246221Y327885D01*
X246322Y327938D01*
X246422Y327995D01*
X246519Y328055D01*
X246615Y328118D01*
X246708Y328185D01*
X246798Y328254D01*
X246887Y328327D01*
X246972Y328403D01*
X247055Y328482D01*
X247136Y328564D01*
X247213Y328648D01*
X247287Y328735D01*
X247359Y328825D01*
X247427Y328916D01*
X247492Y329011D01*
X247554Y329107D01*
X247612Y329206D01*
X247667Y329306D01*
X247719Y329408D01*
X247766Y329512D01*
X247811Y329618D01*
X247851Y329725D01*
X247888Y329833D01*
X247921Y329943D01*
X247951Y330053D01*
X247976Y330165D01*
X247998Y330277D01*
X248015Y330391D01*
X248029Y330504D01*
X248039Y330618D01*
X248045Y330733D01*
X248047Y330847D01*
X248047Y339469D01*
X256874Y339470D02*
X256981Y339468D01*
X257087Y339462D01*
X257193Y339453D01*
X257299Y339440D01*
X257404Y339423D01*
X257509Y339402D01*
X257612Y339377D01*
X257715Y339349D01*
X257817Y339317D01*
X257917Y339282D01*
X258016Y339243D01*
X258114Y339200D01*
X258210Y339154D01*
X258305Y339105D01*
X258397Y339052D01*
X258488Y338996D01*
X258576Y338937D01*
X258663Y338875D01*
X258747Y338809D01*
X258829Y338741D01*
X258908Y338670D01*
X258985Y338596D01*
X259059Y338519D01*
X259130Y338440D01*
X259198Y338358D01*
X259264Y338274D01*
X259326Y338187D01*
X259385Y338099D01*
X259441Y338008D01*
X259494Y337916D01*
X259543Y337821D01*
X259589Y337725D01*
X259632Y337627D01*
X259671Y337528D01*
X259706Y337428D01*
X259738Y337326D01*
X259766Y337223D01*
X259791Y337120D01*
X259812Y337015D01*
X259829Y336910D01*
X259842Y336804D01*
X259851Y336698D01*
X259857Y336592D01*
X259859Y336485D01*
X256874Y339469D02*
X256753Y339467D01*
X256633Y339461D01*
X256513Y339452D01*
X256393Y339439D01*
X256274Y339422D01*
X256155Y339401D01*
X256037Y339377D01*
X255920Y339348D01*
X255804Y339317D01*
X255688Y339281D01*
X255574Y339242D01*
X255462Y339199D01*
X255350Y339153D01*
X255240Y339104D01*
X255132Y339050D01*
X255026Y338994D01*
X254921Y338934D01*
X254818Y338871D01*
X254718Y338805D01*
X254619Y338736D01*
X254523Y338663D01*
X254429Y338588D01*
X254337Y338510D01*
X254248Y338428D01*
X254161Y338344D01*
X254078Y338258D01*
X253996Y338169D01*
X253918Y338077D01*
X253843Y337983D01*
X253771Y337886D01*
X253701Y337788D01*
X253635Y337687D01*
X253572Y337584D01*
X253513Y337479D01*
X253456Y337373D01*
X253403Y337264D01*
X253354Y337155D01*
X253308Y337043D01*
X253265Y336930D01*
X253227Y336816D01*
X258864Y334163D02*
X258944Y334243D01*
X259022Y334325D01*
X259096Y334409D01*
X259168Y334497D01*
X259236Y334587D01*
X259302Y334679D01*
X259364Y334773D01*
X259422Y334869D01*
X259477Y334968D01*
X259529Y335068D01*
X259577Y335170D01*
X259622Y335274D01*
X259662Y335379D01*
X259699Y335486D01*
X259733Y335594D01*
X259762Y335703D01*
X259788Y335813D01*
X259809Y335924D01*
X259827Y336035D01*
X259841Y336147D01*
X259851Y336259D01*
X259857Y336372D01*
X259859Y336485D01*
X258863Y334163D02*
X253226Y327531D01*
X259858Y327531D01*
M02*
