G04 EAGLE Gerber RS-274X export*
G75*
%MOMM*%
%FSLAX34Y34*%
%LPD*%
%INSoldermask Top*%
%IPPOS*%
%AMOC8*
5,1,8,0,0,1.08239X$1,22.5*%
G01*
%ADD10C,3.300000*%
%ADD11R,1.100000X1.000000*%
%ADD12R,2.700000X1.600000*%
%ADD13R,2.600000X1.400000*%
%ADD14C,1.500000*%
%ADD15R,3.400000X2.400000*%
%ADD16R,0.870000X0.980000*%
%ADD17R,1.400000X1.020000*%
%ADD18C,1.371600*%
%ADD19P,1.484606X8X22.500000*%
%ADD20P,1.649562X8X112.500000*%
%ADD21C,1.219200*%
%ADD22R,1.320800X0.558800*%


D10*
X48000Y48000D03*
X48000Y452000D03*
X992000Y48000D03*
X992000Y452000D03*
D11*
X275700Y121600D03*
X258700Y121600D03*
X270500Y395400D03*
X253500Y395400D03*
D12*
X188800Y99300D03*
X188800Y71300D03*
X186100Y373100D03*
X186100Y345100D03*
D13*
X169000Y218000D03*
X128000Y218000D03*
X198200Y452000D03*
X157200Y452000D03*
D14*
X397100Y32300D03*
X447100Y57000D03*
D15*
X109500Y90000D03*
X109500Y172000D03*
X104800Y328000D03*
X104800Y410000D03*
D16*
X282450Y176600D03*
X298750Y176600D03*
X277450Y430400D03*
X293750Y430400D03*
D17*
X298600Y204200D03*
X298600Y223000D03*
X291500Y452300D03*
X291500Y471100D03*
D18*
X398600Y388000D03*
D19*
X398600Y362600D03*
X424000Y388000D03*
X424000Y362600D03*
X449400Y388000D03*
X449400Y362600D03*
X474800Y388000D03*
X474800Y362600D03*
X500200Y388000D03*
X500200Y362600D03*
X525600Y388000D03*
X525600Y362600D03*
X551000Y388000D03*
X551000Y362600D03*
X576400Y388000D03*
X576400Y362600D03*
X601800Y388000D03*
X601800Y362600D03*
X627200Y388000D03*
X627200Y362600D03*
X652600Y388000D03*
X652600Y362600D03*
X678000Y388000D03*
X678000Y362600D03*
X703400Y388000D03*
X703400Y362600D03*
X728800Y388000D03*
X728800Y362600D03*
X754200Y388000D03*
X754200Y362600D03*
X779600Y388000D03*
X779600Y362600D03*
X805000Y388000D03*
X805000Y362600D03*
X830400Y388000D03*
X830400Y362600D03*
X855800Y388000D03*
X855800Y362600D03*
X881200Y388000D03*
X881200Y362600D03*
D20*
X43700Y211900D03*
X43700Y237300D03*
X43700Y262700D03*
X43700Y288100D03*
X18300Y211900D03*
X18300Y237300D03*
X18300Y262700D03*
X18300Y288100D03*
X996300Y211900D03*
X996300Y237300D03*
X996300Y262700D03*
X996300Y288100D03*
X1021700Y211900D03*
X1021700Y237300D03*
X1021700Y262700D03*
X1021700Y288100D03*
D21*
X879200Y469404D02*
X879200Y481596D01*
X853800Y481596D02*
X853800Y469404D01*
X828400Y469404D02*
X828400Y481596D01*
X803000Y481596D02*
X803000Y469404D01*
X777600Y469404D02*
X777600Y481596D01*
X752200Y481596D02*
X752200Y469404D01*
X726800Y469404D02*
X726800Y481596D01*
X701400Y481596D02*
X701400Y469404D01*
X676000Y469404D02*
X676000Y481596D01*
X650600Y481596D02*
X650600Y469404D01*
X625200Y469404D02*
X625200Y481596D01*
X599800Y481596D02*
X599800Y469404D01*
X574400Y469404D02*
X574400Y481596D01*
X549000Y481596D02*
X549000Y469404D01*
X523600Y469404D02*
X523600Y481596D01*
X498200Y481596D02*
X498200Y469404D01*
X472800Y469404D02*
X472800Y481596D01*
X447400Y481596D02*
X447400Y469404D01*
X422000Y469404D02*
X422000Y481596D01*
X396600Y481596D02*
X396600Y469404D01*
X398600Y445396D02*
X398600Y433204D01*
X424000Y433204D02*
X424000Y445396D01*
X449400Y445396D02*
X449400Y433204D01*
X474800Y433204D02*
X474800Y445396D01*
X500200Y445396D02*
X500200Y433204D01*
X525600Y433204D02*
X525600Y445396D01*
X551000Y445396D02*
X551000Y433204D01*
X576400Y433204D02*
X576400Y445396D01*
X601800Y445396D02*
X601800Y433204D01*
X627200Y433204D02*
X627200Y445396D01*
X652600Y445396D02*
X652600Y433204D01*
X678000Y433204D02*
X678000Y445396D01*
X703400Y445396D02*
X703400Y433204D01*
X728800Y433204D02*
X728800Y445396D01*
X754200Y445396D02*
X754200Y433204D01*
X779600Y433204D02*
X779600Y445396D01*
X805000Y445396D02*
X805000Y433204D01*
X830400Y433204D02*
X830400Y445396D01*
X855800Y445396D02*
X855800Y433204D01*
X881200Y433204D02*
X881200Y445396D01*
D22*
X236508Y96100D03*
X236508Y86600D03*
X236508Y77100D03*
X260892Y77100D03*
X260892Y86600D03*
X260892Y96100D03*
X238608Y371000D03*
X238608Y361500D03*
X238608Y352000D03*
X262992Y352000D03*
X262992Y361500D03*
X262992Y371000D03*
M02*
